G04 Layer: TopSilkLayer*
G04 EasyEDA v6.4.7, 2020-11-14T21:45:58--5:00*
G04 4beb7541176d43e18d54f8e2082e3679,79d071017cc24593b82b416037a8e878,10*
G04 Gerber Generator version 0.2*
G04 Scale: 100 percent, Rotated: No, Reflected: No *
G04 Dimensions in millimeters *
G04 leading zeros omitted , absolute positions ,3 integer and 3 decimal *
%FSLAX33Y33*%
%MOMM*%
G90*
D02*


%LPD*%

%LPD*%
G36*
G01X40415Y32703D02*
G01X40384Y32709D01*
G01X40358Y32702D01*
G01X40334Y32685D01*
G01X40313Y32657D01*
G01X40293Y32618D01*
G01X40275Y32568D01*
G01X40265Y32536D01*
G01X40254Y32496D01*
G01X40243Y32450D01*
G01X40231Y32397D01*
G01X40218Y32338D01*
G01X40205Y32274D01*
G01X40191Y32206D01*
G01X40178Y32133D01*
G01X40164Y32057D01*
G01X40150Y31978D01*
G01X40136Y31896D01*
G01X40122Y31813D01*
G01X40109Y31728D01*
G01X40095Y31643D01*
G01X40083Y31557D01*
G01X40071Y31472D01*
G01X40046Y31304D01*
G01X40019Y31139D01*
G01X40005Y31057D01*
G01X39990Y30975D01*
G01X39974Y30894D01*
G01X39958Y30814D01*
G01X39942Y30735D01*
G01X39925Y30657D01*
G01X39891Y30505D01*
G01X39873Y30431D01*
G01X39856Y30358D01*
G01X39837Y30286D01*
G01X39819Y30217D01*
G01X39801Y30149D01*
G01X39782Y30083D01*
G01X39763Y30018D01*
G01X39744Y29956D01*
G01X39725Y29896D01*
G01X39706Y29838D01*
G01X39687Y29783D01*
G01X39668Y29729D01*
G01X39649Y29678D01*
G01X39630Y29631D01*
G01X39611Y29585D01*
G01X39593Y29542D01*
G01X39574Y29502D01*
G01X39556Y29466D01*
G01X39538Y29431D01*
G01X39520Y29401D01*
G01X39503Y29374D01*
G01X39486Y29349D01*
G01X39469Y29329D01*
G01X39452Y29312D01*
G01X39437Y29298D01*
G01X39421Y29288D01*
G01X39406Y29283D01*
G01X39391Y29281D01*
G01X39355Y29290D01*
G01X39314Y29317D01*
G01X39267Y29359D01*
G01X39219Y29415D01*
G01X39169Y29482D01*
G01X39119Y29560D01*
G01X39071Y29645D01*
G01X39026Y29737D01*
G01X38993Y29806D01*
G01X38961Y29868D01*
G01X38929Y29925D01*
G01X38897Y29977D01*
G01X38866Y30022D01*
G01X38835Y30062D01*
G01X38806Y30095D01*
G01X38776Y30123D01*
G01X38748Y30146D01*
G01X38721Y30162D01*
G01X38695Y30172D01*
G01X38670Y30177D01*
G01X38647Y30176D01*
G01X38625Y30169D01*
G01X38605Y30155D01*
G01X38586Y30137D01*
G01X38569Y30112D01*
G01X38555Y30081D01*
G01X38541Y30045D01*
G01X38531Y30002D01*
G01X38522Y29954D01*
G01X38516Y29899D01*
G01X38512Y29839D01*
G01X38511Y29773D01*
G01X38510Y29752D01*
G01X38509Y29728D01*
G01X38507Y29700D01*
G01X38503Y29670D01*
G01X38499Y29636D01*
G01X38495Y29600D01*
G01X38489Y29561D01*
G01X38483Y29518D01*
G01X38475Y29474D01*
G01X38467Y29426D01*
G01X38458Y29377D01*
G01X38448Y29325D01*
G01X38438Y29270D01*
G01X38428Y29214D01*
G01X38416Y29156D01*
G01X38404Y29095D01*
G01X38391Y29033D01*
G01X38378Y28969D01*
G01X38364Y28904D01*
G01X38334Y28768D01*
G01X38318Y28697D01*
G01X38303Y28626D01*
G01X38286Y28554D01*
G01X38269Y28480D01*
G01X38251Y28406D01*
G01X38234Y28330D01*
G01X38215Y28254D01*
G01X38178Y28100D01*
G01X38158Y28021D01*
G01X38139Y27943D01*
G01X38119Y27864D01*
G01X38098Y27785D01*
G01X38058Y27627D01*
G01X38033Y27532D01*
G01X38009Y27438D01*
G01X37963Y27254D01*
G01X37941Y27164D01*
G01X37920Y27075D01*
G01X37899Y26987D01*
G01X37880Y26900D01*
G01X37861Y26814D01*
G01X37842Y26730D01*
G01X37808Y26564D01*
G01X37792Y26483D01*
G01X37777Y26403D01*
G01X37763Y26324D01*
G01X37749Y26246D01*
G01X37736Y26169D01*
G01X37724Y26093D01*
G01X37712Y26019D01*
G01X37701Y25945D01*
G01X37692Y25872D01*
G01X37682Y25801D01*
G01X37674Y25730D01*
G01X37666Y25661D01*
G01X37659Y25592D01*
G01X37653Y25524D01*
G01X37647Y25457D01*
G01X37643Y25391D01*
G01X37639Y25327D01*
G01X37636Y25263D01*
G01X37634Y25200D01*
G01X37632Y25138D01*
G01X37632Y24957D01*
G01X37636Y24841D01*
G01X37640Y24784D01*
G01X37644Y24728D01*
G01X37648Y24673D01*
G01X37654Y24619D01*
G01X37661Y24565D01*
G01X37668Y24513D01*
G01X37676Y24461D01*
G01X37684Y24410D01*
G01X37704Y24310D01*
G01X37716Y24261D01*
G01X37728Y24213D01*
G01X37741Y24166D01*
G01X37755Y24119D01*
G01X37769Y24073D01*
G01X37784Y24028D01*
G01X37800Y23984D01*
G01X37817Y23940D01*
G01X37835Y23897D01*
G01X37873Y23813D01*
G01X37893Y23771D01*
G01X37915Y23731D01*
G01X37936Y23691D01*
G01X37959Y23652D01*
G01X37983Y23613D01*
G01X38008Y23575D01*
G01X38033Y23538D01*
G01X38059Y23501D01*
G01X38086Y23465D01*
G01X38114Y23429D01*
G01X38143Y23394D01*
G01X38173Y23359D01*
G01X38203Y23325D01*
G01X38234Y23291D01*
G01X38267Y23258D01*
G01X38333Y23194D01*
G01X38368Y23162D01*
G01X38440Y23100D01*
G01X38516Y23040D01*
G01X38555Y23010D01*
G01X38595Y22981D01*
G01X38636Y22953D01*
G01X38678Y22925D01*
G01X38721Y22897D01*
G01X38764Y22870D01*
G01X38854Y22816D01*
G01X38900Y22789D01*
G01X38947Y22763D01*
G01X38996Y22738D01*
G01X39044Y22713D01*
G01X39106Y22681D01*
G01X39168Y22652D01*
G01X39229Y22623D01*
G01X39290Y22596D01*
G01X39350Y22571D01*
G01X39410Y22547D01*
G01X39470Y22525D01*
G01X39529Y22503D01*
G01X39587Y22484D01*
G01X39646Y22465D01*
G01X39762Y22433D01*
G01X39820Y22420D01*
G01X39877Y22407D01*
G01X39934Y22396D01*
G01X39991Y22386D01*
G01X40048Y22378D01*
G01X40104Y22371D01*
G01X40160Y22366D01*
G01X40217Y22362D01*
G01X40273Y22359D01*
G01X40330Y22358D01*
G01X40442Y22360D01*
G01X40498Y22363D01*
G01X40554Y22368D01*
G01X40611Y22374D01*
G01X40667Y22381D01*
G01X40723Y22391D01*
G01X40780Y22401D01*
G01X40837Y22412D01*
G01X40894Y22426D01*
G01X40950Y22440D01*
G01X41008Y22457D01*
G01X41065Y22474D01*
G01X41123Y22493D01*
G01X41181Y22513D01*
G01X41239Y22535D01*
G01X41298Y22558D01*
G01X41357Y22583D01*
G01X41416Y22609D01*
G01X41476Y22636D01*
G01X41536Y22665D01*
G01X41597Y22695D01*
G01X41645Y22720D01*
G01X41691Y22745D01*
G01X41736Y22771D01*
G01X41780Y22796D01*
G01X41823Y22822D01*
G01X41864Y22848D01*
G01X41944Y22902D01*
G01X41981Y22930D01*
G01X42018Y22959D01*
G01X42053Y22988D01*
G01X42087Y23017D01*
G01X42121Y23048D01*
G01X42153Y23079D01*
G01X42184Y23111D01*
G01X42214Y23144D01*
G01X42243Y23179D01*
G01X42271Y23214D01*
G01X42298Y23250D01*
G01X42324Y23287D01*
G01X42348Y23325D01*
G01X42372Y23364D01*
G01X42396Y23405D01*
G01X42418Y23447D01*
G01X42439Y23490D01*
G01X42460Y23535D01*
G01X42479Y23581D01*
G01X42498Y23629D01*
G01X42516Y23678D01*
G01X42533Y23729D01*
G01X42550Y23782D01*
G01X42565Y23836D01*
G01X42580Y23892D01*
G01X42594Y23950D01*
G01X42607Y24009D01*
G01X42620Y24071D01*
G01X42632Y24134D01*
G01X42644Y24200D01*
G01X42655Y24267D01*
G01X42665Y24336D01*
G01X42675Y24408D01*
G01X42684Y24482D01*
G01X42693Y24558D01*
G01X42700Y24636D01*
G01X42708Y24717D01*
G01X42715Y24800D01*
G01X42722Y24886D01*
G01X42728Y24974D01*
G01X42733Y25064D01*
G01X42739Y25158D01*
G01X42744Y25253D01*
G01X42748Y25352D01*
G01X42752Y25453D01*
G01X42756Y25557D01*
G01X42760Y25664D01*
G01X42763Y25773D01*
G01X42767Y25924D01*
G01X42771Y26065D01*
G01X42774Y26198D01*
G01X42777Y26321D01*
G01X42779Y26436D01*
G01X42780Y26544D01*
G01X42781Y26643D01*
G01X42782Y26735D01*
G01X42781Y26819D01*
G01X42780Y26897D01*
G01X42777Y26968D01*
G01X42774Y27032D01*
G01X42770Y27090D01*
G01X42764Y27142D01*
G01X42758Y27189D01*
G01X42750Y27230D01*
G01X42741Y27266D01*
G01X42731Y27297D01*
G01X42719Y27323D01*
G01X42707Y27346D01*
G01X42692Y27364D01*
G01X42676Y27378D01*
G01X42658Y27389D01*
G01X42639Y27397D01*
G01X42618Y27402D01*
G01X42596Y27404D01*
G01X42571Y27403D01*
G01X42545Y27401D01*
G01X42516Y27396D01*
G01X42486Y27390D01*
G01X42454Y27383D01*
G01X42419Y27374D01*
G01X42381Y27365D01*
G01X42345Y27357D01*
G01X42312Y27352D01*
G01X42282Y27348D01*
G01X42253Y27347D01*
G01X42226Y27348D01*
G01X42202Y27353D01*
G01X42179Y27360D01*
G01X42157Y27371D01*
G01X42138Y27386D01*
G01X42120Y27405D01*
G01X42103Y27427D01*
G01X42087Y27455D01*
G01X42073Y27487D01*
G01X42060Y27524D01*
G01X42048Y27567D01*
G01X42036Y27616D01*
G01X42026Y27670D01*
G01X42016Y27731D01*
G01X42006Y27798D01*
G01X41997Y27871D01*
G01X41988Y27952D01*
G01X41980Y28040D01*
G01X41971Y28136D01*
G01X41963Y28239D01*
G01X41954Y28350D01*
G01X41946Y28470D01*
G01X41936Y28598D01*
G01X41932Y28663D01*
G01X41920Y28795D01*
G01X41906Y28929D01*
G01X41898Y28996D01*
G01X41880Y29132D01*
G01X41870Y29200D01*
G01X41859Y29268D01*
G01X41848Y29337D01*
G01X41824Y29475D01*
G01X41785Y29682D01*
G01X41770Y29751D01*
G01X41756Y29820D01*
G01X41740Y29889D01*
G01X41725Y29958D01*
G01X41708Y30026D01*
G01X41692Y30095D01*
G01X41674Y30164D01*
G01X41657Y30232D01*
G01X41639Y30300D01*
G01X41620Y30367D01*
G01X41602Y30435D01*
G01X41582Y30502D01*
G01X41543Y30635D01*
G01X41522Y30700D01*
G01X41502Y30766D01*
G01X41480Y30831D01*
G01X41459Y30895D01*
G01X41437Y30959D01*
G01X41415Y31022D01*
G01X41392Y31085D01*
G01X41369Y31147D01*
G01X41347Y31208D01*
G01X41323Y31268D01*
G01X41300Y31328D01*
G01X41276Y31387D01*
G01X41228Y31503D01*
G01X41203Y31559D01*
G01X41153Y31669D01*
G01X41128Y31723D01*
G01X41103Y31775D01*
G01X41077Y31827D01*
G01X41051Y31878D01*
G01X41026Y31927D01*
G01X41000Y31975D01*
G01X40973Y32022D01*
G01X40947Y32069D01*
G01X40920Y32113D01*
G01X40894Y32156D01*
G01X40867Y32199D01*
G01X40841Y32240D01*
G01X40814Y32279D01*
G01X40760Y32355D01*
G01X40733Y32390D01*
G01X40706Y32424D01*
G01X40642Y32501D01*
G01X40584Y32565D01*
G01X40533Y32618D01*
G01X40489Y32658D01*
G01X40450Y32687D01*
G01X40415Y32703D01*
G37*

%LPC*%
G36*
G01X40731Y31513D02*
G01X40720Y31519D01*
G01X40707Y31518D01*
G01X40691Y31510D01*
G01X40674Y31494D01*
G01X40655Y31471D01*
G01X40635Y31441D01*
G01X40614Y31405D01*
G01X40591Y31363D01*
G01X40567Y31314D01*
G01X40542Y31260D01*
G01X40517Y31201D01*
G01X40490Y31136D01*
G01X40463Y31067D01*
G01X40436Y30993D01*
G01X40408Y30915D01*
G01X40380Y30833D01*
G01X40351Y30747D01*
G01X40323Y30657D01*
G01X40295Y30564D01*
G01X40267Y30469D01*
G01X40236Y30361D01*
G01X40205Y30258D01*
G01X40175Y30157D01*
G01X40145Y30061D01*
G01X40115Y29968D01*
G01X40086Y29879D01*
G01X40057Y29793D01*
G01X40029Y29711D01*
G01X40001Y29633D01*
G01X39973Y29558D01*
G01X39945Y29487D01*
G01X39918Y29419D01*
G01X39891Y29355D01*
G01X39864Y29294D01*
G01X39838Y29237D01*
G01X39811Y29183D01*
G01X39785Y29132D01*
G01X39760Y29085D01*
G01X39734Y29041D01*
G01X39708Y29001D01*
G01X39683Y28964D01*
G01X39658Y28931D01*
G01X39633Y28900D01*
G01X39608Y28873D01*
G01X39583Y28849D01*
G01X39558Y28829D01*
G01X39534Y28811D01*
G01X39509Y28797D01*
G01X39485Y28786D01*
G01X39460Y28778D01*
G01X39436Y28774D01*
G01X39412Y28772D01*
G01X39388Y28774D01*
G01X39363Y28778D01*
G01X39339Y28786D01*
G01X39315Y28796D01*
G01X39290Y28810D01*
G01X39266Y28827D01*
G01X39241Y28847D01*
G01X39217Y28870D01*
G01X39194Y28891D01*
G01X39171Y28908D01*
G01X39150Y28921D01*
G01X39128Y28930D01*
G01X39106Y28934D01*
G01X39084Y28934D01*
G01X39063Y28929D01*
G01X39040Y28919D01*
G01X39018Y28904D01*
G01X38996Y28883D01*
G01X38972Y28858D01*
G01X38948Y28826D01*
G01X38924Y28789D01*
G01X38899Y28747D01*
G01X38872Y28698D01*
G01X38844Y28643D01*
G01X38815Y28581D01*
G01X38785Y28513D01*
G01X38753Y28438D01*
G01X38720Y28356D01*
G01X38685Y28267D01*
G01X38648Y28171D01*
G01X38610Y28068D01*
G01X38568Y27956D01*
G01X38542Y27883D01*
G01X38516Y27809D01*
G01X38491Y27737D01*
G01X38466Y27664D01*
G01X38442Y27592D01*
G01X38418Y27519D01*
G01X38395Y27447D01*
G01X38373Y27376D01*
G01X38351Y27304D01*
G01X38309Y27162D01*
G01X38289Y27092D01*
G01X38251Y26952D01*
G01X38233Y26883D01*
G01X38199Y26745D01*
G01X38167Y26609D01*
G01X38152Y26541D01*
G01X38138Y26474D01*
G01X38124Y26408D01*
G01X38111Y26341D01*
G01X38086Y26210D01*
G01X38075Y26146D01*
G01X38064Y26081D01*
G01X38054Y26017D01*
G01X38045Y25954D01*
G01X38037Y25891D01*
G01X38028Y25829D01*
G01X38014Y25705D01*
G01X38008Y25645D01*
G01X38002Y25584D01*
G01X37998Y25524D01*
G01X37993Y25466D01*
G01X37990Y25407D01*
G01X37987Y25349D01*
G01X37983Y25235D01*
G01X37982Y25179D01*
G01X37982Y25068D01*
G01X37983Y25014D01*
G01X37985Y24960D01*
G01X37987Y24907D01*
G01X37990Y24855D01*
G01X37994Y24803D01*
G01X37998Y24752D01*
G01X38003Y24702D01*
G01X38009Y24652D01*
G01X38015Y24603D01*
G01X38022Y24556D01*
G01X38030Y24508D01*
G01X38038Y24462D01*
G01X38050Y24404D01*
G01X38063Y24348D01*
G01X38078Y24294D01*
G01X38095Y24240D01*
G01X38114Y24187D01*
G01X38135Y24136D01*
G01X38157Y24085D01*
G01X38182Y24035D01*
G01X38209Y23986D01*
G01X38238Y23937D01*
G01X38269Y23889D01*
G01X38303Y23841D01*
G01X38339Y23794D01*
G01X38378Y23747D01*
G01X38420Y23700D01*
G01X38463Y23652D01*
G01X38510Y23605D01*
G01X38559Y23558D01*
G01X38612Y23510D01*
G01X38667Y23462D01*
G01X38725Y23414D01*
G01X38786Y23364D01*
G01X38851Y23315D01*
G01X38918Y23264D01*
G01X38979Y23221D01*
G01X39039Y23179D01*
G01X39099Y23138D01*
G01X39159Y23099D01*
G01X39218Y23062D01*
G01X39277Y23027D01*
G01X39335Y22994D01*
G01X39393Y22962D01*
G01X39451Y22932D01*
G01X39509Y22904D01*
G01X39566Y22878D01*
G01X39622Y22853D01*
G01X39679Y22830D01*
G01X39735Y22809D01*
G01X39791Y22789D01*
G01X39847Y22772D01*
G01X39902Y22756D01*
G01X39957Y22742D01*
G01X40012Y22729D01*
G01X40066Y22718D01*
G01X40121Y22710D01*
G01X40175Y22703D01*
G01X40229Y22697D01*
G01X40282Y22693D01*
G01X40336Y22691D01*
G01X40389Y22691D01*
G01X40442Y22693D01*
G01X40495Y22696D01*
G01X40547Y22701D01*
G01X40600Y22708D01*
G01X40652Y22717D01*
G01X40704Y22727D01*
G01X40756Y22739D01*
G01X40808Y22753D01*
G01X40859Y22769D01*
G01X40911Y22786D01*
G01X40963Y22805D01*
G01X41014Y22825D01*
G01X41065Y22848D01*
G01X41116Y22873D01*
G01X41167Y22899D01*
G01X41218Y22927D01*
G01X41269Y22956D01*
G01X41320Y22988D01*
G01X41370Y23021D01*
G01X41421Y23056D01*
G01X41472Y23092D01*
G01X41522Y23130D01*
G01X41573Y23170D01*
G01X41673Y23256D01*
G01X41724Y23301D01*
G01X41766Y23340D01*
G01X41806Y23378D01*
G01X41845Y23414D01*
G01X41882Y23450D01*
G01X41918Y23485D01*
G01X41952Y23520D01*
G01X41984Y23554D01*
G01X42015Y23587D01*
G01X42045Y23621D01*
G01X42073Y23654D01*
G01X42100Y23688D01*
G01X42125Y23721D01*
G01X42149Y23755D01*
G01X42172Y23788D01*
G01X42194Y23823D01*
G01X42234Y23893D01*
G01X42251Y23929D01*
G01X42268Y23967D01*
G01X42284Y24005D01*
G01X42299Y24045D01*
G01X42312Y24085D01*
G01X42325Y24127D01*
G01X42336Y24171D01*
G01X42346Y24216D01*
G01X42356Y24263D01*
G01X42365Y24311D01*
G01X42372Y24362D01*
G01X42379Y24415D01*
G01X42385Y24470D01*
G01X42391Y24527D01*
G01X42395Y24586D01*
G01X42399Y24649D01*
G01X42402Y24713D01*
G01X42404Y24781D01*
G01X42405Y24851D01*
G01X42406Y24924D01*
G01X42407Y25001D01*
G01X42406Y25080D01*
G01X42406Y25163D01*
G01X42404Y25249D01*
G01X42403Y25339D01*
G01X42400Y25433D01*
G01X42398Y25530D01*
G01X42395Y25631D01*
G01X42391Y25736D01*
G01X42387Y25846D01*
G01X42383Y25959D01*
G01X42378Y26086D01*
G01X42373Y26200D01*
G01X42367Y26304D01*
G01X42360Y26397D01*
G01X42353Y26480D01*
G01X42344Y26553D01*
G01X42334Y26616D01*
G01X42323Y26672D01*
G01X42309Y26718D01*
G01X42294Y26757D01*
G01X42276Y26788D01*
G01X42256Y26813D01*
G01X42234Y26831D01*
G01X42208Y26843D01*
G01X42179Y26849D01*
G01X42147Y26851D01*
G01X42111Y26847D01*
G01X42072Y26840D01*
G01X42029Y26829D01*
G01X41981Y26815D01*
G01X41946Y26804D01*
G01X41913Y26794D01*
G01X41882Y26787D01*
G01X41853Y26782D01*
G01X41826Y26780D01*
G01X41802Y26780D01*
G01X41779Y26784D01*
G01X41759Y26791D01*
G01X41740Y26801D01*
G01X41723Y26816D01*
G01X41707Y26835D01*
G01X41693Y26858D01*
G01X41681Y26886D01*
G01X41670Y26919D01*
G01X41660Y26958D01*
G01X41651Y27002D01*
G01X41644Y27052D01*
G01X41638Y27108D01*
G01X41633Y27171D01*
G01X41628Y27240D01*
G01X41625Y27317D01*
G01X41622Y27401D01*
G01X41619Y27492D01*
G01X41618Y27592D01*
G01X41617Y27699D01*
G01X41616Y27816D01*
G01X41616Y28074D01*
G01X41615Y28153D01*
G01X41615Y28232D01*
G01X41613Y28309D01*
G01X41611Y28385D01*
G01X41609Y28460D01*
G01X41606Y28534D01*
G01X41603Y28607D01*
G01X41599Y28679D01*
G01X41594Y28750D01*
G01X41588Y28820D01*
G01X41583Y28889D01*
G01X41576Y28958D01*
G01X41562Y29092D01*
G01X41554Y29158D01*
G01X41536Y29288D01*
G01X41525Y29352D01*
G01X41515Y29415D01*
G01X41504Y29478D01*
G01X41492Y29540D01*
G01X41480Y29601D01*
G01X41467Y29662D01*
G01X41439Y29782D01*
G01X41423Y29841D01*
G01X41408Y29900D01*
G01X41392Y29959D01*
G01X41357Y30075D01*
G01X41339Y30132D01*
G01X41320Y30189D01*
G01X41280Y30303D01*
G01X41259Y30359D01*
G01X41237Y30415D01*
G01X41206Y30495D01*
G01X41174Y30573D01*
G01X41143Y30651D01*
G01X41112Y30726D01*
G01X41080Y30801D01*
G01X41049Y30873D01*
G01X41019Y30943D01*
G01X40990Y31010D01*
G01X40961Y31074D01*
G01X40933Y31136D01*
G01X40906Y31194D01*
G01X40880Y31248D01*
G01X40855Y31298D01*
G01X40833Y31344D01*
G01X40811Y31385D01*
G01X40791Y31422D01*
G01X40773Y31453D01*
G01X40757Y31479D01*
G01X40743Y31499D01*
G01X40731Y31513D01*
G37*

%LPD*%
G36*
G01X5440Y32692D02*
G01X5417Y32692D01*
G01X5393Y32689D01*
G01X5369Y32682D01*
G01X5345Y32672D01*
G01X5320Y32657D01*
G01X5295Y32638D01*
G01X5270Y32616D01*
G01X5245Y32589D01*
G01X5219Y32559D01*
G01X5193Y32525D01*
G01X5167Y32486D01*
G01X5141Y32444D01*
G01X5115Y32398D01*
G01X5088Y32348D01*
G01X5061Y32294D01*
G01X5034Y32236D01*
G01X5007Y32173D01*
G01X4989Y32129D01*
G01X4969Y32083D01*
G01X4948Y32032D01*
G01X4925Y31980D01*
G01X4902Y31924D01*
G01X4877Y31866D01*
G01X4851Y31805D01*
G01X4825Y31743D01*
G01X4798Y31679D01*
G01X4770Y31614D01*
G01X4741Y31547D01*
G01X4683Y31411D01*
G01X4654Y31341D01*
G01X4594Y31202D01*
G01X4564Y31132D01*
G01X4534Y31063D01*
G01X4505Y30994D01*
G01X4476Y30926D01*
G01X4447Y30859D01*
G01X4419Y30793D01*
G01X4391Y30729D01*
G01X4364Y30666D01*
G01X4346Y30622D01*
G01X4327Y30577D01*
G01X4309Y30530D01*
G01X4292Y30481D01*
G01X4274Y30431D01*
G01X4256Y30379D01*
G01X4239Y30327D01*
G01X4222Y30273D01*
G01X4205Y30217D01*
G01X4189Y30161D01*
G01X4173Y30104D01*
G01X4157Y30046D01*
G01X4142Y29987D01*
G01X4126Y29927D01*
G01X4112Y29867D01*
G01X4098Y29806D01*
G01X4070Y29682D01*
G01X4057Y29619D01*
G01X4044Y29557D01*
G01X4032Y29494D01*
G01X4010Y29367D01*
G01X3999Y29303D01*
G01X3979Y29177D01*
G01X3961Y29051D01*
G01X3946Y28926D01*
G01X3928Y28743D01*
G01X3924Y28683D01*
G01X3920Y28624D01*
G01X3916Y28566D01*
G01X3910Y28442D01*
G01X3904Y28328D01*
G01X3898Y28221D01*
G01X3892Y28123D01*
G01X3886Y28032D01*
G01X3880Y27950D01*
G01X3872Y27874D01*
G01X3865Y27806D01*
G01X3857Y27744D01*
G01X3848Y27689D01*
G01X3837Y27639D01*
G01X3826Y27595D01*
G01X3813Y27557D01*
G01X3798Y27524D01*
G01X3782Y27496D01*
G01X3764Y27472D01*
G01X3744Y27452D01*
G01X3722Y27436D01*
G01X3698Y27424D01*
G01X3671Y27415D01*
G01X3641Y27409D01*
G01X3609Y27406D01*
G01X3574Y27405D01*
G01X3536Y27406D01*
G01X3494Y27409D01*
G01X3449Y27413D01*
G01X3401Y27418D01*
G01X3349Y27425D01*
G01X3248Y27436D01*
G01X3162Y27443D01*
G01X3092Y27445D01*
G01X3035Y27442D01*
G01X2991Y27433D01*
G01X2960Y27416D01*
G01X2941Y27393D01*
G01X2933Y27362D01*
G01X2936Y27323D01*
G01X2948Y27275D01*
G01X2970Y27218D01*
G01X3000Y27151D01*
G01X3009Y27129D01*
G01X3018Y27103D01*
G01X3026Y27073D01*
G01X3034Y27039D01*
G01X3042Y27001D01*
G01X3050Y26960D01*
G01X3057Y26916D01*
G01X3063Y26868D01*
G01X3070Y26818D01*
G01X3076Y26764D01*
G01X3082Y26708D01*
G01X3087Y26649D01*
G01X3091Y26588D01*
G01X3096Y26525D01*
G01X3100Y26459D01*
G01X3103Y26392D01*
G01X3106Y26323D01*
G01X3108Y26252D01*
G01X3111Y26179D01*
G01X3113Y26106D01*
G01X3114Y26031D01*
G01X3114Y25802D01*
G01X3113Y25725D01*
G01X3109Y25569D01*
G01X3106Y25491D01*
G01X3103Y25407D01*
G01X3101Y25325D01*
G01X3100Y25244D01*
G01X3099Y25165D01*
G01X3099Y25088D01*
G01X3100Y25012D01*
G01X3102Y24938D01*
G01X3108Y24794D01*
G01X3113Y24724D01*
G01X3117Y24656D01*
G01X3123Y24590D01*
G01X3130Y24524D01*
G01X3137Y24460D01*
G01X3146Y24397D01*
G01X3155Y24336D01*
G01X3166Y24276D01*
G01X3177Y24217D01*
G01X3189Y24160D01*
G01X3202Y24104D01*
G01X3216Y24048D01*
G01X3231Y23994D01*
G01X3247Y23942D01*
G01X3264Y23890D01*
G01X3282Y23839D01*
G01X3301Y23790D01*
G01X3321Y23742D01*
G01X3342Y23695D01*
G01X3364Y23648D01*
G01X3387Y23603D01*
G01X3411Y23559D01*
G01X3436Y23515D01*
G01X3463Y23472D01*
G01X3490Y23430D01*
G01X3518Y23390D01*
G01X3548Y23350D01*
G01X3579Y23311D01*
G01X3611Y23273D01*
G01X3644Y23235D01*
G01X3678Y23198D01*
G01X3713Y23162D01*
G01X3750Y23126D01*
G01X3788Y23092D01*
G01X3827Y23057D01*
G01X3867Y23024D01*
G01X3909Y22991D01*
G01X3952Y22958D01*
G01X3995Y22927D01*
G01X4041Y22895D01*
G01X4087Y22864D01*
G01X4135Y22834D01*
G01X4184Y22804D01*
G01X4235Y22774D01*
G01X4339Y22716D01*
G01X4394Y22688D01*
G01X4451Y22659D01*
G01X4507Y22632D01*
G01X4563Y22606D01*
G01X4619Y22581D01*
G01X4731Y22535D01*
G01X4786Y22514D01*
G01X4841Y22494D01*
G01X4896Y22476D01*
G01X4951Y22459D01*
G01X5005Y22442D01*
G01X5060Y22428D01*
G01X5114Y22414D01*
G01X5168Y22402D01*
G01X5221Y22391D01*
G01X5275Y22381D01*
G01X5328Y22373D01*
G01X5382Y22366D01*
G01X5435Y22360D01*
G01X5487Y22355D01*
G01X5593Y22349D01*
G01X5645Y22348D01*
G01X5698Y22349D01*
G01X5750Y22351D01*
G01X5802Y22354D01*
G01X5854Y22358D01*
G01X5906Y22363D01*
G01X5957Y22370D01*
G01X6009Y22378D01*
G01X6060Y22388D01*
G01X6112Y22398D01*
G01X6163Y22410D01*
G01X6214Y22423D01*
G01X6265Y22437D01*
G01X6316Y22453D01*
G01X6367Y22470D01*
G01X6417Y22488D01*
G01X6468Y22508D01*
G01X6519Y22529D01*
G01X6569Y22551D01*
G01X6619Y22574D01*
G01X6670Y22599D01*
G01X6720Y22625D01*
G01X6770Y22652D01*
G01X6820Y22681D01*
G01X6871Y22710D01*
G01X6920Y22742D01*
G01X6971Y22774D01*
G01X7021Y22808D01*
G01X7071Y22843D01*
G01X7121Y22879D01*
G01X7170Y22916D01*
G01X7220Y22955D01*
G01X7271Y22996D01*
G01X7320Y23037D01*
G01X7370Y23079D01*
G01X7470Y23169D01*
G01X7519Y23216D01*
G01X7570Y23264D01*
G01X7620Y23313D01*
G01X7669Y23363D01*
G01X7719Y23415D01*
G01X7753Y23452D01*
G01X7786Y23488D01*
G01X7818Y23526D01*
G01X7849Y23564D01*
G01X7879Y23602D01*
G01X7908Y23641D01*
G01X7936Y23681D01*
G01X7963Y23721D01*
G01X7990Y23762D01*
G01X8015Y23803D01*
G01X8040Y23845D01*
G01X8086Y23931D01*
G01X8108Y23975D01*
G01X8129Y24019D01*
G01X8149Y24063D01*
G01X8168Y24109D01*
G01X8186Y24155D01*
G01X8204Y24202D01*
G01X8220Y24249D01*
G01X8236Y24297D01*
G01X8250Y24345D01*
G01X8264Y24395D01*
G01X8276Y24444D01*
G01X8288Y24495D01*
G01X8299Y24546D01*
G01X8309Y24597D01*
G01X8318Y24650D01*
G01X8334Y24756D01*
G01X8340Y24811D01*
G01X8345Y24865D01*
G01X8350Y24921D01*
G01X8354Y24977D01*
G01X8358Y25091D01*
G01X8359Y25149D01*
G01X8359Y25208D01*
G01X8358Y25267D01*
G01X8356Y25327D01*
G01X8354Y25388D01*
G01X8349Y25449D01*
G01X8345Y25512D01*
G01X8340Y25574D01*
G01X8326Y25702D01*
G01X8318Y25767D01*
G01X8309Y25832D01*
G01X8299Y25898D01*
G01X8288Y25965D01*
G01X8276Y26032D01*
G01X8263Y26101D01*
G01X8235Y26239D01*
G01X8203Y26381D01*
G01X8186Y26453D01*
G01X8168Y26525D01*
G01X8149Y26598D01*
G01X8129Y26672D01*
G01X8108Y26747D01*
G01X8086Y26822D01*
G01X8063Y26899D01*
G01X8040Y26975D01*
G01X7990Y27131D01*
G01X7963Y27210D01*
G01X7936Y27290D01*
G01X7915Y27354D01*
G01X7893Y27418D01*
G01X7872Y27483D01*
G01X7851Y27549D01*
G01X7831Y27616D01*
G01X7790Y27750D01*
G01X7752Y27886D01*
G01X7733Y27953D01*
G01X7714Y28021D01*
G01X7697Y28089D01*
G01X7679Y28156D01*
G01X7646Y28291D01*
G01X7630Y28357D01*
G01X7615Y28423D01*
G01X7600Y28488D01*
G01X7586Y28552D01*
G01X7560Y28678D01*
G01X7548Y28739D01*
G01X7537Y28799D01*
G01X7526Y28858D01*
G01X7516Y28916D01*
G01X7507Y28972D01*
G01X7498Y29026D01*
G01X7490Y29079D01*
G01X7484Y29130D01*
G01X7478Y29180D01*
G01X7473Y29227D01*
G01X7468Y29272D01*
G01X7465Y29316D01*
G01X7463Y29356D01*
G01X7461Y29395D01*
G01X7460Y29431D01*
G01X7460Y29509D01*
G01X7457Y29583D01*
G01X7454Y29652D01*
G01X7448Y29718D01*
G01X7442Y29779D01*
G01X7434Y29836D01*
G01X7424Y29888D01*
G01X7414Y29936D01*
G01X7402Y29980D01*
G01X7389Y30020D01*
G01X7375Y30055D01*
G01X7359Y30085D01*
G01X7343Y30112D01*
G01X7326Y30133D01*
G01X7307Y30150D01*
G01X7288Y30163D01*
G01X7267Y30172D01*
G01X7246Y30175D01*
G01X7224Y30174D01*
G01X7201Y30169D01*
G01X7178Y30158D01*
G01X7153Y30144D01*
G01X7128Y30124D01*
G01X7103Y30101D01*
G01X7076Y30072D01*
G01X7050Y30038D01*
G01X7023Y30000D01*
G01X6995Y29957D01*
G01X6966Y29909D01*
G01X6938Y29857D01*
G01X6909Y29799D01*
G01X6879Y29737D01*
G01X6835Y29645D01*
G01X6788Y29560D01*
G01X6740Y29482D01*
G01X6691Y29415D01*
G01X6646Y29359D01*
G01X6602Y29317D01*
G01X6564Y29290D01*
G01X6532Y29281D01*
G01X6516Y29283D01*
G01X6500Y29290D01*
G01X6483Y29301D01*
G01X6465Y29316D01*
G01X6447Y29336D01*
G01X6429Y29359D01*
G01X6410Y29387D01*
G01X6391Y29418D01*
G01X6371Y29453D01*
G01X6352Y29491D01*
G01X6332Y29534D01*
G01X6312Y29578D01*
G01X6292Y29627D01*
G01X6272Y29677D01*
G01X6251Y29732D01*
G01X6231Y29788D01*
G01X6211Y29848D01*
G01X6190Y29910D01*
G01X6170Y29974D01*
G01X6150Y30040D01*
G01X6131Y30109D01*
G01X6111Y30179D01*
G01X6091Y30251D01*
G01X6072Y30325D01*
G01X6053Y30401D01*
G01X6035Y30478D01*
G01X6017Y30556D01*
G01X5999Y30636D01*
G01X5965Y30798D01*
G01X5933Y30964D01*
G01X5918Y31047D01*
G01X5904Y31132D01*
G01X5890Y31216D01*
G01X5877Y31301D01*
G01X5865Y31386D01*
G01X5843Y31554D01*
G01X5834Y31639D01*
G01X5824Y31725D01*
G01X5813Y31807D01*
G01X5801Y31886D01*
G01X5789Y31961D01*
G01X5776Y32033D01*
G01X5763Y32101D01*
G01X5748Y32166D01*
G01X5733Y32227D01*
G01X5718Y32283D01*
G01X5701Y32337D01*
G01X5685Y32387D01*
G01X5667Y32433D01*
G01X5648Y32475D01*
G01X5630Y32514D01*
G01X5611Y32549D01*
G01X5591Y32580D01*
G01X5571Y32607D01*
G01X5550Y32630D01*
G01X5529Y32650D01*
G01X5507Y32666D01*
G01X5485Y32679D01*
G01X5463Y32687D01*
G01X5440Y32692D01*
G37*

%LPC*%
G36*
G01X5265Y31645D02*
G01X5252Y31646D01*
G01X5238Y31645D01*
G01X5224Y31641D01*
G01X5209Y31634D01*
G01X5195Y31624D01*
G01X5180Y31610D01*
G01X5164Y31594D01*
G01X5149Y31574D01*
G01X5133Y31551D01*
G01X5117Y31525D01*
G01X5100Y31496D01*
G01X5083Y31464D01*
G01X5065Y31428D01*
G01X5047Y31390D01*
G01X5029Y31348D01*
G01X5010Y31303D01*
G01X4990Y31254D01*
G01X4970Y31203D01*
G01X4949Y31148D01*
G01X4928Y31090D01*
G01X4905Y31028D01*
G01X4882Y30963D01*
G01X4859Y30895D01*
G01X4835Y30823D01*
G01X4810Y30749D01*
G01X4784Y30670D01*
G01X4757Y30589D01*
G01X4730Y30503D01*
G01X4702Y30415D01*
G01X4672Y30323D01*
G01X4642Y30227D01*
G01X4611Y30128D01*
G01X4579Y30026D01*
G01X4546Y29920D01*
G01X4522Y29839D01*
G01X4498Y29762D01*
G01X4475Y29685D01*
G01X4454Y29611D01*
G01X4434Y29538D01*
G01X4396Y29396D01*
G01X4379Y29328D01*
G01X4363Y29261D01*
G01X4347Y29196D01*
G01X4333Y29131D01*
G01X4307Y29005D01*
G01X4285Y28883D01*
G01X4276Y28823D01*
G01X4267Y28764D01*
G01X4253Y28648D01*
G01X4247Y28591D01*
G01X4242Y28533D01*
G01X4238Y28477D01*
G01X4235Y28420D01*
G01X4233Y28364D01*
G01X4231Y28307D01*
G01X4231Y28194D01*
G01X4233Y28080D01*
G01X4239Y27964D01*
G01X4243Y27906D01*
G01X4248Y27847D01*
G01X4254Y27787D01*
G01X4261Y27727D01*
G01X4268Y27665D01*
G01X4283Y27535D01*
G01X4297Y27417D01*
G01X4308Y27312D01*
G01X4317Y27217D01*
G01X4324Y27132D01*
G01X4328Y27059D01*
G01X4329Y26994D01*
G01X4327Y26939D01*
G01X4323Y26892D01*
G01X4315Y26853D01*
G01X4304Y26822D01*
G01X4289Y26799D01*
G01X4271Y26781D01*
G01X4249Y26770D01*
G01X4224Y26764D01*
G01X4194Y26764D01*
G01X4160Y26768D01*
G01X4122Y26776D01*
G01X4079Y26787D01*
G01X4033Y26802D01*
G01X3994Y26813D01*
G01X3958Y26822D01*
G01X3925Y26828D01*
G01X3894Y26831D01*
G01X3865Y26831D01*
G01X3839Y26826D01*
G01X3815Y26817D01*
G01X3792Y26804D01*
G01X3771Y26786D01*
G01X3752Y26763D01*
G01X3734Y26734D01*
G01X3718Y26699D01*
G01X3702Y26659D01*
G01X3688Y26611D01*
G01X3674Y26557D01*
G01X3661Y26496D01*
G01X3648Y26427D01*
G01X3637Y26350D01*
G01X3625Y26265D01*
G01X3613Y26171D01*
G01X3602Y26069D01*
G01X3590Y25957D01*
G01X3578Y25835D01*
G01X3566Y25704D01*
G01X3558Y25620D01*
G01X3551Y25538D01*
G01X3546Y25456D01*
G01X3538Y25298D01*
G01X3535Y25221D01*
G01X3534Y25145D01*
G01X3533Y25071D01*
G01X3533Y24998D01*
G01X3535Y24926D01*
G01X3537Y24855D01*
G01X3540Y24786D01*
G01X3544Y24718D01*
G01X3549Y24652D01*
G01X3556Y24587D01*
G01X3563Y24523D01*
G01X3571Y24460D01*
G01X3580Y24399D01*
G01X3591Y24338D01*
G01X3602Y24279D01*
G01X3614Y24221D01*
G01X3627Y24165D01*
G01X3641Y24110D01*
G01X3657Y24056D01*
G01X3673Y24003D01*
G01X3691Y23951D01*
G01X3709Y23900D01*
G01X3728Y23851D01*
G01X3749Y23803D01*
G01X3770Y23756D01*
G01X3793Y23710D01*
G01X3817Y23665D01*
G01X3867Y23579D01*
G01X3894Y23537D01*
G01X3922Y23497D01*
G01X3951Y23457D01*
G01X3981Y23419D01*
G01X4012Y23382D01*
G01X4044Y23346D01*
G01X4077Y23311D01*
G01X4111Y23277D01*
G01X4147Y23244D01*
G01X4183Y23212D01*
G01X4221Y23181D01*
G01X4260Y23151D01*
G01X4299Y23122D01*
G01X4340Y23094D01*
G01X4382Y23067D01*
G01X4425Y23040D01*
G01X4469Y23015D01*
G01X4515Y22991D01*
G01X4567Y22965D01*
G01X4620Y22940D01*
G01X4672Y22917D01*
G01X4725Y22895D01*
G01X4778Y22875D01*
G01X4832Y22855D01*
G01X4885Y22838D01*
G01X4939Y22822D01*
G01X4993Y22807D01*
G01X5046Y22794D01*
G01X5100Y22782D01*
G01X5154Y22772D01*
G01X5209Y22762D01*
G01X5262Y22755D01*
G01X5317Y22748D01*
G01X5371Y22743D01*
G01X5425Y22740D01*
G01X5479Y22738D01*
G01X5533Y22737D01*
G01X5587Y22737D01*
G01X5641Y22739D01*
G01X5694Y22742D01*
G01X5748Y22746D01*
G01X5801Y22752D01*
G01X5855Y22759D01*
G01X5961Y22777D01*
G01X6014Y22788D01*
G01X6067Y22800D01*
G01X6119Y22814D01*
G01X6171Y22829D01*
G01X6223Y22845D01*
G01X6274Y22862D01*
G01X6325Y22880D01*
G01X6376Y22900D01*
G01X6427Y22921D01*
G01X6527Y22967D01*
G01X6576Y22992D01*
G01X6625Y23018D01*
G01X6674Y23045D01*
G01X6721Y23073D01*
G01X6769Y23103D01*
G01X6816Y23134D01*
G01X6863Y23166D01*
G01X6909Y23199D01*
G01X6955Y23233D01*
G01X7000Y23268D01*
G01X7044Y23305D01*
G01X7088Y23343D01*
G01X7131Y23382D01*
G01X7174Y23422D01*
G01X7216Y23463D01*
G01X7257Y23505D01*
G01X7298Y23548D01*
G01X7338Y23593D01*
G01X7416Y23685D01*
G01X7453Y23733D01*
G01X7490Y23782D01*
G01X7527Y23832D01*
G01X7563Y23883D01*
G01X7597Y23935D01*
G01X7631Y23988D01*
G01X7664Y24042D01*
G01X7696Y24097D01*
G01X7758Y24211D01*
G01X7784Y24263D01*
G01X7809Y24314D01*
G01X7832Y24363D01*
G01X7853Y24411D01*
G01X7889Y24505D01*
G01X7904Y24552D01*
G01X7918Y24598D01*
G01X7930Y24645D01*
G01X7941Y24692D01*
G01X7949Y24741D01*
G01X7956Y24791D01*
G01X7961Y24842D01*
G01X7964Y24895D01*
G01X7965Y24950D01*
G01X7965Y25007D01*
G01X7964Y25067D01*
G01X7960Y25130D01*
G01X7955Y25196D01*
G01X7949Y25266D01*
G01X7941Y25340D01*
G01X7930Y25417D01*
G01X7919Y25499D01*
G01X7906Y25585D01*
G01X7891Y25676D01*
G01X7876Y25773D01*
G01X7858Y25874D01*
G01X7838Y25982D01*
G01X7821Y26081D01*
G01X7802Y26178D01*
G01X7784Y26274D01*
G01X7765Y26369D01*
G01X7746Y26463D01*
G01X7727Y26555D01*
G01X7707Y26647D01*
G01X7688Y26737D01*
G01X7668Y26825D01*
G01X7647Y26913D01*
G01X7627Y26999D01*
G01X7607Y27084D01*
G01X7586Y27167D01*
G01X7566Y27249D01*
G01X7545Y27328D01*
G01X7525Y27407D01*
G01X7503Y27484D01*
G01X7482Y27560D01*
G01X7462Y27633D01*
G01X7440Y27705D01*
G01X7419Y27775D01*
G01X7398Y27844D01*
G01X7377Y27911D01*
G01X7355Y27976D01*
G01X7335Y28039D01*
G01X7313Y28100D01*
G01X7271Y28216D01*
G01X7250Y28271D01*
G01X7229Y28324D01*
G01X7209Y28375D01*
G01X7188Y28424D01*
G01X7167Y28471D01*
G01X7147Y28515D01*
G01X7127Y28558D01*
G01X7107Y28597D01*
G01X7087Y28635D01*
G01X7067Y28671D01*
G01X7047Y28704D01*
G01X7028Y28735D01*
G01X7009Y28763D01*
G01X6990Y28788D01*
G01X6972Y28812D01*
G01X6954Y28833D01*
G01X6935Y28851D01*
G01X6917Y28867D01*
G01X6900Y28879D01*
G01X6883Y28889D01*
G01X6866Y28897D01*
G01X6850Y28902D01*
G01X6834Y28904D01*
G01X6818Y28903D01*
G01X6803Y28900D01*
G01X6787Y28893D01*
G01X6773Y28883D01*
G01X6759Y28871D01*
G01X6719Y28834D01*
G01X6680Y28805D01*
G01X6642Y28783D01*
G01X6604Y28769D01*
G01X6566Y28763D01*
G01X6527Y28766D01*
G01X6487Y28776D01*
G01X6446Y28794D01*
G01X6401Y28821D01*
G01X6354Y28856D01*
G01X6304Y28900D01*
G01X6249Y28952D01*
G01X6232Y28972D01*
G01X6213Y28996D01*
G01X6194Y29023D01*
G01X6174Y29055D01*
G01X6153Y29091D01*
G01X6132Y29130D01*
G01X6110Y29172D01*
G01X6088Y29218D01*
G01X6066Y29267D01*
G01X6042Y29319D01*
G01X6019Y29374D01*
G01X5996Y29431D01*
G01X5972Y29491D01*
G01X5949Y29553D01*
G01X5925Y29618D01*
G01X5901Y29684D01*
G01X5878Y29753D01*
G01X5854Y29823D01*
G01X5831Y29894D01*
G01X5808Y29967D01*
G01X5786Y30042D01*
G01X5763Y30117D01*
G01X5741Y30193D01*
G01X5720Y30271D01*
G01X5699Y30348D01*
G01X5678Y30427D01*
G01X5659Y30505D01*
G01X5640Y30584D01*
G01X5623Y30659D01*
G01X5605Y30732D01*
G01X5589Y30802D01*
G01X5572Y30869D01*
G01X5556Y30934D01*
G01X5540Y30996D01*
G01X5525Y31055D01*
G01X5510Y31111D01*
G01X5495Y31165D01*
G01X5481Y31216D01*
G01X5467Y31264D01*
G01X5452Y31310D01*
G01X5439Y31352D01*
G01X5425Y31392D01*
G01X5412Y31429D01*
G01X5398Y31463D01*
G01X5385Y31494D01*
G01X5372Y31522D01*
G01X5358Y31548D01*
G01X5345Y31571D01*
G01X5332Y31590D01*
G01X5319Y31607D01*
G01X5306Y31621D01*
G01X5292Y31632D01*
G01X5279Y31640D01*
G01X5265Y31645D01*
G37*

%LPD*%
G36*
G01X22906Y44603D02*
G01X22835Y44603D01*
G01X22765Y44602D01*
G01X22694Y44601D01*
G01X22626Y44599D01*
G01X22558Y44596D01*
G01X22492Y44592D01*
G01X22427Y44588D01*
G01X22365Y44583D01*
G01X22305Y44577D01*
G01X22247Y44570D01*
G01X22192Y44562D01*
G01X22140Y44554D01*
G01X22091Y44546D01*
G01X22047Y44535D01*
G01X22006Y44525D01*
G01X21968Y44514D01*
G01X21935Y44502D01*
G01X21929Y44499D01*
G01X21924Y44495D01*
G01X21918Y44491D01*
G01X21912Y44485D01*
G01X21907Y44478D01*
G01X21901Y44470D01*
G01X21896Y44462D01*
G01X21891Y44452D01*
G01X21881Y44430D01*
G01X21876Y44417D01*
G01X21870Y44403D01*
G01X21865Y44388D01*
G01X21861Y44372D01*
G01X21856Y44355D01*
G01X21852Y44337D01*
G01X21842Y44297D01*
G01X21838Y44275D01*
G01X21834Y44252D01*
G01X21830Y44228D01*
G01X21826Y44203D01*
G01X21822Y44176D01*
G01X21818Y44148D01*
G01X21814Y44119D01*
G01X21810Y44089D01*
G01X21807Y44057D01*
G01X21803Y44024D01*
G01X21799Y43990D01*
G01X21796Y43955D01*
G01X21793Y43918D01*
G01X21790Y43880D01*
G01X21786Y43840D01*
G01X21783Y43799D01*
G01X21780Y43756D01*
G01X21777Y43712D01*
G01X21774Y43667D01*
G01X21771Y43620D01*
G01X21768Y43572D01*
G01X21766Y43522D01*
G01X21763Y43472D01*
G01X21761Y43419D01*
G01X21758Y43364D01*
G01X21756Y43309D01*
G01X21753Y43252D01*
G01X21751Y43193D01*
G01X21749Y43133D01*
G01X21746Y43071D01*
G01X21744Y43007D01*
G01X21742Y42942D01*
G01X21740Y42875D01*
G01X21738Y42807D01*
G01X21737Y42737D01*
G01X21735Y42665D01*
G01X21733Y42592D01*
G01X21732Y42517D01*
G01X21730Y42440D01*
G01X21728Y42361D01*
G01X21727Y42281D01*
G01X21726Y42199D01*
G01X21724Y42115D01*
G01X21723Y42029D01*
G01X21722Y41942D01*
G01X21721Y41853D01*
G01X21719Y41761D01*
G01X21718Y41668D01*
G01X21717Y41574D01*
G01X21716Y41477D01*
G01X21715Y41379D01*
G01X21714Y41278D01*
G01X21713Y41175D01*
G01X21713Y41071D01*
G01X21712Y40965D01*
G01X21711Y40857D01*
G01X21711Y40747D01*
G01X21710Y40634D01*
G01X21710Y40520D01*
G01X21709Y40404D01*
G01X21709Y40286D01*
G01X21708Y40166D01*
G01X21708Y39793D01*
G01X21707Y39664D01*
G01X21707Y33847D01*
G01X20999Y33847D01*
G01X20908Y33846D01*
G01X20817Y33844D01*
G01X20726Y33841D01*
G01X20638Y33838D01*
G01X20550Y33833D01*
G01X20463Y33827D01*
G01X20379Y33821D01*
G01X20296Y33813D01*
G01X20215Y33805D01*
G01X20136Y33795D01*
G01X20059Y33786D01*
G01X19985Y33775D01*
G01X19913Y33763D01*
G01X19844Y33751D01*
G01X19777Y33738D01*
G01X19714Y33725D01*
G01X19655Y33711D01*
G01X19598Y33697D01*
G01X19545Y33681D01*
G01X19496Y33666D01*
G01X19451Y33650D01*
G01X19409Y33634D01*
G01X19372Y33617D01*
G01X19340Y33601D01*
G01X19312Y33583D01*
G01X19288Y33566D01*
G01X19269Y33549D01*
G01X19256Y33531D01*
G01X19248Y33513D01*
G01X19245Y33495D01*
G01X19247Y33477D01*
G01X19255Y33459D01*
G01X19265Y33448D01*
G01X19281Y33438D01*
G01X19303Y33427D01*
G01X19330Y33417D01*
G01X19363Y33407D01*
G01X19401Y33397D01*
G01X19444Y33387D01*
G01X19491Y33378D01*
G01X19543Y33370D01*
G01X19600Y33361D01*
G01X19660Y33353D01*
G01X19725Y33346D01*
G01X19792Y33339D01*
G01X19863Y33332D01*
G01X19938Y33326D01*
G01X20015Y33321D01*
G01X20095Y33316D01*
G01X20178Y33312D01*
G01X20263Y33308D01*
G01X20349Y33304D01*
G01X20438Y33302D01*
G01X20529Y33300D01*
G01X20620Y33299D01*
G01X20713Y33299D01*
G01X20806Y33298D01*
G01X20897Y33298D01*
G01X20987Y33297D01*
G01X21159Y33293D01*
G01X21241Y33291D01*
G01X21321Y33288D01*
G01X21398Y33285D01*
G01X21472Y33282D01*
G01X21543Y33278D01*
G01X21610Y33274D01*
G01X21673Y33270D01*
G01X21733Y33265D01*
G01X21788Y33260D01*
G01X21839Y33255D01*
G01X21886Y33250D01*
G01X21928Y33245D01*
G01X21965Y33238D01*
G01X21997Y33233D01*
G01X22024Y33227D01*
G01X22045Y33220D01*
G01X22060Y33214D01*
G01X22069Y33207D01*
G01X22073Y33200D01*
G01X22072Y33197D01*
G01X22071Y33192D01*
G01X22069Y33185D01*
G01X22066Y33177D01*
G01X22063Y33168D01*
G01X22058Y33157D01*
G01X22054Y33145D01*
G01X22048Y33132D01*
G01X22042Y33117D01*
G01X22035Y33101D01*
G01X22026Y33084D01*
G01X22018Y33065D01*
G01X22009Y33044D01*
G01X21999Y33023D01*
G01X21988Y33001D01*
G01X21977Y32977D01*
G01X21965Y32952D01*
G01X21953Y32926D01*
G01X21940Y32898D01*
G01X21925Y32870D01*
G01X21911Y32840D01*
G01X21896Y32809D01*
G01X21880Y32777D01*
G01X21864Y32744D01*
G01X21829Y32674D01*
G01X21773Y32561D01*
G01X21753Y32522D01*
G01X21691Y32397D01*
G01X21668Y32354D01*
G01X21646Y32309D01*
G01X21623Y32264D01*
G01X21575Y32170D01*
G01X21550Y32121D01*
G01X21525Y32073D01*
G01X21500Y32022D01*
G01X21474Y31971D01*
G01X21447Y31920D01*
G01X21393Y31814D01*
G01X21365Y31760D01*
G01X21337Y31705D01*
G01X21309Y31649D01*
G01X21279Y31593D01*
G01X21250Y31536D01*
G01X21220Y31478D01*
G01X21190Y31419D01*
G01X21159Y31360D01*
G01X21128Y31300D01*
G01X21064Y31178D01*
G01X21000Y31054D01*
G01X20967Y30991D01*
G01X20934Y30927D01*
G01X20867Y30798D01*
G01X20832Y30732D01*
G01X20798Y30666D01*
G01X20693Y30465D01*
G01X20621Y30329D01*
G01X20585Y30260D01*
G01X20549Y30190D01*
G01X20512Y30121D01*
G01X20475Y30051D01*
G01X20364Y29838D01*
G01X20326Y29766D01*
G01X20288Y29695D01*
G01X20250Y29623D01*
G01X20212Y29550D01*
G01X20173Y29477D01*
G01X20135Y29404D01*
G01X20096Y29330D01*
G01X20057Y29257D01*
G01X19940Y29035D01*
G01X19900Y28961D01*
G01X19861Y28886D01*
G01X19821Y28812D01*
G01X19782Y28737D01*
G01X19741Y28662D01*
G01X19702Y28587D01*
G01X19541Y28286D01*
G01X19501Y28210D01*
G01X19421Y28060D01*
G01X19381Y27984D01*
G01X19341Y27909D01*
G01X19300Y27834D01*
G01X19180Y27608D01*
G01X19139Y27533D01*
G01X19019Y27309D01*
G01X18979Y27234D01*
G01X18859Y27012D01*
G01X18780Y26865D01*
G01X18740Y26792D01*
G01X18701Y26719D01*
G01X18661Y26647D01*
G01X18622Y26574D01*
G01X18583Y26502D01*
G01X18545Y26430D01*
G01X18467Y26288D01*
G01X18440Y26238D01*
G01X18412Y26187D01*
G01X18385Y26136D01*
G01X18357Y26084D01*
G01X18270Y25925D01*
G01X18241Y25870D01*
G01X18212Y25816D01*
G01X18152Y25705D01*
G01X18122Y25649D01*
G01X18061Y25537D01*
G01X18030Y25479D01*
G01X17968Y25364D01*
G01X17937Y25307D01*
G01X17906Y25248D01*
G01X17874Y25190D01*
G01X17812Y25072D01*
G01X17748Y24954D01*
G01X17684Y24835D01*
G01X17652Y24775D01*
G01X17620Y24716D01*
G01X17524Y24536D01*
G01X17460Y24418D01*
G01X17429Y24358D01*
G01X17397Y24298D01*
G01X17365Y24239D01*
G01X17334Y24180D01*
G01X17302Y24120D01*
G01X17271Y24061D01*
G01X17239Y24003D01*
G01X17178Y23886D01*
G01X17116Y23770D01*
G01X17086Y23713D01*
G01X17055Y23656D01*
G01X17025Y23599D01*
G01X16965Y23487D01*
G01X16878Y23322D01*
G01X16849Y23268D01*
G01X16821Y23214D01*
G01X16792Y23161D01*
G01X16765Y23108D01*
G01X16737Y23057D01*
G01X16710Y23005D01*
G01X16683Y22954D01*
G01X16657Y22904D01*
G01X16605Y22806D01*
G01X16580Y22758D01*
G01X16530Y22664D01*
G01X16506Y22618D01*
G01X16483Y22573D01*
G01X16460Y22529D01*
G01X16437Y22486D01*
G01X16415Y22443D01*
G01X16393Y22402D01*
G01X16372Y22361D01*
G01X16326Y22274D01*
G01X16281Y22188D01*
G01X16236Y22104D01*
G01X16192Y22021D01*
G01X16148Y21940D01*
G01X16105Y21859D01*
G01X16019Y21703D01*
G01X15935Y21553D01*
G01X15894Y21480D01*
G01X15853Y21408D01*
G01X15771Y21268D01*
G01X15731Y21200D01*
G01X15691Y21134D01*
G01X15651Y21069D01*
G01X15612Y21005D01*
G01X15573Y20942D01*
G01X15534Y20880D01*
G01X15496Y20820D01*
G01X15457Y20761D01*
G01X15418Y20703D01*
G01X15342Y20591D01*
G01X15305Y20537D01*
G01X15266Y20484D01*
G01X15229Y20432D01*
G01X15191Y20381D01*
G01X15154Y20331D01*
G01X15117Y20283D01*
G01X15079Y20235D01*
G01X15042Y20189D01*
G01X15004Y20144D01*
G01X14930Y20056D01*
G01X14892Y20015D01*
G01X14855Y19974D01*
G01X14817Y19933D01*
G01X14780Y19894D01*
G01X14742Y19857D01*
G01X14705Y19820D01*
G01X14666Y19784D01*
G01X14629Y19749D01*
G01X14591Y19714D01*
G01X14552Y19681D01*
G01X14514Y19649D01*
G01X14436Y19587D01*
G01X14397Y19558D01*
G01X14358Y19530D01*
G01X14318Y19502D01*
G01X14279Y19475D01*
G01X14239Y19449D01*
G01X14199Y19424D01*
G01X14117Y19376D01*
G01X14076Y19354D01*
G01X14034Y19332D01*
G01X13950Y19290D01*
G01X13864Y19252D01*
G01X13820Y19234D01*
G01X13732Y19200D01*
G01X13687Y19184D01*
G01X13641Y19169D01*
G01X13596Y19155D01*
G01X13549Y19140D01*
G01X13503Y19127D01*
G01X13407Y19103D01*
G01X13309Y19081D01*
G01X13260Y19071D01*
G01X13209Y19061D01*
G01X13158Y19053D01*
G01X13107Y19044D01*
G01X13055Y19036D01*
G01X13002Y19029D01*
G01X12948Y19022D01*
G01X12894Y19016D01*
G01X12839Y19010D01*
G01X12783Y19005D01*
G01X12726Y19000D01*
G01X12670Y18996D01*
G01X12611Y18992D01*
G01X12553Y18989D01*
G01X12433Y18983D01*
G01X12309Y18979D01*
G01X12183Y18977D01*
G01X11941Y18977D01*
G01X11856Y18978D01*
G01X11773Y18979D01*
G01X11694Y18982D01*
G01X11616Y18985D01*
G01X11541Y18989D01*
G01X11468Y18993D01*
G01X11397Y18998D01*
G01X11328Y19004D01*
G01X11261Y19011D01*
G01X11196Y19019D01*
G01X11132Y19027D01*
G01X11069Y19036D01*
G01X11008Y19046D01*
G01X10948Y19058D01*
G01X10890Y19069D01*
G01X10833Y19083D01*
G01X10776Y19096D01*
G01X10720Y19111D01*
G01X10665Y19127D01*
G01X10610Y19144D01*
G01X10556Y19162D01*
G01X10502Y19181D01*
G01X10449Y19201D01*
G01X10396Y19223D01*
G01X10342Y19245D01*
G01X10289Y19268D01*
G01X10236Y19293D01*
G01X10182Y19319D01*
G01X10127Y19347D01*
G01X10073Y19375D01*
G01X9997Y19415D01*
G01X9926Y19453D01*
G01X9860Y19490D01*
G01X9799Y19524D01*
G01X9743Y19558D01*
G01X9691Y19591D01*
G01X9643Y19623D01*
G01X9599Y19654D01*
G01X9559Y19686D01*
G01X9522Y19718D01*
G01X9488Y19751D01*
G01X9458Y19785D01*
G01X9432Y19820D01*
G01X9407Y19856D01*
G01X9385Y19895D01*
G01X9366Y19936D01*
G01X9349Y19980D01*
G01X9334Y20026D01*
G01X9320Y20076D01*
G01X9309Y20129D01*
G01X9298Y20186D01*
G01X9290Y20247D01*
G01X9282Y20313D01*
G01X9275Y20384D01*
G01X9268Y20460D01*
G01X9262Y20541D01*
G01X9257Y20628D01*
G01X9245Y20816D01*
G01X9237Y20906D01*
G01X9229Y20993D01*
G01X9219Y21074D01*
G01X9208Y21152D01*
G01X9195Y21226D01*
G01X9182Y21296D01*
G01X9167Y21361D01*
G01X9151Y21423D01*
G01X9133Y21481D01*
G01X9115Y21536D01*
G01X9095Y21586D01*
G01X9073Y21633D01*
G01X9051Y21675D01*
G01X9027Y21714D01*
G01X9001Y21751D01*
G01X8974Y21783D01*
G01X8946Y21811D01*
G01X8916Y21836D01*
G01X8885Y21858D01*
G01X8828Y21892D01*
G01X8774Y21920D01*
G01X8724Y21942D01*
G01X8678Y21957D01*
G01X8634Y21967D01*
G01X8596Y21972D01*
G01X8560Y21971D01*
G01X8529Y21964D01*
G01X8501Y21953D01*
G01X8478Y21935D01*
G01X8458Y21913D01*
G01X8442Y21886D01*
G01X8430Y21853D01*
G01X8423Y21816D01*
G01X8419Y21773D01*
G01X8420Y21727D01*
G01X8424Y21675D01*
G01X8433Y21619D01*
G01X8447Y21560D01*
G01X8465Y21495D01*
G01X8487Y21426D01*
G01X8514Y21353D01*
G01X8545Y21277D01*
G01X8580Y21196D01*
G01X8613Y21123D01*
G01X8643Y21052D01*
G01X8671Y20984D01*
G01X8695Y20918D01*
G01X8716Y20854D01*
G01X8735Y20793D01*
G01X8750Y20734D01*
G01X8763Y20677D01*
G01X8773Y20621D01*
G01X8779Y20568D01*
G01X8783Y20517D01*
G01X8783Y20467D01*
G01X8781Y20419D01*
G01X8775Y20372D01*
G01X8766Y20327D01*
G01X8754Y20283D01*
G01X8739Y20241D01*
G01X8720Y20200D01*
G01X8698Y20159D01*
G01X8673Y20120D01*
G01X8645Y20083D01*
G01X8613Y20046D01*
G01X8578Y20009D01*
G01X8540Y19974D01*
G01X8498Y19939D01*
G01X8453Y19905D01*
G01X8404Y19871D01*
G01X8352Y19838D01*
G01X8296Y19805D01*
G01X8237Y19772D01*
G01X8174Y19740D01*
G01X8108Y19707D01*
G01X8031Y19671D01*
G01X7959Y19638D01*
G01X7890Y19607D01*
G01X7825Y19579D01*
G01X7763Y19553D01*
G01X7703Y19531D01*
G01X7646Y19510D01*
G01X7591Y19491D01*
G01X7538Y19476D01*
G01X7486Y19463D01*
G01X7435Y19452D01*
G01X7385Y19444D01*
G01X7336Y19439D01*
G01X7286Y19435D01*
G01X7236Y19434D01*
G01X7186Y19436D01*
G01X7135Y19440D01*
G01X7083Y19446D01*
G01X7030Y19454D01*
G01X6974Y19465D01*
G01X6917Y19478D01*
G01X6857Y19494D01*
G01X6794Y19512D01*
G01X6728Y19532D01*
G01X6659Y19554D01*
G01X6586Y19579D01*
G01X6510Y19606D01*
G01X6428Y19635D01*
G01X6345Y19664D01*
G01X6266Y19689D01*
G01X6192Y19710D01*
G01X6122Y19727D01*
G01X6057Y19740D01*
G01X5996Y19750D01*
G01X5940Y19756D01*
G01X5889Y19758D01*
G01X5844Y19756D01*
G01X5802Y19751D01*
G01X5767Y19742D01*
G01X5736Y19730D01*
G01X5711Y19715D01*
G01X5691Y19696D01*
G01X5677Y19674D01*
G01X5668Y19648D01*
G01X5666Y19619D01*
G01X5668Y19587D01*
G01X5677Y19552D01*
G01X5692Y19514D01*
G01X5713Y19473D01*
G01X5740Y19428D01*
G01X5773Y19381D01*
G01X5813Y19330D01*
G01X5834Y19307D01*
G01X5858Y19285D01*
G01X5885Y19263D01*
G01X5914Y19244D01*
G01X5946Y19224D01*
G01X5980Y19206D01*
G01X6018Y19189D01*
G01X6058Y19173D01*
G01X6101Y19158D01*
G01X6147Y19144D01*
G01X6196Y19131D01*
G01X6248Y19120D01*
G01X6303Y19108D01*
G01X6361Y19099D01*
G01X6422Y19090D01*
G01X6486Y19082D01*
G01X6554Y19075D01*
G01X6624Y19069D01*
G01X6698Y19064D01*
G01X6776Y19060D01*
G01X6856Y19056D01*
G01X6940Y19054D01*
G01X7027Y19053D01*
G01X7118Y19052D01*
G01X7205Y19052D01*
G01X7291Y19050D01*
G01X7375Y19047D01*
G01X7456Y19044D01*
G01X7535Y19039D01*
G01X7610Y19034D01*
G01X7682Y19028D01*
G01X7751Y19021D01*
G01X7815Y19013D01*
G01X7876Y19005D01*
G01X7932Y18996D01*
G01X7983Y18987D01*
G01X8030Y18976D01*
G01X8071Y18965D01*
G01X8107Y18954D01*
G01X8136Y18942D01*
G01X8160Y18930D01*
G01X8177Y18918D01*
G01X8187Y18905D01*
G01X8191Y18892D01*
G01X8188Y18855D01*
G01X8180Y18818D01*
G01X8166Y18781D01*
G01X8146Y18744D01*
G01X8122Y18707D01*
G01X8094Y18669D01*
G01X8061Y18632D01*
G01X8024Y18596D01*
G01X7984Y18560D01*
G01X7941Y18526D01*
G01X7894Y18492D01*
G01X7844Y18460D01*
G01X7792Y18429D01*
G01X7738Y18400D01*
G01X7681Y18373D01*
G01X7624Y18347D01*
G01X7565Y18325D01*
G01X7505Y18304D01*
G01X7444Y18285D01*
G01X7382Y18270D01*
G01X7321Y18257D01*
G01X7259Y18247D01*
G01X7198Y18241D01*
G01X7138Y18238D01*
G01X7074Y18235D01*
G01X7011Y18228D01*
G01X6950Y18217D01*
G01X6892Y18203D01*
G01X6836Y18186D01*
G01X6784Y18166D01*
G01X6738Y18143D01*
G01X6695Y18118D01*
G01X6659Y18091D01*
G01X6630Y18063D01*
G01X6608Y18033D01*
G01X6593Y18002D01*
G01X6586Y17968D01*
G01X6586Y17938D01*
G01X6594Y17910D01*
G01X6610Y17885D01*
G01X6632Y17862D01*
G01X6660Y17842D01*
G01X6694Y17825D01*
G01X6733Y17809D01*
G01X6777Y17797D01*
G01X6825Y17788D01*
G01X6878Y17781D01*
G01X6934Y17776D01*
G01X6993Y17774D01*
G01X7055Y17775D01*
G01X7118Y17778D01*
G01X7183Y17784D01*
G01X7250Y17792D01*
G01X7317Y17802D01*
G01X7384Y17816D01*
G01X7451Y17831D01*
G01X7518Y17849D01*
G01X7583Y17869D01*
G01X7647Y17892D01*
G01X7709Y17917D01*
G01X7769Y17945D01*
G01X7825Y17975D01*
G01X7879Y18007D01*
G01X7928Y18042D01*
G01X7989Y18087D01*
G01X8046Y18128D01*
G01X8100Y18165D01*
G01X8150Y18197D01*
G01X8196Y18225D01*
G01X8238Y18249D01*
G01X8277Y18268D01*
G01X8311Y18283D01*
G01X8342Y18294D01*
G01X8370Y18300D01*
G01X8393Y18301D01*
G01X8413Y18299D01*
G01X8429Y18292D01*
G01X8441Y18281D01*
G01X8449Y18265D01*
G01X8454Y18245D01*
G01X8454Y18221D01*
G01X8451Y18193D01*
G01X8444Y18160D01*
G01X8433Y18123D01*
G01X8419Y18082D01*
G01X8400Y18036D01*
G01X8378Y17986D01*
G01X8352Y17931D01*
G01X8322Y17873D01*
G01X8288Y17810D01*
G01X8250Y17743D01*
G01X8209Y17672D01*
G01X8144Y17561D01*
G01X8085Y17460D01*
G01X8034Y17371D01*
G01X7988Y17290D01*
G01X7950Y17218D01*
G01X7917Y17155D01*
G01X7891Y17099D01*
G01X7871Y17051D01*
G01X7858Y17010D01*
G01X7851Y16975D01*
G01X7850Y16946D01*
G01X7855Y16923D01*
G01X7865Y16904D01*
G01X7882Y16889D01*
G01X7905Y16878D01*
G01X7933Y16870D01*
G01X7967Y16865D01*
G01X8007Y16862D01*
G01X8052Y16861D01*
G01X8103Y16861D01*
G01X8136Y16864D01*
G01X8170Y16872D01*
G01X8206Y16886D01*
G01X8243Y16906D01*
G01X8282Y16931D01*
G01X8322Y16960D01*
G01X8362Y16994D01*
G01X8402Y17032D01*
G01X8444Y17073D01*
G01X8486Y17119D01*
G01X8527Y17167D01*
G01X8569Y17219D01*
G01X8610Y17274D01*
G01X8651Y17330D01*
G01X8691Y17389D01*
G01X8730Y17450D01*
G01X8769Y17512D01*
G01X8806Y17576D01*
G01X8842Y17640D01*
G01X8876Y17706D01*
G01X8909Y17771D01*
G01X8940Y17837D01*
G01X8968Y17903D01*
G01X8995Y17969D01*
G01X9019Y18034D01*
G01X9040Y18098D01*
G01X9059Y18160D01*
G01X9074Y18221D01*
G01X9087Y18280D01*
G01X9096Y18338D01*
G01X9102Y18393D01*
G01X9104Y18444D01*
G01X9104Y18510D01*
G01X9106Y18567D01*
G01X9110Y18616D01*
G01X9117Y18657D01*
G01X9126Y18690D01*
G01X9139Y18716D01*
G01X9157Y18735D01*
G01X9179Y18745D01*
G01X9207Y18749D01*
G01X9241Y18746D01*
G01X9282Y18736D01*
G01X9330Y18720D01*
G01X9386Y18697D01*
G01X9450Y18668D01*
G01X9523Y18633D01*
G01X9607Y18592D01*
G01X9652Y18570D01*
G01X9699Y18549D01*
G01X9747Y18528D01*
G01X9797Y18507D01*
G01X9848Y18488D01*
G01X9901Y18468D01*
G01X9955Y18450D01*
G01X10010Y18431D01*
G01X10067Y18413D01*
G01X10124Y18396D01*
G01X10183Y18378D01*
G01X10243Y18362D01*
G01X10305Y18346D01*
G01X10367Y18331D01*
G01X10430Y18315D01*
G01X10494Y18301D01*
G01X10559Y18287D01*
G01X10625Y18273D01*
G01X10691Y18261D01*
G01X10758Y18248D01*
G01X10827Y18236D01*
G01X10895Y18225D01*
G01X10964Y18213D01*
G01X11104Y18193D01*
G01X11175Y18183D01*
G01X11246Y18175D01*
G01X11317Y18166D01*
G01X11389Y18158D01*
G01X11533Y18144D01*
G01X11605Y18138D01*
G01X11678Y18132D01*
G01X11751Y18127D01*
G01X11823Y18122D01*
G01X11968Y18114D01*
G01X12040Y18111D01*
G01X12184Y18107D01*
G01X12256Y18106D01*
G01X12398Y18104D01*
G01X12468Y18104D01*
G01X12608Y18106D01*
G01X12677Y18108D01*
G01X12813Y18114D01*
G01X12880Y18117D01*
G01X12946Y18121D01*
G01X13076Y18131D01*
G01X13140Y18137D01*
G01X13202Y18143D01*
G01X13264Y18150D01*
G01X13325Y18158D01*
G01X13385Y18166D01*
G01X13501Y18184D01*
G01X13611Y18204D01*
G01X13665Y18215D01*
G01X13717Y18227D01*
G01X13768Y18239D01*
G01X13817Y18251D01*
G01X13911Y18279D01*
G01X13955Y18294D01*
G01X13998Y18309D01*
G01X14039Y18325D01*
G01X14079Y18341D01*
G01X14116Y18358D01*
G01X14152Y18375D01*
G01X14186Y18394D01*
G01X14218Y18412D01*
G01X14232Y18418D01*
G01X14241Y18416D01*
G01X14246Y18406D01*
G01X14246Y18389D01*
G01X14242Y18364D01*
G01X14235Y18333D01*
G01X14223Y18296D01*
G01X14207Y18252D01*
G01X14188Y18203D01*
G01X14165Y18149D01*
G01X14139Y18089D01*
G01X14109Y18025D01*
G01X14077Y17957D01*
G01X14041Y17885D01*
G01X14002Y17809D01*
G01X13961Y17731D01*
G01X13927Y17668D01*
G01X13894Y17605D01*
G01X13794Y17418D01*
G01X13761Y17355D01*
G01X13593Y17042D01*
G01X13527Y16918D01*
G01X13493Y16855D01*
G01X13460Y16793D01*
G01X13426Y16731D01*
G01X13393Y16670D01*
G01X13360Y16608D01*
G01X13261Y16423D01*
G01X13129Y16179D01*
G01X13096Y16119D01*
G01X13064Y16058D01*
G01X12966Y15879D01*
G01X12934Y15819D01*
G01X12870Y15701D01*
G01X12806Y15584D01*
G01X12775Y15526D01*
G01X12743Y15468D01*
G01X12712Y15410D01*
G01X12681Y15353D01*
G01X12649Y15296D01*
G01X12619Y15239D01*
G01X12588Y15183D01*
G01X12527Y15071D01*
G01X12496Y15015D01*
G01X12436Y14906D01*
G01X12406Y14851D01*
G01X12377Y14798D01*
G01X12347Y14744D01*
G01X12319Y14691D01*
G01X12261Y14586D01*
G01X12204Y14483D01*
G01X12176Y14432D01*
G01X12120Y14331D01*
G01X12092Y14281D01*
G01X12039Y14184D01*
G01X11985Y14088D01*
G01X11933Y13994D01*
G01X11908Y13948D01*
G01X11882Y13903D01*
G01X11857Y13858D01*
G01X11832Y13814D01*
G01X11808Y13769D01*
G01X11760Y13683D01*
G01X11736Y13641D01*
G01X11712Y13600D01*
G01X11690Y13559D01*
G01X11667Y13519D01*
G01X11078Y12477D01*
G01X13891Y12477D01*
G01X13972Y12476D01*
G01X14134Y12476D01*
G01X14214Y12475D01*
G01X14296Y12475D01*
G01X14457Y12474D01*
G01X14538Y12473D01*
G01X14779Y12470D01*
G01X14859Y12469D01*
G01X14938Y12468D01*
G01X15095Y12465D01*
G01X15173Y12464D01*
G01X15251Y12462D01*
G01X15328Y12460D01*
G01X15404Y12459D01*
G01X15480Y12457D01*
G01X15629Y12453D01*
G01X15775Y12449D01*
G01X15847Y12447D01*
G01X15918Y12445D01*
G01X15988Y12443D01*
G01X16057Y12440D01*
G01X16191Y12436D01*
G01X16257Y12433D01*
G01X16322Y12431D01*
G01X16385Y12428D01*
G01X16447Y12426D01*
G01X16508Y12423D01*
G01X16567Y12420D01*
G01X16625Y12418D01*
G01X16682Y12415D01*
G01X16738Y12412D01*
G01X16791Y12409D01*
G01X16843Y12406D01*
G01X16894Y12403D01*
G01X16943Y12400D01*
G01X16990Y12397D01*
G01X17035Y12394D01*
G01X17079Y12391D01*
G01X17121Y12388D01*
G01X17161Y12385D01*
G01X17199Y12381D01*
G01X17236Y12378D01*
G01X17270Y12374D01*
G01X17302Y12371D01*
G01X17332Y12368D01*
G01X17361Y12364D01*
G01X17387Y12361D01*
G01X17500Y12345D01*
G01X17603Y12330D01*
G01X17695Y12315D01*
G01X17778Y12301D01*
G01X17851Y12286D01*
G01X17915Y12270D01*
G01X17970Y12253D01*
G01X18018Y12236D01*
G01X18057Y12216D01*
G01X18089Y12194D01*
G01X18115Y12170D01*
G01X18135Y12143D01*
G01X18148Y12112D01*
G01X18156Y12079D01*
G01X18159Y12041D01*
G01X18158Y11999D01*
G01X18152Y11953D01*
G01X18143Y11901D01*
G01X18131Y11845D01*
G01X18115Y11783D01*
G01X18111Y11762D01*
G01X18106Y11738D01*
G01X18101Y11711D01*
G01X18096Y11680D01*
G01X18092Y11647D01*
G01X18087Y11610D01*
G01X18083Y11571D01*
G01X18078Y11529D01*
G01X18074Y11484D01*
G01X18070Y11437D01*
G01X18065Y11386D01*
G01X18061Y11334D01*
G01X18057Y11279D01*
G01X18053Y11222D01*
G01X18049Y11162D01*
G01X18045Y11101D01*
G01X18041Y11037D01*
G01X18038Y10971D01*
G01X18034Y10904D01*
G01X18030Y10835D01*
G01X18027Y10764D01*
G01X18023Y10691D01*
G01X18020Y10617D01*
G01X18017Y10542D01*
G01X18014Y10465D01*
G01X18012Y10387D01*
G01X18006Y10227D01*
G01X18004Y10145D01*
G01X18001Y10062D01*
G01X17999Y9979D01*
G01X17997Y9895D01*
G01X17996Y9811D01*
G01X17994Y9725D01*
G01X17993Y9639D01*
G01X17991Y9553D01*
G01X17989Y9379D01*
G01X17988Y9204D01*
G01X17988Y9098D01*
G01X17987Y8994D01*
G01X17987Y8893D01*
G01X17988Y8794D01*
G01X17988Y8697D01*
G01X17989Y8604D01*
G01X17990Y8513D01*
G01X17992Y8424D01*
G01X17993Y8338D01*
G01X17995Y8254D01*
G01X17998Y8173D01*
G01X18000Y8093D01*
G01X18004Y8016D01*
G01X18007Y7941D01*
G01X18010Y7868D01*
G01X18014Y7797D01*
G01X18018Y7728D01*
G01X18023Y7661D01*
G01X18027Y7596D01*
G01X18032Y7533D01*
G01X18038Y7472D01*
G01X18044Y7412D01*
G01X18050Y7354D01*
G01X18057Y7298D01*
G01X18071Y7190D01*
G01X18079Y7139D01*
G01X18087Y7089D01*
G01X18095Y7040D01*
G01X18105Y6993D01*
G01X18114Y6947D01*
G01X18123Y6902D01*
G01X18134Y6859D01*
G01X18144Y6817D01*
G01X18155Y6776D01*
G01X18167Y6736D01*
G01X18178Y6697D01*
G01X18190Y6659D01*
G01X18203Y6622D01*
G01X18216Y6586D01*
G01X18244Y6516D01*
G01X18258Y6483D01*
G01X18273Y6450D01*
G01X18297Y6399D01*
G01X18322Y6347D01*
G01X18348Y6297D01*
G01X18404Y6195D01*
G01X18433Y6145D01*
G01X18463Y6094D01*
G01X18495Y6044D01*
G01X18527Y5993D01*
G01X18560Y5943D01*
G01X18594Y5893D01*
G01X18629Y5844D01*
G01X18664Y5794D01*
G01X18701Y5744D01*
G01X18738Y5696D01*
G01X18776Y5647D01*
G01X18815Y5598D01*
G01X18855Y5550D01*
G01X18896Y5503D01*
G01X18937Y5455D01*
G01X18978Y5408D01*
G01X19021Y5361D01*
G01X19064Y5315D01*
G01X19108Y5269D01*
G01X19243Y5134D01*
G01X19289Y5091D01*
G01X19337Y5047D01*
G01X19384Y5005D01*
G01X19480Y4921D01*
G01X19529Y4880D01*
G01X19578Y4840D01*
G01X19628Y4800D01*
G01X19678Y4761D01*
G01X19728Y4723D01*
G01X19779Y4685D01*
G01X19830Y4648D01*
G01X19882Y4612D01*
G01X19934Y4577D01*
G01X20039Y4509D01*
G01X20091Y4476D01*
G01X20144Y4444D01*
G01X20198Y4412D01*
G01X20251Y4383D01*
G01X20304Y4353D01*
G01X20976Y3992D01*
G01X20976Y2572D01*
G01X20977Y2475D01*
G01X20978Y2380D01*
G01X20980Y2287D01*
G01X20982Y2196D01*
G01X20985Y2107D01*
G01X20989Y2021D01*
G01X20993Y1938D01*
G01X20998Y1857D01*
G01X21003Y1780D01*
G01X21009Y1706D01*
G01X21015Y1636D01*
G01X21022Y1570D01*
G01X21029Y1507D01*
G01X21036Y1449D01*
G01X21044Y1396D01*
G01X21053Y1347D01*
G01X21062Y1304D01*
G01X21071Y1264D01*
G01X21080Y1231D01*
G01X21090Y1203D01*
G01X21099Y1182D01*
G01X21109Y1166D01*
G01X21120Y1156D01*
G01X21130Y1153D01*
G01X21145Y1155D01*
G01X21160Y1161D01*
G01X21175Y1171D01*
G01X21192Y1186D01*
G01X21209Y1203D01*
G01X21225Y1225D01*
G01X21243Y1251D01*
G01X21260Y1280D01*
G01X21279Y1312D01*
G01X21297Y1347D01*
G01X21316Y1386D01*
G01X21334Y1427D01*
G01X21354Y1472D01*
G01X21373Y1520D01*
G01X21392Y1570D01*
G01X21412Y1623D01*
G01X21432Y1678D01*
G01X21451Y1736D01*
G01X21471Y1796D01*
G01X21490Y1859D01*
G01X21510Y1923D01*
G01X21529Y1990D01*
G01X21548Y2058D01*
G01X21567Y2128D01*
G01X21586Y2200D01*
G01X21605Y2273D01*
G01X21623Y2347D01*
G01X21659Y2501D01*
G01X21676Y2579D01*
G01X21710Y2739D01*
G01X21726Y2820D01*
G01X21756Y2984D01*
G01X21771Y3067D01*
G01X21785Y3150D01*
G01X21798Y3233D01*
G01X21822Y3400D01*
G01X21936Y4234D01*
G01X21137Y4617D01*
G01X21076Y4646D01*
G01X21017Y4675D01*
G01X20959Y4704D01*
G01X20902Y4733D01*
G01X20845Y4763D01*
G01X20789Y4791D01*
G01X20735Y4821D01*
G01X20681Y4850D01*
G01X20627Y4880D01*
G01X20524Y4940D01*
G01X20473Y4970D01*
G01X20375Y5030D01*
G01X20327Y5061D01*
G01X20279Y5091D01*
G01X20187Y5153D01*
G01X20143Y5185D01*
G01X20099Y5216D01*
G01X20055Y5248D01*
G01X19971Y5312D01*
G01X19930Y5345D01*
G01X19890Y5378D01*
G01X19851Y5411D01*
G01X19812Y5445D01*
G01X19774Y5479D01*
G01X19737Y5513D01*
G01X19665Y5583D01*
G01X19630Y5618D01*
G01X19562Y5690D01*
G01X19529Y5727D01*
G01X19497Y5764D01*
G01X19466Y5801D01*
G01X19435Y5839D01*
G01X19375Y5917D01*
G01X19346Y5956D01*
G01X19318Y5996D01*
G01X19264Y6078D01*
G01X19212Y6161D01*
G01X19187Y6204D01*
G01X19163Y6247D01*
G01X19116Y6335D01*
G01X19094Y6380D01*
G01X19072Y6426D01*
G01X19051Y6472D01*
G01X19030Y6519D01*
G01X18990Y6615D01*
G01X18971Y6664D01*
G01X18935Y6764D01*
G01X18918Y6815D01*
G01X18901Y6867D01*
G01X18885Y6919D01*
G01X18869Y6973D01*
G01X18854Y7027D01*
G01X18839Y7082D01*
G01X18825Y7137D01*
G01X18811Y7194D01*
G01X18799Y7251D01*
G01X18786Y7309D01*
G01X18762Y7427D01*
G01X18751Y7488D01*
G01X18740Y7550D01*
G01X18730Y7612D01*
G01X18720Y7675D01*
G01X18711Y7739D01*
G01X18693Y7871D01*
G01X18685Y7938D01*
G01X18678Y8006D01*
G01X18671Y8075D01*
G01X18657Y8215D01*
G01X18651Y8288D01*
G01X18641Y8434D01*
G01X18631Y8586D01*
G01X18627Y8663D01*
G01X18624Y8741D01*
G01X18621Y8820D01*
G01X18615Y8982D01*
G01X18613Y9065D01*
G01X18609Y9233D01*
G01X18607Y9407D01*
G01X18607Y9496D01*
G01X18606Y9585D01*
G01X18606Y9760D01*
G01X18607Y9847D01*
G01X18607Y9933D01*
G01X18608Y10019D01*
G01X18609Y10104D01*
G01X18611Y10272D01*
G01X18612Y10354D01*
G01X18613Y10435D01*
G01X18615Y10516D01*
G01X18617Y10595D01*
G01X18619Y10673D01*
G01X18621Y10749D01*
G01X18623Y10824D01*
G01X18625Y10898D01*
G01X18628Y10970D01*
G01X18630Y11040D01*
G01X18633Y11108D01*
G01X18636Y11175D01*
G01X18639Y11240D01*
G01X18642Y11303D01*
G01X18645Y11363D01*
G01X18648Y11422D01*
G01X18652Y11479D01*
G01X18655Y11533D01*
G01X18659Y11584D01*
G01X18662Y11634D01*
G01X18666Y11681D01*
G01X18671Y11725D01*
G01X18674Y11766D01*
G01X18678Y11805D01*
G01X18682Y11841D01*
G01X18687Y11874D01*
G01X18691Y11904D01*
G01X18695Y11930D01*
G01X18699Y11954D01*
G01X18704Y11975D01*
G01X18709Y11992D01*
G01X18713Y12005D01*
G01X18728Y12038D01*
G01X18735Y12048D01*
G01X18743Y12057D01*
G01X18751Y12067D01*
G01X18760Y12076D01*
G01X18770Y12085D01*
G01X18781Y12094D01*
G01X18793Y12103D01*
G01X18821Y12119D01*
G01X18836Y12127D01*
G01X18853Y12135D01*
G01X18871Y12142D01*
G01X18890Y12150D01*
G01X18911Y12156D01*
G01X18933Y12164D01*
G01X18957Y12170D01*
G01X18982Y12176D01*
G01X19009Y12182D01*
G01X19037Y12188D01*
G01X19099Y12200D01*
G01X19133Y12205D01*
G01X19168Y12210D01*
G01X19206Y12215D01*
G01X19245Y12219D01*
G01X19287Y12224D01*
G01X19330Y12229D01*
G01X19375Y12233D01*
G01X19423Y12237D01*
G01X19473Y12240D01*
G01X19524Y12244D01*
G01X19579Y12247D01*
G01X19635Y12251D01*
G01X19694Y12254D01*
G01X19756Y12257D01*
G01X19820Y12260D01*
G01X19886Y12263D01*
G01X19955Y12266D01*
G01X20027Y12268D01*
G01X20101Y12270D01*
G01X20178Y12272D01*
G01X20258Y12274D01*
G01X20341Y12276D01*
G01X20426Y12278D01*
G01X20515Y12280D01*
G01X20607Y12281D01*
G01X20701Y12283D01*
G01X20799Y12284D01*
G01X20899Y12285D01*
G01X21003Y12287D01*
G01X21110Y12288D01*
G01X21221Y12289D01*
G01X21335Y12290D01*
G01X21452Y12291D01*
G01X21573Y12291D01*
G01X21697Y12292D01*
G01X21824Y12292D01*
G01X21956Y12293D01*
G01X22090Y12293D01*
G01X22229Y12294D01*
G01X27134Y12294D01*
G01X27250Y11061D01*
G01X27259Y10967D01*
G01X27267Y10874D01*
G01X27276Y10781D01*
G01X27283Y10689D01*
G01X27291Y10598D01*
G01X27298Y10507D01*
G01X27305Y10418D01*
G01X27317Y10242D01*
G01X27322Y10154D01*
G01X27328Y10069D01*
G01X27333Y9983D01*
G01X27338Y9898D01*
G01X27346Y9732D01*
G01X27349Y9650D01*
G01X27352Y9569D01*
G01X27358Y9409D01*
G01X27362Y9253D01*
G01X27364Y9177D01*
G01X27365Y9101D01*
G01X27366Y9026D01*
G01X27366Y8735D01*
G01X27364Y8595D01*
G01X27362Y8527D01*
G01X27361Y8459D01*
G01X27359Y8393D01*
G01X27356Y8327D01*
G01X27350Y8199D01*
G01X27347Y8136D01*
G01X27343Y8074D01*
G01X27339Y8013D01*
G01X27334Y7953D01*
G01X27324Y7837D01*
G01X27318Y7780D01*
G01X27313Y7724D01*
G01X27307Y7669D01*
G01X27300Y7615D01*
G01X27286Y7511D01*
G01X27278Y7460D01*
G01X27270Y7410D01*
G01X27254Y7314D01*
G01X27245Y7267D01*
G01X27235Y7222D01*
G01X27226Y7178D01*
G01X27216Y7134D01*
G01X27206Y7092D01*
G01X27195Y7051D01*
G01X27185Y7011D01*
G01X27173Y6972D01*
G01X27162Y6934D01*
G01X27150Y6897D01*
G01X27137Y6861D01*
G01X27125Y6827D01*
G01X27112Y6793D01*
G01X27099Y6760D01*
G01X27086Y6729D01*
G01X27072Y6700D01*
G01X27051Y6656D01*
G01X27028Y6613D01*
G01X27003Y6569D01*
G01X26977Y6524D01*
G01X26948Y6479D01*
G01X26919Y6433D01*
G01X26887Y6387D01*
G01X26855Y6339D01*
G01X26785Y6245D01*
G01X26748Y6197D01*
G01X26709Y6148D01*
G01X26670Y6100D01*
G01X26629Y6051D01*
G01X26587Y6003D01*
G01X26544Y5954D01*
G01X26454Y5856D01*
G01X26407Y5807D01*
G01X26360Y5759D01*
G01X26263Y5662D01*
G01X26163Y5566D01*
G01X26112Y5518D01*
G01X26008Y5424D01*
G01X25955Y5378D01*
G01X25901Y5332D01*
G01X25848Y5287D01*
G01X25793Y5242D01*
G01X25739Y5198D01*
G01X25629Y5112D01*
G01X25574Y5070D01*
G01X25518Y5029D01*
G01X25463Y4989D01*
G01X25407Y4949D01*
G01X25352Y4911D01*
G01X25296Y4873D01*
G01X25241Y4837D01*
G01X25186Y4802D01*
G01X25131Y4768D01*
G01X25076Y4735D01*
G01X25022Y4703D01*
G01X24968Y4672D01*
G01X24914Y4643D01*
G01X24861Y4615D01*
G01X24809Y4589D01*
G01X24756Y4563D01*
G01X24705Y4540D01*
G01X24654Y4518D01*
G01X24582Y4487D01*
G01X24515Y4458D01*
G01X24455Y4431D01*
G01X24399Y4405D01*
G01X24349Y4379D01*
G01X24305Y4355D01*
G01X24266Y4329D01*
G01X24231Y4302D01*
G01X24201Y4275D01*
G01X24175Y4245D01*
G01X24154Y4213D01*
G01X24137Y4179D01*
G01X24123Y4142D01*
G01X24113Y4101D01*
G01X24106Y4056D01*
G01X24102Y4006D01*
G01X24102Y3952D01*
G01X24104Y3892D01*
G01X24109Y3826D01*
G01X24116Y3754D01*
G01X24125Y3674D01*
G01X24136Y3588D01*
G01X24149Y3494D01*
G01X24164Y3391D01*
G01X24173Y3330D01*
G01X24182Y3267D01*
G01X24192Y3201D01*
G01X24204Y3135D01*
G01X24215Y3067D01*
G01X24239Y2927D01*
G01X24278Y2711D01*
G01X24306Y2567D01*
G01X24321Y2495D01*
G01X24349Y2355D01*
G01X24363Y2286D01*
G01X24378Y2218D01*
G01X24392Y2153D01*
G01X24406Y2089D01*
G01X24421Y2027D01*
G01X24434Y1968D01*
G01X24448Y1911D01*
G01X24461Y1857D01*
G01X24474Y1806D01*
G01X24491Y1745D01*
G01X24507Y1688D01*
G01X24523Y1635D01*
G01X24539Y1585D01*
G01X24555Y1540D01*
G01X24571Y1498D01*
G01X24587Y1460D01*
G01X24603Y1425D01*
G01X24619Y1395D01*
G01X24634Y1368D01*
G01X24650Y1344D01*
G01X24665Y1324D01*
G01X24680Y1308D01*
G01X24695Y1295D01*
G01X24710Y1286D01*
G01X24724Y1281D01*
G01X24738Y1279D01*
G01X24752Y1280D01*
G01X24766Y1285D01*
G01X24779Y1293D01*
G01X24792Y1305D01*
G01X24805Y1319D01*
G01X24818Y1338D01*
G01X24830Y1359D01*
G01X24842Y1384D01*
G01X24853Y1412D01*
G01X24865Y1443D01*
G01X24875Y1478D01*
G01X24885Y1515D01*
G01X24896Y1556D01*
G01X24905Y1600D01*
G01X24914Y1647D01*
G01X24923Y1697D01*
G01X24931Y1751D01*
G01X24939Y1807D01*
G01X24946Y1866D01*
G01X24953Y1928D01*
G01X24960Y1993D01*
G01X24965Y2062D01*
G01X24971Y2133D01*
G01X24975Y2207D01*
G01X24979Y2283D01*
G01X24983Y2363D01*
G01X24986Y2446D01*
G01X24989Y2531D01*
G01X24991Y2619D01*
G01X24992Y2709D01*
G01X24992Y2803D01*
G01X24993Y2922D01*
G01X24993Y3034D01*
G01X24994Y3137D01*
G01X24996Y3234D01*
G01X24998Y3323D01*
G01X25001Y3406D01*
G01X25006Y3483D01*
G01X25011Y3554D01*
G01X25018Y3620D01*
G01X25026Y3680D01*
G01X25036Y3736D01*
G01X25047Y3787D01*
G01X25061Y3835D01*
G01X25076Y3879D01*
G01X25094Y3920D01*
G01X25113Y3958D01*
G01X25136Y3993D01*
G01X25161Y4027D01*
G01X25189Y4059D01*
G01X25220Y4090D01*
G01X25254Y4120D01*
G01X25291Y4149D01*
G01X25331Y4178D01*
G01X25375Y4208D01*
G01X25422Y4238D01*
G01X25474Y4269D01*
G01X25529Y4301D01*
G01X25588Y4335D01*
G01X25643Y4367D01*
G01X25753Y4433D01*
G01X25806Y4466D01*
G01X25912Y4534D01*
G01X26016Y4604D01*
G01X26117Y4676D01*
G01X26217Y4750D01*
G01X26266Y4787D01*
G01X26314Y4826D01*
G01X26362Y4864D01*
G01X26456Y4942D01*
G01X26502Y4982D01*
G01X26548Y5023D01*
G01X26593Y5063D01*
G01X26682Y5146D01*
G01X26768Y5230D01*
G01X26852Y5316D01*
G01X26893Y5359D01*
G01X26973Y5447D01*
G01X27051Y5537D01*
G01X27127Y5629D01*
G01X27164Y5675D01*
G01X27200Y5721D01*
G01X27235Y5768D01*
G01X27270Y5816D01*
G01X27339Y5911D01*
G01X27372Y5959D01*
G01X27436Y6057D01*
G01X27467Y6107D01*
G01X27497Y6156D01*
G01X27527Y6206D01*
G01X27556Y6257D01*
G01X27584Y6307D01*
G01X27612Y6358D01*
G01X27631Y6393D01*
G01X27649Y6428D01*
G01X27667Y6462D01*
G01X27700Y6529D01*
G01X27716Y6562D01*
G01X27746Y6628D01*
G01X27760Y6661D01*
G01X27787Y6727D01*
G01X27823Y6829D01*
G01X27834Y6864D01*
G01X27854Y6935D01*
G01X27864Y6972D01*
G01X27873Y7009D01*
G01X27882Y7048D01*
G01X27890Y7088D01*
G01X27897Y7128D01*
G01X27905Y7170D01*
G01X27912Y7213D01*
G01X27918Y7258D01*
G01X27924Y7304D01*
G01X27930Y7351D01*
G01X27935Y7401D01*
G01X27941Y7451D01*
G01X27945Y7504D01*
G01X27949Y7559D01*
G01X27953Y7615D01*
G01X27956Y7673D01*
G01X27960Y7734D01*
G01X27962Y7797D01*
G01X27965Y7862D01*
G01X27967Y7930D01*
G01X27969Y8000D01*
G01X27971Y8073D01*
G01X27972Y8148D01*
G01X27974Y8226D01*
G01X27974Y8307D01*
G01X27975Y8391D01*
G01X27975Y8756D01*
G01X27974Y8856D01*
G01X27974Y8959D01*
G01X27973Y9065D01*
G01X27971Y9176D01*
G01X27970Y9289D01*
G01X27968Y9407D01*
G01X27967Y9528D01*
G01X27965Y9654D01*
G01X27963Y9783D01*
G01X27922Y12477D01*
G01X31538Y12477D01*
G01X31655Y12478D01*
G01X31769Y12478D01*
G01X31881Y12479D01*
G01X31990Y12479D01*
G01X32097Y12480D01*
G01X32203Y12481D01*
G01X32306Y12482D01*
G01X32406Y12483D01*
G01X32505Y12484D01*
G01X32601Y12486D01*
G01X32695Y12487D01*
G01X32787Y12489D01*
G01X32877Y12491D01*
G01X32964Y12493D01*
G01X33049Y12495D01*
G01X33132Y12497D01*
G01X33213Y12499D01*
G01X33291Y12501D01*
G01X33368Y12504D01*
G01X33442Y12506D01*
G01X33514Y12510D01*
G01X33584Y12512D01*
G01X33651Y12515D01*
G01X33716Y12519D01*
G01X33780Y12522D01*
G01X33841Y12525D01*
G01X33900Y12529D01*
G01X33956Y12532D01*
G01X34011Y12536D01*
G01X34063Y12540D01*
G01X34113Y12544D01*
G01X34161Y12548D01*
G01X34207Y12553D01*
G01X34251Y12557D01*
G01X34293Y12561D01*
G01X34332Y12566D01*
G01X34369Y12571D01*
G01X34404Y12576D01*
G01X34437Y12581D01*
G01X34468Y12586D01*
G01X34496Y12591D01*
G01X34523Y12597D01*
G01X34548Y12602D01*
G01X34590Y12614D01*
G01X34608Y12620D01*
G01X34624Y12626D01*
G01X34637Y12632D01*
G01X34649Y12639D01*
G01X34658Y12645D01*
G01X34666Y12652D01*
G01X34671Y12658D01*
G01X34674Y12665D01*
G01X34675Y12672D01*
G01X34675Y12680D01*
G01X34673Y12690D01*
G01X34671Y12701D01*
G01X34666Y12715D01*
G01X34662Y12730D01*
G01X34656Y12747D01*
G01X34649Y12766D01*
G01X34642Y12787D01*
G01X34632Y12809D01*
G01X34623Y12834D01*
G01X34612Y12859D01*
G01X34600Y12887D01*
G01X34588Y12916D01*
G01X34574Y12947D01*
G01X34560Y12979D01*
G01X34545Y13013D01*
G01X34529Y13048D01*
G01X34512Y13085D01*
G01X34494Y13123D01*
G01X34475Y13163D01*
G01X34456Y13204D01*
G01X34436Y13247D01*
G01X34415Y13291D01*
G01X34394Y13336D01*
G01X34371Y13382D01*
G01X34348Y13430D01*
G01X34324Y13479D01*
G01X34300Y13529D01*
G01X34274Y13580D01*
G01X34248Y13633D01*
G01X34222Y13687D01*
G01X34167Y13797D01*
G01X34138Y13853D01*
G01X34080Y13970D01*
G01X34049Y14029D01*
G01X34019Y14090D01*
G01X33987Y14151D01*
G01X33956Y14214D01*
G01X33923Y14277D01*
G01X33891Y14341D01*
G01X33857Y14405D01*
G01X33824Y14471D01*
G01X33789Y14537D01*
G01X33755Y14603D01*
G01X33720Y14671D01*
G01X33684Y14739D01*
G01X33612Y14877D01*
G01X33576Y14947D01*
G01X33539Y15017D01*
G01X33502Y15088D01*
G01X33426Y15230D01*
G01X33388Y15302D01*
G01X33311Y15448D01*
G01X33233Y15594D01*
G01X33154Y15741D01*
G01X33075Y15890D01*
G01X32995Y16038D01*
G01X32954Y16113D01*
G01X32914Y16187D01*
G01X32874Y16262D01*
G01X32792Y16411D01*
G01X32711Y16559D01*
G01X32670Y16633D01*
G01X32589Y16782D01*
G01X32548Y16855D01*
G01X32426Y17075D01*
G01X32386Y17147D01*
G01X32345Y17220D01*
G01X32265Y17362D01*
G01X32222Y17439D01*
G01X32182Y17512D01*
G01X32144Y17581D01*
G01X32109Y17647D01*
G01X32076Y17709D01*
G01X32045Y17768D01*
G01X32017Y17823D01*
G01X31992Y17875D01*
G01X31969Y17924D01*
G01X31950Y17969D01*
G01X31932Y18011D01*
G01X31918Y18050D01*
G01X31906Y18086D01*
G01X31897Y18118D01*
G01X31892Y18148D01*
G01X31889Y18174D01*
G01X31889Y18198D01*
G01X31891Y18219D01*
G01X31897Y18237D01*
G01X31906Y18251D01*
G01X31918Y18264D01*
G01X31933Y18273D01*
G01X31951Y18280D01*
G01X31973Y18284D01*
G01X31997Y18286D01*
G01X32025Y18285D01*
G01X32056Y18281D01*
G01X32091Y18275D01*
G01X32128Y18267D01*
G01X32170Y18257D01*
G01X32214Y18243D01*
G01X32263Y18228D01*
G01X32314Y18210D01*
G01X32369Y18190D01*
G01X32428Y18169D01*
G01X32490Y18145D01*
G01X32556Y18118D01*
G01X32625Y18090D01*
G01X32698Y18060D01*
G01X32776Y18028D01*
G01X32822Y18009D01*
G01X32869Y17991D01*
G01X32915Y17974D01*
G01X32962Y17958D01*
G01X33010Y17942D01*
G01X33057Y17927D01*
G01X33105Y17913D01*
G01X33153Y17900D01*
G01X33201Y17888D01*
G01X33250Y17876D01*
G01X33299Y17865D01*
G01X33349Y17856D01*
G01X33398Y17847D01*
G01X33448Y17838D01*
G01X33498Y17831D01*
G01X33548Y17825D01*
G01X33599Y17819D01*
G01X33650Y17814D01*
G01X33754Y17806D01*
G01X33806Y17804D01*
G01X33858Y17803D01*
G01X33911Y17802D01*
G01X33964Y17802D01*
G01X34018Y17803D01*
G01X34126Y17807D01*
G01X34180Y17811D01*
G01X34235Y17815D01*
G01X34291Y17820D01*
G01X34346Y17826D01*
G01X34403Y17833D01*
G01X34459Y17841D01*
G01X34573Y17859D01*
G01X34631Y17869D01*
G01X34689Y17880D01*
G01X34807Y17904D01*
G01X34867Y17918D01*
G01X34987Y17948D01*
G01X35048Y17964D01*
G01X35109Y17981D01*
G01X35171Y17999D01*
G01X35233Y18018D01*
G01X35296Y18037D01*
G01X35422Y18079D01*
G01X35487Y18101D01*
G01X35551Y18124D01*
G01X35616Y18148D01*
G01X35748Y18198D01*
G01X35882Y18252D01*
G01X35950Y18280D01*
G01X36018Y18309D01*
G01X36087Y18339D01*
G01X36225Y18401D01*
G01X36367Y18467D01*
G01X36438Y18501D01*
G01X36510Y18536D01*
G01X36583Y18572D01*
G01X36656Y18609D01*
G01X36730Y18647D01*
G01X36749Y18651D01*
G01X36767Y18643D01*
G01X36783Y18625D01*
G01X36799Y18597D01*
G01X36814Y18561D01*
G01X36827Y18515D01*
G01X36838Y18462D01*
G01X36848Y18401D01*
G01X36856Y18334D01*
G01X36862Y18261D01*
G01X36866Y18182D01*
G01X36867Y18100D01*
G01X36869Y18015D01*
G01X36873Y17934D01*
G01X36879Y17857D01*
G01X36889Y17783D01*
G01X36902Y17712D01*
G01X36917Y17645D01*
G01X36935Y17581D01*
G01X36955Y17521D01*
G01X36978Y17464D01*
G01X37004Y17410D01*
G01X37033Y17360D01*
G01X37064Y17314D01*
G01X37098Y17271D01*
G01X37134Y17232D01*
G01X37172Y17196D01*
G01X37214Y17164D01*
G01X37258Y17136D01*
G01X37304Y17111D01*
G01X37353Y17091D01*
G01X37405Y17074D01*
G01X37458Y17060D01*
G01X37514Y17051D01*
G01X37573Y17045D01*
G01X37634Y17043D01*
G01X37695Y17044D01*
G01X37750Y17048D01*
G01X37798Y17055D01*
G01X37839Y17064D01*
G01X37873Y17076D01*
G01X37901Y17091D01*
G01X37921Y17110D01*
G01X37935Y17132D01*
G01X37943Y17157D01*
G01X37943Y17187D01*
G01X37936Y17220D01*
G01X37923Y17257D01*
G01X37902Y17298D01*
G01X37875Y17344D01*
G01X37841Y17394D01*
G01X37800Y17448D01*
G01X37752Y17508D01*
G01X37697Y17572D01*
G01X37635Y17641D01*
G01X37567Y17715D01*
G01X37517Y17769D01*
G01X37473Y17819D01*
G01X37434Y17867D01*
G01X37398Y17913D01*
G01X37367Y17955D01*
G01X37340Y17995D01*
G01X37318Y18032D01*
G01X37299Y18067D01*
G01X37285Y18098D01*
G01X37275Y18126D01*
G01X37269Y18152D01*
G01X37267Y18175D01*
G01X37268Y18195D01*
G01X37274Y18211D01*
G01X37283Y18225D01*
G01X37296Y18235D01*
G01X37312Y18242D01*
G01X37332Y18246D01*
G01X37355Y18246D01*
G01X37382Y18244D01*
G01X37412Y18238D01*
G01X37446Y18229D01*
G01X37482Y18216D01*
G01X37522Y18200D01*
G01X37565Y18180D01*
G01X37610Y18156D01*
G01X37659Y18130D01*
G01X37710Y18100D01*
G01X37765Y18066D01*
G01X37822Y18028D01*
G01X37882Y17986D01*
G01X37945Y17941D01*
G01X38017Y17888D01*
G01X38083Y17840D01*
G01X38146Y17798D01*
G01X38204Y17761D01*
G01X38258Y17728D01*
G01X38309Y17700D01*
G01X38358Y17677D01*
G01X38404Y17659D01*
G01X38450Y17645D01*
G01X38494Y17636D01*
G01X38538Y17631D01*
G01X38582Y17630D01*
G01X38627Y17634D01*
G01X38673Y17642D01*
G01X38721Y17654D01*
G01X38772Y17670D01*
G01X38825Y17689D01*
G01X38882Y17713D01*
G01X38943Y17740D01*
G01X39009Y17771D01*
G01X39515Y18013D01*
G01X38951Y18138D01*
G01X38848Y18162D01*
G01X38751Y18186D01*
G01X38660Y18210D01*
G01X38575Y18235D01*
G01X38496Y18261D01*
G01X38424Y18286D01*
G01X38357Y18313D01*
G01X38296Y18340D01*
G01X38240Y18368D01*
G01X38190Y18397D01*
G01X38145Y18427D01*
G01X38106Y18457D01*
G01X38071Y18489D01*
G01X38042Y18522D01*
G01X38017Y18556D01*
G01X37997Y18592D01*
G01X37982Y18628D01*
G01X37971Y18667D01*
G01X37965Y18707D01*
G01X37963Y18748D01*
G01X37968Y18783D01*
G01X37983Y18814D01*
G01X38007Y18841D01*
G01X38042Y18864D01*
G01X38086Y18883D01*
G01X38141Y18898D01*
G01X38205Y18909D01*
G01X38279Y18916D01*
G01X38363Y18918D01*
G01X38456Y18917D01*
G01X38560Y18912D01*
G01X38673Y18903D01*
G01X38753Y18896D01*
G01X38831Y18892D01*
G01X38907Y18889D01*
G01X38982Y18889D01*
G01X39056Y18892D01*
G01X39127Y18896D01*
G01X39197Y18902D01*
G01X39265Y18909D01*
G01X39331Y18919D01*
G01X39395Y18931D01*
G01X39457Y18945D01*
G01X39517Y18961D01*
G01X39575Y18978D01*
G01X39630Y18997D01*
G01X39683Y19017D01*
G01X39734Y19040D01*
G01X39783Y19064D01*
G01X39828Y19090D01*
G01X39871Y19118D01*
G01X39911Y19147D01*
G01X39949Y19177D01*
G01X39983Y19209D01*
G01X40015Y19242D01*
G01X40043Y19277D01*
G01X40069Y19313D01*
G01X40091Y19351D01*
G01X40110Y19389D01*
G01X40126Y19429D01*
G01X40139Y19471D01*
G01X40147Y19513D01*
G01X40153Y19557D01*
G01X40155Y19602D01*
G01X40153Y19672D01*
G01X40148Y19732D01*
G01X40138Y19779D01*
G01X40123Y19817D01*
G01X40101Y19845D01*
G01X40072Y19862D01*
G01X40034Y19870D01*
G01X39987Y19868D01*
G01X39929Y19858D01*
G01X39861Y19839D01*
G01X39780Y19813D01*
G01X39686Y19778D01*
G01X39624Y19755D01*
G01X39562Y19734D01*
G01X39500Y19714D01*
G01X39438Y19697D01*
G01X39377Y19680D01*
G01X39316Y19666D01*
G01X39255Y19653D01*
G01X39195Y19642D01*
G01X39135Y19632D01*
G01X39015Y19618D01*
G01X38956Y19613D01*
G01X38898Y19610D01*
G01X38840Y19609D01*
G01X38782Y19609D01*
G01X38724Y19611D01*
G01X38667Y19615D01*
G01X38611Y19620D01*
G01X38555Y19628D01*
G01X38500Y19636D01*
G01X38445Y19646D01*
G01X38391Y19658D01*
G01X38337Y19671D01*
G01X38283Y19687D01*
G01X38231Y19703D01*
G01X38178Y19722D01*
G01X38127Y19742D01*
G01X38076Y19763D01*
G01X38026Y19787D01*
G01X37976Y19812D01*
G01X37927Y19838D01*
G01X37879Y19866D01*
G01X37831Y19896D01*
G01X37785Y19927D01*
G01X37738Y19960D01*
G01X37693Y19995D01*
G01X37639Y20038D01*
G01X37589Y20079D01*
G01X37543Y20118D01*
G01X37501Y20156D01*
G01X37463Y20193D01*
G01X37428Y20230D01*
G01X37397Y20266D01*
G01X37370Y20302D01*
G01X37345Y20338D01*
G01X37324Y20376D01*
G01X37306Y20414D01*
G01X37291Y20454D01*
G01X37279Y20496D01*
G01X37269Y20540D01*
G01X37262Y20586D01*
G01X37258Y20635D01*
G01X37256Y20688D01*
G01X37256Y20744D01*
G01X37259Y20804D01*
G01X37263Y20868D01*
G01X37269Y20937D01*
G01X37277Y21011D01*
G01X37287Y21090D01*
G01X37298Y21175D01*
G01X37314Y21290D01*
G01X37326Y21393D01*
G01X37335Y21485D01*
G01X37342Y21566D01*
G01X37345Y21636D01*
G01X37344Y21697D01*
G01X37341Y21747D01*
G01X37333Y21790D01*
G01X37323Y21823D01*
G01X37308Y21848D01*
G01X37289Y21866D01*
G01X37267Y21876D01*
G01X37240Y21880D01*
G01X37209Y21878D01*
G01X37174Y21869D01*
G01X37135Y21856D01*
G01X37099Y21839D01*
G01X37065Y21820D01*
G01X37032Y21796D01*
G01X37000Y21768D01*
G01X36970Y21736D01*
G01X36941Y21702D01*
G01X36913Y21663D01*
G01X36887Y21622D01*
G01X36862Y21577D01*
G01X36839Y21530D01*
G01X36818Y21479D01*
G01X36798Y21425D01*
G01X36780Y21370D01*
G01X36763Y21311D01*
G01X36748Y21251D01*
G01X36735Y21188D01*
G01X36724Y21123D01*
G01X36714Y21056D01*
G01X36707Y20987D01*
G01X36700Y20916D01*
G01X36697Y20845D01*
G01X36695Y20771D01*
G01X36695Y20696D01*
G01X36697Y20621D01*
G01X36701Y20544D01*
G01X36708Y20466D01*
G01X36716Y20388D01*
G01X36726Y20309D01*
G01X36735Y20249D01*
G01X36741Y20193D01*
G01X36745Y20140D01*
G01X36748Y20089D01*
G01X36748Y20042D01*
G01X36745Y19996D01*
G01X36740Y19952D01*
G01X36732Y19910D01*
G01X36721Y19869D01*
G01X36708Y19829D01*
G01X36690Y19790D01*
G01X36669Y19752D01*
G01X36645Y19713D01*
G01X36617Y19675D01*
G01X36585Y19636D01*
G01X36549Y19597D01*
G01X36508Y19556D01*
G01X36464Y19514D01*
G01X36414Y19472D01*
G01X36360Y19426D01*
G01X36301Y19380D01*
G01X36237Y19330D01*
G01X36168Y19279D01*
G01X36092Y19224D01*
G01X36042Y19188D01*
G01X35990Y19153D01*
G01X35937Y19118D01*
G01X35884Y19085D01*
G01X35776Y19021D01*
G01X35721Y18991D01*
G01X35665Y18961D01*
G01X35609Y18933D01*
G01X35552Y18905D01*
G01X35495Y18878D01*
G01X35379Y18828D01*
G01X35261Y18782D01*
G01X35201Y18760D01*
G01X35081Y18720D01*
G01X34959Y18684D01*
G01X34898Y18667D01*
G01X34836Y18652D01*
G01X34712Y18624D01*
G01X34650Y18612D01*
G01X34587Y18600D01*
G01X34524Y18590D01*
G01X34462Y18581D01*
G01X34399Y18572D01*
G01X34336Y18565D01*
G01X34272Y18559D01*
G01X34209Y18554D01*
G01X34146Y18550D01*
G01X34083Y18547D01*
G01X34019Y18545D01*
G01X33956Y18544D01*
G01X33830Y18546D01*
G01X33767Y18548D01*
G01X33704Y18552D01*
G01X33641Y18557D01*
G01X33579Y18562D01*
G01X33516Y18569D01*
G01X33454Y18577D01*
G01X33392Y18586D01*
G01X33331Y18596D01*
G01X33269Y18608D01*
G01X33208Y18620D01*
G01X33148Y18634D01*
G01X33087Y18649D01*
G01X33027Y18664D01*
G01X32968Y18682D01*
G01X32926Y18694D01*
G01X32842Y18724D01*
G01X32799Y18741D01*
G01X32755Y18759D01*
G01X32712Y18778D01*
G01X32667Y18799D01*
G01X32623Y18820D01*
G01X32579Y18843D01*
G01X32533Y18867D01*
G01X32488Y18893D01*
G01X32442Y18919D01*
G01X32397Y18946D01*
G01X32350Y18975D01*
G01X32304Y19004D01*
G01X32258Y19035D01*
G01X32211Y19066D01*
G01X32165Y19099D01*
G01X32117Y19132D01*
G01X32071Y19167D01*
G01X32023Y19202D01*
G01X31976Y19238D01*
G01X31882Y19314D01*
G01X31834Y19353D01*
G01X31787Y19392D01*
G01X31693Y19474D01*
G01X31646Y19516D01*
G01X31599Y19559D01*
G01X31552Y19603D01*
G01X31506Y19647D01*
G01X31459Y19692D01*
G01X31413Y19737D01*
G01X31367Y19784D01*
G01X31321Y19830D01*
G01X31186Y19974D01*
G01X31141Y20023D01*
G01X31053Y20123D01*
G01X30966Y20225D01*
G01X30923Y20276D01*
G01X30839Y20380D01*
G01X30757Y20486D01*
G01X30717Y20538D01*
G01X30637Y20646D01*
G01X30561Y20754D01*
G01X30487Y20864D01*
G01X30451Y20918D01*
G01X30415Y20974D01*
G01X30381Y21029D01*
G01X30314Y21139D01*
G01X30250Y21251D01*
G01X30219Y21306D01*
G01X30189Y21362D01*
G01X30160Y21417D01*
G01X30133Y21473D01*
G01X30105Y21529D01*
G01X30085Y21571D01*
G01X30063Y21615D01*
G01X30041Y21661D01*
G01X30017Y21708D01*
G01X29992Y21757D01*
G01X29941Y21859D01*
G01X29887Y21965D01*
G01X29858Y22020D01*
G01X29829Y22076D01*
G01X29800Y22133D01*
G01X29770Y22191D01*
G01X29739Y22249D01*
G01X29708Y22308D01*
G01X29677Y22368D01*
G01X29613Y22488D01*
G01X29581Y22549D01*
G01X29549Y22609D01*
G01X29516Y22670D01*
G01X29483Y22730D01*
G01X29451Y22791D01*
G01X29418Y22851D01*
G01X29353Y22971D01*
G01X29320Y23030D01*
G01X29288Y23089D01*
G01X29256Y23147D01*
G01X29224Y23204D01*
G01X29193Y23261D01*
G01X29131Y23371D01*
G01X29101Y23424D01*
G01X29071Y23476D01*
G01X29042Y23527D01*
G01X29016Y23573D01*
G01X28989Y23620D01*
G01X28961Y23669D01*
G01X28933Y23719D01*
G01X28904Y23770D01*
G01X28874Y23823D01*
G01X28844Y23877D01*
G01X28813Y23931D01*
G01X28749Y24043D01*
G01X28717Y24100D01*
G01X28685Y24158D01*
G01X28652Y24216D01*
G01X28619Y24275D01*
G01X28551Y24395D01*
G01X28518Y24455D01*
G01X28450Y24577D01*
G01X28415Y24637D01*
G01X28313Y24820D01*
G01X28279Y24880D01*
G01X28246Y24941D01*
G01X28212Y25001D01*
G01X28179Y25061D01*
G01X28146Y25120D01*
G01X28114Y25179D01*
G01X28081Y25236D01*
G01X28049Y25294D01*
G01X28018Y25351D01*
G01X27987Y25407D01*
G01X27927Y25515D01*
G01X27898Y25568D01*
G01X27869Y25620D01*
G01X27841Y25670D01*
G01X27815Y25720D01*
G01X27788Y25767D01*
G01X27762Y25816D01*
G01X27735Y25864D01*
G01X27679Y25966D01*
G01X27650Y26019D01*
G01X27620Y26072D01*
G01X27590Y26126D01*
G01X27560Y26182D01*
G01X27528Y26238D01*
G01X27497Y26295D01*
G01X27465Y26352D01*
G01X27399Y26468D01*
G01X27333Y26586D01*
G01X27233Y26764D01*
G01X27199Y26824D01*
G01X27165Y26883D01*
G01X27065Y27062D01*
G01X26998Y27179D01*
G01X26965Y27236D01*
G01X26932Y27294D01*
G01X26900Y27351D01*
G01X26868Y27407D01*
G01X26836Y27462D01*
G01X26805Y27517D01*
G01X26774Y27571D01*
G01X26743Y27624D01*
G01X26713Y27675D01*
G01X26684Y27726D01*
G01X26656Y27775D01*
G01X26628Y27823D01*
G01X26600Y27870D01*
G01X26574Y27915D01*
G01X26548Y27959D01*
G01X26513Y28019D01*
G01X26478Y28080D01*
G01X26442Y28141D01*
G01X26406Y28203D01*
G01X26369Y28266D01*
G01X26333Y28330D01*
G01X26296Y28394D01*
G01X26258Y28459D01*
G01X26182Y28591D01*
G01X26144Y28658D01*
G01X26067Y28793D01*
G01X25988Y28930D01*
G01X25949Y28999D01*
G01X25910Y29069D01*
G01X25830Y29209D01*
G01X25790Y29280D01*
G01X25710Y29421D01*
G01X25670Y29492D01*
G01X25630Y29564D01*
G01X25589Y29635D01*
G01X25429Y29921D01*
G01X25389Y29993D01*
G01X25349Y30064D01*
G01X25310Y30136D01*
G01X25269Y30207D01*
G01X25191Y30349D01*
G01X25112Y30490D01*
G01X25073Y30560D01*
G01X24997Y30700D01*
G01X24959Y30769D01*
G01X24920Y30838D01*
G01X24883Y30906D01*
G01X24845Y30974D01*
G01X24809Y31041D01*
G01X24772Y31108D01*
G01X24736Y31174D01*
G01X24699Y31240D01*
G01X24629Y31370D01*
G01X24594Y31434D01*
G01X24560Y31497D01*
G01X24526Y31558D01*
G01X24493Y31620D01*
G01X24460Y31681D01*
G01X24428Y31740D01*
G01X24396Y31800D01*
G01X24365Y31858D01*
G01X24334Y31915D01*
G01X24304Y31971D01*
G01X24275Y32026D01*
G01X24246Y32080D01*
G01X24217Y32133D01*
G01X24190Y32185D01*
G01X24163Y32236D01*
G01X24111Y32334D01*
G01X24086Y32381D01*
G01X24062Y32428D01*
G01X24016Y32516D01*
G01X23994Y32558D01*
G01X23973Y32598D01*
G01X23934Y32676D01*
G01X23915Y32712D01*
G01X23897Y32747D01*
G01X23865Y32812D01*
G01X23850Y32843D01*
G01X23836Y32871D01*
G01X23823Y32899D01*
G01X23811Y32923D01*
G01X23800Y32947D01*
G01X23790Y32969D01*
G01X23781Y32989D01*
G01X23772Y33007D01*
G01X23766Y33024D01*
G01X23760Y33038D01*
G01X23755Y33051D01*
G01X23751Y33062D01*
G01X23749Y33070D01*
G01X23745Y33091D01*
G01X23746Y33110D01*
G01X23751Y33128D01*
G01X23760Y33145D01*
G01X23774Y33162D01*
G01X23793Y33176D01*
G01X23816Y33191D01*
G01X23843Y33204D01*
G01X23876Y33217D01*
G01X23914Y33228D01*
G01X23957Y33238D01*
G01X24005Y33248D01*
G01X24058Y33257D01*
G01X24117Y33264D01*
G01X24181Y33271D01*
G01X24251Y33278D01*
G01X24327Y33283D01*
G01X24408Y33288D01*
G01X24496Y33292D01*
G01X24590Y33295D01*
G01X24689Y33298D01*
G01X24795Y33300D01*
G01X24908Y33301D01*
G01X25027Y33301D01*
G01X25113Y33302D01*
G01X25197Y33303D01*
G01X25279Y33304D01*
G01X25358Y33306D01*
G01X25436Y33308D01*
G01X25511Y33311D01*
G01X25584Y33314D01*
G01X25655Y33317D01*
G01X25723Y33321D01*
G01X25790Y33325D01*
G01X25854Y33329D01*
G01X25916Y33334D01*
G01X25976Y33340D01*
G01X26033Y33345D01*
G01X26088Y33351D01*
G01X26141Y33357D01*
G01X26192Y33364D01*
G01X26241Y33371D01*
G01X26287Y33378D01*
G01X26332Y33385D01*
G01X26374Y33392D01*
G01X26413Y33400D01*
G01X26451Y33408D01*
G01X26487Y33416D01*
G01X26520Y33425D01*
G01X26551Y33434D01*
G01X26579Y33443D01*
G01X26605Y33451D01*
G01X26630Y33461D01*
G01X26652Y33470D01*
G01X26671Y33480D01*
G01X26688Y33489D01*
G01X26704Y33499D01*
G01X26717Y33509D01*
G01X26727Y33519D01*
G01X26736Y33529D01*
G01X26742Y33539D01*
G01X26745Y33550D01*
G01X26747Y33560D01*
G01X26746Y33570D01*
G01X26743Y33581D01*
G01X26738Y33592D01*
G01X26730Y33602D01*
G01X26720Y33612D01*
G01X26708Y33623D01*
G01X26693Y33633D01*
G01X26677Y33644D01*
G01X26657Y33654D01*
G01X26636Y33665D01*
G01X26612Y33675D01*
G01X26586Y33685D01*
G01X26558Y33695D01*
G01X26527Y33705D01*
G01X26494Y33715D01*
G01X26459Y33726D01*
G01X26422Y33735D01*
G01X26381Y33745D01*
G01X26339Y33755D01*
G01X26295Y33764D01*
G01X26248Y33773D01*
G01X26199Y33782D01*
G01X26147Y33791D01*
G01X26093Y33799D01*
G01X26037Y33808D01*
G01X25978Y33816D01*
G01X25917Y33824D01*
G01X25854Y33832D01*
G01X25788Y33839D01*
G01X25720Y33847D01*
G01X25649Y33854D01*
G01X25577Y33861D01*
G01X25502Y33867D01*
G01X25424Y33873D01*
G01X25344Y33879D01*
G01X25262Y33885D01*
G01X25178Y33890D01*
G01X24356Y33938D01*
G01X24307Y39168D01*
G01X24259Y44399D01*
G01X23851Y44508D01*
G01X23804Y44520D01*
G01X23754Y44531D01*
G01X23700Y44541D01*
G01X23644Y44551D01*
G01X23585Y44559D01*
G01X23523Y44567D01*
G01X23460Y44574D01*
G01X23394Y44581D01*
G01X23327Y44586D01*
G01X23259Y44591D01*
G01X23190Y44594D01*
G01X23120Y44598D01*
G01X23048Y44600D01*
G01X22977Y44602D01*
G01X22906Y44603D01*
G37*

%LPC*%
G36*
G01X27004Y14851D02*
G01X22072Y14851D01*
G01X21962Y14850D01*
G01X21856Y14850D01*
G01X21753Y14849D01*
G01X21652Y14849D01*
G01X21555Y14848D01*
G01X21461Y14847D01*
G01X21370Y14846D01*
G01X21281Y14844D01*
G01X21195Y14843D01*
G01X21112Y14841D01*
G01X21031Y14839D01*
G01X20953Y14837D01*
G01X20878Y14834D01*
G01X20806Y14831D01*
G01X20736Y14828D01*
G01X20668Y14824D01*
G01X20603Y14820D01*
G01X20540Y14816D01*
G01X20480Y14812D01*
G01X20422Y14807D01*
G01X20367Y14802D01*
G01X20313Y14797D01*
G01X20262Y14790D01*
G01X20213Y14784D01*
G01X20166Y14778D01*
G01X20120Y14770D01*
G01X20078Y14762D01*
G01X20037Y14754D01*
G01X19997Y14746D01*
G01X19960Y14737D01*
G01X19925Y14727D01*
G01X19892Y14717D01*
G01X19860Y14706D01*
G01X19830Y14695D01*
G01X19801Y14683D01*
G01X19775Y14671D01*
G01X19750Y14658D01*
G01X19726Y14644D01*
G01X19704Y14630D01*
G01X19683Y14615D01*
G01X19664Y14600D01*
G01X19646Y14584D01*
G01X19630Y14567D01*
G01X19615Y14549D01*
G01X19601Y14531D01*
G01X19588Y14512D01*
G01X19577Y14493D01*
G01X19557Y14451D01*
G01X19549Y14429D01*
G01X19535Y14383D01*
G01X19530Y14359D01*
G01X19525Y14334D01*
G01X19521Y14308D01*
G01X19518Y14281D01*
G01X19514Y14225D01*
G01X19514Y14195D01*
G01X19513Y14165D01*
G01X19514Y14134D01*
G01X19514Y14102D01*
G01X19516Y14069D01*
G01X19517Y14035D01*
G01X19519Y13999D01*
G01X19522Y13963D01*
G01X19524Y13926D01*
G01X19528Y13888D01*
G01X19531Y13849D01*
G01X19534Y13809D01*
G01X19538Y13768D01*
G01X19541Y13725D01*
G01X19545Y13682D01*
G01X19549Y13638D01*
G01X19607Y12933D01*
G01X23306Y12884D01*
G01X27004Y12835D01*
G01X27004Y14851D01*
G37*
G36*
G01X19169Y14851D02*
G01X15823Y14851D01*
G01X15700Y14850D01*
G01X15581Y14850D01*
G01X15464Y14849D01*
G01X15350Y14849D01*
G01X15240Y14848D01*
G01X15131Y14847D01*
G01X15026Y14845D01*
G01X14924Y14844D01*
G01X14824Y14843D01*
G01X14727Y14841D01*
G01X14633Y14839D01*
G01X14542Y14837D01*
G01X14453Y14835D01*
G01X14366Y14833D01*
G01X14283Y14830D01*
G01X14202Y14827D01*
G01X14123Y14824D01*
G01X14047Y14821D01*
G01X13974Y14818D01*
G01X13903Y14815D01*
G01X13835Y14811D01*
G01X13769Y14808D01*
G01X13705Y14804D01*
G01X13644Y14800D01*
G01X13585Y14795D01*
G01X13529Y14791D01*
G01X13475Y14786D01*
G01X13422Y14781D01*
G01X13373Y14776D01*
G01X13325Y14771D01*
G01X13280Y14766D01*
G01X13237Y14760D01*
G01X13196Y14754D01*
G01X13157Y14748D01*
G01X13121Y14742D01*
G01X13086Y14736D01*
G01X13053Y14729D01*
G01X13023Y14722D01*
G01X12994Y14715D01*
G01X12967Y14708D01*
G01X12942Y14700D01*
G01X12919Y14692D01*
G01X12899Y14685D01*
G01X12880Y14677D01*
G01X12863Y14668D01*
G01X12847Y14659D01*
G01X12833Y14651D01*
G01X12821Y14642D01*
G01X12811Y14632D01*
G01X12803Y14623D01*
G01X12772Y14583D01*
G01X12740Y14539D01*
G01X12707Y14490D01*
G01X12673Y14437D01*
G01X12638Y14381D01*
G01X12601Y14322D01*
G01X12565Y14259D01*
G01X12528Y14195D01*
G01X12454Y14059D01*
G01X12418Y13990D01*
G01X12381Y13920D01*
G01X12311Y13780D01*
G01X12277Y13709D01*
G01X12245Y13641D01*
G01X12214Y13573D01*
G01X12185Y13507D01*
G01X12157Y13443D01*
G01X12132Y13382D01*
G01X12109Y13323D01*
G01X12088Y13268D01*
G01X12055Y13169D01*
G01X12043Y13127D01*
G01X12034Y13089D01*
G01X12028Y13057D01*
G01X12027Y13030D01*
G01X12028Y13023D01*
G01X12031Y13016D01*
G01X12037Y13009D01*
G01X12044Y13002D01*
G01X12053Y12996D01*
G01X12079Y12983D01*
G01X12095Y12978D01*
G01X12113Y12972D01*
G01X12134Y12966D01*
G01X12156Y12961D01*
G01X12181Y12956D01*
G01X12208Y12950D01*
G01X12237Y12946D01*
G01X12269Y12941D01*
G01X12302Y12936D01*
G01X12338Y12932D01*
G01X12376Y12928D01*
G01X12417Y12924D01*
G01X12459Y12919D01*
G01X12504Y12916D01*
G01X12551Y12912D01*
G01X12600Y12909D01*
G01X12652Y12905D01*
G01X12706Y12902D01*
G01X12762Y12899D01*
G01X12820Y12897D01*
G01X12881Y12894D01*
G01X12944Y12892D01*
G01X13010Y12889D01*
G01X13077Y12887D01*
G01X13148Y12885D01*
G01X13220Y12883D01*
G01X13295Y12881D01*
G01X13372Y12880D01*
G01X13451Y12878D01*
G01X13533Y12877D01*
G01X13617Y12876D01*
G01X13703Y12875D01*
G01X13792Y12874D01*
G01X13884Y12874D01*
G01X13977Y12873D01*
G01X14376Y12873D01*
G01X14482Y12874D01*
G01X14589Y12874D01*
G01X14700Y12875D01*
G01X14813Y12876D01*
G01X14929Y12877D01*
G01X15046Y12878D01*
G01X15167Y12879D01*
G01X15290Y12880D01*
G01X15415Y12882D01*
G01X15543Y12884D01*
G01X19059Y12933D01*
G01X19169Y14851D01*
G37*
G36*
G01X33116Y14577D02*
G01X27370Y14678D01*
G01X27370Y13025D01*
G01X33972Y13025D01*
G01X33116Y14577D01*
G37*
G36*
G01X27552Y20331D02*
G01X18420Y20331D01*
G01X18420Y18139D01*
G01X19424Y18139D01*
G01X19527Y18138D01*
G01X19626Y18135D01*
G01X19722Y18131D01*
G01X19814Y18124D01*
G01X19902Y18117D01*
G01X19985Y18108D01*
G01X20062Y18097D01*
G01X20134Y18085D01*
G01X20199Y18072D01*
G01X20257Y18058D01*
G01X20307Y18043D01*
G01X20349Y18027D01*
G01X20384Y18011D01*
G01X20408Y17993D01*
G01X20424Y17975D01*
G01X20429Y17956D01*
G01X20426Y17945D01*
G01X20419Y17933D01*
G01X20406Y17923D01*
G01X20389Y17912D01*
G01X20367Y17902D01*
G01X20340Y17892D01*
G01X20309Y17882D01*
G01X20273Y17873D01*
G01X20233Y17864D01*
G01X20189Y17855D01*
G01X20141Y17847D01*
G01X20088Y17839D01*
G01X20032Y17831D01*
G01X19972Y17824D01*
G01X19908Y17818D01*
G01X19841Y17812D01*
G01X19770Y17805D01*
G01X19695Y17800D01*
G01X19617Y17795D01*
G01X19537Y17791D01*
G01X19452Y17787D01*
G01X19365Y17784D01*
G01X19276Y17781D01*
G01X19183Y17778D01*
G01X19087Y17776D01*
G01X18989Y17775D01*
G01X18888Y17774D01*
G01X18785Y17773D01*
G01X17141Y17773D01*
G01X17141Y15217D01*
G01X22803Y15217D01*
G01X22803Y16312D01*
G01X22804Y16403D01*
G01X22806Y16491D01*
G01X22808Y16577D01*
G01X22812Y16660D01*
G01X22817Y16741D01*
G01X22823Y16818D01*
G01X22830Y16892D01*
G01X22838Y16961D01*
G01X22847Y17027D01*
G01X22856Y17089D01*
G01X22867Y17146D01*
G01X22878Y17198D01*
G01X22889Y17245D01*
G01X22902Y17287D01*
G01X22914Y17323D01*
G01X22928Y17353D01*
G01X22942Y17377D01*
G01X22956Y17394D01*
G01X22971Y17405D01*
G01X22985Y17408D01*
G01X23001Y17405D01*
G01X23015Y17394D01*
G01X23030Y17377D01*
G01X23044Y17353D01*
G01X23057Y17323D01*
G01X23070Y17287D01*
G01X23082Y17245D01*
G01X23094Y17198D01*
G01X23105Y17146D01*
G01X23115Y17089D01*
G01X23125Y17027D01*
G01X23133Y16961D01*
G01X23141Y16892D01*
G01X23148Y16818D01*
G01X23154Y16741D01*
G01X23159Y16660D01*
G01X23163Y16577D01*
G01X23166Y16491D01*
G01X23168Y16403D01*
G01X23168Y15217D01*
G01X28847Y15217D01*
G01X28793Y16450D01*
G01X28739Y17682D01*
G01X27141Y17735D01*
G01X27061Y17738D01*
G01X26982Y17741D01*
G01X26906Y17745D01*
G01X26831Y17749D01*
G01X26758Y17754D01*
G01X26687Y17758D01*
G01X26618Y17763D01*
G01X26551Y17769D01*
G01X26486Y17774D01*
G01X26423Y17781D01*
G01X26361Y17787D01*
G01X26302Y17794D01*
G01X26245Y17800D01*
G01X26190Y17807D01*
G01X26137Y17815D01*
G01X26086Y17822D01*
G01X26038Y17830D01*
G01X25991Y17838D01*
G01X25947Y17846D01*
G01X25904Y17854D01*
G01X25864Y17862D01*
G01X25827Y17871D01*
G01X25791Y17880D01*
G01X25758Y17888D01*
G01X25727Y17897D01*
G01X25699Y17905D01*
G01X25672Y17914D01*
G01X25648Y17923D01*
G01X25627Y17932D01*
G01X25608Y17941D01*
G01X25592Y17950D01*
G01X25577Y17958D01*
G01X25566Y17967D01*
G01X25556Y17976D01*
G01X25550Y17985D01*
G01X25546Y17993D01*
G01X25544Y18001D01*
G01X25545Y18010D01*
G01X25549Y18018D01*
G01X25555Y18026D01*
G01X25564Y18034D01*
G01X25575Y18042D01*
G01X25589Y18049D01*
G01X25606Y18057D01*
G01X25626Y18064D01*
G01X25648Y18071D01*
G01X25674Y18078D01*
G01X25702Y18084D01*
G01X25733Y18090D01*
G01X25766Y18096D01*
G01X25803Y18102D01*
G01X25842Y18107D01*
G01X25885Y18111D01*
G01X25930Y18116D01*
G01X25978Y18120D01*
G01X26029Y18124D01*
G01X26083Y18127D01*
G01X26140Y18131D01*
G01X26200Y18133D01*
G01X26264Y18135D01*
G01X26330Y18137D01*
G01X26399Y18138D01*
G01X26472Y18139D01*
G01X27552Y18139D01*
G01X27552Y20331D01*
G37*
G36*
G01X16624Y16495D02*
G01X16684Y17774D01*
G01X14452Y17773D01*
G01X13833Y16632D01*
G01X13791Y16554D01*
G01X13749Y16477D01*
G01X13707Y16401D01*
G01X13667Y16325D01*
G01X13627Y16251D01*
G01X13588Y16179D01*
G01X13550Y16108D01*
G01X13513Y16039D01*
G01X13477Y15972D01*
G01X13443Y15908D01*
G01X13410Y15846D01*
G01X13378Y15786D01*
G01X13348Y15730D01*
G01X13320Y15676D01*
G01X13293Y15626D01*
G01X13268Y15580D01*
G01X13246Y15537D01*
G01X13226Y15498D01*
G01X13208Y15463D01*
G01X13191Y15432D01*
G01X13178Y15405D01*
G01X13167Y15383D01*
G01X13159Y15366D01*
G01X13153Y15354D01*
G01X13153Y15346D01*
G01X13158Y15338D01*
G01X13169Y15330D01*
G01X13185Y15323D01*
G01X13207Y15315D01*
G01X13234Y15308D01*
G01X13266Y15300D01*
G01X13304Y15294D01*
G01X13345Y15287D01*
G01X13392Y15281D01*
G01X13443Y15274D01*
G01X13498Y15268D01*
G01X13557Y15262D01*
G01X13620Y15257D01*
G01X13687Y15252D01*
G01X13757Y15247D01*
G01X13831Y15242D01*
G01X13909Y15238D01*
G01X13989Y15234D01*
G01X14073Y15230D01*
G01X14158Y15227D01*
G01X14247Y15225D01*
G01X14339Y15222D01*
G01X14433Y15220D01*
G01X14528Y15219D01*
G01X14626Y15218D01*
G01X14726Y15217D01*
G01X16563Y15217D01*
G01X16624Y16495D01*
G37*
G36*
G01X30417Y17771D02*
G01X30257Y17771D01*
G01X30177Y17770D01*
G01X30098Y17769D01*
G01X30020Y17767D01*
G01X29943Y17765D01*
G01X29867Y17762D01*
G01X29794Y17759D01*
G01X29723Y17755D01*
G01X29654Y17751D01*
G01X29588Y17745D01*
G01X29525Y17740D01*
G01X29466Y17734D01*
G01X29410Y17727D01*
G01X29358Y17720D01*
G01X29311Y17711D01*
G01X29268Y17703D01*
G01X29230Y17694D01*
G01X29198Y17685D01*
G01X29171Y17674D01*
G01X29150Y17663D01*
G01X29135Y17652D01*
G01X29121Y17635D01*
G01X29108Y17614D01*
G01X29096Y17588D01*
G01X29085Y17559D01*
G01X29074Y17524D01*
G01X29064Y17487D01*
G01X29056Y17446D01*
G01X29048Y17401D01*
G01X29041Y17353D01*
G01X29035Y17302D01*
G01X29030Y17248D01*
G01X29026Y17192D01*
G01X29022Y17133D01*
G01X29020Y17071D01*
G01X29018Y17008D01*
G01X29017Y16943D01*
G01X29017Y16876D01*
G01X29018Y16807D01*
G01X29021Y16737D01*
G01X29027Y16593D01*
G01X29032Y16521D01*
G01X29037Y16447D01*
G01X29051Y16299D01*
G01X29059Y16224D01*
G01X29068Y16150D01*
G01X29078Y16076D01*
G01X29089Y16003D01*
G01X29101Y15930D01*
G01X29113Y15858D01*
G01X29127Y15787D01*
G01X29242Y15217D01*
G01X31151Y15217D01*
G01X31255Y15218D01*
G01X31357Y15219D01*
G01X31457Y15220D01*
G01X31555Y15222D01*
G01X31652Y15225D01*
G01X31745Y15228D01*
G01X31836Y15231D01*
G01X31925Y15235D01*
G01X32010Y15239D01*
G01X32092Y15244D01*
G01X32172Y15248D01*
G01X32247Y15253D01*
G01X32319Y15259D01*
G01X32387Y15264D01*
G01X32451Y15270D01*
G01X32511Y15277D01*
G01X32567Y15283D01*
G01X32618Y15290D01*
G01X32665Y15297D01*
G01X32707Y15304D01*
G01X32743Y15312D01*
G01X32775Y15319D01*
G01X32801Y15327D01*
G01X32821Y15335D01*
G01X32837Y15343D01*
G01X32846Y15351D01*
G01X32849Y15360D01*
G01X32847Y15375D01*
G01X32840Y15396D01*
G01X32830Y15423D01*
G01X32816Y15455D01*
G01X32799Y15494D01*
G01X32777Y15537D01*
G01X32753Y15584D01*
G01X32725Y15636D01*
G01X32694Y15692D01*
G01X32661Y15752D01*
G01X32625Y15816D01*
G01X32586Y15882D01*
G01X32546Y15952D01*
G01X32502Y16024D01*
G01X32458Y16099D01*
G01X32411Y16175D01*
G01X32363Y16253D01*
G01X32313Y16333D01*
G01X32262Y16413D01*
G01X32209Y16495D01*
G01X32157Y16577D01*
G01X32106Y16657D01*
G01X32056Y16737D01*
G01X32008Y16815D01*
G01X31961Y16892D01*
G01X31916Y16966D01*
G01X31873Y17038D01*
G01X31832Y17108D01*
G01X31794Y17174D01*
G01X31758Y17238D01*
G01X31725Y17298D01*
G01X31694Y17354D01*
G01X31666Y17406D01*
G01X31642Y17454D01*
G01X31620Y17497D01*
G01X31603Y17535D01*
G01X31589Y17567D01*
G01X31579Y17594D01*
G01X31572Y17615D01*
G01X31570Y17631D01*
G01X31567Y17642D01*
G01X31556Y17653D01*
G01X31540Y17664D01*
G01X31517Y17674D01*
G01X31489Y17683D01*
G01X31455Y17693D01*
G01X31416Y17701D01*
G01X31372Y17710D01*
G01X31323Y17718D01*
G01X31270Y17725D01*
G01X31214Y17731D01*
G01X31154Y17737D01*
G01X31090Y17743D01*
G01X31023Y17748D01*
G01X30953Y17753D01*
G01X30882Y17757D01*
G01X30808Y17761D01*
G01X30732Y17764D01*
G01X30655Y17766D01*
G01X30577Y17768D01*
G01X30497Y17770D01*
G01X30417Y17771D01*
G37*
G36*
G01X16959Y20286D02*
G01X15954Y20333D01*
G01X15360Y19345D01*
G01X15312Y19264D01*
G01X15264Y19184D01*
G01X15218Y19105D01*
G01X15173Y19029D01*
G01X15130Y18953D01*
G01X15088Y18880D01*
G01X15048Y18810D01*
G01X15010Y18742D01*
G01X14974Y18677D01*
G01X14941Y18616D01*
G01X14910Y18558D01*
G01X14881Y18504D01*
G01X14856Y18455D01*
G01X14813Y18369D01*
G01X14797Y18334D01*
G01X14784Y18304D01*
G01X14774Y18279D01*
G01X14769Y18261D01*
G01X14767Y18248D01*
G01X14770Y18242D01*
G01X14778Y18236D01*
G01X14791Y18230D01*
G01X14810Y18223D01*
G01X14835Y18217D01*
G01X14863Y18212D01*
G01X14897Y18206D01*
G01X14935Y18201D01*
G01X14978Y18195D01*
G01X15025Y18190D01*
G01X15076Y18185D01*
G01X15131Y18180D01*
G01X15190Y18175D01*
G01X15252Y18171D01*
G01X15318Y18167D01*
G01X15387Y18163D01*
G01X15459Y18159D01*
G01X15535Y18156D01*
G01X15613Y18153D01*
G01X15694Y18150D01*
G01X15777Y18148D01*
G01X15863Y18145D01*
G01X15952Y18143D01*
G01X16042Y18142D01*
G01X16134Y18141D01*
G01X16228Y18140D01*
G01X16323Y18139D01*
G01X18073Y18139D01*
G01X17963Y20239D01*
G01X16959Y20286D01*
G37*
G36*
G01X30058Y20331D02*
G01X29109Y20331D01*
G01X29012Y20330D01*
G01X28916Y20328D01*
G01X28822Y20325D01*
G01X28731Y20321D01*
G01X28644Y20316D01*
G01X28559Y20310D01*
G01X28479Y20303D01*
G01X28404Y20295D01*
G01X28334Y20286D01*
G01X28270Y20277D01*
G01X28212Y20267D01*
G01X28161Y20256D01*
G01X28118Y20245D01*
G01X28083Y20234D01*
G01X28056Y20221D01*
G01X28039Y20209D01*
G01X28026Y20191D01*
G01X28015Y20165D01*
G01X28003Y20129D01*
G01X27992Y20085D01*
G01X27981Y20033D01*
G01X27971Y19974D01*
G01X27962Y19909D01*
G01X27953Y19837D01*
G01X27945Y19760D01*
G01X27938Y19677D01*
G01X27932Y19591D01*
G01X27927Y19501D01*
G01X27923Y19408D01*
G01X27920Y19311D01*
G01X27918Y19213D01*
G01X27917Y19113D01*
G01X27917Y18139D01*
G01X31226Y18139D01*
G01X30058Y20331D01*
G37*
G36*
G01X23261Y32523D02*
G01X22861Y33117D01*
G01X21599Y30793D01*
G01X21559Y30719D01*
G01X21479Y30572D01*
G01X21439Y30498D01*
G01X21400Y30425D01*
G01X21359Y30353D01*
G01X21320Y30279D01*
G01X21203Y30063D01*
G01X21164Y29992D01*
G01X21088Y29852D01*
G01X21049Y29782D01*
G01X20975Y29644D01*
G01X20938Y29577D01*
G01X20902Y29510D01*
G01X20866Y29444D01*
G01X20830Y29379D01*
G01X20795Y29314D01*
G01X20760Y29251D01*
G01X20726Y29188D01*
G01X20693Y29126D01*
G01X20627Y29006D01*
G01X20595Y28948D01*
G01X20564Y28890D01*
G01X20504Y28780D01*
G01X20475Y28726D01*
G01X20447Y28674D01*
G01X20419Y28623D01*
G01X20392Y28573D01*
G01X20340Y28479D01*
G01X20316Y28434D01*
G01X20292Y28391D01*
G01X20269Y28349D01*
G01X20247Y28309D01*
G01X20227Y28271D01*
G01X20206Y28234D01*
G01X20187Y28200D01*
G01X20169Y28167D01*
G01X20152Y28135D01*
G01X20136Y28106D01*
G01X20121Y28079D01*
G01X20108Y28054D01*
G01X20095Y28030D01*
G01X20083Y28009D01*
G01X20073Y27990D01*
G01X20063Y27974D01*
G01X20008Y27873D01*
G01X19900Y27677D01*
G01X19847Y27582D01*
G01X19795Y27487D01*
G01X19743Y27394D01*
G01X19693Y27302D01*
G01X19643Y27212D01*
G01X19594Y27123D01*
G01X19545Y27035D01*
G01X19498Y26949D01*
G01X19450Y26864D01*
G01X19404Y26780D01*
G01X19358Y26697D01*
G01X19314Y26616D01*
G01X19269Y26535D01*
G01X19226Y26456D01*
G01X19183Y26378D01*
G01X19140Y26302D01*
G01X19099Y26226D01*
G01X19058Y26151D01*
G01X19017Y26078D01*
G01X18977Y26006D01*
G01X18938Y25934D01*
G01X18900Y25864D01*
G01X18862Y25795D01*
G01X18824Y25727D01*
G01X18787Y25660D01*
G01X18751Y25594D01*
G01X18715Y25529D01*
G01X18680Y25464D01*
G01X18645Y25401D01*
G01X18577Y25277D01*
G01X18511Y25157D01*
G01X18479Y25098D01*
G01X18447Y25040D01*
G01X18416Y24982D01*
G01X18385Y24926D01*
G01X18354Y24871D01*
G01X18324Y24816D01*
G01X18295Y24761D01*
G01X18265Y24708D01*
G01X18237Y24656D01*
G01X18208Y24604D01*
G01X18152Y24502D01*
G01X18125Y24452D01*
G01X18099Y24403D01*
G01X18072Y24354D01*
G01X18046Y24306D01*
G01X17994Y24212D01*
G01X17969Y24165D01*
G01X17945Y24119D01*
G01X17920Y24074D01*
G01X17896Y24029D01*
G01X17848Y23941D01*
G01X17801Y23855D01*
G01X17778Y23812D01*
G01X17756Y23770D01*
G01X17733Y23728D01*
G01X17689Y23646D01*
G01X17645Y23565D01*
G01X17603Y23485D01*
G01X17581Y23446D01*
G01X17561Y23406D01*
G01X17540Y23367D01*
G01X17498Y23290D01*
G01X17478Y23251D01*
G01X17417Y23137D01*
G01X17397Y23099D01*
G01X17377Y23062D01*
G01X17278Y22874D01*
G01X17258Y22837D01*
G01X17159Y22649D01*
G01X17079Y22497D01*
G01X17059Y22458D01*
G01X17039Y22420D01*
G01X17019Y22381D01*
G01X16972Y22293D01*
G01X16927Y22205D01*
G01X16882Y22118D01*
G01X16838Y22033D01*
G01X16794Y21950D01*
G01X16752Y21867D01*
G01X16711Y21787D01*
G01X16672Y21709D01*
G01X16633Y21633D01*
G01X16595Y21559D01*
G01X16559Y21487D01*
G01X16525Y21418D01*
G01X16430Y21228D01*
G01X16402Y21170D01*
G01X16376Y21116D01*
G01X16352Y21065D01*
G01X16329Y21019D01*
G01X16308Y20975D01*
G01X16290Y20936D01*
G01X16274Y20901D01*
G01X16260Y20870D01*
G01X16249Y20843D01*
G01X16240Y20820D01*
G01X16233Y20803D01*
G01X16229Y20790D01*
G01X16228Y20783D01*
G01X16229Y20781D01*
G01X16231Y20780D01*
G01X16235Y20779D01*
G01X16240Y20778D01*
G01X16247Y20776D01*
G01X16265Y20774D01*
G01X16277Y20773D01*
G01X16290Y20771D01*
G01X16304Y20770D01*
G01X16320Y20769D01*
G01X16337Y20767D01*
G01X16356Y20766D01*
G01X16376Y20765D01*
G01X16397Y20763D01*
G01X16420Y20762D01*
G01X16444Y20761D01*
G01X16470Y20760D01*
G01X16497Y20758D01*
G01X16555Y20756D01*
G01X16586Y20755D01*
G01X16652Y20753D01*
G01X16687Y20751D01*
G01X16723Y20750D01*
G01X16761Y20749D01*
G01X16800Y20748D01*
G01X16840Y20747D01*
G01X16881Y20746D01*
G01X16967Y20744D01*
G01X17012Y20742D01*
G01X17058Y20741D01*
G01X17105Y20740D01*
G01X17203Y20738D01*
G01X17254Y20737D01*
G01X17306Y20736D01*
G01X17359Y20735D01*
G01X17413Y20734D01*
G01X17469Y20733D01*
G01X17524Y20732D01*
G01X17640Y20730D01*
G01X17700Y20729D01*
G01X17822Y20727D01*
G01X17885Y20726D01*
G01X18013Y20724D01*
G01X18145Y20722D01*
G01X18213Y20721D01*
G01X18281Y20721D01*
G01X18421Y20719D01*
G01X18565Y20717D01*
G01X18638Y20716D01*
G01X18712Y20716D01*
G01X18787Y20715D01*
G01X18939Y20713D01*
G01X19017Y20713D01*
G01X19095Y20712D01*
G01X19174Y20711D01*
G01X19254Y20711D01*
G01X19416Y20709D01*
G01X19499Y20709D01*
G01X19582Y20708D01*
G01X19666Y20707D01*
G01X19750Y20707D01*
G01X19835Y20706D01*
G01X19921Y20706D01*
G01X20008Y20705D01*
G01X20095Y20705D01*
G01X20183Y20704D01*
G01X20272Y20704D01*
G01X20362Y20703D01*
G01X20452Y20703D01*
G01X20543Y20702D01*
G01X20634Y20702D01*
G01X20726Y20701D01*
G01X20818Y20701D01*
G01X20911Y20700D01*
G01X21005Y20700D01*
G01X21194Y20699D01*
G01X21290Y20699D01*
G01X21386Y20698D01*
G01X21579Y20698D01*
G01X21677Y20697D01*
G01X22072Y20697D01*
G01X22172Y20696D01*
G01X23999Y20696D01*
G01X24098Y20697D01*
G01X24586Y20697D01*
G01X24682Y20698D01*
G01X24966Y20698D01*
G01X25060Y20699D01*
G01X25338Y20699D01*
G01X25429Y20700D01*
G01X25519Y20701D01*
G01X25788Y20701D01*
G01X25876Y20702D01*
G01X25963Y20702D01*
G01X26050Y20703D01*
G01X26221Y20703D01*
G01X26306Y20704D01*
G01X26390Y20704D01*
G01X26473Y20705D01*
G01X26636Y20705D01*
G01X26717Y20706D01*
G01X26797Y20706D01*
G01X26876Y20707D01*
G01X26954Y20707D01*
G01X27032Y20708D01*
G01X27109Y20708D01*
G01X27185Y20709D01*
G01X27259Y20709D01*
G01X27333Y20710D01*
G01X27407Y20710D01*
G01X27479Y20711D01*
G01X27550Y20711D01*
G01X27620Y20712D01*
G01X27690Y20712D01*
G01X27759Y20713D01*
G01X27826Y20714D01*
G01X27893Y20714D01*
G01X27958Y20715D01*
G01X28023Y20715D01*
G01X28087Y20716D01*
G01X28149Y20717D01*
G01X28211Y20717D01*
G01X28331Y20719D01*
G01X28390Y20719D01*
G01X28446Y20720D01*
G01X28503Y20720D01*
G01X28613Y20722D01*
G01X28665Y20723D01*
G01X28717Y20723D01*
G01X28768Y20724D01*
G01X28818Y20725D01*
G01X28866Y20725D01*
G01X28960Y20727D01*
G01X29004Y20727D01*
G01X29048Y20728D01*
G01X29091Y20729D01*
G01X29132Y20730D01*
G01X29172Y20730D01*
G01X29211Y20731D01*
G01X29248Y20732D01*
G01X29284Y20733D01*
G01X29319Y20734D01*
G01X29353Y20735D01*
G01X29385Y20736D01*
G01X29416Y20736D01*
G01X29446Y20737D01*
G01X29474Y20738D01*
G01X29501Y20739D01*
G01X29527Y20739D01*
G01X29551Y20740D01*
G01X29574Y20741D01*
G01X29596Y20742D01*
G01X29634Y20744D01*
G01X29651Y20744D01*
G01X29667Y20745D01*
G01X29682Y20746D01*
G01X29695Y20747D01*
G01X29706Y20748D01*
G01X29716Y20749D01*
G01X29725Y20749D01*
G01X29737Y20751D01*
G01X29743Y20753D01*
G01X29744Y20754D01*
G01X29742Y20762D01*
G01X29736Y20778D01*
G01X29727Y20800D01*
G01X29714Y20828D01*
G01X29699Y20862D01*
G01X29680Y20902D01*
G01X29658Y20947D01*
G01X29634Y20998D01*
G01X29606Y21053D01*
G01X29474Y21317D01*
G01X29436Y21392D01*
G01X29395Y21470D01*
G01X29354Y21551D01*
G01X29311Y21634D01*
G01X29266Y21720D01*
G01X29221Y21807D01*
G01X29174Y21895D01*
G01X29106Y22025D01*
G01X29036Y22157D01*
G01X29001Y22225D01*
G01X28966Y22292D01*
G01X28931Y22360D01*
G01X28896Y22427D01*
G01X28860Y22494D01*
G01X28825Y22561D01*
G01X28790Y22627D01*
G01X28756Y22693D01*
G01X28722Y22758D01*
G01X28689Y22822D01*
G01X28656Y22884D01*
G01X28624Y22946D01*
G01X28593Y23006D01*
G01X28562Y23065D01*
G01X28532Y23121D01*
G01X28504Y23176D01*
G01X28476Y23229D01*
G01X28450Y23279D01*
G01X28425Y23327D01*
G01X28401Y23373D01*
G01X28379Y23416D01*
G01X28359Y23456D01*
G01X28339Y23493D01*
G01X28322Y23527D01*
G01X28315Y23539D01*
G01X28308Y23553D01*
G01X28300Y23568D01*
G01X28291Y23585D01*
G01X28281Y23603D01*
G01X28271Y23623D01*
G01X28260Y23644D01*
G01X28247Y23667D01*
G01X28234Y23692D01*
G01X28206Y23744D01*
G01X28190Y23773D01*
G01X28174Y23803D01*
G01X28157Y23834D01*
G01X28139Y23867D01*
G01X28120Y23901D01*
G01X28101Y23936D01*
G01X28081Y23973D01*
G01X28060Y24011D01*
G01X28039Y24050D01*
G01X28017Y24090D01*
G01X27971Y24174D01*
G01X27947Y24218D01*
G01X27922Y24264D01*
G01X27896Y24310D01*
G01X27870Y24357D01*
G01X27844Y24406D01*
G01X27817Y24455D01*
G01X27789Y24506D01*
G01X27760Y24558D01*
G01X27731Y24611D01*
G01X27701Y24664D01*
G01X27671Y24719D01*
G01X27640Y24775D01*
G01X27609Y24832D01*
G01X27577Y24889D01*
G01X27545Y24948D01*
G01X27512Y25007D01*
G01X27479Y25068D01*
G01X27445Y25129D01*
G01X27411Y25191D01*
G01X27376Y25254D01*
G01X27341Y25318D01*
G01X27305Y25382D01*
G01X27269Y25448D01*
G01X27195Y25580D01*
G01X27158Y25648D01*
G01X27120Y25716D01*
G01X27082Y25786D01*
G01X27043Y25855D01*
G01X27004Y25925D01*
G01X26965Y25996D01*
G01X26845Y26212D01*
G01X26722Y26434D01*
G01X26681Y26509D01*
G01X26639Y26584D01*
G01X26597Y26660D01*
G01X26554Y26736D01*
G01X26512Y26813D01*
G01X26426Y26967D01*
G01X26382Y27045D01*
G01X26339Y27123D01*
G01X26207Y27360D01*
G01X26163Y27440D01*
G01X26119Y27519D01*
G01X25985Y27760D01*
G01X25940Y27840D01*
G01X25850Y28002D01*
G01X25764Y28156D01*
G01X25678Y28309D01*
G01X25635Y28386D01*
G01X25593Y28462D01*
G01X25550Y28538D01*
G01X25466Y28690D01*
G01X25423Y28766D01*
G01X25381Y28840D01*
G01X25297Y28990D01*
G01X25255Y29064D01*
G01X25214Y29138D01*
G01X25172Y29212D01*
G01X25131Y29285D01*
G01X25090Y29357D01*
G01X25049Y29430D01*
G01X25009Y29502D01*
G01X24968Y29574D01*
G01X24928Y29645D01*
G01X24888Y29715D01*
G01X24848Y29786D01*
G01X24731Y29993D01*
G01X24692Y30061D01*
G01X24654Y30129D01*
G01X24578Y30263D01*
G01X24467Y30458D01*
G01X24395Y30585D01*
G01X24359Y30648D01*
G01X24324Y30710D01*
G01X24289Y30771D01*
G01X24254Y30831D01*
G01X24220Y30891D01*
G01X24186Y30950D01*
G01X24153Y31008D01*
G01X24120Y31065D01*
G01X24088Y31122D01*
G01X24024Y31232D01*
G01X23962Y31340D01*
G01X23932Y31392D01*
G01X23902Y31443D01*
G01X23873Y31493D01*
G01X23845Y31543D01*
G01X23817Y31592D01*
G01X23789Y31639D01*
G01X23762Y31685D01*
G01X23736Y31731D01*
G01X23684Y31819D01*
G01X23660Y31861D01*
G01X23635Y31903D01*
G01X23612Y31943D01*
G01X23589Y31982D01*
G01X23566Y32020D01*
G01X23545Y32057D01*
G01X23523Y32093D01*
G01X23483Y32161D01*
G01X23464Y32193D01*
G01X23445Y32224D01*
G01X23427Y32254D01*
G01X23410Y32283D01*
G01X23394Y32310D01*
G01X23378Y32336D01*
G01X23363Y32361D01*
G01X23349Y32385D01*
G01X23335Y32406D01*
G01X23322Y32427D01*
G01X23298Y32465D01*
G01X23288Y32481D01*
G01X23278Y32496D01*
G01X23269Y32510D01*
G01X23261Y32523D01*
G37*

%LPD*%
G36*
G01X23227Y28885D02*
G01X23044Y29372D01*
G01X22969Y28930D01*
G01X22959Y28876D01*
G01X22944Y28824D01*
G01X22925Y28774D01*
G01X22903Y28726D01*
G01X22878Y28680D01*
G01X22848Y28636D01*
G01X22816Y28594D01*
G01X22780Y28555D01*
G01X22740Y28517D01*
G01X22697Y28481D01*
G01X22650Y28448D01*
G01X22600Y28416D01*
G01X22547Y28387D01*
G01X22490Y28360D01*
G01X22429Y28335D01*
G01X22365Y28312D01*
G01X22284Y28286D01*
G01X22210Y28264D01*
G01X22142Y28248D01*
G01X22079Y28236D01*
G01X22021Y28230D01*
G01X21967Y28229D01*
G01X21917Y28234D01*
G01X21869Y28245D01*
G01X21824Y28262D01*
G01X21779Y28285D01*
G01X21735Y28315D01*
G01X21690Y28352D01*
G01X21644Y28396D01*
G01X21597Y28447D01*
G01X21546Y28505D01*
G01X21493Y28571D01*
G01X21150Y29006D01*
G01X21259Y28531D01*
G01X21273Y28464D01*
G01X21283Y28399D01*
G01X21288Y28338D01*
G01X21288Y28280D01*
G01X21284Y28223D01*
G01X21275Y28169D01*
G01X21259Y28116D01*
G01X21239Y28063D01*
G01X21213Y28012D01*
G01X21181Y27959D01*
G01X21143Y27906D01*
G01X21098Y27853D01*
G01X21047Y27797D01*
G01X20990Y27739D01*
G01X20925Y27679D01*
G01X20852Y27616D01*
G01X20790Y27563D01*
G01X20728Y27508D01*
G01X20667Y27452D01*
G01X20607Y27396D01*
G01X20547Y27341D01*
G01X20488Y27284D01*
G01X20430Y27227D01*
G01X20373Y27169D01*
G01X20316Y27112D01*
G01X20262Y27055D01*
G01X20208Y26997D01*
G01X20155Y26939D01*
G01X20103Y26881D01*
G01X20053Y26824D01*
G01X20004Y26767D01*
G01X19956Y26710D01*
G01X19909Y26653D01*
G01X19864Y26597D01*
G01X19821Y26541D01*
G01X19778Y26486D01*
G01X19738Y26431D01*
G01X19699Y26376D01*
G01X19662Y26323D01*
G01X19627Y26271D01*
G01X19593Y26219D01*
G01X19561Y26168D01*
G01X19531Y26118D01*
G01X19503Y26070D01*
G01X19477Y26022D01*
G01X19452Y25975D01*
G01X19431Y25930D01*
G01X19410Y25886D01*
G01X19392Y25843D01*
G01X19377Y25802D01*
G01X19363Y25763D01*
G01X19353Y25725D01*
G01X19344Y25688D01*
G01X19338Y25654D01*
G01X19334Y25620D01*
G01X19333Y25589D01*
G01X19335Y25556D01*
G01X19342Y25520D01*
G01X19352Y25481D01*
G01X19366Y25439D01*
G01X19385Y25395D01*
G01X19406Y25348D01*
G01X19432Y25299D01*
G01X19460Y25248D01*
G01X19491Y25196D01*
G01X19526Y25142D01*
G01X19563Y25088D01*
G01X19602Y25032D01*
G01X19644Y24976D01*
G01X19689Y24920D01*
G01X19735Y24865D01*
G01X19783Y24809D01*
G01X19832Y24754D01*
G01X19884Y24699D01*
G01X19936Y24646D01*
G01X19990Y24594D01*
G01X20053Y24533D01*
G01X20113Y24474D01*
G01X20169Y24417D01*
G01X20220Y24361D01*
G01X20269Y24306D01*
G01X20313Y24253D01*
G01X20354Y24202D01*
G01X20391Y24151D01*
G01X20424Y24103D01*
G01X20453Y24056D01*
G01X20478Y24011D01*
G01X20500Y23968D01*
G01X20518Y23926D01*
G01X20531Y23886D01*
G01X20541Y23847D01*
G01X20548Y23810D01*
G01X20550Y23775D01*
G01X20548Y23741D01*
G01X20543Y23709D01*
G01X20533Y23679D01*
G01X20506Y23603D01*
G01X20490Y23545D01*
G01X20486Y23507D01*
G01X20494Y23487D01*
G01X20516Y23486D01*
G01X20552Y23503D01*
G01X20601Y23537D01*
G01X20666Y23588D01*
G01X20691Y23606D01*
G01X20721Y23624D01*
G01X20754Y23639D01*
G01X20792Y23653D01*
G01X20835Y23666D01*
G01X20880Y23677D01*
G01X20930Y23687D01*
G01X20983Y23695D01*
G01X21040Y23702D01*
G01X21101Y23707D01*
G01X21164Y23711D01*
G01X21231Y23714D01*
G01X21375Y23714D01*
G01X21451Y23712D01*
G01X21531Y23708D01*
G01X21612Y23703D01*
G01X21697Y23696D01*
G01X21784Y23688D01*
G01X21873Y23677D01*
G01X21981Y23664D01*
G01X22082Y23650D01*
G01X22176Y23636D01*
G01X22263Y23620D01*
G01X22344Y23604D01*
G01X22420Y23587D01*
G01X22489Y23569D01*
G01X22553Y23550D01*
G01X22612Y23529D01*
G01X22666Y23507D01*
G01X22715Y23483D01*
G01X22760Y23458D01*
G01X22801Y23430D01*
G01X22838Y23402D01*
G01X22871Y23371D01*
G01X22901Y23337D01*
G01X22928Y23301D01*
G01X22951Y23264D01*
G01X22973Y23223D01*
G01X22993Y23180D01*
G01X23029Y23092D01*
G01X23059Y23021D01*
G01X23085Y22965D01*
G01X23107Y22926D01*
G01X23127Y22903D01*
G01X23146Y22896D01*
G01X23163Y22906D01*
G01X23180Y22933D01*
G01X23199Y22976D01*
G01X23220Y23036D01*
G01X23244Y23114D01*
G01X23271Y23207D01*
G01X23282Y23241D01*
G01X23293Y23273D01*
G01X23306Y23303D01*
G01X23319Y23331D01*
G01X23334Y23359D01*
G01X23350Y23385D01*
G01X23368Y23409D01*
G01X23388Y23433D01*
G01X23409Y23454D01*
G01X23433Y23475D01*
G01X23459Y23494D01*
G01X23487Y23512D01*
G01X23518Y23530D01*
G01X23552Y23545D01*
G01X23588Y23560D01*
G01X23628Y23574D01*
G01X23671Y23587D01*
G01X23718Y23599D01*
G01X23768Y23610D01*
G01X23822Y23619D01*
G01X23879Y23629D01*
G01X23941Y23637D01*
G01X24007Y23645D01*
G01X24077Y23652D01*
G01X24151Y23658D01*
G01X24231Y23664D01*
G01X24315Y23668D01*
G01X24405Y23673D01*
G01X24499Y23677D01*
G01X24599Y23680D01*
G01X24705Y23683D01*
G01X24815Y23686D01*
G01X24932Y23688D01*
G01X25055Y23689D01*
G01X25184Y23691D01*
G01X25319Y23692D01*
G01X25408Y23696D01*
G01X25484Y23709D01*
G01X25548Y23728D01*
G01X25598Y23755D01*
G01X25634Y23787D01*
G01X25656Y23825D01*
G01X25661Y23868D01*
G01X25650Y23917D01*
G01X25643Y23949D01*
G01X25643Y23986D01*
G01X25652Y24026D01*
G01X25668Y24068D01*
G01X25691Y24113D01*
G01X25720Y24158D01*
G01X25755Y24205D01*
G01X25796Y24252D01*
G01X25842Y24298D01*
G01X25893Y24343D01*
G01X25948Y24387D01*
G01X26007Y24428D01*
G01X26053Y24460D01*
G01X26101Y24497D01*
G01X26150Y24538D01*
G01X26200Y24582D01*
G01X26250Y24630D01*
G01X26300Y24680D01*
G01X26349Y24732D01*
G01X26399Y24787D01*
G01X26446Y24843D01*
G01X26493Y24901D01*
G01X26537Y24959D01*
G01X26580Y25017D01*
G01X26620Y25075D01*
G01X26657Y25132D01*
G01X26691Y25189D01*
G01X26721Y25244D01*
G01X26751Y25305D01*
G01X26779Y25360D01*
G01X26804Y25413D01*
G01X26826Y25462D01*
G01X26845Y25509D01*
G01X26860Y25553D01*
G01X26872Y25596D01*
G01X26880Y25638D01*
G01X26885Y25678D01*
G01X26886Y25719D01*
G01X26883Y25759D01*
G01X26877Y25800D01*
G01X26867Y25841D01*
G01X26852Y25885D01*
G01X26834Y25930D01*
G01X26811Y25977D01*
G01X26784Y26027D01*
G01X26753Y26081D01*
G01X26717Y26139D01*
G01X26677Y26200D01*
G01X26631Y26266D01*
G01X26581Y26337D01*
G01X26527Y26414D01*
G01X26467Y26497D01*
G01X26430Y26548D01*
G01X26391Y26599D01*
G01X26349Y26651D01*
G01X26307Y26704D01*
G01X26263Y26757D01*
G01X26218Y26811D01*
G01X26172Y26865D01*
G01X26028Y27024D01*
G01X25979Y27076D01*
G01X25929Y27128D01*
G01X25880Y27179D01*
G01X25782Y27277D01*
G01X25684Y27369D01*
G01X25637Y27412D01*
G01X25591Y27453D01*
G01X25545Y27492D01*
G01X25501Y27530D01*
G01X25457Y27564D01*
G01X25416Y27596D01*
G01X25376Y27625D01*
G01X25316Y27670D01*
G01X25258Y27716D01*
G01X25203Y27765D01*
G01X25150Y27815D01*
G01X25101Y27866D01*
G01X25054Y27918D01*
G01X25011Y27970D01*
G01X24972Y28023D01*
G01X24936Y28075D01*
G01X24904Y28127D01*
G01X24877Y28179D01*
G01X24854Y28229D01*
G01X24836Y28278D01*
G01X24823Y28326D01*
G01X24815Y28371D01*
G01X24812Y28414D01*
G01X24812Y28494D01*
G01X24810Y28560D01*
G01X24805Y28613D01*
G01X24799Y28651D01*
G01X24788Y28677D01*
G01X24775Y28690D01*
G01X24757Y28690D01*
G01X24734Y28677D01*
G01X24706Y28652D01*
G01X24672Y28615D01*
G01X24631Y28565D01*
G01X24584Y28505D01*
G01X24551Y28465D01*
G01X24516Y28430D01*
G01X24477Y28398D01*
G01X24438Y28370D01*
G01X24396Y28345D01*
G01X24353Y28325D01*
G01X24307Y28307D01*
G01X24261Y28294D01*
G01X24213Y28283D01*
G01X24165Y28277D01*
G01X24115Y28273D01*
G01X24065Y28273D01*
G01X24015Y28276D01*
G01X23964Y28283D01*
G01X23914Y28292D01*
G01X23863Y28305D01*
G01X23813Y28321D01*
G01X23763Y28339D01*
G01X23714Y28361D01*
G01X23667Y28385D01*
G01X23619Y28412D01*
G01X23574Y28442D01*
G01X23530Y28475D01*
G01X23487Y28511D01*
G01X23446Y28549D01*
G01X23408Y28590D01*
G01X23371Y28633D01*
G01X23337Y28679D01*
G01X23305Y28727D01*
G01X23276Y28777D01*
G01X23250Y28830D01*
G01X23227Y28885D01*
G37*

%LPC*%
G36*
G01X23069Y28156D02*
G01X23030Y28157D01*
G01X22992Y28155D01*
G01X22953Y28152D01*
G01X22915Y28147D01*
G01X22877Y28139D01*
G01X22837Y28129D01*
G01X22795Y28117D01*
G01X22751Y28102D01*
G01X22705Y28085D01*
G01X22655Y28065D01*
G01X22602Y28044D01*
G01X22545Y28019D01*
G01X22483Y27992D01*
G01X22416Y27963D01*
G01X22342Y27931D01*
G01X22263Y27896D01*
G01X22206Y27871D01*
G01X22148Y27845D01*
G01X22032Y27789D01*
G01X21975Y27760D01*
G01X21917Y27730D01*
G01X21859Y27699D01*
G01X21802Y27667D01*
G01X21744Y27634D01*
G01X21687Y27601D01*
G01X21630Y27567D01*
G01X21573Y27532D01*
G01X21517Y27497D01*
G01X21460Y27460D01*
G01X21405Y27424D01*
G01X21349Y27386D01*
G01X21239Y27310D01*
G01X21185Y27270D01*
G01X21132Y27231D01*
G01X21078Y27191D01*
G01X20974Y27109D01*
G01X20922Y27067D01*
G01X20871Y27026D01*
G01X20821Y26983D01*
G01X20772Y26941D01*
G01X20723Y26898D01*
G01X20675Y26854D01*
G01X20628Y26811D01*
G01X20536Y26723D01*
G01X20492Y26678D01*
G01X20448Y26634D01*
G01X20405Y26589D01*
G01X20364Y26545D01*
G01X20323Y26499D01*
G01X20283Y26455D01*
G01X20245Y26409D01*
G01X20207Y26364D01*
G01X20171Y26319D01*
G01X20136Y26274D01*
G01X20102Y26229D01*
G01X20070Y26184D01*
G01X20011Y26101D01*
G01X19960Y26024D01*
G01X19916Y25954D01*
G01X19878Y25890D01*
G01X19848Y25830D01*
G01X19823Y25773D01*
G01X19806Y25720D01*
G01X19795Y25669D01*
G01X19790Y25620D01*
G01X19791Y25571D01*
G01X19798Y25522D01*
G01X19812Y25472D01*
G01X19830Y25420D01*
G01X19855Y25366D01*
G01X19885Y25309D01*
G01X19920Y25247D01*
G01X19940Y25216D01*
G01X19961Y25184D01*
G01X19985Y25153D01*
G01X20010Y25122D01*
G01X20038Y25091D01*
G01X20067Y25059D01*
G01X20098Y25028D01*
G01X20131Y24997D01*
G01X20166Y24967D01*
G01X20202Y24936D01*
G01X20240Y24905D01*
G01X20279Y24875D01*
G01X20363Y24815D01*
G01X20407Y24785D01*
G01X20452Y24756D01*
G01X20499Y24726D01*
G01X20547Y24698D01*
G01X20596Y24669D01*
G01X20698Y24613D01*
G01X20751Y24586D01*
G01X20805Y24558D01*
G01X20860Y24532D01*
G01X20915Y24505D01*
G01X20972Y24480D01*
G01X21030Y24454D01*
G01X21148Y24404D01*
G01X21208Y24380D01*
G01X21268Y24357D01*
G01X21330Y24334D01*
G01X21454Y24290D01*
G01X21581Y24248D01*
G01X21645Y24229D01*
G01X21709Y24209D01*
G01X21904Y24155D01*
G01X22036Y24123D01*
G01X22101Y24109D01*
G01X22167Y24094D01*
G01X22233Y24081D01*
G01X22298Y24069D01*
G01X22364Y24057D01*
G01X22429Y24046D01*
G01X22495Y24036D01*
G01X22560Y24027D01*
G01X22624Y24019D01*
G01X22689Y24011D01*
G01X22817Y23999D01*
G01X22880Y23995D01*
G01X22943Y23992D01*
G01X23005Y23989D01*
G01X23067Y23988D01*
G01X23196Y23988D01*
G01X23264Y23990D01*
G01X23332Y23993D01*
G01X23401Y23997D01*
G01X23539Y24009D01*
G01X23608Y24016D01*
G01X23746Y24034D01*
G01X23815Y24044D01*
G01X23884Y24055D01*
G01X23953Y24068D01*
G01X24022Y24080D01*
G01X24090Y24094D01*
G01X24159Y24109D01*
G01X24227Y24124D01*
G01X24363Y24158D01*
G01X24430Y24176D01*
G01X24497Y24195D01*
G01X24629Y24235D01*
G01X24694Y24256D01*
G01X24759Y24278D01*
G01X24823Y24300D01*
G01X24886Y24324D01*
G01X24949Y24347D01*
G01X25011Y24371D01*
G01X25073Y24396D01*
G01X25134Y24422D01*
G01X25252Y24474D01*
G01X25310Y24501D01*
G01X25367Y24529D01*
G01X25423Y24557D01*
G01X25478Y24586D01*
G01X25532Y24615D01*
G01X25585Y24644D01*
G01X25636Y24674D01*
G01X25687Y24705D01*
G01X25736Y24735D01*
G01X25784Y24766D01*
G01X25830Y24797D01*
G01X25876Y24829D01*
G01X25920Y24861D01*
G01X25962Y24893D01*
G01X26003Y24925D01*
G01X26043Y24958D01*
G01X26081Y24991D01*
G01X26117Y25024D01*
G01X26152Y25057D01*
G01X26185Y25090D01*
G01X26216Y25124D01*
G01X26246Y25158D01*
G01X26274Y25191D01*
G01X26300Y25225D01*
G01X26324Y25259D01*
G01X26346Y25293D01*
G01X26367Y25326D01*
G01X26385Y25360D01*
G01X26401Y25394D01*
G01X26416Y25428D01*
G01X26428Y25462D01*
G01X26438Y25496D01*
G01X26446Y25529D01*
G01X26452Y25563D01*
G01X26455Y25596D01*
G01X26456Y25629D01*
G01X26455Y25655D01*
G01X26450Y25682D01*
G01X26442Y25711D01*
G01X26432Y25742D01*
G01X26419Y25774D01*
G01X26403Y25808D01*
G01X26385Y25843D01*
G01X26364Y25881D01*
G01X26340Y25919D01*
G01X26314Y25958D01*
G01X26286Y25999D01*
G01X26256Y26041D01*
G01X26224Y26083D01*
G01X26189Y26127D01*
G01X26153Y26172D01*
G01X26115Y26218D01*
G01X26075Y26264D01*
G01X26033Y26311D01*
G01X25989Y26359D01*
G01X25944Y26407D01*
G01X25898Y26456D01*
G01X25850Y26505D01*
G01X25801Y26555D01*
G01X25699Y26655D01*
G01X25646Y26706D01*
G01X25538Y26806D01*
G01X25426Y26906D01*
G01X25312Y27006D01*
G01X25254Y27055D01*
G01X25195Y27104D01*
G01X25136Y27152D01*
G01X25077Y27199D01*
G01X25018Y27247D01*
G01X24900Y27339D01*
G01X24781Y27427D01*
G01X24722Y27470D01*
G01X24663Y27511D01*
G01X24547Y27591D01*
G01X24490Y27629D01*
G01X24433Y27665D01*
G01X24377Y27700D01*
G01X24323Y27734D01*
G01X24268Y27766D01*
G01X24215Y27797D01*
G01X24163Y27825D01*
G01X24111Y27852D01*
G01X24061Y27878D01*
G01X24012Y27900D01*
G01X23965Y27922D01*
G01X23919Y27941D01*
G01X23874Y27957D01*
G01X23831Y27972D01*
G01X23790Y27985D01*
G01X23701Y28009D01*
G01X23619Y28032D01*
G01X23544Y28053D01*
G01X23474Y28073D01*
G01X23410Y28090D01*
G01X23351Y28106D01*
G01X23295Y28119D01*
G01X23245Y28131D01*
G01X23197Y28140D01*
G01X23152Y28147D01*
G01X23109Y28152D01*
G01X23069Y28156D01*
G37*

%LPD*%
G36*
G01X23137Y27580D02*
G01X23098Y27582D01*
G01X23060Y27578D01*
G01X23022Y27570D01*
G01X22984Y27558D01*
G01X22948Y27541D01*
G01X22911Y27519D01*
G01X22876Y27492D01*
G01X22841Y27461D01*
G01X22807Y27426D01*
G01X22774Y27386D01*
G01X22742Y27341D01*
G01X22711Y27291D01*
G01X22682Y27237D01*
G01X22653Y27179D01*
G01X22630Y27126D01*
G01X22609Y27072D01*
G01X22588Y27015D01*
G01X22569Y26958D01*
G01X22552Y26898D01*
G01X22535Y26837D01*
G01X22520Y26774D01*
G01X22506Y26711D01*
G01X22494Y26646D01*
G01X22482Y26580D01*
G01X22472Y26513D01*
G01X22463Y26445D01*
G01X22449Y26307D01*
G01X22443Y26238D01*
G01X22439Y26168D01*
G01X22437Y26097D01*
G01X22435Y26027D01*
G01X22434Y25957D01*
G01X22435Y25887D01*
G01X22437Y25816D01*
G01X22440Y25746D01*
G01X22444Y25677D01*
G01X22456Y25539D01*
G01X22472Y25405D01*
G01X22483Y25339D01*
G01X22494Y25274D01*
G01X22506Y25211D01*
G01X22519Y25148D01*
G01X22533Y25087D01*
G01X22549Y25028D01*
G01X22565Y24970D01*
G01X22583Y24914D01*
G01X22602Y24860D01*
G01X22622Y24808D01*
G01X22643Y24757D01*
G01X22665Y24710D01*
G01X22688Y24664D01*
G01X22712Y24620D01*
G01X22738Y24580D01*
G01X22764Y24541D01*
G01X22791Y24506D01*
G01X22850Y24435D01*
G01X22904Y24372D01*
G01X22951Y24319D01*
G01X22995Y24275D01*
G01X23034Y24239D01*
G01X23071Y24212D01*
G01X23106Y24194D01*
G01X23139Y24184D01*
G01X23172Y24182D01*
G01X23206Y24188D01*
G01X23241Y24202D01*
G01X23277Y24224D01*
G01X23317Y24253D01*
G01X23360Y24290D01*
G01X23408Y24334D01*
G01X23486Y24412D01*
G01X23510Y24442D01*
G01X23534Y24475D01*
G01X23557Y24511D01*
G01X23579Y24550D01*
G01X23601Y24591D01*
G01X23621Y24635D01*
G01X23641Y24682D01*
G01X23660Y24731D01*
G01X23678Y24782D01*
G01X23696Y24835D01*
G01X23712Y24890D01*
G01X23728Y24947D01*
G01X23743Y25005D01*
G01X23757Y25065D01*
G01X23783Y25189D01*
G01X23794Y25253D01*
G01X23805Y25318D01*
G01X23815Y25384D01*
G01X23831Y25518D01*
G01X23837Y25586D01*
G01X23843Y25655D01*
G01X23849Y25723D01*
G01X23853Y25792D01*
G01X23855Y25860D01*
G01X23857Y25929D01*
G01X23858Y25997D01*
G01X23858Y26065D01*
G01X23857Y26133D01*
G01X23855Y26200D01*
G01X23852Y26267D01*
G01X23848Y26332D01*
G01X23836Y26460D01*
G01X23829Y26522D01*
G01X23821Y26583D01*
G01X23811Y26642D01*
G01X23800Y26699D01*
G01X23789Y26755D01*
G01X23775Y26809D01*
G01X23762Y26862D01*
G01X23746Y26911D01*
G01X23730Y26959D01*
G01X23712Y27004D01*
G01X23694Y27047D01*
G01X23674Y27087D01*
G01X23638Y27152D01*
G01X23602Y27212D01*
G01X23565Y27267D01*
G01X23527Y27318D01*
G01X23489Y27365D01*
G01X23450Y27407D01*
G01X23412Y27445D01*
G01X23373Y27478D01*
G01X23333Y27506D01*
G01X23294Y27530D01*
G01X23255Y27549D01*
G01X23216Y27565D01*
G01X23176Y27575D01*
G01X23137Y27580D01*
G37*

%LPD*%
M00*
M02*
