G04 Layer: BottomSolderMaskLayer*
G04 EasyEDA v6.4.7, 2020-11-14T21:45:58--5:00*
G04 4beb7541176d43e18d54f8e2082e3679,79d071017cc24593b82b416037a8e878,10*
G04 Gerber Generator version 0.2*
G04 Scale: 100 percent, Rotated: No, Reflected: No *
G04 Dimensions in millimeters *
G04 leading zeros omitted , absolute positions ,3 integer and 3 decimal *
%FSLAX33Y33*%
%MOMM*%
G90*
D02*

%ADD19C,0.903199*%

%LPD*%

%LPD*%
G36*
G01X25138Y44726D02*
G01X25042Y44726D01*
G01X24942Y44725D01*
G01X24847Y44720D01*
G01X24756Y44712D01*
G01X24671Y44701D01*
G01X24592Y44688D01*
G01X24521Y44673D01*
G01X24458Y44655D01*
G01X24405Y44635D01*
G01X24362Y44614D01*
G01X24331Y44591D01*
G01X24311Y44567D01*
G01X24304Y44542D01*
G01X24318Y44470D01*
G01X24358Y44411D01*
G01X24417Y44372D01*
G01X24489Y44357D01*
G01X24504Y44353D01*
G01X24519Y44342D01*
G01X24534Y44323D01*
G01X24548Y44297D01*
G01X24561Y44265D01*
G01X24575Y44226D01*
G01X24587Y44181D01*
G01X24598Y44129D01*
G01X24610Y44073D01*
G01X24620Y44011D01*
G01X24629Y43944D01*
G01X24638Y43872D01*
G01X24646Y43795D01*
G01X24653Y43714D01*
G01X24659Y43630D01*
G01X24664Y43542D01*
G01X24668Y43450D01*
G01X24671Y43355D01*
G01X24673Y43257D01*
G01X24673Y43157D01*
G01X24674Y43059D01*
G01X24676Y42963D01*
G01X24678Y42869D01*
G01X24682Y42778D01*
G01X24686Y42690D01*
G01X24692Y42606D01*
G01X24698Y42525D01*
G01X24705Y42449D01*
G01X24713Y42376D01*
G01X24722Y42309D01*
G01X24731Y42246D01*
G01X24741Y42188D01*
G01X24751Y42137D01*
G01X24762Y42090D01*
G01X24774Y42051D01*
G01X24786Y42018D01*
G01X24799Y41991D01*
G01X24811Y41972D01*
G01X24824Y41960D01*
G01X24838Y41956D01*
G01X24865Y41958D01*
G01X24890Y41964D01*
G01X24915Y41973D01*
G01X24939Y41986D01*
G01X24962Y42003D01*
G01X24983Y42024D01*
G01X25005Y42048D01*
G01X25025Y42076D01*
G01X25044Y42107D01*
G01X25062Y42142D01*
G01X25080Y42181D01*
G01X25096Y42223D01*
G01X25112Y42269D01*
G01X25127Y42317D01*
G01X25140Y42370D01*
G01X25153Y42426D01*
G01X25164Y42486D01*
G01X25175Y42548D01*
G01X25185Y42615D01*
G01X25194Y42684D01*
G01X25201Y42756D01*
G01X25208Y42833D01*
G01X25214Y42912D01*
G01X25219Y42995D01*
G01X25222Y43080D01*
G01X25225Y43169D01*
G01X25226Y43261D01*
G01X25227Y43356D01*
G01X25228Y43465D01*
G01X25230Y43565D01*
G01X25235Y43655D01*
G01X25242Y43738D01*
G01X25250Y43812D01*
G01X25261Y43879D01*
G01X25274Y43938D01*
G01X25289Y43990D01*
G01X25306Y44035D01*
G01X25326Y44073D01*
G01X25349Y44105D01*
G01X25374Y44129D01*
G01X25402Y44149D01*
G01X25433Y44162D01*
G01X25467Y44170D01*
G01X25504Y44173D01*
G01X25560Y44178D01*
G01X25611Y44194D01*
G01X25658Y44220D01*
G01X25699Y44254D01*
G01X25733Y44295D01*
G01X25759Y44342D01*
G01X25775Y44394D01*
G01X25781Y44450D01*
G01X25778Y44486D01*
G01X25771Y44519D01*
G01X25758Y44550D01*
G01X25740Y44577D01*
G01X25716Y44602D01*
G01X25688Y44625D01*
G01X25652Y44645D01*
G01X25611Y44663D01*
G01X25564Y44679D01*
G01X25510Y44692D01*
G01X25450Y44702D01*
G01X25383Y44712D01*
G01X25309Y44718D01*
G01X25227Y44723D01*
G01X25138Y44726D01*
G37*

%LPD*%
G36*
G01X23111Y44745D02*
G01X23092Y44746D01*
G01X23071Y44744D01*
G01X23051Y44738D01*
G01X23029Y44729D01*
G01X23007Y44717D01*
G01X22984Y44701D01*
G01X22961Y44682D01*
G01X22937Y44660D01*
G01X22912Y44634D01*
G01X22886Y44605D01*
G01X22860Y44572D01*
G01X22834Y44536D01*
G01X22806Y44497D01*
G01X22778Y44454D01*
G01X22749Y44408D01*
G01X22720Y44359D01*
G01X22690Y44306D01*
G01X22659Y44249D01*
G01X22628Y44189D01*
G01X22596Y44126D01*
G01X22298Y43526D01*
G01X22286Y44126D01*
G01X22282Y44223D01*
G01X22275Y44311D01*
G01X22264Y44391D01*
G01X22249Y44462D01*
G01X22231Y44525D01*
G01X22209Y44579D01*
G01X22183Y44624D01*
G01X22153Y44661D01*
G01X22120Y44690D01*
G01X22083Y44710D01*
G01X22042Y44722D01*
G01X21997Y44726D01*
G01X21966Y44725D01*
G01X21937Y44720D01*
G01X21912Y44711D01*
G01X21887Y44697D01*
G01X21865Y44680D01*
G01X21845Y44658D01*
G01X21826Y44632D01*
G01X21810Y44600D01*
G01X21795Y44564D01*
G01X21783Y44522D01*
G01X21771Y44474D01*
G01X21762Y44421D01*
G01X21754Y44362D01*
G01X21748Y44296D01*
G01X21743Y44223D01*
G01X21740Y44145D01*
G01X21738Y44059D01*
G01X21737Y43965D01*
G01X21737Y43865D01*
G01X21739Y43757D01*
G01X21740Y43690D01*
G01X21742Y43621D01*
G01X21745Y43553D01*
G01X21752Y43414D01*
G01X21756Y43344D01*
G01X21761Y43274D01*
G01X21766Y43205D01*
G01X21772Y43136D01*
G01X21777Y43069D01*
G01X21784Y43002D01*
G01X21791Y42936D01*
G01X21798Y42872D01*
G01X21805Y42810D01*
G01X21813Y42749D01*
G01X21821Y42691D01*
G01X21828Y42635D01*
G01X21837Y42581D01*
G01X21845Y42530D01*
G01X21854Y42483D01*
G01X21863Y42438D01*
G01X21871Y42397D01*
G01X21881Y42359D01*
G01X21890Y42326D01*
G01X22022Y41864D01*
G01X22378Y42510D01*
G01X22735Y43157D01*
G01X22793Y42556D01*
G01X22804Y42466D01*
G01X22818Y42383D01*
G01X22836Y42306D01*
G01X22856Y42236D01*
G01X22880Y42173D01*
G01X22906Y42117D01*
G01X22936Y42069D01*
G01X22967Y42029D01*
G01X23002Y41997D01*
G01X23038Y41975D01*
G01X23076Y41961D01*
G01X23116Y41956D01*
G01X23141Y41958D01*
G01X23165Y41963D01*
G01X23187Y41971D01*
G01X23207Y41984D01*
G01X23227Y42000D01*
G01X23245Y42021D01*
G01X23261Y42046D01*
G01X23277Y42075D01*
G01X23291Y42109D01*
G01X23304Y42149D01*
G01X23316Y42193D01*
G01X23326Y42243D01*
G01X23336Y42299D01*
G01X23345Y42361D01*
G01X23352Y42428D01*
G01X23358Y42502D01*
G01X23364Y42582D01*
G01X23369Y42669D01*
G01X23373Y42762D01*
G01X23376Y42864D01*
G01X23378Y42971D01*
G01X23380Y43087D01*
G01X23381Y43210D01*
G01X23381Y43437D01*
G01X23380Y43529D01*
G01X23378Y43617D01*
G01X23376Y43703D01*
G01X23373Y43785D01*
G01X23369Y43864D01*
G01X23364Y43939D01*
G01X23359Y44011D01*
G01X23353Y44080D01*
G01X23347Y44145D01*
G01X23339Y44207D01*
G01X23331Y44266D01*
G01X23323Y44320D01*
G01X23313Y44372D01*
G01X23303Y44421D01*
G01X23292Y44466D01*
G01X23281Y44508D01*
G01X23269Y44546D01*
G01X23256Y44581D01*
G01X23243Y44613D01*
G01X23229Y44641D01*
G01X23214Y44666D01*
G01X23198Y44688D01*
G01X23182Y44706D01*
G01X23165Y44720D01*
G01X23148Y44732D01*
G01X23130Y44740D01*
G01X23111Y44745D01*
G37*

%LPD*%
G36*
G01X26739Y44541D02*
G01X26666Y44542D01*
G01X26596Y44539D01*
G01X26529Y44533D01*
G01X26465Y44522D01*
G01X26404Y44507D01*
G01X26346Y44489D01*
G01X26292Y44467D01*
G01X26242Y44442D01*
G01X26195Y44414D01*
G01X26153Y44383D01*
G01X26115Y44350D01*
G01X26081Y44315D01*
G01X26052Y44277D01*
G01X26027Y44238D01*
G01X26008Y44198D01*
G01X25993Y44155D01*
G01X25984Y44112D01*
G01X25980Y44069D01*
G01X25982Y44024D01*
G01X25989Y43980D01*
G01X26003Y43935D01*
G01X26022Y43890D01*
G01X26048Y43846D01*
G01X26080Y43802D01*
G01X26119Y43760D01*
G01X26172Y43713D01*
G01X26219Y43682D01*
G01X26263Y43669D01*
G01X26303Y43673D01*
G01X26340Y43694D01*
G01X26374Y43733D01*
G01X26408Y43790D01*
G01X26440Y43864D01*
G01X26469Y43931D01*
G01X26501Y43990D01*
G01X26535Y44040D01*
G01X26571Y44082D01*
G01X26608Y44115D01*
G01X26646Y44140D01*
G01X26683Y44156D01*
G01X26718Y44163D01*
G01X26753Y44162D01*
G01X26784Y44153D01*
G01X26813Y44134D01*
G01X26838Y44106D01*
G01X26859Y44070D01*
G01X26875Y44024D01*
G01X26884Y43969D01*
G01X26888Y43905D01*
G01X26883Y43867D01*
G01X26870Y43826D01*
G01X26848Y43782D01*
G01X26818Y43738D01*
G01X26782Y43692D01*
G01X26739Y43645D01*
G01X26690Y43600D01*
G01X26636Y43554D01*
G01X26578Y43511D01*
G01X26515Y43469D01*
G01X26449Y43430D01*
G01X26380Y43395D01*
G01X26321Y43366D01*
G01X26267Y43336D01*
G01X26216Y43307D01*
G01X26170Y43277D01*
G01X26128Y43247D01*
G01X26090Y43215D01*
G01X26055Y43182D01*
G01X26024Y43147D01*
G01X25997Y43111D01*
G01X25973Y43073D01*
G01X25952Y43032D01*
G01X25933Y42988D01*
G01X25918Y42942D01*
G01X25905Y42891D01*
G01X25894Y42838D01*
G01X25886Y42781D01*
G01X25880Y42719D01*
G01X25876Y42654D01*
G01X25873Y42583D01*
G01X25873Y42426D01*
G01X25875Y42350D01*
G01X25878Y42282D01*
G01X25883Y42219D01*
G01X25889Y42164D01*
G01X25898Y42113D01*
G01X25910Y42068D01*
G01X25924Y42028D01*
G01X25941Y41992D01*
G01X25961Y41961D01*
G01X25986Y41933D01*
G01X26014Y41910D01*
G01X26046Y41889D01*
G01X26082Y41871D01*
G01X26123Y41855D01*
G01X26169Y41842D01*
G01X26219Y41830D01*
G01X26276Y41820D01*
G01X26338Y41811D01*
G01X26406Y41803D01*
G01X26471Y41797D01*
G01X26533Y41794D01*
G01X26593Y41795D01*
G01X26650Y41798D01*
G01X26706Y41805D01*
G01X26758Y41815D01*
G01X26809Y41827D01*
G01X26857Y41843D01*
G01X26903Y41861D01*
G01X26946Y41883D01*
G01X26986Y41907D01*
G01X27024Y41934D01*
G01X27059Y41964D01*
G01X27092Y41996D01*
G01X27121Y42031D01*
G01X27148Y42070D01*
G01X27172Y42110D01*
G01X27193Y42153D01*
G01X27211Y42199D01*
G01X27226Y42247D01*
G01X27237Y42298D01*
G01X27246Y42350D01*
G01X27252Y42406D01*
G01X27254Y42464D01*
G01X27249Y42510D01*
G01X27233Y42554D01*
G01X27208Y42593D01*
G01X27175Y42627D01*
G01X27134Y42655D01*
G01X27088Y42677D01*
G01X27036Y42690D01*
G01X26980Y42695D01*
G01X26925Y42691D01*
G01X26873Y42680D01*
G01X26825Y42663D01*
G01X26785Y42641D01*
G01X26751Y42613D01*
G01X26725Y42582D01*
G01X26709Y42547D01*
G01X26703Y42510D01*
G01X26689Y42438D01*
G01X26649Y42380D01*
G01X26590Y42340D01*
G01X26519Y42326D01*
G01X26473Y42328D01*
G01X26435Y42335D01*
G01X26402Y42346D01*
G01X26375Y42362D01*
G01X26355Y42381D01*
G01X26339Y42404D01*
G01X26330Y42431D01*
G01X26326Y42460D01*
G01X26327Y42492D01*
G01X26333Y42526D01*
G01X26344Y42562D01*
G01X26361Y42600D01*
G01X26381Y42641D01*
G01X26407Y42682D01*
G01X26437Y42724D01*
G01X26472Y42766D01*
G01X26510Y42810D01*
G01X26553Y42853D01*
G01X26600Y42897D01*
G01X26651Y42940D01*
G01X26705Y42982D01*
G01X26763Y43023D01*
G01X26824Y43063D01*
G01X26944Y43135D01*
G01X26997Y43172D01*
G01X27047Y43211D01*
G01X27096Y43252D01*
G01X27141Y43296D01*
G01X27184Y43342D01*
G01X27224Y43389D01*
G01X27261Y43438D01*
G01X27295Y43488D01*
G01X27327Y43539D01*
G01X27355Y43591D01*
G01X27381Y43644D01*
G01X27403Y43698D01*
G01X27422Y43752D01*
G01X27438Y43805D01*
G01X27451Y43859D01*
G01X27460Y43913D01*
G01X27466Y43965D01*
G01X27468Y44018D01*
G01X27467Y44069D01*
G01X27461Y44119D01*
G01X27453Y44168D01*
G01X27441Y44214D01*
G01X27424Y44260D01*
G01X27404Y44303D01*
G01X27379Y44344D01*
G01X27351Y44382D01*
G01X27318Y44419D01*
G01X27297Y44435D01*
G01X27267Y44452D01*
G01X27229Y44467D01*
G01X27184Y44480D01*
G01X27133Y44494D01*
G01X27076Y44506D01*
G01X27015Y44516D01*
G01X26950Y44525D01*
G01X26882Y44532D01*
G01X26811Y44537D01*
G01X26739Y44541D01*
G37*

%LPD*%
G36*
G01X20614Y44758D02*
G01X20574Y44760D01*
G01X20536Y44759D01*
G01X20498Y44756D01*
G01X20462Y44751D01*
G01X20427Y44744D01*
G01X20393Y44733D01*
G01X20361Y44721D01*
G01X20329Y44707D01*
G01X20298Y44690D01*
G01X20269Y44671D01*
G01X20241Y44650D01*
G01X20214Y44626D01*
G01X20188Y44600D01*
G01X20163Y44572D01*
G01X20140Y44542D01*
G01X20118Y44510D01*
G01X20097Y44476D01*
G01X20077Y44439D01*
G01X20059Y44401D01*
G01X20042Y44360D01*
G01X20026Y44317D01*
G01X20012Y44273D01*
G01X19998Y44226D01*
G01X19987Y44177D01*
G01X19977Y44126D01*
G01X19967Y44073D01*
G01X19960Y44018D01*
G01X19954Y43961D01*
G01X19949Y43903D01*
G01X19946Y43842D01*
G01X19944Y43779D01*
G01X19943Y43715D01*
G01X19944Y43648D01*
G01X19946Y43580D01*
G01X19950Y43510D01*
G01X19955Y43438D01*
G01X19962Y43364D01*
G01X19971Y43288D01*
G01X19981Y43210D01*
G01X19992Y43131D01*
G01X20006Y43045D01*
G01X20020Y42962D01*
G01X20036Y42882D01*
G01X20052Y42804D01*
G01X20069Y42729D01*
G01X20086Y42657D01*
G01X20105Y42588D01*
G01X20124Y42521D01*
G01X20144Y42457D01*
G01X20165Y42396D01*
G01X20187Y42338D01*
G01X20209Y42282D01*
G01X20232Y42230D01*
G01X20256Y42180D01*
G01X20281Y42133D01*
G01X20306Y42088D01*
G01X20332Y42047D01*
G01X20359Y42009D01*
G01X20387Y41972D01*
G01X20414Y41940D01*
G01X20443Y41910D01*
G01X20473Y41883D01*
G01X20503Y41858D01*
G01X20534Y41837D01*
G01X20566Y41818D01*
G01X20598Y41802D01*
G01X20631Y41790D01*
G01X20665Y41779D01*
G01X20700Y41772D01*
G01X20735Y41768D01*
G01X20771Y41767D01*
G01X20807Y41769D01*
G01X20844Y41773D01*
G01X20881Y41780D01*
G01X20920Y41791D01*
G01X20959Y41804D01*
G01X20998Y41821D01*
G01X21038Y41840D01*
G01X21079Y41862D01*
G01X21121Y41887D01*
G01X21147Y41907D01*
G01X21172Y41931D01*
G01X21197Y41960D01*
G01X21220Y41992D01*
G01X21242Y42029D01*
G01X21263Y42070D01*
G01X21283Y42114D01*
G01X21302Y42161D01*
G01X21320Y42212D01*
G01X21338Y42266D01*
G01X21353Y42323D01*
G01X21368Y42381D01*
G01X21382Y42443D01*
G01X21394Y42507D01*
G01X21406Y42572D01*
G01X21417Y42640D01*
G01X21426Y42709D01*
G01X21435Y42780D01*
G01X21442Y42851D01*
G01X21448Y42924D01*
G01X21453Y42997D01*
G01X21457Y43071D01*
G01X21460Y43146D01*
G01X21462Y43221D01*
G01X21463Y43295D01*
G01X21462Y43369D01*
G01X21460Y43444D01*
G01X21458Y43517D01*
G01X21454Y43589D01*
G01X21449Y43661D01*
G01X21443Y43731D01*
G01X21436Y43800D01*
G01X21427Y43867D01*
G01X21418Y43933D01*
G01X21408Y43996D01*
G01X21396Y44058D01*
G01X21383Y44117D01*
G01X21369Y44173D01*
G01X21354Y44226D01*
G01X21338Y44277D01*
G01X21320Y44324D01*
G01X21301Y44368D01*
G01X21282Y44408D01*
G01X21260Y44444D01*
G01X21238Y44476D01*
G01X21215Y44504D01*
G01X21190Y44528D01*
G01X21165Y44547D01*
G01X21114Y44579D01*
G01X21063Y44607D01*
G01X21014Y44633D01*
G01X20966Y44657D01*
G01X20918Y44679D01*
G01X20872Y44697D01*
G01X20826Y44714D01*
G01X20782Y44727D01*
G01X20738Y44739D01*
G01X20695Y44748D01*
G01X20654Y44754D01*
G01X20614Y44758D01*
G37*

%LPC*%
G36*
G01X20658Y44169D02*
G01X20622Y44171D01*
G01X20589Y44166D01*
G01X20558Y44154D01*
G01X20530Y44136D01*
G01X20504Y44110D01*
G01X20482Y44078D01*
G01X20464Y44040D01*
G01X20449Y43996D01*
G01X20437Y43945D01*
G01X20431Y43889D01*
G01X20429Y43826D01*
G01X20429Y43758D01*
G01X20432Y43688D01*
G01X20436Y43617D01*
G01X20441Y43545D01*
G01X20449Y43473D01*
G01X20457Y43399D01*
G01X20467Y43326D01*
G01X20477Y43254D01*
G01X20489Y43182D01*
G01X20502Y43110D01*
G01X20516Y43040D01*
G01X20531Y42972D01*
G01X20547Y42905D01*
G01X20563Y42840D01*
G01X20580Y42778D01*
G01X20597Y42718D01*
G01X20615Y42662D01*
G01X20633Y42609D01*
G01X20652Y42559D01*
G01X20671Y42513D01*
G01X20690Y42471D01*
G01X20709Y42435D01*
G01X20728Y42403D01*
G01X20747Y42376D01*
G01X20766Y42354D01*
G01X20785Y42338D01*
G01X20803Y42329D01*
G01X20821Y42326D01*
G01X20838Y42330D01*
G01X20854Y42343D01*
G01X20869Y42364D01*
G01X20883Y42392D01*
G01X20897Y42427D01*
G01X20909Y42469D01*
G01X20921Y42516D01*
G01X20932Y42569D01*
G01X20941Y42627D01*
G01X20949Y42688D01*
G01X20957Y42754D01*
G01X20964Y42822D01*
G01X20969Y42894D01*
G01X20973Y42967D01*
G01X20977Y43042D01*
G01X20979Y43119D01*
G01X20980Y43195D01*
G01X20980Y43272D01*
G01X20979Y43348D01*
G01X20977Y43423D01*
G01X20974Y43497D01*
G01X20969Y43568D01*
G01X20964Y43637D01*
G01X20957Y43703D01*
G01X20949Y43765D01*
G01X20940Y43822D01*
G01X20929Y43875D01*
G01X20918Y43923D01*
G01X20905Y43964D01*
G01X20891Y44000D01*
G01X20876Y44028D01*
G01X20859Y44049D01*
G01X20816Y44088D01*
G01X20775Y44120D01*
G01X20735Y44144D01*
G01X20695Y44160D01*
G01X20658Y44169D01*
G37*

%LPD*%
G36*
G01X18241Y44367D02*
G01X18197Y44367D01*
G01X18151Y44364D01*
G01X18107Y44358D01*
G01X18062Y44349D01*
G01X18018Y44338D01*
G01X17975Y44324D01*
G01X17931Y44307D01*
G01X17889Y44288D01*
G01X17848Y44267D01*
G01X17807Y44243D01*
G01X17768Y44217D01*
G01X17729Y44189D01*
G01X17693Y44159D01*
G01X17657Y44127D01*
G01X17623Y44092D01*
G01X17591Y44056D01*
G01X17561Y44018D01*
G01X17532Y43979D01*
G01X17506Y43937D01*
G01X17481Y43894D01*
G01X17459Y43850D01*
G01X17440Y43804D01*
G01X17422Y43757D01*
G01X17408Y43708D01*
G01X17396Y43659D01*
G01X17387Y43608D01*
G01X17381Y43555D01*
G01X17378Y43503D01*
G01X17378Y43449D01*
G01X17382Y43394D01*
G01X17389Y43338D01*
G01X17400Y43282D01*
G01X17421Y43187D01*
G01X17443Y43095D01*
G01X17465Y43005D01*
G01X17486Y42917D01*
G01X17509Y42833D01*
G01X17532Y42750D01*
G01X17554Y42670D01*
G01X17577Y42593D01*
G01X17601Y42518D01*
G01X17625Y42445D01*
G01X17648Y42375D01*
G01X17673Y42308D01*
G01X17697Y42243D01*
G01X17722Y42180D01*
G01X17747Y42120D01*
G01X17772Y42063D01*
G01X17798Y42008D01*
G01X17824Y41955D01*
G01X17850Y41905D01*
G01X17877Y41857D01*
G01X17903Y41811D01*
G01X17930Y41769D01*
G01X17957Y41728D01*
G01X17985Y41691D01*
G01X18013Y41655D01*
G01X18042Y41622D01*
G01X18070Y41591D01*
G01X18099Y41563D01*
G01X18128Y41537D01*
G01X18157Y41514D01*
G01X18187Y41493D01*
G01X18217Y41475D01*
G01X18248Y41458D01*
G01X18278Y41445D01*
G01X18310Y41434D01*
G01X18341Y41425D01*
G01X18373Y41418D01*
G01X18405Y41415D01*
G01X18437Y41413D01*
G01X18470Y41414D01*
G01X18503Y41417D01*
G01X18536Y41423D01*
G01X18570Y41431D01*
G01X18604Y41441D01*
G01X18639Y41454D01*
G01X18674Y41470D01*
G01X18709Y41487D01*
G01X18744Y41507D01*
G01X18780Y41530D01*
G01X18816Y41554D01*
G01X18852Y41582D01*
G01X18889Y41611D01*
G01X18922Y41640D01*
G01X18952Y41671D01*
G01X18979Y41703D01*
G01X19003Y41737D01*
G01X19025Y41774D01*
G01X19044Y41814D01*
G01X19061Y41857D01*
G01X19074Y41904D01*
G01X19086Y41954D01*
G01X19095Y42009D01*
G01X19101Y42068D01*
G01X19105Y42132D01*
G01X19107Y42201D01*
G01X19107Y42276D01*
G01X19104Y42357D01*
G01X19099Y42444D01*
G01X19093Y42537D01*
G01X19084Y42638D01*
G01X19072Y42746D01*
G01X19060Y42861D01*
G01X19049Y42944D01*
G01X19038Y43028D01*
G01X19012Y43192D01*
G01X18998Y43272D01*
G01X18982Y43351D01*
G01X18967Y43428D01*
G01X18950Y43504D01*
G01X18934Y43576D01*
G01X18916Y43646D01*
G01X18899Y43712D01*
G01X18881Y43775D01*
G01X18863Y43834D01*
G01X18845Y43890D01*
G01X18827Y43940D01*
G01X18809Y43986D01*
G01X18791Y44026D01*
G01X18774Y44061D01*
G01X18756Y44091D01*
G01X18739Y44114D01*
G01X18704Y44155D01*
G01X18666Y44191D01*
G01X18627Y44224D01*
G01X18587Y44254D01*
G01X18547Y44280D01*
G01X18505Y44302D01*
G01X18462Y44321D01*
G01X18419Y44337D01*
G01X18375Y44349D01*
G01X18331Y44358D01*
G01X18286Y44364D01*
G01X18241Y44367D01*
G37*

%LPC*%
G36*
G01X18198Y43798D02*
G01X18177Y43803D01*
G01X18154Y43800D01*
G01X18134Y43789D01*
G01X18115Y43772D01*
G01X18099Y43748D01*
G01X18086Y43717D01*
G01X18075Y43679D01*
G01X18066Y43635D01*
G01X18059Y43584D01*
G01X18056Y43526D01*
G01X18054Y43462D01*
G01X18055Y43391D01*
G01X18059Y43314D01*
G01X18065Y43230D01*
G01X18073Y43140D01*
G01X18084Y43043D01*
G01X18098Y42940D01*
G01X18113Y42832D01*
G01X18127Y42729D01*
G01X18143Y42634D01*
G01X18157Y42546D01*
G01X18172Y42463D01*
G01X18187Y42388D01*
G01X18202Y42319D01*
G01X18217Y42256D01*
G01X18232Y42199D01*
G01X18247Y42149D01*
G01X18263Y42104D01*
G01X18279Y42065D01*
G01X18296Y42031D01*
G01X18312Y42004D01*
G01X18329Y41982D01*
G01X18347Y41965D01*
G01X18365Y41953D01*
G01X18384Y41947D01*
G01X18404Y41945D01*
G01X18424Y41949D01*
G01X18445Y41957D01*
G01X18467Y41970D01*
G01X18489Y41987D01*
G01X18513Y42009D01*
G01X18529Y42030D01*
G01X18542Y42059D01*
G01X18552Y42096D01*
G01X18560Y42139D01*
G01X18566Y42188D01*
G01X18569Y42243D01*
G01X18570Y42303D01*
G01X18569Y42367D01*
G01X18565Y42435D01*
G01X18560Y42507D01*
G01X18554Y42581D01*
G01X18545Y42658D01*
G01X18535Y42736D01*
G01X18523Y42815D01*
G01X18510Y42895D01*
G01X18496Y42975D01*
G01X18481Y43055D01*
G01X18464Y43133D01*
G01X18447Y43209D01*
G01X18428Y43284D01*
G01X18409Y43356D01*
G01X18389Y43424D01*
G01X18369Y43488D01*
G01X18348Y43549D01*
G01X18327Y43604D01*
G01X18305Y43653D01*
G01X18283Y43697D01*
G01X18262Y43734D01*
G01X18241Y43763D01*
G01X18219Y43785D01*
G01X18198Y43798D01*
G37*

%LPD*%
G36*
G01X28190Y44351D02*
G01X28123Y44357D01*
G01X28094Y44355D01*
G01X28067Y44348D01*
G01X28040Y44336D01*
G01X28013Y44320D01*
G01X27987Y44299D01*
G01X27961Y44274D01*
G01X27935Y44244D01*
G01X27910Y44209D01*
G01X27886Y44170D01*
G01X27861Y44125D01*
G01X27838Y44077D01*
G01X27815Y44023D01*
G01X27791Y43965D01*
G01X27769Y43902D01*
G01X27746Y43834D01*
G01X27725Y43762D01*
G01X27703Y43684D01*
G01X27682Y43603D01*
G01X27662Y43516D01*
G01X27641Y43424D01*
G01X27617Y43312D01*
G01X27595Y43203D01*
G01X27574Y43101D01*
G01X27555Y43002D01*
G01X27538Y42909D01*
G01X27522Y42820D01*
G01X27508Y42736D01*
G01X27496Y42655D01*
G01X27484Y42579D01*
G01X27475Y42506D01*
G01X27468Y42438D01*
G01X27462Y42373D01*
G01X27458Y42311D01*
G01X27456Y42253D01*
G01X27455Y42198D01*
G01X27456Y42146D01*
G01X27459Y42097D01*
G01X27463Y42050D01*
G01X27470Y42007D01*
G01X27477Y41965D01*
G01X27487Y41925D01*
G01X27499Y41888D01*
G01X27511Y41853D01*
G01X27526Y41819D01*
G01X27543Y41787D01*
G01X27562Y41756D01*
G01X27582Y41727D01*
G01X27604Y41699D01*
G01X27628Y41671D01*
G01X27653Y41645D01*
G01X27680Y41619D01*
G01X27709Y41594D01*
G01X27748Y41563D01*
G01X27787Y41535D01*
G01X27825Y41509D01*
G01X27864Y41486D01*
G01X27901Y41466D01*
G01X27939Y41449D01*
G01X27977Y41434D01*
G01X28014Y41421D01*
G01X28051Y41412D01*
G01X28087Y41405D01*
G01X28123Y41400D01*
G01X28159Y41399D01*
G01X28195Y41399D01*
G01X28230Y41403D01*
G01X28265Y41409D01*
G01X28299Y41418D01*
G01X28333Y41428D01*
G01X28367Y41442D01*
G01X28400Y41458D01*
G01X28433Y41477D01*
G01X28466Y41498D01*
G01X28498Y41521D01*
G01X28529Y41548D01*
G01X28560Y41576D01*
G01X28591Y41607D01*
G01X28621Y41640D01*
G01X28651Y41676D01*
G01X28680Y41714D01*
G01X28709Y41755D01*
G01X28737Y41798D01*
G01X28764Y41843D01*
G01X28792Y41891D01*
G01X28818Y41940D01*
G01X28844Y41993D01*
G01X28870Y42048D01*
G01X28895Y42105D01*
G01X28919Y42164D01*
G01X28942Y42225D01*
G01X28965Y42289D01*
G01X28988Y42355D01*
G01X29009Y42424D01*
G01X29031Y42494D01*
G01X29051Y42567D01*
G01X29071Y42642D01*
G01X29090Y42719D01*
G01X29108Y42798D01*
G01X29126Y42879D01*
G01X29143Y42963D01*
G01X29159Y43049D01*
G01X29175Y43137D01*
G01X29190Y43227D01*
G01X29204Y43319D01*
G01X29214Y43392D01*
G01X29223Y43462D01*
G01X29230Y43528D01*
G01X29236Y43591D01*
G01X29241Y43651D01*
G01X29244Y43707D01*
G01X29246Y43760D01*
G01X29247Y43810D01*
G01X29247Y43857D01*
G01X29245Y43900D01*
G01X29243Y43940D01*
G01X29238Y43977D01*
G01X29234Y44010D01*
G01X29228Y44041D01*
G01X29221Y44067D01*
G01X29213Y44092D01*
G01X29204Y44113D01*
G01X29194Y44130D01*
G01X29184Y44145D01*
G01X29172Y44157D01*
G01X29160Y44165D01*
G01X29148Y44171D01*
G01X29134Y44173D01*
G01X29120Y44173D01*
G01X29104Y44169D01*
G01X29089Y44162D01*
G01X29072Y44153D01*
G01X29056Y44141D01*
G01X29038Y44125D01*
G01X29021Y44107D01*
G01X29003Y44086D01*
G01X28984Y44062D01*
G01X28965Y44035D01*
G01X28946Y44005D01*
G01X28926Y43972D01*
G01X28906Y43937D01*
G01X28886Y43899D01*
G01X28866Y43858D01*
G01X28845Y43815D01*
G01X28825Y43768D01*
G01X28804Y43719D01*
G01X28783Y43667D01*
G01X28762Y43613D01*
G01X28742Y43555D01*
G01X28721Y43495D01*
G01X28700Y43433D01*
G01X28680Y43368D01*
G01X28659Y43300D01*
G01X28639Y43230D01*
G01X28619Y43158D01*
G01X28599Y43082D01*
G01X28580Y43004D01*
G01X28559Y42921D01*
G01X28538Y42842D01*
G01X28517Y42766D01*
G01X28496Y42693D01*
G01X28474Y42623D01*
G01X28453Y42557D01*
G01X28432Y42494D01*
G01X28410Y42434D01*
G01X28389Y42378D01*
G01X28368Y42325D01*
G01X28347Y42275D01*
G01X28327Y42230D01*
G01X28306Y42187D01*
G01X28286Y42148D01*
G01X28266Y42113D01*
G01X28247Y42081D01*
G01X28228Y42053D01*
G01X28210Y42028D01*
G01X28192Y42008D01*
G01X28175Y41990D01*
G01X28159Y41977D01*
G01X28143Y41967D01*
G01X28128Y41961D01*
G01X28114Y41958D01*
G01X28101Y41960D01*
G01X28088Y41965D01*
G01X28077Y41974D01*
G01X28067Y41987D01*
G01X28057Y42004D01*
G01X28049Y42025D01*
G01X28041Y42050D01*
G01X28036Y42078D01*
G01X28030Y42111D01*
G01X28027Y42148D01*
G01X28025Y42188D01*
G01X28024Y42234D01*
G01X28025Y42282D01*
G01X28027Y42335D01*
G01X28030Y42393D01*
G01X28036Y42454D01*
G01X28042Y42519D01*
G01X28051Y42589D01*
G01X28061Y42663D01*
G01X28073Y42741D01*
G01X28083Y42807D01*
G01X28094Y42873D01*
G01X28106Y42941D01*
G01X28129Y43078D01*
G01X28141Y43147D01*
G01X28154Y43216D01*
G01X28166Y43284D01*
G01X28179Y43352D01*
G01X28191Y43418D01*
G01X28204Y43482D01*
G01X28216Y43545D01*
G01X28228Y43605D01*
G01X28239Y43663D01*
G01X28251Y43718D01*
G01X28262Y43770D01*
G01X28272Y43819D01*
G01X28282Y43864D01*
G01X28292Y43905D01*
G01X28301Y43942D01*
G01X28323Y44044D01*
G01X28332Y44131D01*
G01X28329Y44203D01*
G01X28314Y44260D01*
G01X28286Y44303D01*
G01X28245Y44334D01*
G01X28190Y44351D01*
G37*

%LPD*%
G36*
G01X16831Y43988D02*
G01X16806Y43988D01*
G01X16780Y43981D01*
G01X16754Y43969D01*
G01X16728Y43950D01*
G01X16703Y43926D01*
G01X16677Y43896D01*
G01X16651Y43860D01*
G01X16626Y43819D01*
G01X16601Y43772D01*
G01X16578Y43719D01*
G01X16554Y43662D01*
G01X16532Y43599D01*
G01X16511Y43530D01*
G01X16490Y43457D01*
G01X16470Y43379D01*
G01X16452Y43295D01*
G01X16311Y42602D01*
G01X16119Y43110D01*
G01X16093Y43173D01*
G01X16065Y43233D01*
G01X16035Y43288D01*
G01X16002Y43340D01*
G01X15967Y43388D01*
G01X15932Y43432D01*
G01X15895Y43472D01*
G01X15858Y43507D01*
G01X15821Y43538D01*
G01X15783Y43564D01*
G01X15746Y43585D01*
G01X15709Y43602D01*
G01X15674Y43614D01*
G01X15640Y43621D01*
G01X15607Y43622D01*
G01X15577Y43618D01*
G01X15549Y43609D01*
G01X15523Y43594D01*
G01X15501Y43573D01*
G01X15482Y43546D01*
G01X15467Y43513D01*
G01X15455Y43474D01*
G01X15448Y43429D01*
G01X15446Y43377D01*
G01X15447Y43343D01*
G01X15450Y43304D01*
G01X15456Y43261D01*
G01X15464Y43213D01*
G01X15474Y43162D01*
G01X15485Y43107D01*
G01X15499Y43048D01*
G01X15514Y42987D01*
G01X15531Y42923D01*
G01X15549Y42856D01*
G01X15569Y42787D01*
G01X15590Y42716D01*
G01X15612Y42643D01*
G01X15635Y42568D01*
G01X15660Y42492D01*
G01X15685Y42415D01*
G01X15711Y42338D01*
G01X15765Y42182D01*
G01X15793Y42104D01*
G01X15822Y42026D01*
G01X15850Y41949D01*
G01X15879Y41872D01*
G01X15908Y41797D01*
G01X15966Y41651D01*
G01X15995Y41581D01*
G01X16023Y41513D01*
G01X16052Y41448D01*
G01X16079Y41385D01*
G01X16107Y41325D01*
G01X16133Y41268D01*
G01X16158Y41215D01*
G01X16183Y41165D01*
G01X16207Y41120D01*
G01X16230Y41079D01*
G01X16251Y41042D01*
G01X16272Y41010D01*
G01X16291Y40984D01*
G01X16308Y40963D01*
G01X16324Y40947D01*
G01X16338Y40937D01*
G01X16351Y40933D01*
G01X16362Y40936D01*
G01X16382Y40953D01*
G01X16404Y40981D01*
G01X16428Y41018D01*
G01X16452Y41064D01*
G01X16477Y41117D01*
G01X16502Y41176D01*
G01X16527Y41242D01*
G01X16552Y41313D01*
G01X16576Y41387D01*
G01X16598Y41466D01*
G01X16619Y41546D01*
G01X16639Y41629D01*
G01X16772Y42233D01*
G01X16955Y41725D01*
G01X16977Y41667D01*
G01X17003Y41612D01*
G01X17031Y41560D01*
G01X17061Y41511D01*
G01X17093Y41466D01*
G01X17126Y41423D01*
G01X17161Y41385D01*
G01X17196Y41350D01*
G01X17232Y41318D01*
G01X17268Y41291D01*
G01X17304Y41267D01*
G01X17339Y41247D01*
G01X17374Y41231D01*
G01X17407Y41220D01*
G01X17440Y41212D01*
G01X17470Y41209D01*
G01X17499Y41210D01*
G01X17525Y41216D01*
G01X17548Y41226D01*
G01X17569Y41241D01*
G01X17586Y41261D01*
G01X17601Y41286D01*
G01X17610Y41315D01*
G01X17616Y41350D01*
G01X17617Y41390D01*
G01X17614Y41435D01*
G01X17605Y41485D01*
G01X17592Y41541D01*
G01X17583Y41570D01*
G01X17573Y41604D01*
G01X17563Y41642D01*
G01X17551Y41685D01*
G01X17539Y41732D01*
G01X17526Y41782D01*
G01X17511Y41835D01*
G01X17497Y41892D01*
G01X17481Y41951D01*
G01X17465Y42013D01*
G01X17449Y42077D01*
G01X17432Y42142D01*
G01X17415Y42209D01*
G01X17397Y42277D01*
G01X17380Y42347D01*
G01X17362Y42416D01*
G01X17345Y42486D01*
G01X17327Y42556D01*
G01X17310Y42626D01*
G01X17293Y42695D01*
G01X17250Y42867D01*
G01X17229Y42952D01*
G01X17207Y43036D01*
G01X17186Y43118D01*
G01X17165Y43198D01*
G01X17146Y43276D01*
G01X17126Y43350D01*
G01X17107Y43420D01*
G01X17089Y43486D01*
G01X17072Y43546D01*
G01X17057Y43602D01*
G01X17043Y43651D01*
G01X17031Y43694D01*
G01X17020Y43729D01*
G01X17011Y43757D01*
G01X16992Y43809D01*
G01X16971Y43855D01*
G01X16950Y43893D01*
G01X16928Y43925D01*
G01X16904Y43951D01*
G01X16880Y43969D01*
G01X16856Y43982D01*
G01X16831Y43988D01*
G37*

%LPD*%
G36*
G01X30236Y43774D02*
G01X30176Y43775D01*
G01X30119Y43773D01*
G01X30064Y43770D01*
G01X30012Y43763D01*
G01X29962Y43754D01*
G01X29915Y43742D01*
G01X29870Y43728D01*
G01X29827Y43711D01*
G01X29787Y43692D01*
G01X29748Y43669D01*
G01X29712Y43644D01*
G01X29679Y43615D01*
G01X29647Y43585D01*
G01X29617Y43551D01*
G01X29590Y43514D01*
G01X29564Y43475D01*
G01X29540Y43432D01*
G01X29518Y43387D01*
G01X29499Y43339D01*
G01X29480Y43287D01*
G01X29464Y43233D01*
G01X29450Y43175D01*
G01X29437Y43115D01*
G01X29425Y43051D01*
G01X29416Y42984D01*
G01X29408Y42915D01*
G01X29401Y42842D01*
G01X29396Y42765D01*
G01X29392Y42705D01*
G01X29387Y42644D01*
G01X29380Y42582D01*
G01X29372Y42518D01*
G01X29363Y42454D01*
G01X29353Y42390D01*
G01X29342Y42326D01*
G01X29329Y42262D01*
G01X29316Y42199D01*
G01X29302Y42137D01*
G01X29287Y42076D01*
G01X29271Y42017D01*
G01X29256Y41959D01*
G01X29239Y41904D01*
G01X29222Y41851D01*
G01X29204Y41801D01*
G01X29186Y41754D01*
G01X29168Y41709D01*
G01X29150Y41669D01*
G01X29131Y41633D01*
G01X29088Y41552D01*
G01X29054Y41482D01*
G01X29027Y41422D01*
G01X29009Y41372D01*
G01X29000Y41329D01*
G01X28999Y41295D01*
G01X29006Y41268D01*
G01X29023Y41248D01*
G01X29048Y41234D01*
G01X29083Y41224D01*
G01X29126Y41219D01*
G01X29178Y41217D01*
G01X29218Y41221D01*
G01X29261Y41232D01*
G01X29308Y41250D01*
G01X29356Y41274D01*
G01X29407Y41304D01*
G01X29458Y41340D01*
G01X29511Y41379D01*
G01X29562Y41423D01*
G01X29613Y41472D01*
G01X29662Y41523D01*
G01X29708Y41577D01*
G01X29751Y41633D01*
G01X30051Y42048D01*
G01X29992Y41510D01*
G01X29985Y41443D01*
G01X29980Y41380D01*
G01X29977Y41321D01*
G01X29975Y41266D01*
G01X29975Y41216D01*
G01X29976Y41169D01*
G01X29979Y41127D01*
G01X29983Y41088D01*
G01X29988Y41054D01*
G01X29995Y41023D01*
G01X30004Y40996D01*
G01X30013Y40973D01*
G01X30023Y40954D01*
G01X30035Y40939D01*
G01X30048Y40928D01*
G01X30062Y40920D01*
G01X30077Y40916D01*
G01X30093Y40916D01*
G01X30111Y40919D01*
G01X30128Y40926D01*
G01X30148Y40937D01*
G01X30168Y40951D01*
G01X30188Y40968D01*
G01X30209Y40990D01*
G01X30232Y41014D01*
G01X30254Y41042D01*
G01X30277Y41073D01*
G01X30301Y41108D01*
G01X30326Y41146D01*
G01X30351Y41187D01*
G01X30376Y41232D01*
G01X30402Y41280D01*
G01X30429Y41330D01*
G01X30455Y41384D01*
G01X30482Y41442D01*
G01X30509Y41502D01*
G01X30537Y41565D01*
G01X30564Y41632D01*
G01X30592Y41701D01*
G01X30620Y41773D01*
G01X30648Y41848D01*
G01X30676Y41926D01*
G01X30704Y42007D01*
G01X30731Y42091D01*
G01X30775Y42226D01*
G01X30817Y42354D01*
G01X30855Y42473D01*
G01X30891Y42584D01*
G01X30924Y42687D01*
G01X30954Y42783D01*
G01X30981Y42872D01*
G01X31006Y42954D01*
G01X31028Y43030D01*
G01X31047Y43100D01*
G01X31063Y43163D01*
G01X31077Y43222D01*
G01X31088Y43274D01*
G01X31097Y43322D01*
G01X31102Y43365D01*
G01X31105Y43404D01*
G01X31106Y43439D01*
G01X31104Y43470D01*
G01X31099Y43498D01*
G01X31092Y43522D01*
G01X31082Y43543D01*
G01X31070Y43562D01*
G01X31055Y43579D01*
G01X31037Y43594D01*
G01X31017Y43607D01*
G01X30995Y43618D01*
G01X30970Y43629D01*
G01X30913Y43648D01*
G01X30881Y43657D01*
G01X30847Y43666D01*
G01X30810Y43676D01*
G01X30728Y43696D01*
G01X30649Y43714D01*
G01X30573Y43730D01*
G01X30500Y43744D01*
G01X30430Y43755D01*
G01X30363Y43764D01*
G01X30298Y43770D01*
G01X30236Y43774D01*
G37*

%LPC*%
G36*
G01X30247Y43244D02*
G01X30210Y43249D01*
G01X30173Y43244D01*
G01X30138Y43227D01*
G01X30107Y43201D01*
G01X30079Y43168D01*
G01X30057Y43127D01*
G01X30040Y43079D01*
G01X30029Y43028D01*
G01X30025Y42972D01*
G01X30029Y42916D01*
G01X30040Y42865D01*
G01X30057Y42817D01*
G01X30079Y42776D01*
G01X30107Y42742D01*
G01X30138Y42717D01*
G01X30173Y42700D01*
G01X30210Y42695D01*
G01X30247Y42700D01*
G01X30281Y42717D01*
G01X30313Y42742D01*
G01X30340Y42776D01*
G01X30363Y42817D01*
G01X30380Y42865D01*
G01X30391Y42916D01*
G01X30394Y42972D01*
G01X30391Y43028D01*
G01X30380Y43079D01*
G01X30363Y43127D01*
G01X30340Y43168D01*
G01X30313Y43201D01*
G01X30281Y43227D01*
G01X30247Y43244D01*
G37*

%LPD*%
G36*
G01X31574Y43424D02*
G01X31548Y43426D01*
G01X31498Y43422D01*
G01X31454Y43408D01*
G01X31416Y43384D01*
G01X31385Y43352D01*
G01X31359Y43314D01*
G01X31341Y43270D01*
G01X31328Y43223D01*
G01X31322Y43173D01*
G01X31323Y43122D01*
G01X31330Y43071D01*
G01X31344Y43022D01*
G01X31364Y42975D01*
G01X31392Y42933D01*
G01X31426Y42896D01*
G01X31468Y42866D01*
G01X31516Y42844D01*
G01X31535Y42835D01*
G01X31550Y42821D01*
G01X31562Y42803D01*
G01X31572Y42779D01*
G01X31578Y42751D01*
G01X31582Y42718D01*
G01X31583Y42681D01*
G01X31581Y42638D01*
G01X31576Y42592D01*
G01X31569Y42540D01*
G01X31558Y42484D01*
G01X31545Y42424D01*
G01X31529Y42359D01*
G01X31510Y42290D01*
G01X31488Y42216D01*
G01X31464Y42138D01*
G01X31437Y42056D01*
G01X31407Y41969D01*
G01X31374Y41879D01*
G01X31339Y41784D01*
G01X31302Y41685D01*
G01X31267Y41590D01*
G01X31235Y41500D01*
G01X31206Y41414D01*
G01X31180Y41333D01*
G01X31156Y41255D01*
G01X31135Y41182D01*
G01X31117Y41112D01*
G01X31101Y41047D01*
G01X31088Y40985D01*
G01X31077Y40928D01*
G01X31070Y40874D01*
G01X31064Y40824D01*
G01X31062Y40777D01*
G01X31062Y40734D01*
G01X31065Y40695D01*
G01X31070Y40659D01*
G01X31078Y40627D01*
G01X31089Y40598D01*
G01X31102Y40572D01*
G01X31118Y40550D01*
G01X31137Y40530D01*
G01X31158Y40515D01*
G01X31182Y40501D01*
G01X31208Y40491D01*
G01X31237Y40484D01*
G01X31269Y40480D01*
G01X31303Y40478D01*
G01X31317Y40482D01*
G01X31332Y40493D01*
G01X31351Y40510D01*
G01X31371Y40535D01*
G01X31393Y40565D01*
G01X31416Y40602D01*
G01X31442Y40644D01*
G01X31469Y40691D01*
G01X31497Y40744D01*
G01X31526Y40802D01*
G01X31556Y40864D01*
G01X31588Y40930D01*
G01X31620Y41000D01*
G01X31652Y41074D01*
G01X31685Y41151D01*
G01X31719Y41232D01*
G01X31753Y41315D01*
G01X31786Y41400D01*
G01X31820Y41488D01*
G01X31853Y41578D01*
G01X31894Y41688D01*
G01X31933Y41792D01*
G01X31972Y41889D01*
G01X32010Y41979D01*
G01X32047Y42063D01*
G01X32082Y42141D01*
G01X32117Y42212D01*
G01X32151Y42277D01*
G01X32185Y42336D01*
G01X32217Y42388D01*
G01X32249Y42434D01*
G01X32280Y42474D01*
G01X32310Y42508D01*
G01X32340Y42537D01*
G01X32369Y42559D01*
G01X32397Y42575D01*
G01X32425Y42586D01*
G01X32452Y42590D01*
G01X32478Y42589D01*
G01X32505Y42582D01*
G01X32563Y42561D01*
G01X32616Y42546D01*
G01X32664Y42536D01*
G01X32708Y42531D01*
G01X32746Y42531D01*
G01X32779Y42535D01*
G01X32807Y42543D01*
G01X32831Y42556D01*
G01X32850Y42571D01*
G01X32864Y42590D01*
G01X32874Y42612D01*
G01X32879Y42636D01*
G01X32880Y42663D01*
G01X32876Y42692D01*
G01X32868Y42722D01*
G01X32855Y42755D01*
G01X32839Y42788D01*
G01X32818Y42822D01*
G01X32793Y42857D01*
G01X32764Y42892D01*
G01X32731Y42928D01*
G01X32694Y42963D01*
G01X32653Y42997D01*
G01X32608Y43031D01*
G01X32559Y43064D01*
G01X32507Y43095D01*
G01X32451Y43125D01*
G01X32391Y43153D01*
G01X32328Y43180D01*
G01X32264Y43206D01*
G01X32199Y43232D01*
G01X32135Y43257D01*
G01X32072Y43281D01*
G01X32010Y43303D01*
G01X31949Y43324D01*
G01X31891Y43343D01*
G01X31835Y43361D01*
G01X31782Y43377D01*
G01X31732Y43391D01*
G01X31685Y43403D01*
G01X31644Y43412D01*
G01X31607Y43420D01*
G01X31574Y43424D01*
G37*

%LPD*%
G36*
G01X15000Y43430D02*
G01X14995Y43434D01*
G01X14983Y43432D01*
G01X14961Y43426D01*
G01X14930Y43418D01*
G01X14891Y43406D01*
G01X14844Y43391D01*
G01X14790Y43374D01*
G01X14730Y43355D01*
G01X14665Y43333D01*
G01X14595Y43310D01*
G01X14522Y43285D01*
G01X14445Y43258D01*
G01X14366Y43231D01*
G01X14305Y43208D01*
G01X14248Y43184D01*
G01X14193Y43158D01*
G01X14141Y43130D01*
G01X14093Y43100D01*
G01X14047Y43070D01*
G01X14005Y43039D01*
G01X13966Y43007D01*
G01X13930Y42975D01*
G01X13898Y42943D01*
G01X13869Y42911D01*
G01X13844Y42878D01*
G01X13822Y42847D01*
G01X13804Y42816D01*
G01X13789Y42785D01*
G01X13779Y42756D01*
G01X13772Y42728D01*
G01X13769Y42702D01*
G01X13770Y42677D01*
G01X13775Y42654D01*
G01X13785Y42634D01*
G01X13798Y42616D01*
G01X13816Y42600D01*
G01X13838Y42587D01*
G01X13864Y42577D01*
G01X13895Y42570D01*
G01X13930Y42567D01*
G01X13971Y42567D01*
G01X14015Y42572D01*
G01X14064Y42580D01*
G01X14118Y42593D01*
G01X14177Y42610D01*
G01X14240Y42627D01*
G01X14301Y42639D01*
G01X14359Y42645D01*
G01X14414Y42645D01*
G01X14465Y42641D01*
G01X14514Y42632D01*
G01X14558Y42618D01*
G01X14599Y42601D01*
G01X14635Y42580D01*
G01X14667Y42555D01*
G01X14695Y42527D01*
G01X14719Y42496D01*
G01X14737Y42463D01*
G01X14750Y42428D01*
G01X14758Y42391D01*
G01X14760Y42352D01*
G01X14757Y42313D01*
G01X14747Y42272D01*
G01X14732Y42231D01*
G01X14710Y42189D01*
G01X14682Y42148D01*
G01X14647Y42107D01*
G01X14605Y42066D01*
G01X14556Y42027D01*
G01X14492Y41979D01*
G01X14442Y41936D01*
G01X14405Y41899D01*
G01X14382Y41865D01*
G01X14373Y41834D01*
G01X14379Y41804D01*
G01X14400Y41775D01*
G01X14437Y41746D01*
G01X14491Y41716D01*
G01X14561Y41682D01*
G01X14648Y41646D01*
G01X14753Y41605D01*
G01X14834Y41572D01*
G01X14907Y41539D01*
G01X14973Y41503D01*
G01X15033Y41468D01*
G01X15086Y41430D01*
G01X15131Y41393D01*
G01X15169Y41356D01*
G01X15200Y41318D01*
G01X15223Y41280D01*
G01X15240Y41242D01*
G01X15249Y41205D01*
G01X15250Y41168D01*
G01X15244Y41132D01*
G01X15230Y41097D01*
G01X15209Y41063D01*
G01X15179Y41030D01*
G01X15142Y40998D01*
G01X15098Y40969D01*
G01X15045Y40941D01*
G01X14984Y40915D01*
G01X14929Y40888D01*
G01X14877Y40854D01*
G01X14830Y40813D01*
G01X14789Y40767D01*
G01X14755Y40717D01*
G01X14729Y40665D01*
G01X14713Y40613D01*
G01X14707Y40561D01*
G01X14710Y40516D01*
G01X14718Y40478D01*
G01X14733Y40448D01*
G01X14754Y40426D01*
G01X14783Y40411D01*
G01X14821Y40403D01*
G01X14867Y40403D01*
G01X14924Y40409D01*
G01X14991Y40423D01*
G01X15069Y40444D01*
G01X15159Y40471D01*
G01X15261Y40506D01*
G01X15314Y40525D01*
G01X15365Y40543D01*
G01X15412Y40561D01*
G01X15456Y40579D01*
G01X15498Y40597D01*
G01X15537Y40616D01*
G01X15572Y40634D01*
G01X15605Y40654D01*
G01X15635Y40674D01*
G01X15662Y40695D01*
G01X15687Y40718D01*
G01X15708Y40743D01*
G01X15727Y40769D01*
G01X15742Y40796D01*
G01X15756Y40826D01*
G01X15766Y40858D01*
G01X15773Y40893D01*
G01X15778Y40931D01*
G01X15781Y40971D01*
G01X15781Y41014D01*
G01X15777Y41061D01*
G01X15772Y41111D01*
G01X15764Y41165D01*
G01X15753Y41222D01*
G01X15739Y41284D01*
G01X15724Y41350D01*
G01X15705Y41420D01*
G01X15684Y41495D01*
G01X15661Y41576D01*
G01X15635Y41661D01*
G01X15606Y41752D01*
G01X15576Y41847D01*
G01X15543Y41949D01*
G01X15507Y42056D01*
G01X15469Y42170D01*
G01X15428Y42289D01*
G01X15397Y42383D01*
G01X15365Y42474D01*
G01X15334Y42564D01*
G01X15305Y42650D01*
G01X15275Y42734D01*
G01X15246Y42814D01*
G01X15219Y42891D01*
G01X15192Y42964D01*
G01X15166Y43033D01*
G01X15142Y43098D01*
G01X15119Y43158D01*
G01X15098Y43212D01*
G01X15078Y43262D01*
G01X15060Y43305D01*
G01X15044Y43344D01*
G01X15030Y43375D01*
G01X15018Y43400D01*
G01X15007Y43419D01*
G01X15000Y43430D01*
G37*

%LPD*%
G54D19*
G01X16637Y36206D02*
G01X16637Y37706D01*
G01X15367Y36206D02*
G01X15367Y37706D01*
G01X12827Y22998D02*
G01X12827Y24498D01*
G01X16637Y24498D02*
G01X16637Y22998D01*
G01X14097Y36206D02*
G01X14097Y37706D01*
G01X12827Y36206D02*
G01X12827Y37706D01*
G01X16637Y26453D02*
G01X16637Y27953D01*
G01X15367Y26453D02*
G01X15367Y27953D01*
G01X14097Y26453D02*
G01X14097Y27953D01*
G01X12827Y26453D02*
G01X12827Y27953D01*
G01X16637Y32498D02*
G01X16637Y33998D01*
G01X15367Y32498D02*
G01X15367Y33998D01*
G01X14097Y32498D02*
G01X14097Y33998D01*
G01X12827Y32498D02*
G01X12827Y33998D01*
G36*
G01X21242Y25184D02*
G01X21242Y26377D01*
G01X22537Y26377D01*
G01X22537Y25184D01*
G01X21242Y25184D01*
G37*
G36*
G01X23944Y25184D02*
G01X23944Y26377D01*
G01X25239Y26377D01*
G01X25239Y25184D01*
G01X23944Y25184D01*
G37*
G36*
G01X5372Y26184D02*
G01X5372Y27480D01*
G01X6565Y27480D01*
G01X6565Y26184D01*
G01X5372Y26184D01*
G37*
G36*
G01X5372Y23482D02*
G01X5372Y24777D01*
G01X6565Y24777D01*
G01X6565Y23482D01*
G01X5372Y23482D01*
G37*
G36*
G01X40043Y26184D02*
G01X40043Y27480D01*
G01X41236Y27480D01*
G01X41236Y26184D01*
G01X40043Y26184D01*
G37*
G36*
G01X40043Y23482D02*
G01X40043Y24777D01*
G01X41236Y24777D01*
G01X41236Y23482D01*
G01X40043Y23482D01*
G37*
G36*
G01X6654Y10243D02*
G01X6654Y14648D01*
G01X10358Y14648D01*
G01X10358Y10243D01*
G01X6654Y10243D01*
G37*
G36*
G01X36631Y10243D02*
G01X36631Y14648D01*
G01X40335Y14648D01*
G01X40335Y10243D01*
G01X36631Y10243D01*
G37*
G36*
G01X34513Y25968D02*
G01X34513Y27371D01*
G01X36718Y27371D01*
G01X36718Y25968D01*
G01X34513Y25968D01*
G37*
G36*
G01X34513Y23469D02*
G01X34513Y24871D01*
G01X36718Y24871D01*
G01X36718Y23469D01*
G01X34513Y23469D01*
G37*
G36*
G01X28813Y28468D02*
G01X28813Y29870D01*
G01X31018Y29870D01*
G01X31018Y28468D01*
G01X28813Y28468D01*
G37*
G36*
G01X28813Y25968D02*
G01X28813Y27371D01*
G01X31018Y27371D01*
G01X31018Y25968D01*
G01X28813Y25968D01*
G37*
G36*
G01X28813Y23469D02*
G01X28813Y24871D01*
G01X31018Y24871D01*
G01X31018Y23469D01*
G01X28813Y23469D01*
G37*
G36*
G01X34513Y28468D02*
G01X34513Y29870D01*
G01X36718Y29870D01*
G01X36718Y28468D01*
G01X34513Y28468D01*
G37*
M00*
M02*
