G04 Layer: BottomPasteMaskLayer*
G04 EasyEDA v6.4.7, 2020-11-14T21:45:58--5:00*
G04 4beb7541176d43e18d54f8e2082e3679,79d071017cc24593b82b416037a8e878,10*
G04 Gerber Generator version 0.2*
G04 Scale: 100 percent, Rotated: No, Reflected: No *
G04 Dimensions in millimeters *
G04 leading zeros omitted , absolute positions ,3 integer and 3 decimal *
%FSLAX33Y33*%
%MOMM*%
G90*
D02*

%ADD12C,0.699999*%

%LPD*%
G54D12*
G01X16637Y36206D02*
G01X16637Y37706D01*
G01X15367Y36206D02*
G01X15367Y37706D01*
G01X12827Y22998D02*
G01X12827Y24498D01*
G01X16637Y24498D02*
G01X16637Y22998D01*
G01X14097Y36206D02*
G01X14097Y37706D01*
G01X12827Y36206D02*
G01X12827Y37706D01*
G01X16637Y26453D02*
G01X16637Y27953D01*
G01X15367Y26453D02*
G01X15367Y27953D01*
G01X14097Y26453D02*
G01X14097Y27953D01*
G01X12827Y26453D02*
G01X12827Y27953D01*
G01X16637Y32498D02*
G01X16637Y33998D01*
G01X15367Y32498D02*
G01X15367Y33998D01*
G01X14097Y32498D02*
G01X14097Y33998D01*
G01X12827Y32498D02*
G01X12827Y33998D01*
G36*
G01X22436Y25285D02*
G01X22436Y26276D01*
G01X21343Y26276D01*
G01X21343Y25285D01*
G01X22436Y25285D01*
G37*
G36*
G01X25138Y25285D02*
G01X25138Y26276D01*
G01X24045Y26276D01*
G01X24045Y25285D01*
G01X25138Y25285D01*
G37*
G36*
G01X5473Y26285D02*
G01X6464Y26285D01*
G01X6464Y27378D01*
G01X5473Y27378D01*
G01X5473Y26285D01*
G37*
G36*
G01X5473Y23583D02*
G01X6464Y23583D01*
G01X6464Y24676D01*
G01X5473Y24676D01*
G01X5473Y23583D01*
G37*
G36*
G01X40144Y26285D02*
G01X41135Y26285D01*
G01X41135Y27378D01*
G01X40144Y27378D01*
G01X40144Y26285D01*
G37*
G36*
G01X40144Y23583D02*
G01X41135Y23583D01*
G01X41135Y24676D01*
G01X40144Y24676D01*
G01X40144Y23583D01*
G37*
G36*
G01X6757Y10346D02*
G01X10257Y10346D01*
G01X10257Y14545D01*
G01X6757Y14545D01*
G01X6757Y10346D01*
G37*
G36*
G01X36732Y10346D02*
G01X40232Y10346D01*
G01X40232Y14545D01*
G01X36732Y14545D01*
G01X36732Y10346D01*
G37*
G36*
G01X36615Y26070D02*
G01X36615Y27269D01*
G01X34615Y27269D01*
G01X34615Y26070D01*
G01X36615Y26070D01*
G37*
G36*
G01X36615Y23570D02*
G01X36615Y24769D01*
G01X34615Y24769D01*
G01X34615Y23570D01*
G01X36615Y23570D01*
G37*
G36*
G01X30915Y28570D02*
G01X30915Y29769D01*
G01X28915Y29769D01*
G01X28915Y28570D01*
G01X30915Y28570D01*
G37*
G36*
G01X30915Y26070D02*
G01X30915Y27269D01*
G01X28915Y27269D01*
G01X28915Y26070D01*
G01X30915Y26070D01*
G37*
G36*
G01X30915Y23570D02*
G01X30915Y24769D01*
G01X28915Y24769D01*
G01X28915Y23570D01*
G01X30915Y23570D01*
G37*
G36*
G01X36615Y28570D02*
G01X36615Y29769D01*
G01X34615Y29769D01*
G01X34615Y28570D01*
G01X36615Y28570D01*
G37*
M00*
M02*
