G04 Layer: BottomSilkLayer*
G04 EasyEDA v6.4.7, 2020-11-14T21:45:58--5:00*
G04 4beb7541176d43e18d54f8e2082e3679,79d071017cc24593b82b416037a8e878,10*
G04 Gerber Generator version 0.2*
G04 Scale: 100 percent, Rotated: No, Reflected: No *
G04 Dimensions in millimeters *
G04 leading zeros omitted , absolute positions ,3 integer and 3 decimal *
%FSLAX33Y33*%
%MOMM*%
G90*
D02*

%ADD10C,0.254000*%
%ADD17C,0.203200*%
%ADD18C,0.152400*%

%LPD*%

%LPD*%
G36*
G01X33942Y41992D02*
G01X33583Y41992D01*
G01X33641Y39590D01*
G01X33509Y39590D01*
G01X33447Y39585D01*
G01X33405Y39569D01*
G01X33381Y39545D01*
G01X33375Y39518D01*
G01X33387Y39490D01*
G01X33416Y39464D01*
G01X33462Y39444D01*
G01X33526Y39431D01*
G01X33676Y39416D01*
G01X33449Y39090D01*
G01X33402Y39023D01*
G01X33355Y38954D01*
G01X33308Y38887D01*
G01X33264Y38824D01*
G01X33224Y38765D01*
G01X33188Y38714D01*
G01X33159Y38672D01*
G01X33137Y38640D01*
G01X33102Y38590D01*
G01X33068Y38545D01*
G01X33040Y38509D01*
G01X33015Y38485D01*
G01X33008Y38475D01*
G01X32997Y38463D01*
G01X32984Y38446D01*
G01X32969Y38425D01*
G01X32951Y38401D01*
G01X32931Y38373D01*
G01X32909Y38342D01*
G01X32884Y38307D01*
G01X32857Y38269D01*
G01X32828Y38228D01*
G01X32798Y38183D01*
G01X32764Y38135D01*
G01X32729Y38084D01*
G01X32692Y38029D01*
G01X32653Y37972D01*
G01X32612Y37912D01*
G01X32568Y37848D01*
G01X32524Y37782D01*
G01X32477Y37713D01*
G01X32429Y37641D01*
G01X32378Y37566D01*
G01X32327Y37489D01*
G01X32273Y37409D01*
G01X32218Y37326D01*
G01X32161Y37241D01*
G01X31953Y36929D01*
G01X31912Y36867D01*
G01X31872Y36807D01*
G01X31835Y36751D01*
G01X31800Y36697D01*
G01X31766Y36647D01*
G01X31734Y36598D01*
G01X31704Y36552D01*
G01X31675Y36508D01*
G01X31647Y36465D01*
G01X31620Y36424D01*
G01X31595Y36384D01*
G01X31570Y36346D01*
G01X31546Y36308D01*
G01X31522Y36271D01*
G01X31500Y36234D01*
G01X31477Y36198D01*
G01X31454Y36161D01*
G01X31432Y36125D01*
G01X31388Y36051D01*
G01X31365Y36013D01*
G01X31342Y35974D01*
G01X31318Y35933D01*
G01X31294Y35891D01*
G01X31269Y35848D01*
G01X31243Y35802D01*
G01X31216Y35755D01*
G01X31188Y35705D01*
G01X31158Y35653D01*
G01X31127Y35599D01*
G01X31095Y35541D01*
G01X31061Y35480D01*
G01X31025Y35416D01*
G01X30986Y35348D01*
G01X30946Y35277D01*
G01X30904Y35201D01*
G01X30860Y35122D01*
G01X30813Y35038D01*
G01X30777Y34973D01*
G01X30746Y34913D01*
G01X30718Y34858D01*
G01X30694Y34807D01*
G01X30675Y34760D01*
G01X30660Y34718D01*
G01X30650Y34679D01*
G01X30645Y34644D01*
G01X30644Y34613D01*
G01X30649Y34584D01*
G01X30658Y34559D01*
G01X30674Y34536D01*
G01X30694Y34517D01*
G01X30720Y34500D01*
G01X30752Y34486D01*
G01X30790Y34474D01*
G01X30835Y34464D01*
G01X30885Y34456D01*
G01X30942Y34450D01*
G01X31005Y34444D01*
G01X31075Y34441D01*
G01X31153Y34439D01*
G01X31237Y34438D01*
G01X31328Y34437D01*
G01X31874Y34437D01*
G01X31874Y33454D01*
G01X31873Y33358D01*
G01X31872Y33274D01*
G01X31869Y33199D01*
G01X31867Y33134D01*
G01X31863Y33078D01*
G01X31858Y33029D01*
G01X31853Y32986D01*
G01X31846Y32950D01*
G01X31838Y32918D01*
G01X31828Y32890D01*
G01X31817Y32866D01*
G01X31805Y32843D01*
G01X31791Y32821D01*
G01X31775Y32800D01*
G01X31738Y32744D01*
G01X31710Y32681D01*
G01X31690Y32615D01*
G01X31678Y32549D01*
G01X31676Y32487D01*
G01X31683Y32432D01*
G01X31700Y32388D01*
G01X31727Y32360D01*
G01X31747Y32354D01*
G01X31757Y32368D01*
G01X31758Y32400D01*
G01X31747Y32451D01*
G01X31740Y32502D01*
G01X31741Y32549D01*
G01X31752Y32586D01*
G01X31770Y32609D01*
G01X31794Y32612D01*
G01X31812Y32590D01*
G01X31825Y32544D01*
G01X31831Y32476D01*
G01X31836Y32311D01*
G01X31874Y32461D01*
G01X31890Y32513D01*
G01X31903Y32544D01*
G01X31914Y32552D01*
G01X31919Y32533D01*
G01X31927Y32495D01*
G01X31945Y32450D01*
G01X31970Y32402D01*
G01X31999Y32358D01*
G01X32040Y32311D01*
G01X32058Y32311D01*
G01X32058Y32366D01*
G01X32042Y32486D01*
G01X32010Y32711D01*
G01X32118Y32616D01*
G01X32172Y32572D01*
G01X32214Y32550D01*
G01X32242Y32546D01*
G01X32256Y32557D01*
G01X32256Y32583D01*
G01X32240Y32621D01*
G01X32208Y32670D01*
G01X32159Y32727D01*
G01X32135Y32752D01*
G01X32115Y32775D01*
G01X32097Y32797D01*
G01X32081Y32820D01*
G01X32069Y32845D01*
G01X32058Y32874D01*
G01X32049Y32908D01*
G01X32042Y32948D01*
G01X32036Y32996D01*
G01X32032Y33052D01*
G01X32029Y33119D01*
G01X32027Y33196D01*
G01X32026Y33288D01*
G01X32025Y33393D01*
G01X32025Y34437D01*
G01X32875Y34437D01*
G01X32875Y34114D01*
G01X32876Y34040D01*
G01X32879Y33965D01*
G01X32884Y33891D01*
G01X32890Y33818D01*
G01X32898Y33747D01*
G01X32907Y33678D01*
G01X32918Y33612D01*
G01X32930Y33549D01*
G01X32943Y33489D01*
G01X32958Y33434D01*
G01X32973Y33382D01*
G01X32990Y33335D01*
G01X33007Y33294D01*
G01X33025Y33259D01*
G01X33043Y33229D01*
G01X33063Y33206D01*
G01X33105Y33174D01*
G01X33157Y33155D01*
G01X33214Y33148D01*
G01X33277Y33154D01*
G01X33321Y33162D01*
G01X33354Y33164D01*
G01X33379Y33157D01*
G01X33398Y33139D01*
G01X33412Y33106D01*
G01X33422Y33056D01*
G01X33432Y32985D01*
G01X33442Y32892D01*
G01X33455Y32776D01*
G01X33470Y32679D01*
G01X33485Y32600D01*
G01X33501Y32538D01*
G01X33519Y32492D01*
G01X33540Y32460D01*
G01X33563Y32442D01*
G01X33588Y32436D01*
G01X33597Y32443D01*
G01X33603Y32464D01*
G01X33608Y32497D01*
G01X33611Y32540D01*
G01X33613Y32593D01*
G01X33614Y32654D01*
G01X33614Y32720D01*
G01X33612Y32792D01*
G01X33610Y32867D01*
G01X33606Y32944D01*
G01X33601Y33022D01*
G01X33596Y33098D01*
G01X33590Y33172D01*
G01X33583Y33242D01*
G01X33575Y33307D01*
G01X33568Y33365D01*
G01X33559Y33415D01*
G01X33550Y33455D01*
G01X33541Y33484D01*
G01X33532Y33500D01*
G01X33510Y33507D01*
G01X33478Y33498D01*
G01X33440Y33474D01*
G01X33402Y33438D01*
G01X33363Y33398D01*
G01X33327Y33367D01*
G01X33294Y33346D01*
G01X33264Y33333D01*
G01X33236Y33330D01*
G01X33210Y33337D01*
G01X33187Y33354D01*
G01X33165Y33381D01*
G01X33145Y33418D01*
G01X33127Y33465D01*
G01X33111Y33523D01*
G01X33096Y33592D01*
G01X33083Y33672D01*
G01X33071Y33763D01*
G01X33060Y33866D01*
G01X33050Y33980D01*
G01X33014Y34448D01*
G01X33658Y34412D01*
G01X33745Y34407D01*
G01X33829Y34402D01*
G01X33909Y34397D01*
G01X33984Y34392D01*
G01X34053Y34387D01*
G01X34116Y34382D01*
G01X34172Y34378D01*
G01X34220Y34374D01*
G01X34259Y34371D01*
G01X34288Y34368D01*
G01X34307Y34365D01*
G01X34315Y34363D01*
G01X34327Y34340D01*
G01X34338Y34297D01*
G01X34346Y34237D01*
G01X34353Y34165D01*
G01X34358Y34083D01*
G01X34361Y33997D01*
G01X34362Y33910D01*
G01X34360Y33825D01*
G01X34357Y33747D01*
G01X34350Y33681D01*
G01X34342Y33629D01*
G01X34331Y33596D01*
G01X34301Y33547D01*
G01X34270Y33514D01*
G01X34235Y33497D01*
G01X34195Y33496D01*
G01X34148Y33511D01*
G01X34092Y33543D01*
G01X34025Y33592D01*
G01X33945Y33658D01*
G01X33745Y33828D01*
G01X33804Y33470D01*
G01X33822Y33360D01*
G01X33839Y33263D01*
G01X33856Y33176D01*
G01X33871Y33100D01*
G01X33886Y33035D01*
G01X33900Y32980D01*
G01X33914Y32934D01*
G01X33927Y32898D01*
G01X33940Y32870D01*
G01X33953Y32851D01*
G01X33965Y32840D01*
G01X33978Y32836D01*
G01X34004Y32845D01*
G01X34025Y32869D01*
G01X34042Y32907D01*
G01X34052Y32956D01*
G01X34057Y33013D01*
G01X34056Y33076D01*
G01X34048Y33142D01*
G01X34033Y33209D01*
G01X34015Y33276D01*
G01X34005Y33325D01*
G01X34002Y33358D01*
G01X34009Y33375D01*
G01X34025Y33377D01*
G01X34054Y33366D01*
G01X34095Y33343D01*
G01X34151Y33307D01*
G01X34221Y33266D01*
G01X34272Y33257D01*
G01X34324Y33284D01*
G01X34395Y33351D01*
G01X34428Y33389D01*
G01X34459Y33436D01*
G01X34486Y33488D01*
G01X34509Y33547D01*
G01X34530Y33611D01*
G01X34547Y33679D01*
G01X34559Y33752D01*
G01X34568Y33826D01*
G01X34573Y33903D01*
G01X34574Y33982D01*
G01X34570Y34061D01*
G01X34562Y34140D01*
G01X34536Y34337D01*
G01X35212Y34337D01*
G01X35244Y33999D01*
G01X35248Y33962D01*
G01X35251Y33918D01*
G01X35254Y33870D01*
G01X35257Y33817D01*
G01X35259Y33760D01*
G01X35262Y33699D01*
G01X35264Y33636D01*
G01X35266Y33570D01*
G01X35268Y33502D01*
G01X35270Y33432D01*
G01X35272Y33361D01*
G01X35274Y33219D01*
G01X35276Y33079D01*
G01X35276Y32867D01*
G01X35275Y32744D01*
G01X35272Y32643D01*
G01X35269Y32559D01*
G01X35265Y32490D01*
G01X35258Y32434D01*
G01X35249Y32390D01*
G01X35236Y32354D01*
G01X35221Y32323D01*
G01X35201Y32296D01*
G01X35179Y32270D01*
G01X35151Y32243D01*
G01X35104Y32196D01*
G01X35069Y32152D01*
G01X35044Y32114D01*
G01X35031Y32082D01*
G01X35030Y32059D01*
G01X35041Y32046D01*
G01X35065Y32045D01*
G01X35102Y32055D01*
G01X35137Y32070D01*
G01X35176Y32086D01*
G01X35217Y32102D01*
G01X35252Y32116D01*
G01X35288Y32122D01*
G01X35311Y32102D01*
G01X35323Y32051D01*
G01X35327Y31963D01*
G01X35330Y31893D01*
G01X35340Y31844D01*
G01X35354Y31818D01*
G01X35372Y31813D01*
G01X35392Y31829D01*
G01X35413Y31865D01*
G01X35435Y31922D01*
G01X35455Y31998D01*
G01X35476Y32082D01*
G01X35492Y32117D01*
G01X35510Y32109D01*
G01X35534Y32060D01*
G01X35551Y32027D01*
G01X35558Y32028D01*
G01X35557Y32064D01*
G01X35546Y32136D01*
G01X35530Y32209D01*
G01X35508Y32279D01*
G01X35484Y32338D01*
G01X35461Y32378D01*
G01X35454Y32390D01*
G01X35448Y32410D01*
G01X35443Y32437D01*
G01X35437Y32471D01*
G01X35431Y32513D01*
G01X35425Y32561D01*
G01X35420Y32617D01*
G01X35415Y32678D01*
G01X35411Y32745D01*
G01X35406Y32818D01*
G01X35402Y32897D01*
G01X35398Y32981D01*
G01X35394Y33070D01*
G01X35391Y33164D01*
G01X35388Y33262D01*
G01X35385Y33365D01*
G01X35364Y34284D01*
G01X35957Y34273D01*
G01X36092Y34271D01*
G01X36206Y34269D01*
G01X36299Y34269D01*
G01X36374Y34270D01*
G01X36434Y34273D01*
G01X36479Y34279D01*
G01X36514Y34288D01*
G01X36539Y34300D01*
G01X36558Y34315D01*
G01X36571Y34335D01*
G01X36582Y34359D01*
G01X36592Y34387D01*
G01X36600Y34420D01*
G01X36602Y34458D01*
G01X36600Y34502D01*
G01X36592Y34551D01*
G01X36580Y34603D01*
G01X36564Y34660D01*
G01X36543Y34719D01*
G01X36518Y34781D01*
G01X36489Y34844D01*
G01X36457Y34908D01*
G01X36421Y34973D01*
G01X36381Y35038D01*
G01X36371Y35054D01*
G01X36356Y35082D01*
G01X36334Y35120D01*
G01X36308Y35168D01*
G01X36277Y35225D01*
G01X36242Y35289D01*
G01X36203Y35360D01*
G01X36161Y35438D01*
G01X36116Y35520D01*
G01X36070Y35606D01*
G01X36022Y35696D01*
G01X35973Y35788D01*
G01X35930Y35867D01*
G01X35888Y35946D01*
G01X35846Y36024D01*
G01X35804Y36103D01*
G01X35762Y36180D01*
G01X35721Y36257D01*
G01X35679Y36334D01*
G01X35638Y36410D01*
G01X35598Y36486D01*
G01X35557Y36560D01*
G01X35517Y36635D01*
G01X35477Y36709D01*
G01X35437Y36782D01*
G01X35397Y36854D01*
G01X35358Y36926D01*
G01X35320Y36997D01*
G01X35281Y37067D01*
G01X35243Y37137D01*
G01X35205Y37205D01*
G01X35168Y37273D01*
G01X35131Y37340D01*
G01X35095Y37406D01*
G01X35059Y37471D01*
G01X34989Y37599D01*
G01X34954Y37661D01*
G01X34920Y37722D01*
G01X34854Y37840D01*
G01X34822Y37898D01*
G01X34790Y37955D01*
G01X34759Y38011D01*
G01X34728Y38065D01*
G01X34698Y38118D01*
G01X34669Y38170D01*
G01X34641Y38220D01*
G01X34613Y38269D01*
G01X34586Y38317D01*
G01X34559Y38363D01*
G01X34533Y38408D01*
G01X34508Y38452D01*
G01X34484Y38494D01*
G01X34460Y38534D01*
G01X34437Y38573D01*
G01X34415Y38611D01*
G01X34394Y38647D01*
G01X34374Y38681D01*
G01X34355Y38714D01*
G01X34336Y38745D01*
G01X34318Y38774D01*
G01X34301Y38802D01*
G01X34285Y38828D01*
G01X34270Y38852D01*
G01X34256Y38874D01*
G01X34243Y38895D01*
G01X34231Y38913D01*
G01X34151Y39035D01*
G01X34085Y39134D01*
G01X34033Y39214D01*
G01X33994Y39277D01*
G01X33966Y39323D01*
G01X33951Y39356D01*
G01X33945Y39378D01*
G01X33949Y39389D01*
G01X33961Y39393D01*
G01X33982Y39392D01*
G01X34010Y39386D01*
G01X34045Y39380D01*
G01X34109Y39372D01*
G01X34149Y39379D01*
G01X34170Y39403D01*
G01X34176Y39448D01*
G01X34169Y39492D01*
G01X34143Y39520D01*
G01X34097Y39536D01*
G01X34026Y39541D01*
G01X33875Y39541D01*
G01X33942Y41992D01*
G37*

%LPC*%
G36*
G01X33455Y37079D02*
G01X33429Y37084D01*
G01X33409Y37071D01*
G01X33394Y37040D01*
G01X33384Y36990D01*
G01X33378Y36921D01*
G01X33376Y36834D01*
G01X33379Y36699D01*
G01X33390Y36628D01*
G01X33417Y36606D01*
G01X33463Y36620D01*
G01X33499Y36632D01*
G01X33550Y36642D01*
G01X33613Y36650D01*
G01X33686Y36655D01*
G01X33765Y36659D01*
G01X33847Y36661D01*
G01X33928Y36660D01*
G01X34007Y36657D01*
G01X34079Y36653D01*
G01X34142Y36646D01*
G01X34191Y36636D01*
G01X34226Y36625D01*
G01X34264Y36616D01*
G01X34288Y36636D01*
G01X34304Y36692D01*
G01X34312Y36788D01*
G01X34314Y36865D01*
G01X34310Y36921D01*
G01X34297Y36959D01*
G01X34275Y36978D01*
G01X34243Y36981D01*
G01X34200Y36966D01*
G01X34143Y36934D01*
G01X34072Y36886D01*
G01X33988Y36831D01*
G01X33924Y36810D01*
G01X33854Y36822D01*
G01X33754Y36866D01*
G01X33682Y36903D01*
G01X33614Y36945D01*
G01X33558Y36985D01*
G01X33522Y37018D01*
G01X33485Y37058D01*
G01X33455Y37079D01*
G37*
G36*
G01X33829Y38484D02*
G01X33786Y38488D01*
G01X33750Y38483D01*
G01X33700Y38469D01*
G01X33643Y38447D01*
G01X33586Y38420D01*
G01X33527Y38385D01*
G01X33469Y38343D01*
G01X33411Y38295D01*
G01X33356Y38241D01*
G01X33303Y38183D01*
G01X33255Y38122D01*
G01X33213Y38058D01*
G01X33175Y37993D01*
G01X33145Y37926D01*
G01X33140Y37878D01*
G01X33163Y37836D01*
G01X33214Y37789D01*
G01X33240Y37770D01*
G01X33276Y37749D01*
G01X33320Y37727D01*
G01X33370Y37704D01*
G01X33424Y37680D01*
G01X33482Y37658D01*
G01X33542Y37636D01*
G01X33601Y37616D01*
G01X33662Y37599D01*
G01X33720Y37585D01*
G01X33777Y37574D01*
G01X33832Y37567D01*
G01X33886Y37563D01*
G01X33939Y37563D01*
G01X33990Y37566D01*
G01X34040Y37573D01*
G01X34088Y37583D01*
G01X34136Y37597D01*
G01X34182Y37614D01*
G01X34227Y37635D01*
G01X34271Y37659D01*
G01X34315Y37687D01*
G01X34358Y37719D01*
G01X34400Y37754D01*
G01X34525Y37864D01*
G01X34347Y38106D01*
G01X34306Y38159D01*
G01X34262Y38210D01*
G01X34215Y38257D01*
G01X34168Y38302D01*
G01X34119Y38341D01*
G01X34069Y38377D01*
G01X34020Y38409D01*
G01X33970Y38435D01*
G01X33922Y38457D01*
G01X33875Y38473D01*
G01X33829Y38484D01*
G37*

%LPD*%
G36*
G01X37944Y21404D02*
G01X37907Y21405D01*
G01X37880Y21397D01*
G01X37861Y21382D01*
G01X37849Y21356D01*
G01X37840Y21319D01*
G01X37836Y21271D01*
G01X37832Y21211D01*
G01X37828Y21137D01*
G01X37824Y21070D01*
G01X37819Y21003D01*
G01X37813Y20935D01*
G01X37808Y20867D01*
G01X37802Y20798D01*
G01X37781Y20591D01*
G01X37765Y20453D01*
G01X37757Y20385D01*
G01X37738Y20248D01*
G01X37729Y20181D01*
G01X37719Y20114D01*
G01X37709Y20048D01*
G01X37699Y19983D01*
G01X37688Y19919D01*
G01X37666Y19793D01*
G01X37655Y19732D01*
G01X37643Y19673D01*
G01X37632Y19614D01*
G01X37608Y19502D01*
G01X37596Y19448D01*
G01X37583Y19396D01*
G01X37571Y19346D01*
G01X37553Y19270D01*
G01X37543Y19211D01*
G01X37541Y19169D01*
G01X37548Y19151D01*
G01X37577Y19142D01*
G01X37641Y19131D01*
G01X37729Y19118D01*
G01X37832Y19105D01*
G01X37892Y19098D01*
G01X38014Y19082D01*
G01X38075Y19072D01*
G01X38137Y19063D01*
G01X38262Y19042D01*
G01X38388Y19020D01*
G01X38516Y18996D01*
G01X38644Y18969D01*
G01X38708Y18956D01*
G01X38837Y18927D01*
G01X38967Y18897D01*
G01X39032Y18880D01*
G01X39096Y18864D01*
G01X39161Y18848D01*
G01X39226Y18831D01*
G01X39291Y18813D01*
G01X39355Y18796D01*
G01X39484Y18759D01*
G01X39549Y18740D01*
G01X39677Y18702D01*
G01X39804Y18662D01*
G01X39867Y18642D01*
G01X39930Y18621D01*
G01X39992Y18599D01*
G01X40054Y18579D01*
G01X40177Y18535D01*
G01X40299Y18491D01*
G01X40359Y18468D01*
G01X40477Y18422D01*
G01X40535Y18399D01*
G01X40593Y18375D01*
G01X40650Y18352D01*
G01X40707Y18328D01*
G01X40762Y18304D01*
G01X40872Y18255D01*
G01X40926Y18231D01*
G01X40978Y18206D01*
G01X41031Y18181D01*
G01X41082Y18156D01*
G01X41182Y18106D01*
G01X41231Y18080D01*
G01X41335Y18025D01*
G01X41415Y17982D01*
G01X41472Y17950D01*
G01X41511Y17925D01*
G01X41534Y17907D01*
G01X41544Y17892D01*
G01X41545Y17879D01*
G01X41541Y17864D01*
G01X41502Y17754D01*
G01X41472Y17648D01*
G01X41457Y17566D01*
G01X41459Y17521D01*
G01X41471Y17509D01*
G01X41490Y17504D01*
G01X41519Y17507D01*
G01X41560Y17518D01*
G01X41614Y17539D01*
G01X41684Y17568D01*
G01X41772Y17609D01*
G01X41881Y17660D01*
G01X41990Y17710D01*
G01X42077Y17742D01*
G01X42150Y17761D01*
G01X42215Y17766D01*
G01X42261Y17765D01*
G01X42300Y17760D01*
G01X42329Y17753D01*
G01X42343Y17743D01*
G01X42359Y17727D01*
G01X42390Y17699D01*
G01X42433Y17664D01*
G01X42486Y17623D01*
G01X42546Y17578D01*
G01X42608Y17532D01*
G01X42670Y17487D01*
G01X42730Y17445D01*
G01X42783Y17409D01*
G01X42827Y17380D01*
G01X42859Y17360D01*
G01X42877Y17354D01*
G01X42894Y17357D01*
G01X42907Y17371D01*
G01X42916Y17396D01*
G01X42922Y17436D01*
G01X42923Y17494D01*
G01X42922Y17573D01*
G01X42917Y17675D01*
G01X42909Y17803D01*
G01X42904Y17894D01*
G01X42900Y17973D01*
G01X42898Y18038D01*
G01X42897Y18092D01*
G01X42899Y18136D01*
G01X42902Y18170D01*
G01X42907Y18196D01*
G01X42913Y18213D01*
G01X42935Y18241D01*
G01X42974Y18278D01*
G01X43024Y18320D01*
G01X43079Y18361D01*
G01X43171Y18426D01*
G01X43256Y18488D01*
G01X43331Y18546D01*
G01X43396Y18597D01*
G01X43448Y18643D01*
G01X43486Y18680D01*
G01X43510Y18707D01*
G01X43515Y18723D01*
G01X43506Y18740D01*
G01X43487Y18756D01*
G01X43457Y18772D01*
G01X43417Y18789D01*
G01X43362Y18806D01*
G01X43294Y18825D01*
G01X43210Y18846D01*
G01X43109Y18869D01*
G01X42968Y18903D01*
G01X42874Y18931D01*
G01X42814Y18960D01*
G01X42775Y18994D01*
G01X42754Y19022D01*
G01X42737Y19051D01*
G01X42725Y19078D01*
G01X42720Y19099D01*
G01X42716Y19131D01*
G01X42703Y19188D01*
G01X42684Y19263D01*
G01X42661Y19348D01*
G01X42636Y19436D01*
G01X42612Y19519D01*
G01X42589Y19591D01*
G01X42571Y19643D01*
G01X42550Y19685D01*
G01X42525Y19708D01*
G01X42497Y19711D01*
G01X42462Y19694D01*
G01X42422Y19656D01*
G01X42373Y19595D01*
G01X42315Y19510D01*
G01X42248Y19402D01*
G01X42156Y19251D01*
G01X41910Y19463D01*
G01X41866Y19501D01*
G01X41775Y19576D01*
G01X41730Y19613D01*
G01X41684Y19649D01*
G01X41638Y19686D01*
G01X41591Y19722D01*
G01X41545Y19758D01*
G01X41450Y19829D01*
G01X41403Y19864D01*
G01X41306Y19933D01*
G01X41257Y19967D01*
G01X41208Y20000D01*
G01X41159Y20034D01*
G01X41109Y20068D01*
G01X41060Y20100D01*
G01X41009Y20133D01*
G01X40908Y20197D01*
G01X40857Y20229D01*
G01X40806Y20260D01*
G01X40650Y20353D01*
G01X40597Y20382D01*
G01X40545Y20412D01*
G01X40491Y20442D01*
G01X40438Y20471D01*
G01X40384Y20500D01*
G01X40276Y20557D01*
G01X40222Y20585D01*
G01X40112Y20640D01*
G01X40057Y20666D01*
G01X40001Y20693D01*
G01X39946Y20719D01*
G01X39890Y20745D01*
G01X39777Y20796D01*
G01X39663Y20846D01*
G01X39606Y20870D01*
G01X39548Y20894D01*
G01X39375Y20964D01*
G01X39316Y20987D01*
G01X39139Y21053D01*
G01X39021Y21095D01*
G01X38961Y21116D01*
G01X38901Y21136D01*
G01X38840Y21156D01*
G01X38719Y21194D01*
G01X38597Y21232D01*
G01X38536Y21250D01*
G01X38474Y21268D01*
G01X38413Y21285D01*
G01X38227Y21336D01*
G01X38133Y21360D01*
G01X38055Y21381D01*
G01X37993Y21395D01*
G01X37944Y21404D01*
G37*

%LPC*%
G36*
G01X42482Y19404D02*
G01X42445Y19413D01*
G01X42400Y19376D01*
G01X42377Y19345D01*
G01X42340Y19290D01*
G01X42296Y19221D01*
G01X42248Y19144D01*
G01X42199Y19069D01*
G01X42153Y19004D01*
G01X42114Y18956D01*
G01X42087Y18932D01*
G01X42046Y18923D01*
G01X41967Y18915D01*
G01X41860Y18910D01*
G01X41738Y18908D01*
G01X41584Y18907D01*
G01X41491Y18902D01*
G01X41445Y18891D01*
G01X41433Y18873D01*
G01X41439Y18853D01*
G01X41457Y18822D01*
G01X41485Y18779D01*
G01X41523Y18728D01*
G01X41569Y18669D01*
G01X41621Y18604D01*
G01X41678Y18536D01*
G01X41741Y18465D01*
G01X41772Y18425D01*
G01X41798Y18385D01*
G01X41815Y18347D01*
G01X41822Y18320D01*
G01X41815Y18279D01*
G01X41797Y18211D01*
G01X41770Y18123D01*
G01X41737Y18027D01*
G01X41704Y17933D01*
G01X41676Y17852D01*
G01X41659Y17794D01*
G01X41651Y17766D01*
G01X41671Y17744D01*
G01X41730Y17750D01*
G01X41827Y17782D01*
G01X41961Y17839D01*
G01X42047Y17878D01*
G01X42128Y17908D01*
G01X42195Y17929D01*
G01X42239Y17937D01*
G01X42283Y17927D01*
G01X42342Y17899D01*
G01X42421Y17850D01*
G01X42519Y17778D01*
G01X42603Y17718D01*
G01X42675Y17669D01*
G01X42728Y17638D01*
G01X42755Y17629D01*
G01X42766Y17653D01*
G01X42773Y17714D01*
G01X42775Y17815D01*
G01X42774Y17951D01*
G01X42773Y18075D01*
G01X42774Y18180D01*
G01X42779Y18256D01*
G01X42786Y18291D01*
G01X42811Y18314D01*
G01X42866Y18358D01*
G01X42942Y18416D01*
G01X43031Y18482D01*
G01X43134Y18560D01*
G01X43200Y18616D01*
G01X43231Y18653D01*
G01X43232Y18676D01*
G01X43203Y18691D01*
G01X43142Y18714D01*
G01X43059Y18738D01*
G01X42961Y18763D01*
G01X42872Y18785D01*
G01X42802Y18805D01*
G01X42748Y18823D01*
G01X42707Y18843D01*
G01X42678Y18864D01*
G01X42657Y18888D01*
G01X42643Y18917D01*
G01X42633Y18952D01*
G01X42623Y18994D01*
G01X42605Y19058D01*
G01X42584Y19135D01*
G01X42559Y19218D01*
G01X42519Y19341D01*
G01X42482Y19404D01*
G37*
G36*
G01X37939Y19794D02*
G01X37890Y19798D01*
G01X37852Y19797D01*
G01X37823Y19790D01*
G01X37800Y19777D01*
G01X37784Y19756D01*
G01X37771Y19728D01*
G01X37760Y19691D01*
G01X37749Y19645D01*
G01X37738Y19588D01*
G01X37720Y19503D01*
G01X37703Y19421D01*
G01X37689Y19352D01*
G01X37679Y19307D01*
G01X37664Y19231D01*
G01X37829Y19215D01*
G01X37884Y19209D01*
G01X37939Y19202D01*
G01X38053Y19188D01*
G01X38169Y19170D01*
G01X38229Y19161D01*
G01X38288Y19152D01*
G01X38348Y19141D01*
G01X38470Y19119D01*
G01X38531Y19107D01*
G01X38593Y19095D01*
G01X38656Y19083D01*
G01X38719Y19069D01*
G01X38781Y19056D01*
G01X38845Y19041D01*
G01X38972Y19012D01*
G01X39036Y18997D01*
G01X39099Y18981D01*
G01X39163Y18965D01*
G01X39355Y18914D01*
G01X39547Y18860D01*
G01X39611Y18841D01*
G01X39737Y18803D01*
G01X39863Y18763D01*
G01X39987Y18722D01*
G01X40048Y18702D01*
G01X40109Y18681D01*
G01X40170Y18659D01*
G01X40230Y18638D01*
G01X40348Y18594D01*
G01X40464Y18550D01*
G01X40521Y18527D01*
G01X40632Y18482D01*
G01X40687Y18458D01*
G01X40741Y18435D01*
G01X40795Y18411D01*
G01X40853Y18385D01*
G01X40914Y18356D01*
G01X40977Y18327D01*
G01X41040Y18297D01*
G01X41166Y18235D01*
G01X41227Y18205D01*
G01X41285Y18175D01*
G01X41340Y18147D01*
G01X41390Y18120D01*
G01X41436Y18095D01*
G01X41475Y18074D01*
G01X41508Y18055D01*
G01X41533Y18039D01*
G01X41549Y18027D01*
G01X41571Y18012D01*
G01X41587Y18018D01*
G01X41606Y18055D01*
G01X41637Y18136D01*
G01X41652Y18180D01*
G01X41661Y18220D01*
G01X41665Y18257D01*
G01X41661Y18291D01*
G01X41649Y18323D01*
G01X41629Y18356D01*
G01X41600Y18389D01*
G01X41559Y18425D01*
G01X41509Y18463D01*
G01X41445Y18505D01*
G01X41369Y18553D01*
G01X41280Y18608D01*
G01X41172Y18671D01*
G01X41118Y18702D01*
G01X41063Y18733D01*
G01X41008Y18763D01*
G01X40952Y18793D01*
G01X40841Y18852D01*
G01X40727Y18910D01*
G01X40556Y18994D01*
G01X40440Y19047D01*
G01X40381Y19074D01*
G01X40323Y19100D01*
G01X40264Y19126D01*
G01X40146Y19176D01*
G01X40086Y19200D01*
G01X40026Y19225D01*
G01X39966Y19249D01*
G01X39846Y19295D01*
G01X39785Y19317D01*
G01X39725Y19340D01*
G01X39664Y19361D01*
G01X39603Y19383D01*
G01X39480Y19424D01*
G01X39356Y19464D01*
G01X39295Y19483D01*
G01X39233Y19502D01*
G01X39170Y19521D01*
G01X39108Y19539D01*
G01X39046Y19556D01*
G01X38921Y19590D01*
G01X38858Y19606D01*
G01X38795Y19623D01*
G01X38733Y19638D01*
G01X38670Y19653D01*
G01X38481Y19695D01*
G01X38355Y19721D01*
G01X38229Y19745D01*
G01X38166Y19756D01*
G01X38075Y19772D01*
G01X38000Y19785D01*
G01X37939Y19794D01*
G37*
G36*
G01X37992Y20526D02*
G01X37966Y20529D01*
G01X37947Y20528D01*
G01X37921Y20517D01*
G01X37900Y20480D01*
G01X37881Y20402D01*
G01X37858Y20269D01*
G01X37842Y20167D01*
G01X37829Y20078D01*
G01X37819Y20011D01*
G01X37816Y19977D01*
G01X37827Y19957D01*
G01X37868Y19938D01*
G01X37946Y19919D01*
G01X38067Y19896D01*
G01X38125Y19886D01*
G01X38184Y19876D01*
G01X38243Y19864D01*
G01X38302Y19853D01*
G01X38362Y19840D01*
G01X38422Y19828D01*
G01X38483Y19814D01*
G01X38543Y19800D01*
G01X38666Y19771D01*
G01X38852Y19723D01*
G01X38915Y19706D01*
G01X39102Y19653D01*
G01X39291Y19596D01*
G01X39353Y19576D01*
G01X39416Y19555D01*
G01X39479Y19535D01*
G01X39603Y19493D01*
G01X39789Y19427D01*
G01X39850Y19405D01*
G01X39912Y19382D01*
G01X40032Y19335D01*
G01X40152Y19287D01*
G01X40270Y19238D01*
G01X40386Y19189D01*
G01X40443Y19164D01*
G01X40499Y19138D01*
G01X40555Y19113D01*
G01X40611Y19087D01*
G01X40719Y19035D01*
G01X40772Y19009D01*
G01X40876Y18957D01*
G01X40927Y18930D01*
G01X40977Y18903D01*
G01X41026Y18876D01*
G01X41074Y18849D01*
G01X41121Y18822D01*
G01X41196Y18780D01*
G01X41259Y18746D01*
G01X41305Y18723D01*
G01X41327Y18714D01*
G01X41329Y18719D01*
G01X41321Y18734D01*
G01X41305Y18755D01*
G01X41283Y18781D01*
G01X41231Y18840D01*
G01X41192Y18894D01*
G01X41165Y18940D01*
G01X41152Y18980D01*
G01X41151Y19011D01*
G01X41163Y19035D01*
G01X41189Y19049D01*
G01X41227Y19054D01*
G01X41255Y19056D01*
G01X41270Y19061D01*
G01X41274Y19070D01*
G01X41264Y19086D01*
G01X41238Y19108D01*
G01X41197Y19139D01*
G01X41139Y19180D01*
G01X41063Y19230D01*
G01X40998Y19273D01*
G01X40936Y19313D01*
G01X40875Y19352D01*
G01X40816Y19390D01*
G01X40758Y19426D01*
G01X40702Y19460D01*
G01X40646Y19495D01*
G01X40591Y19527D01*
G01X40537Y19559D01*
G01X40484Y19590D01*
G01X40377Y19648D01*
G01X40324Y19677D01*
G01X40271Y19705D01*
G01X40217Y19732D01*
G01X40162Y19760D01*
G01X40108Y19787D01*
G01X40052Y19814D01*
G01X39995Y19840D01*
G01X39937Y19867D01*
G01X39878Y19893D01*
G01X39817Y19921D01*
G01X39754Y19948D01*
G01X39690Y19976D01*
G01X39628Y20001D01*
G01X39563Y20027D01*
G01X39495Y20054D01*
G01X39425Y20082D01*
G01X39353Y20109D01*
G01X39278Y20137D01*
G01X39126Y20191D01*
G01X39048Y20219D01*
G01X38893Y20272D01*
G01X38816Y20297D01*
G01X38739Y20323D01*
G01X38664Y20346D01*
G01X38590Y20369D01*
G01X38519Y20392D01*
G01X38450Y20412D01*
G01X38383Y20432D01*
G01X38319Y20450D01*
G01X38259Y20466D01*
G01X38203Y20482D01*
G01X38151Y20494D01*
G01X38103Y20505D01*
G01X38061Y20515D01*
G01X38023Y20522D01*
G01X37992Y20526D01*
G37*
G36*
G01X38046Y21262D02*
G01X38030Y21263D01*
G01X37993Y21260D01*
G01X37973Y21235D01*
G01X37961Y21167D01*
G01X37950Y21035D01*
G01X37943Y20940D01*
G01X37934Y20851D01*
G01X37926Y20779D01*
G01X37914Y20693D01*
G01X37919Y20669D01*
G01X37938Y20655D01*
G01X37975Y20644D01*
G01X38107Y20614D01*
G01X38237Y20582D01*
G01X38302Y20565D01*
G01X38366Y20549D01*
G01X38430Y20531D01*
G01X38494Y20514D01*
G01X38683Y20460D01*
G01X38807Y20422D01*
G01X38869Y20402D01*
G01X38991Y20362D01*
G01X39052Y20341D01*
G01X39112Y20321D01*
G01X39232Y20278D01*
G01X39351Y20233D01*
G01X39410Y20211D01*
G01X39527Y20164D01*
G01X39643Y20116D01*
G01X39700Y20091D01*
G01X39814Y20042D01*
G01X39871Y20016D01*
G01X39927Y19990D01*
G01X40039Y19936D01*
G01X40094Y19910D01*
G01X40150Y19882D01*
G01X40260Y19826D01*
G01X40314Y19797D01*
G01X40369Y19768D01*
G01X40423Y19739D01*
G01X40476Y19709D01*
G01X40530Y19679D01*
G01X40689Y19586D01*
G01X40742Y19554D01*
G01X40794Y19522D01*
G01X40846Y19489D01*
G01X40899Y19456D01*
G01X40950Y19423D01*
G01X41002Y19389D01*
G01X41104Y19321D01*
G01X41206Y19251D01*
G01X41476Y19061D01*
G01X41725Y19049D01*
G01X41863Y19044D01*
G01X41945Y19047D01*
G01X41995Y19062D01*
G01X42037Y19092D01*
G01X42101Y19147D01*
G01X42052Y19200D01*
G01X42016Y19236D01*
G01X41954Y19293D01*
G01X41874Y19365D01*
G01X41785Y19442D01*
G01X41691Y19522D01*
G01X41595Y19600D01*
G01X41547Y19638D01*
G01X41449Y19714D01*
G01X41351Y19788D01*
G01X41251Y19860D01*
G01X41200Y19896D01*
G01X41099Y19966D01*
G01X41047Y20000D01*
G01X40996Y20035D01*
G01X40891Y20102D01*
G01X40785Y20168D01*
G01X40677Y20232D01*
G01X40623Y20263D01*
G01X40458Y20356D01*
G01X40402Y20386D01*
G01X40345Y20416D01*
G01X40288Y20445D01*
G01X40232Y20474D01*
G01X40174Y20503D01*
G01X40116Y20531D01*
G01X39939Y20615D01*
G01X39880Y20642D01*
G01X39819Y20668D01*
G01X39759Y20695D01*
G01X39636Y20747D01*
G01X39574Y20772D01*
G01X39511Y20798D01*
G01X39448Y20822D01*
G01X39320Y20872D01*
G01X39256Y20896D01*
G01X39191Y20919D01*
G01X39125Y20943D01*
G01X39067Y20963D01*
G01X39005Y20984D01*
G01X38941Y21006D01*
G01X38874Y21028D01*
G01X38807Y21049D01*
G01X38738Y21071D01*
G01X38600Y21113D01*
G01X38533Y21133D01*
G01X38467Y21153D01*
G01X38404Y21171D01*
G01X38343Y21189D01*
G01X38285Y21204D01*
G01X38232Y21219D01*
G01X38183Y21232D01*
G01X38140Y21243D01*
G01X38102Y21251D01*
G01X38071Y21258D01*
G01X38046Y21262D01*
G37*

%LPD*%
G36*
G01X4819Y21085D02*
G01X4806Y21099D01*
G01X4785Y21075D01*
G01X4755Y21008D01*
G01X4711Y20892D01*
G01X4691Y20837D01*
G01X4649Y20727D01*
G01X4604Y20618D01*
G01X4556Y20511D01*
G01X4531Y20457D01*
G01X4506Y20404D01*
G01X4454Y20298D01*
G01X4398Y20194D01*
G01X4370Y20141D01*
G01X4341Y20090D01*
G01X4311Y20038D01*
G01X4280Y19987D01*
G01X4217Y19885D01*
G01X4185Y19834D01*
G01X4152Y19784D01*
G01X4118Y19734D01*
G01X4084Y19685D01*
G01X4049Y19635D01*
G01X3941Y19488D01*
G01X3903Y19440D01*
G01X3865Y19391D01*
G01X3826Y19343D01*
G01X3787Y19296D01*
G01X3747Y19248D01*
G01X3665Y19154D01*
G01X3623Y19107D01*
G01X3537Y19015D01*
G01X3493Y18969D01*
G01X3448Y18924D01*
G01X3404Y18878D01*
G01X3303Y18776D01*
G01X3222Y18691D01*
G01X3169Y18632D01*
G01X3153Y18607D01*
G01X3167Y18604D01*
G01X3197Y18604D01*
G01X3241Y18607D01*
G01X3297Y18611D01*
G01X3363Y18616D01*
G01X3436Y18624D01*
G01X3514Y18632D01*
G01X3594Y18642D01*
G01X3673Y18652D01*
G01X3750Y18663D01*
G01X3822Y18674D01*
G01X3886Y18685D01*
G01X3972Y18701D01*
G01X4044Y18713D01*
G01X4096Y18722D01*
G01X4120Y18725D01*
G01X4124Y18719D01*
G01X4120Y18702D01*
G01X4110Y18675D01*
G01X4094Y18640D01*
G01X4073Y18597D01*
G01X4047Y18547D01*
G01X4017Y18492D01*
G01X3983Y18433D01*
G01X3946Y18371D01*
G01X3908Y18307D01*
G01X3867Y18242D01*
G01X3825Y18178D01*
G01X3795Y18133D01*
G01X3764Y18087D01*
G01X3731Y18041D01*
G01X3698Y17994D01*
G01X3664Y17947D01*
G01X3592Y17851D01*
G01X3516Y17753D01*
G01X3477Y17704D01*
G01X3437Y17654D01*
G01X3396Y17604D01*
G01X3312Y17504D01*
G01X3268Y17453D01*
G01X3225Y17403D01*
G01X3180Y17352D01*
G01X3089Y17250D01*
G01X3042Y17199D01*
G01X2964Y17115D01*
G01X2905Y17050D01*
G01X2866Y17003D01*
G01X2842Y16971D01*
G01X2833Y16950D01*
G01X2837Y16937D01*
G01X2851Y16928D01*
G01X2874Y16921D01*
G01X2906Y16916D01*
G01X2946Y16912D01*
G01X2995Y16909D01*
G01X3050Y16909D01*
G01X3110Y16910D01*
G01X3177Y16912D01*
G01X3246Y16916D01*
G01X3320Y16922D01*
G01X3395Y16929D01*
G01X3472Y16936D01*
G01X3550Y16945D01*
G01X3627Y16955D01*
G01X3704Y16966D01*
G01X3778Y16977D01*
G01X3850Y16989D01*
G01X3918Y17002D01*
G01X3981Y17015D01*
G01X4039Y17029D01*
G01X4090Y17043D01*
G01X4134Y17057D01*
G01X4176Y17070D01*
G01X4213Y17078D01*
G01X4241Y17082D01*
G01X4255Y17078D01*
G01X4258Y17063D01*
G01X4261Y17025D01*
G01X4264Y16967D01*
G01X4266Y16892D01*
G01X4268Y16802D01*
G01X4270Y16699D01*
G01X4271Y16587D01*
G01X4271Y15870D01*
G01X5324Y15885D01*
G01X5339Y17093D01*
G01X5465Y17054D01*
G01X5516Y17039D01*
G01X5573Y17025D01*
G01X5633Y17011D01*
G01X5697Y16998D01*
G01X5765Y16985D01*
G01X5834Y16973D01*
G01X5906Y16962D01*
G01X5978Y16952D01*
G01X6051Y16943D01*
G01X6124Y16935D01*
G01X6197Y16928D01*
G01X6267Y16921D01*
G01X6336Y16917D01*
G01X6402Y16913D01*
G01X6465Y16911D01*
G01X6524Y16910D01*
G01X6579Y16911D01*
G01X6628Y16913D01*
G01X6672Y16917D01*
G01X6709Y16923D01*
G01X6809Y16941D01*
G01X6585Y17173D01*
G01X6544Y17217D01*
G01X6501Y17263D01*
G01X6458Y17310D01*
G01X6414Y17359D01*
G01X6369Y17410D01*
G01X6325Y17461D01*
G01X6280Y17514D01*
G01X6236Y17568D01*
G01X6191Y17622D01*
G01X6147Y17676D01*
G01X6103Y17731D01*
G01X6060Y17786D01*
G01X6018Y17841D01*
G01X5936Y17949D01*
G01X5897Y18003D01*
G01X5860Y18055D01*
G01X5824Y18106D01*
G01X5790Y18156D01*
G01X5757Y18205D01*
G01X5695Y18301D01*
G01X5639Y18392D01*
G01X5589Y18475D01*
G01X5547Y18551D01*
G01X5513Y18614D01*
G01X5490Y18664D01*
G01X5479Y18699D01*
G01X5480Y18716D01*
G01X5501Y18717D01*
G01X5550Y18713D01*
G01X5619Y18703D01*
G01X5701Y18689D01*
G01X5747Y18681D01*
G01X5797Y18672D01*
G01X5850Y18664D01*
G01X5904Y18656D01*
G01X5957Y18649D01*
G01X6009Y18642D01*
G01X6056Y18637D01*
G01X6098Y18633D01*
G01X6177Y18625D01*
G01X6257Y18617D01*
G01X6327Y18609D01*
G01X6377Y18602D01*
G01X6407Y18598D01*
G01X6426Y18598D01*
G01X6433Y18607D01*
G01X6425Y18624D01*
G01X6401Y18655D01*
G01X6359Y18701D01*
G01X6298Y18765D01*
G01X6214Y18850D01*
G01X6165Y18901D01*
G01X6117Y18951D01*
G01X6071Y18999D01*
G01X6027Y19046D01*
G01X5985Y19092D01*
G01X5945Y19136D01*
G01X5906Y19180D01*
G01X5868Y19224D01*
G01X5831Y19266D01*
G01X5761Y19352D01*
G01X5727Y19394D01*
G01X5661Y19481D01*
G01X5629Y19525D01*
G01X5596Y19570D01*
G01X5564Y19616D01*
G01X5531Y19663D01*
G01X5498Y19712D01*
G01X5432Y19813D01*
G01X5400Y19862D01*
G01X5369Y19912D01*
G01X5339Y19961D01*
G01X5309Y20011D01*
G01X5280Y20060D01*
G01X5252Y20110D01*
G01X5197Y20211D01*
G01X5144Y20313D01*
G01X5118Y20366D01*
G01X5093Y20419D01*
G01X5067Y20473D01*
G01X5042Y20528D01*
G01X5018Y20584D01*
G01X4993Y20641D01*
G01X4968Y20700D01*
G01X4943Y20760D01*
G01X4919Y20821D01*
G01X4894Y20884D01*
G01X4869Y20949D01*
G01X4844Y21016D01*
G01X4819Y21085D01*
G37*

%LPC*%
G36*
G01X4820Y20657D02*
G01X4814Y20666D01*
G01X4805Y20664D01*
G01X4792Y20651D01*
G01X4777Y20625D01*
G01X4757Y20585D01*
G01X4733Y20531D01*
G01X4703Y20462D01*
G01X4669Y20377D01*
G01X4639Y20305D01*
G01X4606Y20229D01*
G01X4571Y20150D01*
G01X4535Y20071D01*
G01X4499Y19994D01*
G01X4464Y19923D01*
G01X4431Y19858D01*
G01X4401Y19802D01*
G01X4367Y19742D01*
G01X4331Y19681D01*
G01X4294Y19620D01*
G01X4255Y19560D01*
G01X4214Y19500D01*
G01X4173Y19441D01*
G01X4132Y19383D01*
G01X4089Y19326D01*
G01X4046Y19270D01*
G01X4003Y19216D01*
G01X3959Y19164D01*
G01X3916Y19114D01*
G01X3873Y19067D01*
G01X3830Y19022D01*
G01X3788Y18979D01*
G01X3747Y18940D01*
G01X3680Y18877D01*
G01X3630Y18826D01*
G01X3600Y18791D01*
G01X3597Y18778D01*
G01X3623Y18781D01*
G01X3664Y18789D01*
G01X3717Y18801D01*
G01X3778Y18816D01*
G01X3847Y18835D01*
G01X3921Y18856D01*
G01X3996Y18878D01*
G01X4071Y18901D01*
G01X4144Y18924D01*
G01X4210Y18946D01*
G01X4270Y18968D01*
G01X4319Y18987D01*
G01X4371Y19008D01*
G01X4414Y19026D01*
G01X4448Y19038D01*
G01X4472Y19042D01*
G01X4488Y19039D01*
G01X4495Y19027D01*
G01X4493Y19004D01*
G01X4483Y18969D01*
G01X4465Y18921D01*
G01X4438Y18858D01*
G01X4404Y18781D01*
G01X4362Y18686D01*
G01X4339Y18634D01*
G01X4315Y18584D01*
G01X4291Y18533D01*
G01X4240Y18432D01*
G01X4186Y18333D01*
G01X4158Y18283D01*
G01X4130Y18234D01*
G01X4101Y18185D01*
G01X4071Y18136D01*
G01X4040Y18087D01*
G01X3976Y17991D01*
G01X3943Y17943D01*
G01X3909Y17894D01*
G01X3874Y17847D01*
G01X3839Y17799D01*
G01X3802Y17752D01*
G01X3766Y17704D01*
G01X3728Y17657D01*
G01X3689Y17609D01*
G01X3650Y17562D01*
G01X3610Y17515D01*
G01X3569Y17468D01*
G01X3527Y17421D01*
G01X3441Y17327D01*
G01X3218Y17089D01*
G01X3444Y17107D01*
G01X3508Y17113D01*
G01X3577Y17123D01*
G01X3650Y17135D01*
G01X3727Y17149D01*
G01X3805Y17165D01*
G01X3884Y17184D01*
G01X3962Y17203D01*
G01X4038Y17224D01*
G01X4110Y17246D01*
G01X4177Y17268D01*
G01X4238Y17290D01*
G01X4292Y17312D01*
G01X4340Y17332D01*
G01X4383Y17349D01*
G01X4416Y17360D01*
G01X4434Y17365D01*
G01X4437Y17359D01*
G01X4440Y17342D01*
G01X4443Y17313D01*
G01X4446Y17275D01*
G01X4449Y17228D01*
G01X4451Y17173D01*
G01X4453Y17110D01*
G01X4454Y17040D01*
G01X4456Y16965D01*
G01X4457Y16884D01*
G01X4457Y16800D01*
G01X4458Y16712D01*
G01X4458Y16058D01*
G01X5153Y16058D01*
G01X5145Y16712D01*
G01X5144Y16800D01*
G01X5144Y16884D01*
G01X5143Y16965D01*
G01X5143Y17040D01*
G01X5144Y17110D01*
G01X5144Y17173D01*
G01X5145Y17228D01*
G01X5145Y17275D01*
G01X5146Y17313D01*
G01X5148Y17341D01*
G01X5149Y17359D01*
G01X5151Y17364D01*
G01X5172Y17358D01*
G01X5219Y17342D01*
G01X5286Y17317D01*
G01X5366Y17286D01*
G01X5414Y17268D01*
G01X5467Y17251D01*
G01X5523Y17233D01*
G01X5582Y17216D01*
G01X5643Y17199D01*
G01X5769Y17169D01*
G01X5832Y17155D01*
G01X5894Y17142D01*
G01X5954Y17131D01*
G01X6012Y17122D01*
G01X6066Y17114D01*
G01X6116Y17108D01*
G01X6161Y17104D01*
G01X6200Y17103D01*
G01X6232Y17103D01*
G01X6346Y17111D01*
G01X6107Y17378D01*
G01X6066Y17424D01*
G01X6026Y17471D01*
G01X5986Y17517D01*
G01X5947Y17564D01*
G01X5871Y17658D01*
G01X5797Y17754D01*
G01X5761Y17801D01*
G01X5726Y17850D01*
G01X5691Y17898D01*
G01X5623Y17996D01*
G01X5590Y18046D01*
G01X5558Y18095D01*
G01X5494Y18195D01*
G01X5433Y18297D01*
G01X5404Y18347D01*
G01X5370Y18409D01*
G01X5334Y18477D01*
G01X5298Y18550D01*
G01X5262Y18624D01*
G01X5228Y18698D01*
G01X5196Y18770D01*
G01X5168Y18837D01*
G01X5144Y18898D01*
G01X5124Y18950D01*
G01X5110Y18992D01*
G01X5104Y19021D01*
G01X5105Y19035D01*
G01X5126Y19033D01*
G01X5175Y19020D01*
G01X5245Y18997D01*
G01X5327Y18967D01*
G01X5394Y18942D01*
G01X5460Y18919D01*
G01X5525Y18898D01*
G01X5593Y18878D01*
G01X5666Y18858D01*
G01X5745Y18838D01*
G01X5834Y18816D01*
G01X5936Y18792D01*
G01X5970Y18790D01*
G01X5963Y18815D01*
G01X5908Y18878D01*
G01X5797Y18991D01*
G01X5761Y19027D01*
G01X5726Y19064D01*
G01X5691Y19102D01*
G01X5656Y19142D01*
G01X5622Y19183D01*
G01X5587Y19224D01*
G01X5553Y19267D01*
G01X5519Y19311D01*
G01X5486Y19356D01*
G01X5420Y19450D01*
G01X5387Y19498D01*
G01X5355Y19547D01*
G01X5323Y19598D01*
G01X5292Y19649D01*
G01X5261Y19701D01*
G01X5230Y19755D01*
G01X5200Y19809D01*
G01X5170Y19864D01*
G01X5140Y19920D01*
G01X5112Y19977D01*
G01X5054Y20093D01*
G01X5027Y20152D01*
G01X4999Y20213D01*
G01X4972Y20274D01*
G01X4945Y20336D01*
G01X4919Y20399D01*
G01X4894Y20462D01*
G01X4869Y20526D01*
G01X4844Y20591D01*
G01X4820Y20657D01*
G37*

%LPD*%
G36*
G01X9119Y36470D02*
G01X9047Y36470D01*
G01X8966Y36469D01*
G01X8862Y36467D01*
G01X8780Y36465D01*
G01X8716Y36462D01*
G01X8663Y36456D01*
G01X8617Y36448D01*
G01X8570Y36436D01*
G01X8520Y36420D01*
G01X8458Y36399D01*
G01X8399Y36377D01*
G01X8340Y36353D01*
G01X8283Y36327D01*
G01X8226Y36298D01*
G01X8170Y36267D01*
G01X8115Y36234D01*
G01X8061Y36199D01*
G01X8008Y36162D01*
G01X7957Y36124D01*
G01X7907Y36083D01*
G01X7859Y36041D01*
G01X7812Y35997D01*
G01X7773Y35957D01*
G01X7734Y35914D01*
G01X7695Y35869D01*
G01X7656Y35822D01*
G01X7619Y35773D01*
G01X7583Y35724D01*
G01X7549Y35674D01*
G01X7518Y35625D01*
G01X7489Y35577D01*
G01X7463Y35530D01*
G01X7441Y35485D01*
G01X7422Y35443D01*
G01X7405Y35402D01*
G01X7389Y35368D01*
G01X7377Y35346D01*
G01X7370Y35338D01*
G01X7360Y35343D01*
G01X7336Y35358D01*
G01X7299Y35382D01*
G01X7250Y35413D01*
G01X7192Y35450D01*
G01X7126Y35493D01*
G01X7053Y35541D01*
G01X6975Y35592D01*
G01X6590Y35846D01*
G01X6585Y34763D01*
G01X6585Y34546D01*
G01X6584Y34442D01*
G01X6584Y34074D01*
G01X6585Y33996D01*
G01X6585Y33862D01*
G01X6586Y33807D01*
G01X6586Y33761D01*
G01X6587Y33724D01*
G01X6587Y33696D01*
G01X6588Y33678D01*
G01X6589Y33672D01*
G01X6598Y33675D01*
G01X6658Y33710D01*
G01X6706Y33739D01*
G01X6763Y33775D01*
G01X6828Y33817D01*
G01X6899Y33863D01*
G01X6975Y33914D01*
G01X7052Y33963D01*
G01X7123Y34011D01*
G01X7189Y34053D01*
G01X7246Y34090D01*
G01X7294Y34120D01*
G01X7331Y34144D01*
G01X7356Y34158D01*
G01X7366Y34163D01*
G01X7377Y34152D01*
G01X7395Y34121D01*
G01X7419Y34076D01*
G01X7446Y34021D01*
G01X7472Y33968D01*
G01X7500Y33917D01*
G01X7530Y33867D01*
G01X7562Y33817D01*
G01X7596Y33769D01*
G01X7631Y33721D01*
G01X7668Y33675D01*
G01X7707Y33630D01*
G01X7747Y33586D01*
G01X7789Y33543D01*
G01X7832Y33502D01*
G01X7877Y33462D01*
G01X7923Y33423D01*
G01X8019Y33351D01*
G01X8119Y33285D01*
G01X8171Y33255D01*
G01X8224Y33226D01*
G01X8278Y33199D01*
G01X8333Y33174D01*
G01X8388Y33152D01*
G01X8444Y33130D01*
G01X8501Y33111D01*
G01X8564Y33093D01*
G01X8627Y33076D01*
G01X8690Y33063D01*
G01X8753Y33051D01*
G01X8816Y33042D01*
G01X8879Y33036D01*
G01X8942Y33031D01*
G01X9004Y33030D01*
G01X9067Y33030D01*
G01X9129Y33033D01*
G01X9191Y33038D01*
G01X9252Y33045D01*
G01X9313Y33055D01*
G01X9374Y33067D01*
G01X9434Y33081D01*
G01X9493Y33098D01*
G01X9552Y33117D01*
G01X9610Y33138D01*
G01X9668Y33161D01*
G01X9725Y33187D01*
G01X9781Y33215D01*
G01X9837Y33245D01*
G01X9891Y33277D01*
G01X9945Y33311D01*
G01X9998Y33347D01*
G01X10050Y33386D01*
G01X10101Y33426D01*
G01X10151Y33469D01*
G01X10200Y33514D01*
G01X10248Y33561D01*
G01X10295Y33610D01*
G01X10340Y33662D01*
G01X10376Y33705D01*
G01X10416Y33758D01*
G01X10456Y33814D01*
G01X10494Y33870D01*
G01X10528Y33923D01*
G01X10554Y33966D01*
G01X10570Y33998D01*
G01X10573Y34012D01*
G01X10563Y34009D01*
G01X10538Y33997D01*
G01X10504Y33978D01*
G01X10463Y33954D01*
G01X10404Y33920D01*
G01X10344Y33891D01*
G01X10285Y33867D01*
G01X10225Y33846D01*
G01X10162Y33830D01*
G01X10096Y33817D01*
G01X10027Y33807D01*
G01X9954Y33802D01*
G01X9872Y33798D01*
G01X9797Y33799D01*
G01X9728Y33805D01*
G01X9661Y33815D01*
G01X9595Y33830D01*
G01X9529Y33851D01*
G01X9460Y33878D01*
G01X9388Y33910D01*
G01X9342Y33934D01*
G01X9295Y33962D01*
G01X9249Y33993D01*
G01X9203Y34027D01*
G01X9159Y34063D01*
G01X9116Y34101D01*
G01X9075Y34140D01*
G01X9038Y34181D01*
G01X9003Y34221D01*
G01X8972Y34262D01*
G01X8945Y34302D01*
G01X8923Y34342D01*
G01X8899Y34393D01*
G01X8878Y34445D01*
G01X8861Y34497D01*
G01X8846Y34551D01*
G01X8835Y34604D01*
G01X8827Y34658D01*
G01X8822Y34712D01*
G01X8821Y34765D01*
G01X8823Y34819D01*
G01X8828Y34872D01*
G01X8836Y34926D01*
G01X8847Y34978D01*
G01X8862Y35030D01*
G01X8880Y35081D01*
G01X8901Y35131D01*
G01X8926Y35180D01*
G01X8958Y35231D01*
G01X9001Y35288D01*
G01X9052Y35347D01*
G01X9109Y35406D01*
G01X9170Y35462D01*
G01X9230Y35513D01*
G01X9289Y35556D01*
G01X9343Y35588D01*
G01X9408Y35621D01*
G01X9470Y35648D01*
G01X9531Y35669D01*
G01X9592Y35685D01*
G01X9656Y35698D01*
G01X9725Y35706D01*
G01X9800Y35710D01*
G01X9884Y35711D01*
G01X9991Y35709D01*
G01X10074Y35703D01*
G01X10142Y35692D01*
G01X10206Y35673D01*
G01X10298Y35639D01*
G01X10386Y35600D01*
G01X10465Y35558D01*
G01X10530Y35517D01*
G01X10550Y35505D01*
G01X10566Y35497D01*
G01X10577Y35494D01*
G01X10581Y35497D01*
G01X10573Y35519D01*
G01X10551Y35559D01*
G01X10518Y35611D01*
G01X10478Y35671D01*
G01X10433Y35735D01*
G01X10387Y35797D01*
G01X10343Y35853D01*
G01X10305Y35898D01*
G01X10253Y35953D01*
G01X10202Y36006D01*
G01X10150Y36054D01*
G01X10099Y36100D01*
G01X10047Y36143D01*
G01X9994Y36183D01*
G01X9940Y36220D01*
G01X9886Y36255D01*
G01X9830Y36287D01*
G01X9773Y36317D01*
G01X9715Y36344D01*
G01X9655Y36369D01*
G01X9594Y36392D01*
G01X9531Y36413D01*
G01X9465Y36432D01*
G01X9398Y36449D01*
G01X9366Y36455D01*
G01X9329Y36460D01*
G01X9287Y36464D01*
G01X9238Y36467D01*
G01X9182Y36469D01*
G01X9119Y36470D01*
G37*

%LPC*%
G36*
G01X9163Y36250D02*
G01X9109Y36251D01*
G01X9048Y36250D01*
G01X8982Y36248D01*
G01X8914Y36245D01*
G01X8846Y36240D01*
G01X8780Y36235D01*
G01X8718Y36228D01*
G01X8663Y36220D01*
G01X8617Y36212D01*
G01X8581Y36204D01*
G01X8521Y36184D01*
G01X8461Y36162D01*
G01X8403Y36137D01*
G01X8345Y36109D01*
G01X8289Y36079D01*
G01X8233Y36047D01*
G01X8179Y36012D01*
G01X8126Y35975D01*
G01X8075Y35935D01*
G01X8025Y35894D01*
G01X7977Y35851D01*
G01X7931Y35806D01*
G01X7887Y35759D01*
G01X7845Y35711D01*
G01X7804Y35662D01*
G01X7766Y35610D01*
G01X7730Y35558D01*
G01X7697Y35505D01*
G01X7666Y35450D01*
G01X7638Y35395D01*
G01X7612Y35339D01*
G01X7590Y35282D01*
G01X7570Y35224D01*
G01X7553Y35166D01*
G01X7539Y35115D01*
G01X7525Y35074D01*
G01X7513Y35047D01*
G01X7504Y35038D01*
G01X7494Y35043D01*
G01X7470Y35057D01*
G01X7434Y35079D01*
G01X7388Y35107D01*
G01X7333Y35142D01*
G01X7271Y35181D01*
G01X7203Y35224D01*
G01X7131Y35270D01*
G01X6774Y35499D01*
G01X6769Y34764D01*
G01X6768Y34664D01*
G01X6768Y34126D01*
G01X6769Y34083D01*
G01X6770Y34050D01*
G01X6770Y34029D01*
G01X6771Y34022D01*
G01X6780Y34025D01*
G01X6802Y34037D01*
G01X6836Y34056D01*
G01X6880Y34082D01*
G01X6933Y34114D01*
G01X6994Y34151D01*
G01X7061Y34192D01*
G01X7203Y34282D01*
G01X7271Y34325D01*
G01X7333Y34363D01*
G01X7389Y34397D01*
G01X7436Y34426D01*
G01X7473Y34448D01*
G01X7498Y34463D01*
G01X7510Y34469D01*
G01X7520Y34471D01*
G01X7529Y34467D01*
G01X7534Y34459D01*
G01X7535Y34445D01*
G01X7540Y34409D01*
G01X7554Y34359D01*
G01X7574Y34299D01*
G01X7600Y34233D01*
G01X7629Y34164D01*
G01X7661Y34096D01*
G01X7694Y34034D01*
G01X7726Y33981D01*
G01X7759Y33931D01*
G01X7793Y33884D01*
G01X7829Y33837D01*
G01X7866Y33793D01*
G01X7905Y33750D01*
G01X7945Y33709D01*
G01X7986Y33669D01*
G01X8029Y33632D01*
G01X8073Y33595D01*
G01X8118Y33561D01*
G01X8164Y33528D01*
G01X8212Y33497D01*
G01X8261Y33467D01*
G01X8311Y33439D01*
G01X8362Y33413D01*
G01X8415Y33389D01*
G01X8468Y33366D01*
G01X8523Y33345D01*
G01X8579Y33326D01*
G01X8636Y33309D01*
G01X8680Y33299D01*
G01X8732Y33290D01*
G01X8790Y33284D01*
G01X8854Y33279D01*
G01X8920Y33276D01*
G01X8989Y33274D01*
G01X9057Y33275D01*
G01X9124Y33277D01*
G01X9187Y33281D01*
G01X9246Y33287D01*
G01X9298Y33295D01*
G01X9343Y33305D01*
G01X9409Y33324D01*
G01X9471Y33343D01*
G01X9529Y33364D01*
G01X9583Y33385D01*
G01X9634Y33409D01*
G01X9683Y33433D01*
G01X9730Y33460D01*
G01X9776Y33489D01*
G01X9893Y33566D01*
G01X9718Y33579D01*
G01X9655Y33585D01*
G01X9593Y33595D01*
G01X9533Y33607D01*
G01X9473Y33622D01*
G01X9414Y33641D01*
G01X9357Y33662D01*
G01X9301Y33685D01*
G01X9248Y33712D01*
G01X9195Y33741D01*
G01X9144Y33772D01*
G01X9095Y33806D01*
G01X9047Y33842D01*
G01X9002Y33881D01*
G01X8959Y33921D01*
G01X8917Y33964D01*
G01X8878Y34009D01*
G01X8841Y34055D01*
G01X8807Y34103D01*
G01X8775Y34153D01*
G01X8745Y34205D01*
G01X8718Y34259D01*
G01X8693Y34313D01*
G01X8672Y34369D01*
G01X8653Y34427D01*
G01X8637Y34486D01*
G01X8624Y34546D01*
G01X8614Y34607D01*
G01X8607Y34669D01*
G01X8603Y34726D01*
G01X8603Y34782D01*
G01X8605Y34838D01*
G01X8610Y34892D01*
G01X8617Y34947D01*
G01X8626Y35001D01*
G01X8638Y35054D01*
G01X8653Y35105D01*
G01X8670Y35156D01*
G01X8688Y35206D01*
G01X8709Y35255D01*
G01X8733Y35302D01*
G01X8758Y35349D01*
G01X8785Y35394D01*
G01X8815Y35438D01*
G01X8846Y35480D01*
G01X8879Y35521D01*
G01X8914Y35561D01*
G01X8950Y35599D01*
G01X8989Y35635D01*
G01X9029Y35670D01*
G01X9070Y35703D01*
G01X9113Y35734D01*
G01X9157Y35763D01*
G01X9203Y35790D01*
G01X9250Y35815D01*
G01X9298Y35838D01*
G01X9348Y35859D01*
G01X9399Y35878D01*
G01X9451Y35895D01*
G01X9504Y35909D01*
G01X9558Y35921D01*
G01X9613Y35930D01*
G01X9669Y35937D01*
G01X9726Y35942D01*
G01X9783Y35944D01*
G01X9911Y35945D01*
G01X9856Y35989D01*
G01X9823Y36015D01*
G01X9784Y36041D01*
G01X9740Y36066D01*
G01X9694Y36090D01*
G01X9643Y36114D01*
G01X9590Y36138D01*
G01X9535Y36159D01*
G01X9477Y36180D01*
G01X9419Y36199D01*
G01X9360Y36216D01*
G01X9300Y36231D01*
G01X9242Y36243D01*
G01X9208Y36248D01*
G01X9163Y36250D01*
G37*

%LPD*%
G54D10*
G01X5105Y24020D02*
G01X5461Y23664D01*
G01X6477Y23664D01*
G01X6832Y24020D01*
G01X6832Y25188D02*
G01X6832Y24020D01*
G01X5105Y27246D02*
G01X6832Y27246D01*
G01X5105Y27246D02*
G01X5105Y26810D01*
G01X5105Y25773D01*
G01X6832Y27246D02*
G01X6832Y25773D01*
G01X39776Y25163D02*
G01X39776Y24020D01*
G01X41503Y25188D02*
G01X41503Y24020D01*
G01X39776Y27246D02*
G01X41503Y27246D01*
G01X39776Y27246D02*
G01X39776Y25773D01*
G01X41503Y27246D02*
G01X41503Y25773D01*
G01X21475Y26644D02*
G01X22948Y26644D01*
G01X21475Y24917D02*
G01X22948Y24917D01*
G01X21475Y24917D02*
G01X21475Y26644D01*
G01X23533Y26644D02*
G01X24701Y26644D01*
G01X23558Y24917D02*
G01X24701Y24917D01*
G01X24701Y24917D02*
G01X25057Y25273D01*
G01X25057Y26289D01*
G01X24701Y26644D01*
G01X5105Y25163D02*
G01X5105Y24020D01*
G01X39776Y24020D02*
G01X40132Y23664D01*
G01X41148Y23664D01*
G01X41503Y24020D01*
G01X31673Y19126D02*
G01X31673Y18542D01*
G01X15417Y19151D02*
G01X15417Y18567D01*
G01X31724Y6350D02*
G01X31724Y5765D01*
G01X15367Y6375D02*
G01X15367Y5791D01*
G01X15214Y5791D01*
G01X18669Y5791D01*
G01X35560Y10922D02*
G01X35560Y9652D01*
G01X33578Y9652D01*
G01X33578Y15138D01*
G01X31369Y15138D01*
G01X31369Y14376D01*
G01X31369Y10337D02*
G01X31369Y9652D01*
G01X32131Y9652D01*
G01X32131Y10388D01*
G01X33578Y10388D01*
G01X32258Y13300D02*
G01X32258Y11506D01*
G01X30048Y14376D02*
G01X30048Y13512D01*
G01X30576Y13512D01*
G01X32559Y13259D01*
G01X30480Y14376D02*
G01X30480Y13512D01*
G01X30048Y13512D02*
G01X29692Y13512D01*
G01X32613Y14376D02*
G01X29692Y14376D01*
G01X32534Y11505D02*
G01X30409Y11234D01*
G01X30454Y10388D02*
G01X30454Y11252D01*
G01X30022Y11252D01*
G01X30022Y10388D01*
G01X30022Y11252D02*
G01X29667Y11252D01*
G01X32588Y14300D02*
G01X32588Y10388D01*
G01X29667Y10388D01*
G01X33477Y14376D02*
G01X32029Y14376D01*
G01X32029Y15113D01*
G01X32943Y15087D02*
G01X32943Y14376D01*
G01X33045Y10363D02*
G01X33045Y9652D01*
G01X33578Y9652D02*
G01X32131Y9652D01*
G01X37490Y14986D02*
G01X37490Y9626D01*
G01X37084Y15163D02*
G01X37084Y9652D01*
G01X34874Y15113D02*
G01X34874Y9702D01*
G01X34264Y15138D02*
G01X34264Y9652D01*
G01X38453Y15165D02*
G01X33578Y15165D01*
G01X38506Y9626D02*
G01X36372Y9626D01*
G01X36372Y10896D01*
G01X35585Y10896D01*
G01X12750Y15341D02*
G01X12750Y14757D01*
G01X13462Y15244D02*
G01X13462Y14706D01*
G01X12319Y14706D01*
G01X15214Y15265D02*
G01X15214Y14122D01*
G01X15798Y15265D02*
G01X15798Y14122D01*
G01X15824Y10693D02*
G01X15824Y9550D01*
G01X15240Y10693D02*
G01X15240Y9550D01*
G01X34595Y8636D02*
G01X34595Y5486D01*
G01X33553Y4445D01*
G01X12395Y4445D01*
G01X12369Y4470D01*
G01X12369Y8661D01*
G01X8534Y8661D01*
G01X8534Y10109D01*
G01X38506Y10109D02*
G01X38506Y8661D01*
G01X34595Y8661D01*
G01X12420Y16230D02*
G01X8509Y16230D01*
G01X8509Y14782D01*
G01X38481Y14808D02*
G01X38481Y16230D01*
G01X34645Y16230D01*
G01X34645Y20421D01*
G01X34620Y20447D01*
G01X12420Y20447D01*
G01X12420Y16256D01*
G01X34010Y19253D02*
G01X32766Y19253D01*
G01X33350Y19888D02*
G01X33350Y18618D01*
G01X14300Y5740D02*
G01X13004Y5740D01*
G01X18491Y8229D02*
G01X13843Y8229D01*
G01X18592Y16687D02*
G01X13893Y16687D01*
G01X18770Y19126D02*
G01X15316Y19126D01*
G01X33147Y8255D02*
G01X28448Y8255D01*
G01X31724Y5816D02*
G01X28270Y5816D01*
G01X33070Y16662D02*
G01X28371Y16662D01*
G01X31648Y19100D02*
G01X28194Y19100D01*
G01X12319Y15290D02*
G01X12319Y9550D01*
G01X8509Y15367D02*
G01X8534Y15341D01*
G01X10541Y15341D01*
G01X11176Y15341D01*
G01X11557Y15341D01*
G01X19862Y15341D01*
G01X19913Y15290D01*
G01X19913Y9550D01*
G01X11582Y9550D01*
G01X11201Y9550D01*
G01X11201Y10744D01*
G01X10464Y10744D01*
G01X10464Y9550D01*
G01X8559Y9550D01*
G01X8534Y9525D01*
G01X9702Y15316D02*
G01X9702Y9550D01*
G01X9321Y15341D02*
G01X9321Y9550D01*
G01X11836Y15240D02*
G01X11836Y9626D01*
G01X13462Y9647D02*
G01X13462Y10185D01*
G01X12319Y10185D01*
G01X12750Y10134D02*
G01X12750Y9550D01*
G01X14401Y12750D02*
G01X17576Y13157D01*
G01X17780Y13157D01*
G01X17983Y13360D01*
G01X18745Y13360D01*
G01X18745Y13563D01*
G01X18745Y14071D01*
G01X12344Y14071D01*
G01X17576Y14046D02*
G01X17576Y13157D01*
G01X17932Y14071D02*
G01X17932Y13309D01*
G01X14401Y12014D02*
G01X17576Y11607D01*
G01X17780Y11607D01*
G01X17983Y11404D01*
G01X18745Y11404D01*
G01X18745Y11201D01*
G01X18745Y10693D01*
G01X12344Y10693D01*
G01X17576Y11607D02*
G01X17576Y10718D01*
G01X17932Y11455D02*
G01X17932Y10693D01*
G01X17145Y28625D02*
G01X12319Y28625D01*
G01X12319Y31775D01*
G01X17145Y31775D01*
G01X17145Y31775D02*
G01X17145Y30835D01*
G01X17145Y29565D02*
G01X17145Y28625D01*
G01X33273Y29210D02*
G01X32257Y29210D01*
G01X32257Y28194D01*
G01X33273Y28194D01*
G01X33273Y29210D01*
G01X34035Y29718D02*
G01X31495Y29718D01*
G01X31495Y23622D01*
G01X34035Y23622D01*
G01X34035Y29718D01*
G01X34487Y31242D02*
G01X30987Y31242D01*
G01X30965Y31269D02*
G01X30965Y22070D01*
G01X31043Y22098D02*
G01X34543Y22098D01*
G01X34565Y22070D02*
G01X34565Y31269D01*
G54D17*
G01X28466Y3479D02*
G01X28466Y2494D01*
G01X28466Y3479D02*
G01X28091Y2494D01*
G01X27715Y3479D02*
G01X28091Y2494D01*
G01X27715Y3479D02*
G01X27715Y2494D01*
G01X26843Y3151D02*
G01X26843Y2494D01*
G01X26843Y3010D02*
G01X26937Y3104D01*
G01X27031Y3151D01*
G01X27171Y3151D01*
G01X27265Y3104D01*
G01X27359Y3010D01*
G01X27406Y2869D01*
G01X27406Y2775D01*
G01X27359Y2635D01*
G01X27265Y2541D01*
G01X27171Y2494D01*
G01X27031Y2494D01*
G01X26937Y2541D01*
G01X26843Y2635D01*
G01X26393Y3479D02*
G01X26393Y2682D01*
G01X26346Y2541D01*
G01X26252Y2494D01*
G01X26158Y2494D01*
G01X26533Y3151D02*
G01X26205Y3151D01*
G01X25708Y3479D02*
G01X25708Y2682D01*
G01X25661Y2541D01*
G01X25567Y2494D01*
G01X25473Y2494D01*
G01X25849Y3151D02*
G01X25520Y3151D01*
G01X24066Y3479D02*
G01X24441Y2494D01*
G01X24066Y3479D02*
G01X23691Y2494D01*
G01X24301Y2822D02*
G01X23831Y2822D01*
G01X22818Y3151D02*
G01X22818Y2400D01*
G01X22865Y2259D01*
G01X22912Y2212D01*
G01X23006Y2166D01*
G01X23147Y2166D01*
G01X23240Y2212D01*
G01X22818Y3010D02*
G01X22912Y3104D01*
G01X23006Y3151D01*
G01X23147Y3151D01*
G01X23240Y3104D01*
G01X23334Y3010D01*
G01X23381Y2869D01*
G01X23381Y2775D01*
G01X23334Y2635D01*
G01X23240Y2541D01*
G01X23147Y2494D01*
G01X23006Y2494D01*
G01X22912Y2541D01*
G01X22818Y2635D01*
G01X22509Y3479D02*
G01X22462Y3432D01*
G01X22415Y3479D01*
G01X22462Y3526D01*
G01X22509Y3479D01*
G01X22462Y3151D02*
G01X22462Y2494D01*
G01X22105Y3151D02*
G01X22105Y2682D01*
G01X22058Y2541D01*
G01X21964Y2494D01*
G01X21824Y2494D01*
G01X21730Y2541D01*
G01X21589Y2682D01*
G01X21589Y3151D02*
G01X21589Y2494D01*
G01X20764Y3010D02*
G01X20810Y3104D01*
G01X20951Y3151D01*
G01X21092Y3151D01*
G01X21233Y3104D01*
G01X21280Y3010D01*
G01X21233Y2916D01*
G01X21139Y2869D01*
G01X20904Y2822D01*
G01X20810Y2775D01*
G01X20764Y2682D01*
G01X20764Y2635D01*
G01X20810Y2541D01*
G01X20951Y2494D01*
G01X21092Y2494D01*
G01X21233Y2541D01*
G01X21280Y2635D01*
G01X19732Y3479D02*
G01X19356Y2494D01*
G01X18981Y3479D02*
G01X19356Y2494D01*
G01X18625Y2728D02*
G01X18671Y2682D01*
G01X18625Y2635D01*
G01X18578Y2682D01*
G01X18625Y2728D01*
G01X18174Y3479D02*
G01X17658Y3479D01*
G01X17940Y3104D01*
G01X17799Y3104D01*
G01X17705Y3057D01*
G01X17658Y3010D01*
G01X17611Y2869D01*
G01X17611Y2775D01*
G01X17658Y2635D01*
G01X17752Y2541D01*
G01X17893Y2494D01*
G01X18033Y2494D01*
G01X18174Y2541D01*
G01X18221Y2588D01*
G01X18268Y2682D01*
G01X41967Y13912D02*
G01X41967Y12249D01*
G01X42799Y13081D02*
G01X41136Y13081D01*
G01X5599Y12700D02*
G01X3937Y12700D01*
G01X16382Y38956D02*
G01X16414Y39052D01*
G01X16478Y39084D01*
G01X16542Y39084D01*
G01X16605Y39052D01*
G01X16637Y38988D01*
G01X16669Y38861D01*
G01X16701Y38766D01*
G01X16764Y38702D01*
G01X16828Y38670D01*
G01X16923Y38670D01*
G01X16987Y38702D01*
G01X17019Y38734D01*
G01X17051Y38829D01*
G01X17051Y38956D01*
G01X17019Y39052D01*
G01X16987Y39084D01*
G01X16923Y39116D01*
G01X16828Y39116D01*
G01X16764Y39084D01*
G01X16701Y39020D01*
G01X16669Y38925D01*
G01X16637Y38797D01*
G01X16605Y38734D01*
G01X16542Y38702D01*
G01X16478Y38702D01*
G01X16414Y38734D01*
G01X16382Y38829D01*
G01X16382Y38956D01*
G01X15167Y38670D02*
G01X15835Y38988D01*
G01X15167Y39116D02*
G01X15167Y38670D01*
G01X13811Y38734D02*
G01X13747Y38765D01*
G01X13716Y38861D01*
G01X13716Y38925D01*
G01X13747Y39020D01*
G01X13843Y39084D01*
G01X14002Y39116D01*
G01X14161Y39116D01*
G01X14288Y39084D01*
G01X14352Y39020D01*
G01X14384Y38925D01*
G01X14384Y38893D01*
G01X14352Y38797D01*
G01X14288Y38734D01*
G01X14193Y38702D01*
G01X14161Y38702D01*
G01X14065Y38734D01*
G01X14002Y38797D01*
G01X13970Y38893D01*
G01X13970Y38925D01*
G01X14002Y39020D01*
G01X14065Y39084D01*
G01X14161Y39116D01*
G01X12446Y38734D02*
G01X12446Y39052D01*
G01X12732Y39084D01*
G01X12700Y39052D01*
G01X12668Y38956D01*
G01X12668Y38861D01*
G01X12700Y38765D01*
G01X12764Y38702D01*
G01X12859Y38670D01*
G01X12923Y38670D01*
G01X13018Y38702D01*
G01X13082Y38765D01*
G01X13114Y38861D01*
G01X13114Y38956D01*
G01X13082Y39052D01*
G01X13050Y39084D01*
G01X12986Y39116D01*
G01X16382Y22098D02*
G01X16350Y22034D01*
G01X16255Y21938D01*
G01X16923Y21938D01*
G01X12445Y21906D02*
G01X12890Y22225D01*
G01X12890Y21747D01*
G01X12445Y21906D02*
G01X13113Y21906D01*
G54D18*
G01X17831Y33112D02*
G01X18923Y33528D01*
G01X17831Y33112D02*
G01X18923Y32696D01*
G01X18559Y33372D02*
G01X18559Y32852D01*
G01X17831Y31990D02*
G01X18923Y31990D01*
G01X17831Y32353D02*
G01X17831Y31626D01*
G01X17831Y30919D02*
G01X18923Y30919D01*
G01X17831Y31283D02*
G01X17831Y30556D01*
G01X17831Y30213D02*
G01X18923Y30213D01*
G01X17831Y29870D02*
G01X18923Y29870D01*
G01X17831Y29870D02*
G01X18923Y29143D01*
G01X17831Y29143D02*
G01X18923Y29143D01*
G01X17831Y28800D02*
G01X18351Y28384D01*
G01X18923Y28384D01*
G01X17831Y27968D02*
G01X18351Y28384D01*
G01X17831Y27106D02*
G01X18559Y27626D01*
G01X18559Y26846D01*
G01X17831Y27106D02*
G01X18923Y27106D01*
G01X17831Y25880D02*
G01X17831Y26399D01*
G01X18299Y26451D01*
G01X18247Y26399D01*
G01X18195Y26244D01*
G01X18195Y26088D01*
G01X18247Y25932D01*
G01X18351Y25828D01*
G01X18507Y25776D01*
G01X18611Y25776D01*
G01X18767Y25828D01*
G01X18871Y25932D01*
G01X18923Y26088D01*
G01X18923Y26244D01*
G01X18871Y26399D01*
G01X18819Y26451D01*
G01X18715Y26503D01*
G54D10*
G75*
G01X32791Y16688D02*
G02X31674Y18542I24184J15840D01*
G01*
G75*
G01X15418Y18567D02*
G02X14300Y16713I-25301J13986D01*
G01*
G75*
G01X31725Y6350D02*
G02X32842Y8204I25300J-13986D01*
G01*
G75*
G01X14249Y8230D02*
G02X15367Y6375I-24183J-15840D01*
G01*
G75*
G01X29693Y13513D02*
G02X29693Y14376I84J432D01*
G01*
G75*
G01X29667Y10389D02*
G02X29667Y11252I85J431D01*
G01*
G75*
G01X33579Y14376D02*
G02X33528Y14427I0J51D01*
G01*
G75*
G01X37490Y14986D02*
G02X37541Y15037I51J0D01*
G01*
G75*
G01X34823Y15164D02*
G02X34874Y15113I0J-51D01*
G01*
G75*
G01X34239Y15164D02*
G02X34265Y15138I0J-26D01*
G01*
G75*
G01X38453Y15166D02*
G02X38481Y15138I1J-27D01*
G01*
G75*
G01X33556Y15166D02*
G02X33630Y15090I-1J-74D01*
G01*
G75*
G01X30709Y20396D02*
G02X33556Y15166I-8216J-7863D01*
G01*
G75*
G01X33680Y9652D02*
G02X33630Y9703I0J51D01*
G01*
G75*
G01X35585Y10897D02*
G02X35560Y10922I0J25D01*
G01*
G75*
G01X13635Y5075D02*
G02X13647Y5075I6J665D01*
G01*
G75*
G01X13635Y18588D02*
G02X13647Y18588I6J664D01*
G01*
G75*
G01X33345Y18588D02*
G02X33358Y18588I6J664D01*
G01*
G75*
G01X33345Y4948D02*
G02X33358Y4948I6J665D01*
G01*
G75*
G01X16459Y4445D02*
G02X13378Y9563I7860J8218D01*
G01*
G75*
G01X33630Y9703D02*
G02X30782Y4473I-11063J2633D01*
G01*
G75*
G01X18491Y8230D02*
G02X18669Y5791I-58J-1230D01*
G01*
G75*
G01X18745Y19126D02*
G02X18567Y16688I-235J-1208D01*
G01*
G75*
G01X28270Y5817D02*
G02X28448Y8255I236J1208D01*
G01*
G75*
G01X28372Y16662D02*
G02X28194Y19101I58J1230D01*
G01*
G75*
G01X13462Y15392D02*
G02X16449Y20404I10935J-3121D01*
G01*
G75*
G01X14402Y12014D02*
G02X14402Y12751I368J369D01*
G01*
G75*
G01X17145Y30836D02*
G03X17145Y29566I0J-635D01*
G01*
G75*
G01X17564Y28042D02*
G03X17564Y28042I-190J0D01*
G01*
G75*
G01X25908Y36068D02*
G03X25908Y36068I-2540J0D01*
G01*
M00*
M02*
