G04 Layer: BottomLayer*
G04 EasyEDA v6.4.7, 2020-11-14T21:45:58--5:00*
G04 4beb7541176d43e18d54f8e2082e3679,79d071017cc24593b82b416037a8e878,10*
G04 Gerber Generator version 0.2*
G04 Scale: 100 percent, Rotated: No, Reflected: No *
G04 Dimensions in millimeters *
G04 leading zeros omitted , absolute positions ,3 integer and 3 decimal *
%FSLAX33Y33*%
%MOMM*%
G90*
D02*

%ADD11C,0.299999*%
%ADD12C,0.699999*%

%LPD*%
G36*
G01X23331Y46224D02*
G01X23114Y46225D01*
G01X22896Y46224D01*
G01X22679Y46221D01*
G01X22461Y46216D01*
G01X22244Y46209D01*
G01X22027Y46200D01*
G01X21810Y46188D01*
G01X21593Y46175D01*
G01X21376Y46159D01*
G01X21159Y46142D01*
G01X20943Y46123D01*
G01X20726Y46102D01*
G01X20511Y46078D01*
G01X20295Y46052D01*
G01X20079Y46025D01*
G01X19863Y45995D01*
G01X19648Y45964D01*
G01X19434Y45930D01*
G01X19219Y45894D01*
G01X19005Y45857D01*
G01X18791Y45817D01*
G01X18578Y45775D01*
G01X18365Y45732D01*
G01X18152Y45686D01*
G01X17941Y45639D01*
G01X17729Y45589D01*
G01X17518Y45537D01*
G01X17307Y45484D01*
G01X17097Y45428D01*
G01X16887Y45371D01*
G01X16678Y45311D01*
G01X16470Y45250D01*
G01X16262Y45186D01*
G01X16054Y45121D01*
G01X15848Y45053D01*
G01X15642Y44984D01*
G01X15436Y44913D01*
G01X15231Y44840D01*
G01X15028Y44764D01*
G01X14824Y44687D01*
G01X14622Y44609D01*
G01X14420Y44528D01*
G01X14219Y44445D01*
G01X14019Y44360D01*
G01X13819Y44274D01*
G01X13621Y44185D01*
G01X13423Y44095D01*
G01X13226Y44003D01*
G01X13030Y43909D01*
G01X12835Y43813D01*
G01X12641Y43716D01*
G01X12447Y43616D01*
G01X12255Y43515D01*
G01X12063Y43412D01*
G01X11873Y43308D01*
G01X11684Y43201D01*
G01X11495Y43092D01*
G01X11308Y42982D01*
G01X11121Y42870D01*
G01X10936Y42756D01*
G01X10752Y42641D01*
G01X10568Y42524D01*
G01X10387Y42405D01*
G01X10206Y42284D01*
G01X10026Y42162D01*
G01X9848Y42039D01*
G01X9670Y41913D01*
G01X9494Y41786D01*
G01X9319Y41657D01*
G01X9145Y41526D01*
G01X8972Y41394D01*
G01X8801Y41260D01*
G01X8631Y41125D01*
G01X8462Y40987D01*
G01X8295Y40849D01*
G01X8129Y40709D01*
G01X7964Y40567D01*
G01X7800Y40424D01*
G01X7638Y40279D01*
G01X7477Y40133D01*
G01X7318Y39985D01*
G01X7160Y39835D01*
G01X7003Y39684D01*
G01X6848Y39533D01*
G01X6694Y39379D01*
G01X6543Y39224D01*
G01X6392Y39067D01*
G01X6242Y38909D01*
G01X6094Y38750D01*
G01X5948Y38589D01*
G01X5803Y38427D01*
G01X5660Y38263D01*
G01X5518Y38098D01*
G01X5378Y37932D01*
G01X5240Y37765D01*
G01X5102Y37596D01*
G01X4967Y37426D01*
G01X4833Y37255D01*
G01X4701Y37082D01*
G01X4570Y36908D01*
G01X4441Y36733D01*
G01X4314Y36557D01*
G01X4188Y36379D01*
G01X4065Y36201D01*
G01X3943Y36021D01*
G01X3822Y35840D01*
G01X3703Y35659D01*
G01X3586Y35475D01*
G01X3471Y35291D01*
G01X3357Y35106D01*
G01X3245Y34919D01*
G01X3135Y34732D01*
G01X3026Y34544D01*
G01X2919Y34354D01*
G01X2815Y34164D01*
G01X2712Y33972D01*
G01X2611Y33780D01*
G01X2511Y33586D01*
G01X2414Y33392D01*
G01X2318Y33197D01*
G01X2224Y33001D01*
G01X2132Y32804D01*
G01X2042Y32606D01*
G01X1953Y32408D01*
G01X1867Y32208D01*
G01X1782Y32008D01*
G01X1699Y31807D01*
G01X1618Y31605D01*
G01X1540Y31403D01*
G01X1463Y31199D01*
G01X1387Y30996D01*
G01X1314Y30791D01*
G01X1243Y30585D01*
G01X1174Y30379D01*
G01X1106Y30173D01*
G01X1041Y29965D01*
G01X977Y29757D01*
G01X916Y29549D01*
G01X856Y29340D01*
G01X799Y29130D01*
G01X743Y28920D01*
G01X690Y28709D01*
G01X638Y28498D01*
G01X588Y28286D01*
G01X541Y28075D01*
G01X495Y27862D01*
G01X452Y27649D01*
G01X410Y27436D01*
G01X370Y27222D01*
G01X333Y27008D01*
G01X297Y26793D01*
G01X263Y26579D01*
G01X232Y26364D01*
G01X202Y26148D01*
G01X175Y25932D01*
G01X149Y25716D01*
G01X125Y25501D01*
G01X104Y25284D01*
G01X85Y25068D01*
G01X68Y24851D01*
G01X52Y24634D01*
G01X39Y24417D01*
G01X27Y24200D01*
G01X18Y23983D01*
G01X11Y23766D01*
G01X6Y23548D01*
G01X3Y23331D01*
G01X2Y23114D01*
G01X3Y22896D01*
G01X6Y22679D01*
G01X11Y22461D01*
G01X18Y22244D01*
G01X27Y22027D01*
G01X39Y21810D01*
G01X52Y21593D01*
G01X68Y21376D01*
G01X85Y21159D01*
G01X104Y20943D01*
G01X125Y20726D01*
G01X149Y20511D01*
G01X175Y20295D01*
G01X202Y20079D01*
G01X232Y19863D01*
G01X263Y19648D01*
G01X297Y19434D01*
G01X333Y19219D01*
G01X370Y19005D01*
G01X410Y18791D01*
G01X452Y18578D01*
G01X495Y18365D01*
G01X541Y18152D01*
G01X588Y17941D01*
G01X638Y17729D01*
G01X690Y17518D01*
G01X743Y17307D01*
G01X799Y17097D01*
G01X856Y16887D01*
G01X916Y16678D01*
G01X977Y16470D01*
G01X1041Y16262D01*
G01X1106Y16054D01*
G01X1174Y15848D01*
G01X1243Y15642D01*
G01X1314Y15436D01*
G01X1387Y15231D01*
G01X1463Y15028D01*
G01X1540Y14824D01*
G01X1618Y14622D01*
G01X1699Y14420D01*
G01X1782Y14219D01*
G01X1867Y14019D01*
G01X1953Y13819D01*
G01X2042Y13621D01*
G01X2132Y13423D01*
G01X2224Y13226D01*
G01X2318Y13030D01*
G01X2414Y12835D01*
G01X2511Y12641D01*
G01X2611Y12447D01*
G01X2712Y12255D01*
G01X2815Y12063D01*
G01X2919Y11873D01*
G01X3026Y11684D01*
G01X3135Y11495D01*
G01X3245Y11308D01*
G01X3357Y11121D01*
G01X3471Y10936D01*
G01X3586Y10752D01*
G01X3703Y10568D01*
G01X3822Y10387D01*
G01X3943Y10206D01*
G01X4065Y10026D01*
G01X4188Y9848D01*
G01X4314Y9670D01*
G01X4441Y9494D01*
G01X4570Y9319D01*
G01X4701Y9145D01*
G01X4833Y8972D01*
G01X4967Y8801D01*
G01X5102Y8631D01*
G01X5240Y8462D01*
G01X5378Y8295D01*
G01X5518Y8129D01*
G01X5660Y7964D01*
G01X5803Y7800D01*
G01X5948Y7638D01*
G01X6094Y7477D01*
G01X6242Y7318D01*
G01X6392Y7160D01*
G01X6543Y7003D01*
G01X6694Y6848D01*
G01X6848Y6694D01*
G01X7003Y6543D01*
G01X7160Y6392D01*
G01X7318Y6242D01*
G01X7477Y6094D01*
G01X7638Y5948D01*
G01X7800Y5803D01*
G01X7964Y5660D01*
G01X8129Y5518D01*
G01X8295Y5378D01*
G01X8462Y5240D01*
G01X8631Y5102D01*
G01X8801Y4967D01*
G01X8972Y4833D01*
G01X9145Y4701D01*
G01X9319Y4570D01*
G01X9494Y4441D01*
G01X9670Y4314D01*
G01X9848Y4188D01*
G01X10026Y4065D01*
G01X10206Y3943D01*
G01X10387Y3822D01*
G01X10568Y3703D01*
G01X10752Y3586D01*
G01X10936Y3471D01*
G01X11121Y3357D01*
G01X11308Y3245D01*
G01X11495Y3135D01*
G01X11684Y3026D01*
G01X11873Y2919D01*
G01X12063Y2815D01*
G01X12255Y2712D01*
G01X12447Y2611D01*
G01X12641Y2511D01*
G01X12835Y2414D01*
G01X13030Y2318D01*
G01X13226Y2224D01*
G01X13423Y2132D01*
G01X13621Y2042D01*
G01X13819Y1953D01*
G01X14019Y1867D01*
G01X14219Y1782D01*
G01X14420Y1699D01*
G01X14622Y1618D01*
G01X14824Y1540D01*
G01X15028Y1463D01*
G01X15231Y1387D01*
G01X15436Y1314D01*
G01X15642Y1243D01*
G01X15848Y1174D01*
G01X16054Y1106D01*
G01X16262Y1041D01*
G01X16470Y977D01*
G01X16678Y916D01*
G01X16887Y856D01*
G01X17097Y799D01*
G01X17307Y743D01*
G01X17518Y690D01*
G01X17729Y638D01*
G01X17941Y588D01*
G01X18152Y541D01*
G01X18365Y495D01*
G01X18578Y452D01*
G01X18791Y410D01*
G01X19005Y370D01*
G01X19219Y333D01*
G01X19434Y297D01*
G01X19648Y263D01*
G01X19863Y232D01*
G01X20079Y202D01*
G01X20295Y175D01*
G01X20511Y149D01*
G01X20726Y125D01*
G01X20943Y104D01*
G01X21159Y85D01*
G01X21376Y68D01*
G01X21593Y52D01*
G01X21810Y39D01*
G01X22027Y27D01*
G01X22244Y18D01*
G01X22461Y11D01*
G01X22679Y6D01*
G01X22896Y3D01*
G01X23114Y2D01*
G01X23331Y3D01*
G01X23548Y6D01*
G01X23766Y11D01*
G01X23983Y18D01*
G01X24200Y27D01*
G01X24417Y39D01*
G01X24634Y52D01*
G01X24851Y68D01*
G01X25068Y85D01*
G01X25284Y104D01*
G01X25501Y125D01*
G01X25716Y149D01*
G01X25932Y175D01*
G01X26148Y202D01*
G01X26364Y232D01*
G01X26579Y263D01*
G01X26793Y297D01*
G01X27008Y333D01*
G01X27222Y370D01*
G01X27436Y410D01*
G01X27649Y452D01*
G01X27862Y495D01*
G01X28075Y541D01*
G01X28286Y588D01*
G01X28498Y638D01*
G01X28709Y690D01*
G01X28920Y743D01*
G01X29130Y799D01*
G01X29340Y856D01*
G01X29549Y916D01*
G01X29757Y977D01*
G01X29965Y1041D01*
G01X30173Y1106D01*
G01X30379Y1174D01*
G01X30585Y1243D01*
G01X30791Y1314D01*
G01X30996Y1387D01*
G01X31199Y1463D01*
G01X31403Y1540D01*
G01X31605Y1618D01*
G01X31807Y1699D01*
G01X32008Y1782D01*
G01X32208Y1867D01*
G01X32408Y1953D01*
G01X32606Y2042D01*
G01X32804Y2132D01*
G01X33001Y2224D01*
G01X33197Y2318D01*
G01X33392Y2414D01*
G01X33586Y2511D01*
G01X33780Y2611D01*
G01X33972Y2712D01*
G01X34164Y2815D01*
G01X34354Y2919D01*
G01X34544Y3026D01*
G01X34732Y3135D01*
G01X34919Y3245D01*
G01X35106Y3357D01*
G01X35291Y3471D01*
G01X35475Y3586D01*
G01X35659Y3703D01*
G01X35840Y3822D01*
G01X36021Y3943D01*
G01X36201Y4065D01*
G01X36379Y4188D01*
G01X36557Y4314D01*
G01X36733Y4441D01*
G01X36908Y4570D01*
G01X37082Y4701D01*
G01X37255Y4833D01*
G01X37426Y4967D01*
G01X37596Y5102D01*
G01X37765Y5240D01*
G01X37932Y5378D01*
G01X38098Y5518D01*
G01X38263Y5660D01*
G01X38427Y5803D01*
G01X38589Y5948D01*
G01X38750Y6094D01*
G01X38909Y6242D01*
G01X39067Y6392D01*
G01X39224Y6543D01*
G01X39379Y6694D01*
G01X39533Y6848D01*
G01X39684Y7003D01*
G01X39835Y7160D01*
G01X39985Y7318D01*
G01X40133Y7477D01*
G01X40279Y7638D01*
G01X40424Y7800D01*
G01X40567Y7964D01*
G01X40709Y8129D01*
G01X40849Y8295D01*
G01X40987Y8462D01*
G01X41125Y8631D01*
G01X41260Y8801D01*
G01X41394Y8972D01*
G01X41526Y9145D01*
G01X41657Y9319D01*
G01X41786Y9494D01*
G01X41913Y9670D01*
G01X42039Y9848D01*
G01X42162Y10026D01*
G01X42284Y10206D01*
G01X42405Y10387D01*
G01X42524Y10568D01*
G01X42641Y10752D01*
G01X42756Y10936D01*
G01X42870Y11121D01*
G01X42982Y11308D01*
G01X43092Y11495D01*
G01X43201Y11684D01*
G01X43308Y11873D01*
G01X43412Y12063D01*
G01X43515Y12255D01*
G01X43616Y12447D01*
G01X43716Y12641D01*
G01X43813Y12835D01*
G01X43909Y13030D01*
G01X44003Y13226D01*
G01X44095Y13423D01*
G01X44185Y13621D01*
G01X44274Y13819D01*
G01X44360Y14019D01*
G01X44445Y14219D01*
G01X44528Y14420D01*
G01X44609Y14622D01*
G01X44687Y14824D01*
G01X44764Y15028D01*
G01X44840Y15231D01*
G01X44913Y15436D01*
G01X44984Y15642D01*
G01X45053Y15848D01*
G01X45121Y16054D01*
G01X45186Y16262D01*
G01X45250Y16470D01*
G01X45311Y16678D01*
G01X45371Y16887D01*
G01X45428Y17097D01*
G01X45484Y17307D01*
G01X45537Y17518D01*
G01X45589Y17729D01*
G01X45639Y17941D01*
G01X45686Y18152D01*
G01X45732Y18365D01*
G01X45775Y18578D01*
G01X45817Y18791D01*
G01X45857Y19005D01*
G01X45894Y19219D01*
G01X45930Y19434D01*
G01X45964Y19648D01*
G01X45995Y19863D01*
G01X46025Y20079D01*
G01X46052Y20295D01*
G01X46078Y20511D01*
G01X46102Y20726D01*
G01X46123Y20943D01*
G01X46142Y21159D01*
G01X46159Y21376D01*
G01X46175Y21593D01*
G01X46188Y21810D01*
G01X46200Y22027D01*
G01X46209Y22244D01*
G01X46216Y22461D01*
G01X46221Y22679D01*
G01X46224Y22896D01*
G01X46225Y23114D01*
G01X46224Y23331D01*
G01X46221Y23548D01*
G01X46216Y23766D01*
G01X46209Y23983D01*
G01X46200Y24200D01*
G01X46188Y24417D01*
G01X46175Y24634D01*
G01X46159Y24851D01*
G01X46142Y25068D01*
G01X46123Y25284D01*
G01X46102Y25501D01*
G01X46078Y25716D01*
G01X46052Y25932D01*
G01X46025Y26148D01*
G01X45995Y26364D01*
G01X45964Y26579D01*
G01X45930Y26793D01*
G01X45894Y27008D01*
G01X45857Y27222D01*
G01X45817Y27436D01*
G01X45775Y27649D01*
G01X45732Y27862D01*
G01X45686Y28075D01*
G01X45639Y28286D01*
G01X45589Y28498D01*
G01X45537Y28709D01*
G01X45484Y28920D01*
G01X45428Y29130D01*
G01X45371Y29340D01*
G01X45311Y29549D01*
G01X45250Y29757D01*
G01X45186Y29965D01*
G01X45121Y30173D01*
G01X45053Y30379D01*
G01X44984Y30585D01*
G01X44913Y30791D01*
G01X44840Y30996D01*
G01X44764Y31199D01*
G01X44687Y31403D01*
G01X44609Y31605D01*
G01X44528Y31807D01*
G01X44445Y32008D01*
G01X44360Y32208D01*
G01X44274Y32408D01*
G01X44185Y32606D01*
G01X44095Y32804D01*
G01X44003Y33001D01*
G01X43909Y33197D01*
G01X43813Y33392D01*
G01X43716Y33586D01*
G01X43616Y33780D01*
G01X43515Y33972D01*
G01X43412Y34164D01*
G01X43308Y34354D01*
G01X43201Y34544D01*
G01X43092Y34732D01*
G01X42982Y34919D01*
G01X42870Y35106D01*
G01X42756Y35291D01*
G01X42641Y35475D01*
G01X42524Y35659D01*
G01X42405Y35840D01*
G01X42284Y36021D01*
G01X42162Y36201D01*
G01X42039Y36379D01*
G01X41913Y36557D01*
G01X41786Y36733D01*
G01X41657Y36908D01*
G01X41526Y37082D01*
G01X41394Y37255D01*
G01X41260Y37426D01*
G01X41125Y37596D01*
G01X40987Y37765D01*
G01X40849Y37932D01*
G01X40709Y38098D01*
G01X40567Y38263D01*
G01X40424Y38427D01*
G01X40279Y38589D01*
G01X40133Y38750D01*
G01X39985Y38909D01*
G01X39835Y39067D01*
G01X39684Y39224D01*
G01X39533Y39379D01*
G01X39379Y39533D01*
G01X39224Y39684D01*
G01X39067Y39835D01*
G01X38909Y39985D01*
G01X38750Y40133D01*
G01X38589Y40279D01*
G01X38427Y40424D01*
G01X38263Y40567D01*
G01X38098Y40709D01*
G01X37932Y40849D01*
G01X37765Y40987D01*
G01X37596Y41125D01*
G01X37426Y41260D01*
G01X37255Y41394D01*
G01X37082Y41526D01*
G01X36908Y41657D01*
G01X36733Y41786D01*
G01X36557Y41913D01*
G01X36379Y42039D01*
G01X36201Y42162D01*
G01X36021Y42284D01*
G01X35840Y42405D01*
G01X35659Y42524D01*
G01X35475Y42641D01*
G01X35291Y42756D01*
G01X35106Y42870D01*
G01X34919Y42982D01*
G01X34732Y43092D01*
G01X34544Y43201D01*
G01X34354Y43308D01*
G01X34164Y43412D01*
G01X33972Y43515D01*
G01X33780Y43616D01*
G01X33586Y43716D01*
G01X33392Y43813D01*
G01X33197Y43909D01*
G01X33001Y44003D01*
G01X32804Y44095D01*
G01X32606Y44185D01*
G01X32408Y44274D01*
G01X32208Y44360D01*
G01X32008Y44445D01*
G01X31807Y44528D01*
G01X31605Y44609D01*
G01X31403Y44687D01*
G01X31199Y44764D01*
G01X30996Y44840D01*
G01X30791Y44913D01*
G01X30585Y44984D01*
G01X30379Y45053D01*
G01X30173Y45121D01*
G01X29965Y45186D01*
G01X29757Y45250D01*
G01X29549Y45311D01*
G01X29340Y45371D01*
G01X29130Y45428D01*
G01X28920Y45484D01*
G01X28709Y45537D01*
G01X28498Y45589D01*
G01X28286Y45639D01*
G01X28075Y45686D01*
G01X27862Y45732D01*
G01X27649Y45775D01*
G01X27436Y45817D01*
G01X27222Y45857D01*
G01X27008Y45894D01*
G01X26793Y45930D01*
G01X26579Y45964D01*
G01X26364Y45995D01*
G01X26148Y46025D01*
G01X25932Y46052D01*
G01X25716Y46078D01*
G01X25501Y46102D01*
G01X25284Y46123D01*
G01X25068Y46142D01*
G01X24851Y46159D01*
G01X24634Y46175D01*
G01X24417Y46188D01*
G01X24200Y46200D01*
G01X23983Y46209D01*
G01X23766Y46216D01*
G01X23548Y46221D01*
G01X23331Y46224D01*
G37*

%LPC*%
G36*
G01X7568Y11332D02*
G01X6500Y11332D01*
G01X6500Y10345D01*
G01X6501Y10322D01*
G01X6504Y10298D01*
G01X6510Y10275D01*
G01X6518Y10253D01*
G01X6527Y10231D01*
G01X6538Y10210D01*
G01X6552Y10191D01*
G01X6567Y10173D01*
G01X6584Y10156D01*
G01X6602Y10141D01*
G01X6622Y10127D01*
G01X6643Y10116D01*
G01X6664Y10106D01*
G01X6686Y10099D01*
G01X6710Y10093D01*
G01X6733Y10090D01*
G01X6757Y10089D01*
G01X7568Y10089D01*
G01X7568Y11332D01*
G37*
G36*
G01X10513Y11332D02*
G01X9445Y11332D01*
G01X9445Y10089D01*
G01X10257Y10089D01*
G01X10280Y10090D01*
G01X10304Y10093D01*
G01X10327Y10099D01*
G01X10349Y10106D01*
G01X10371Y10116D01*
G01X10392Y10127D01*
G01X10411Y10141D01*
G01X10430Y10156D01*
G01X10447Y10173D01*
G01X10461Y10191D01*
G01X10475Y10210D01*
G01X10486Y10231D01*
G01X10496Y10253D01*
G01X10503Y10275D01*
G01X10509Y10298D01*
G01X10512Y10322D01*
G01X10513Y10345D01*
G01X10513Y11332D01*
G37*
G36*
G01X36616Y25026D02*
G01X34616Y25026D01*
G01X34592Y25025D01*
G01X34568Y25022D01*
G01X34546Y25016D01*
G01X34523Y25009D01*
G01X34501Y24999D01*
G01X34481Y24988D01*
G01X34461Y24974D01*
G01X34443Y24959D01*
G01X34426Y24942D01*
G01X34411Y24925D01*
G01X34398Y24905D01*
G01X34386Y24884D01*
G01X34376Y24863D01*
G01X34369Y24840D01*
G01X34364Y24817D01*
G01X34360Y24793D01*
G01X34359Y24770D01*
G01X34359Y23570D01*
G01X34360Y23546D01*
G01X34364Y23522D01*
G01X34369Y23500D01*
G01X34376Y23477D01*
G01X34386Y23455D01*
G01X34398Y23435D01*
G01X34411Y23415D01*
G01X34426Y23397D01*
G01X34443Y23380D01*
G01X34461Y23365D01*
G01X34481Y23352D01*
G01X34501Y23340D01*
G01X34523Y23330D01*
G01X34546Y23323D01*
G01X34568Y23318D01*
G01X34592Y23314D01*
G01X34616Y23313D01*
G01X35107Y23313D01*
G01X35122Y23312D01*
G01X35136Y23309D01*
G01X35150Y23304D01*
G01X35162Y23297D01*
G01X35174Y23288D01*
G01X35184Y23278D01*
G01X35193Y23266D01*
G01X35200Y23254D01*
G01X35205Y23241D01*
G01X35208Y23226D01*
G01X35209Y23212D01*
G01X35209Y19502D01*
G01X35210Y19473D01*
G01X35213Y19444D01*
G01X35218Y19415D01*
G01X35225Y19387D01*
G01X35234Y19359D01*
G01X35246Y19333D01*
G01X35259Y19307D01*
G01X35273Y19282D01*
G01X35290Y19258D01*
G01X35308Y19235D01*
G01X35328Y19214D01*
G01X38044Y16498D01*
G01X38055Y16486D01*
G01X38063Y16472D01*
G01X38069Y16457D01*
G01X38073Y16442D01*
G01X38074Y16426D01*
G01X38075Y14904D01*
G01X38074Y14889D01*
G01X38071Y14875D01*
G01X38066Y14862D01*
G01X38059Y14849D01*
G01X38050Y14837D01*
G01X38040Y14827D01*
G01X38028Y14818D01*
G01X38016Y14811D01*
G01X38002Y14806D01*
G01X37988Y14803D01*
G01X37974Y14802D01*
G01X36732Y14802D01*
G01X36709Y14801D01*
G01X36685Y14798D01*
G01X36662Y14792D01*
G01X36640Y14785D01*
G01X36618Y14775D01*
G01X36597Y14764D01*
G01X36578Y14750D01*
G01X36559Y14735D01*
G01X36542Y14718D01*
G01X36528Y14700D01*
G01X36514Y14681D01*
G01X36503Y14660D01*
G01X36493Y14638D01*
G01X36486Y14616D01*
G01X36480Y14593D01*
G01X36477Y14569D01*
G01X36476Y14546D01*
G01X36476Y10345D01*
G01X36477Y10322D01*
G01X36480Y10298D01*
G01X36486Y10275D01*
G01X36493Y10253D01*
G01X36503Y10231D01*
G01X36514Y10210D01*
G01X36528Y10191D01*
G01X36542Y10173D01*
G01X36559Y10156D01*
G01X36578Y10141D01*
G01X36597Y10127D01*
G01X36618Y10116D01*
G01X36640Y10106D01*
G01X36662Y10099D01*
G01X36685Y10093D01*
G01X36709Y10090D01*
G01X36732Y10089D01*
G01X40232Y10089D01*
G01X40256Y10090D01*
G01X40279Y10093D01*
G01X40303Y10099D01*
G01X40325Y10106D01*
G01X40346Y10116D01*
G01X40367Y10127D01*
G01X40387Y10141D01*
G01X40405Y10156D01*
G01X40422Y10173D01*
G01X40437Y10191D01*
G01X40451Y10210D01*
G01X40462Y10231D01*
G01X40471Y10253D01*
G01X40479Y10275D01*
G01X40485Y10298D01*
G01X40488Y10322D01*
G01X40489Y10345D01*
G01X40489Y14546D01*
G01X40488Y14569D01*
G01X40485Y14593D01*
G01X40479Y14616D01*
G01X40471Y14638D01*
G01X40462Y14660D01*
G01X40451Y14681D01*
G01X40437Y14700D01*
G01X40422Y14718D01*
G01X40405Y14735D01*
G01X40387Y14750D01*
G01X40367Y14764D01*
G01X40346Y14775D01*
G01X40325Y14785D01*
G01X40303Y14792D01*
G01X40279Y14798D01*
G01X40256Y14801D01*
G01X40232Y14802D01*
G01X38990Y14802D01*
G01X38975Y14803D01*
G01X38961Y14806D01*
G01X38947Y14811D01*
G01X38935Y14818D01*
G01X38923Y14827D01*
G01X38913Y14837D01*
G01X38904Y14849D01*
G01X38897Y14862D01*
G01X38892Y14875D01*
G01X38889Y14889D01*
G01X38888Y14904D01*
G01X38887Y16637D01*
G01X38886Y16666D01*
G01X38883Y16694D01*
G01X38878Y16723D01*
G01X38871Y16751D01*
G01X38862Y16779D01*
G01X38850Y16806D01*
G01X38837Y16832D01*
G01X38822Y16856D01*
G01X38806Y16880D01*
G01X38788Y16903D01*
G01X38768Y16924D01*
G01X36052Y19640D01*
G01X36041Y19652D01*
G01X36033Y19666D01*
G01X36027Y19681D01*
G01X36023Y19696D01*
G01X36022Y19712D01*
G01X36022Y23212D01*
G01X36023Y23226D01*
G01X36026Y23241D01*
G01X36031Y23254D01*
G01X36038Y23266D01*
G01X36047Y23278D01*
G01X36057Y23288D01*
G01X36069Y23297D01*
G01X36081Y23304D01*
G01X36095Y23309D01*
G01X36109Y23312D01*
G01X36123Y23313D01*
G01X36616Y23313D01*
G01X36640Y23314D01*
G01X36663Y23318D01*
G01X36686Y23323D01*
G01X36708Y23330D01*
G01X36730Y23340D01*
G01X36751Y23352D01*
G01X36770Y23365D01*
G01X36788Y23380D01*
G01X36805Y23397D01*
G01X36820Y23415D01*
G01X36834Y23435D01*
G01X36845Y23455D01*
G01X36855Y23477D01*
G01X36863Y23500D01*
G01X36868Y23522D01*
G01X36871Y23546D01*
G01X36872Y23570D01*
G01X36872Y24770D01*
G01X36871Y24793D01*
G01X36868Y24817D01*
G01X36863Y24840D01*
G01X36855Y24863D01*
G01X36845Y24884D01*
G01X36834Y24905D01*
G01X36820Y24925D01*
G01X36805Y24942D01*
G01X36788Y24959D01*
G01X36770Y24974D01*
G01X36751Y24988D01*
G01X36730Y24999D01*
G01X36708Y25009D01*
G01X36686Y25016D01*
G01X36663Y25022D01*
G01X36640Y25025D01*
G01X36616Y25026D01*
G37*
G36*
G01X10257Y14802D02*
G01X9445Y14802D01*
G01X9445Y13559D01*
G01X10513Y13559D01*
G01X10513Y14546D01*
G01X10512Y14569D01*
G01X10509Y14593D01*
G01X10503Y14616D01*
G01X10496Y14638D01*
G01X10486Y14660D01*
G01X10475Y14681D01*
G01X10461Y14700D01*
G01X10447Y14718D01*
G01X10430Y14735D01*
G01X10411Y14750D01*
G01X10392Y14764D01*
G01X10371Y14775D01*
G01X10349Y14785D01*
G01X10327Y14792D01*
G01X10304Y14798D01*
G01X10280Y14801D01*
G01X10257Y14802D01*
G37*
G36*
G01X7568Y14802D02*
G01X6757Y14802D01*
G01X6733Y14801D01*
G01X6710Y14798D01*
G01X6686Y14792D01*
G01X6664Y14785D01*
G01X6643Y14775D01*
G01X6622Y14764D01*
G01X6602Y14750D01*
G01X6584Y14735D01*
G01X6567Y14718D01*
G01X6552Y14700D01*
G01X6538Y14681D01*
G01X6527Y14660D01*
G01X6518Y14638D01*
G01X6510Y14616D01*
G01X6504Y14593D01*
G01X6501Y14569D01*
G01X6500Y14546D01*
G01X6500Y13559D01*
G01X7568Y13559D01*
G01X7568Y14802D01*
G37*
G36*
G01X14132Y28558D02*
G01X14097Y28559D01*
G01X14061Y28558D01*
G01X14026Y28555D01*
G01X13990Y28550D01*
G01X13956Y28543D01*
G01X13922Y28534D01*
G01X13888Y28522D01*
G01X13855Y28509D01*
G01X13823Y28494D01*
G01X13792Y28477D01*
G01X13761Y28459D01*
G01X13732Y28438D01*
G01X13705Y28416D01*
G01X13678Y28392D01*
G01X13653Y28367D01*
G01X13630Y28340D01*
G01X13608Y28312D01*
G01X13587Y28283D01*
G01X13569Y28253D01*
G01X13552Y28221D01*
G01X13544Y28208D01*
G01X13534Y28195D01*
G01X13522Y28184D01*
G01X13508Y28176D01*
G01X13494Y28170D01*
G01X13478Y28166D01*
G01X13462Y28165D01*
G01X13445Y28166D01*
G01X13430Y28170D01*
G01X13415Y28176D01*
G01X13401Y28184D01*
G01X13389Y28195D01*
G01X13379Y28208D01*
G01X13371Y28221D01*
G01X13354Y28253D01*
G01X13335Y28283D01*
G01X13315Y28313D01*
G01X13292Y28341D01*
G01X13269Y28368D01*
G01X13244Y28393D01*
G01X13217Y28417D01*
G01X13189Y28439D01*
G01X13160Y28460D01*
G01X13129Y28478D01*
G01X13097Y28496D01*
G01X13065Y28510D01*
G01X13065Y27817D01*
G01X13388Y27817D01*
G01X13403Y27816D01*
G01X13417Y27813D01*
G01X13431Y27807D01*
G01X13443Y27800D01*
G01X13455Y27792D01*
G01X13465Y27782D01*
G01X13474Y27770D01*
G01X13481Y27757D01*
G01X13486Y27743D01*
G01X13489Y27729D01*
G01X13490Y27715D01*
G01X13490Y26691D01*
G01X13489Y26677D01*
G01X13486Y26662D01*
G01X13481Y26649D01*
G01X13474Y26636D01*
G01X13465Y26624D01*
G01X13455Y26614D01*
G01X13443Y26605D01*
G01X13431Y26598D01*
G01X13417Y26593D01*
G01X13403Y26590D01*
G01X13388Y26589D01*
G01X13065Y26589D01*
G01X13065Y25895D01*
G01X13097Y25910D01*
G01X13129Y25927D01*
G01X13160Y25946D01*
G01X13189Y25966D01*
G01X13217Y25989D01*
G01X13244Y26013D01*
G01X13269Y26038D01*
G01X13292Y26064D01*
G01X13315Y26093D01*
G01X13335Y26122D01*
G01X13354Y26153D01*
G01X13371Y26184D01*
G01X13379Y26198D01*
G01X13389Y26211D01*
G01X13401Y26221D01*
G01X13415Y26230D01*
G01X13430Y26236D01*
G01X13445Y26240D01*
G01X13462Y26241D01*
G01X13478Y26240D01*
G01X13494Y26236D01*
G01X13508Y26230D01*
G01X13522Y26221D01*
G01X13534Y26211D01*
G01X13544Y26198D01*
G01X13552Y26184D01*
G01X13569Y26153D01*
G01X13587Y26123D01*
G01X13608Y26093D01*
G01X13630Y26065D01*
G01X13653Y26039D01*
G01X13678Y26014D01*
G01X13705Y25990D01*
G01X13732Y25968D01*
G01X13761Y25947D01*
G01X13792Y25929D01*
G01X13823Y25912D01*
G01X13855Y25897D01*
G01X13888Y25884D01*
G01X13922Y25872D01*
G01X13956Y25863D01*
G01X13990Y25856D01*
G01X14026Y25851D01*
G01X14061Y25848D01*
G01X14097Y25847D01*
G01X14132Y25848D01*
G01X14168Y25851D01*
G01X14203Y25856D01*
G01X14237Y25863D01*
G01X14272Y25872D01*
G01X14305Y25884D01*
G01X14338Y25897D01*
G01X14370Y25912D01*
G01X14401Y25929D01*
G01X14432Y25947D01*
G01X14461Y25968D01*
G01X14488Y25990D01*
G01X14515Y26014D01*
G01X14540Y26039D01*
G01X14563Y26065D01*
G01X14585Y26093D01*
G01X14606Y26123D01*
G01X14624Y26153D01*
G01X14641Y26184D01*
G01X14649Y26198D01*
G01X14659Y26211D01*
G01X14671Y26221D01*
G01X14685Y26230D01*
G01X14700Y26236D01*
G01X14715Y26240D01*
G01X14732Y26241D01*
G01X14748Y26240D01*
G01X14764Y26236D01*
G01X14778Y26230D01*
G01X14792Y26221D01*
G01X14804Y26211D01*
G01X14814Y26198D01*
G01X14822Y26184D01*
G01X14839Y26153D01*
G01X14857Y26123D01*
G01X14878Y26093D01*
G01X14900Y26065D01*
G01X14923Y26039D01*
G01X14948Y26014D01*
G01X14975Y25990D01*
G01X15002Y25968D01*
G01X15031Y25947D01*
G01X15062Y25929D01*
G01X15093Y25912D01*
G01X15125Y25897D01*
G01X15158Y25884D01*
G01X15192Y25872D01*
G01X15226Y25863D01*
G01X15260Y25856D01*
G01X15296Y25851D01*
G01X15331Y25848D01*
G01X15367Y25847D01*
G01X15402Y25848D01*
G01X15438Y25851D01*
G01X15473Y25856D01*
G01X15507Y25863D01*
G01X15542Y25872D01*
G01X15575Y25884D01*
G01X15608Y25897D01*
G01X15640Y25912D01*
G01X15671Y25929D01*
G01X15702Y25947D01*
G01X15731Y25968D01*
G01X15758Y25990D01*
G01X15785Y26014D01*
G01X15810Y26039D01*
G01X15833Y26065D01*
G01X15855Y26093D01*
G01X15876Y26123D01*
G01X15894Y26153D01*
G01X15911Y26184D01*
G01X15919Y26198D01*
G01X15929Y26211D01*
G01X15941Y26221D01*
G01X15955Y26230D01*
G01X15970Y26236D01*
G01X15985Y26240D01*
G01X16002Y26241D01*
G01X16018Y26240D01*
G01X16034Y26236D01*
G01X16048Y26230D01*
G01X16062Y26221D01*
G01X16074Y26211D01*
G01X16084Y26198D01*
G01X16092Y26184D01*
G01X16110Y26151D01*
G01X16130Y26119D01*
G01X16152Y26088D01*
G01X16176Y26058D01*
G01X16201Y26030D01*
G01X16211Y26018D01*
G01X16219Y26005D01*
G01X16225Y25990D01*
G01X16229Y25975D01*
G01X16230Y25960D01*
G01X16230Y24992D01*
G01X16229Y24976D01*
G01X16225Y24961D01*
G01X16219Y24946D01*
G01X16211Y24933D01*
G01X16201Y24921D01*
G01X16177Y24895D01*
G01X16154Y24867D01*
G01X16114Y24807D01*
G01X16097Y24776D01*
G01X16081Y24743D01*
G01X16068Y24710D01*
G01X16056Y24676D01*
G01X16047Y24641D01*
G01X16040Y24606D01*
G01X16034Y24570D01*
G01X16031Y24534D01*
G01X16030Y24498D01*
G01X16030Y22999D01*
G01X16031Y22963D01*
G01X16034Y22928D01*
G01X16039Y22893D01*
G01X16046Y22858D01*
G01X16055Y22824D01*
G01X16067Y22791D01*
G01X16080Y22758D01*
G01X16094Y22726D01*
G01X16111Y22695D01*
G01X16130Y22665D01*
G01X16150Y22636D01*
G01X16172Y22609D01*
G01X16196Y22582D01*
G01X16220Y22557D01*
G01X16247Y22534D01*
G01X16274Y22512D01*
G01X16303Y22492D01*
G01X16333Y22473D01*
G01X16364Y22457D01*
G01X16396Y22441D01*
G01X16429Y22429D01*
G01X16463Y22418D01*
G01X16497Y22408D01*
G01X16531Y22401D01*
G01X16566Y22396D01*
G01X16601Y22393D01*
G01X16637Y22392D01*
G01X16672Y22393D01*
G01X16707Y22396D01*
G01X16742Y22401D01*
G01X16776Y22408D01*
G01X16810Y22418D01*
G01X16844Y22429D01*
G01X16877Y22441D01*
G01X16909Y22457D01*
G01X16940Y22473D01*
G01X16970Y22492D01*
G01X16999Y22512D01*
G01X17026Y22534D01*
G01X17053Y22557D01*
G01X17077Y22582D01*
G01X17101Y22609D01*
G01X17123Y22636D01*
G01X17143Y22665D01*
G01X17162Y22695D01*
G01X17179Y22726D01*
G01X17193Y22758D01*
G01X17206Y22791D01*
G01X17218Y22824D01*
G01X17227Y22858D01*
G01X17234Y22893D01*
G01X17239Y22928D01*
G01X17242Y22963D01*
G01X17243Y22999D01*
G01X17243Y24498D01*
G01X17242Y24534D01*
G01X17239Y24570D01*
G01X17233Y24606D01*
G01X17226Y24641D01*
G01X17217Y24676D01*
G01X17205Y24710D01*
G01X17192Y24743D01*
G01X17176Y24776D01*
G01X17159Y24807D01*
G01X17119Y24867D01*
G01X17096Y24895D01*
G01X17072Y24921D01*
G01X17062Y24933D01*
G01X17054Y24946D01*
G01X17048Y24961D01*
G01X17044Y24976D01*
G01X17043Y24992D01*
G01X17043Y25960D01*
G01X17044Y25975D01*
G01X17048Y25990D01*
G01X17054Y26005D01*
G01X17062Y26018D01*
G01X17072Y26030D01*
G01X17096Y26057D01*
G01X17119Y26085D01*
G01X17139Y26114D01*
G01X17159Y26144D01*
G01X17176Y26176D01*
G01X17192Y26208D01*
G01X17205Y26242D01*
G01X17217Y26276D01*
G01X17226Y26310D01*
G01X17233Y26345D01*
G01X17239Y26381D01*
G01X17242Y26417D01*
G01X17243Y26453D01*
G01X17243Y27953D01*
G01X17242Y27988D01*
G01X17239Y28023D01*
G01X17234Y28058D01*
G01X17227Y28093D01*
G01X17218Y28127D01*
G01X17206Y28160D01*
G01X17193Y28193D01*
G01X17179Y28225D01*
G01X17162Y28256D01*
G01X17143Y28286D01*
G01X17123Y28315D01*
G01X17101Y28343D01*
G01X17077Y28369D01*
G01X17053Y28394D01*
G01X17026Y28418D01*
G01X16999Y28439D01*
G01X16970Y28460D01*
G01X16940Y28478D01*
G01X16909Y28495D01*
G01X16877Y28510D01*
G01X16844Y28523D01*
G01X16810Y28534D01*
G01X16776Y28543D01*
G01X16742Y28550D01*
G01X16707Y28555D01*
G01X16672Y28558D01*
G01X16637Y28559D01*
G01X16601Y28558D01*
G01X16566Y28555D01*
G01X16530Y28550D01*
G01X16496Y28543D01*
G01X16462Y28534D01*
G01X16428Y28522D01*
G01X16395Y28509D01*
G01X16363Y28494D01*
G01X16332Y28477D01*
G01X16301Y28459D01*
G01X16272Y28438D01*
G01X16245Y28416D01*
G01X16218Y28392D01*
G01X16193Y28367D01*
G01X16170Y28340D01*
G01X16148Y28312D01*
G01X16127Y28283D01*
G01X16109Y28253D01*
G01X16092Y28221D01*
G01X16084Y28208D01*
G01X16074Y28195D01*
G01X16062Y28184D01*
G01X16048Y28176D01*
G01X16034Y28170D01*
G01X16018Y28166D01*
G01X16002Y28165D01*
G01X15985Y28166D01*
G01X15970Y28170D01*
G01X15955Y28176D01*
G01X15941Y28184D01*
G01X15929Y28195D01*
G01X15919Y28208D01*
G01X15911Y28221D01*
G01X15894Y28253D01*
G01X15876Y28283D01*
G01X15855Y28312D01*
G01X15833Y28340D01*
G01X15810Y28367D01*
G01X15785Y28392D01*
G01X15758Y28416D01*
G01X15731Y28438D01*
G01X15702Y28459D01*
G01X15671Y28477D01*
G01X15640Y28494D01*
G01X15608Y28509D01*
G01X15575Y28522D01*
G01X15542Y28534D01*
G01X15507Y28543D01*
G01X15473Y28550D01*
G01X15438Y28555D01*
G01X15402Y28558D01*
G01X15367Y28559D01*
G01X15331Y28558D01*
G01X15296Y28555D01*
G01X15260Y28550D01*
G01X15226Y28543D01*
G01X15192Y28534D01*
G01X15158Y28522D01*
G01X15125Y28509D01*
G01X15093Y28494D01*
G01X15062Y28477D01*
G01X15031Y28459D01*
G01X15002Y28438D01*
G01X14975Y28416D01*
G01X14948Y28392D01*
G01X14923Y28367D01*
G01X14900Y28340D01*
G01X14878Y28312D01*
G01X14857Y28283D01*
G01X14839Y28253D01*
G01X14822Y28221D01*
G01X14814Y28208D01*
G01X14804Y28195D01*
G01X14792Y28184D01*
G01X14778Y28176D01*
G01X14764Y28170D01*
G01X14748Y28166D01*
G01X14732Y28165D01*
G01X14715Y28166D01*
G01X14700Y28170D01*
G01X14685Y28176D01*
G01X14671Y28184D01*
G01X14659Y28195D01*
G01X14649Y28208D01*
G01X14641Y28221D01*
G01X14624Y28253D01*
G01X14606Y28283D01*
G01X14585Y28312D01*
G01X14563Y28340D01*
G01X14540Y28367D01*
G01X14515Y28392D01*
G01X14488Y28416D01*
G01X14461Y28438D01*
G01X14432Y28459D01*
G01X14401Y28477D01*
G01X14370Y28494D01*
G01X14338Y28509D01*
G01X14305Y28522D01*
G01X14272Y28534D01*
G01X14237Y28543D01*
G01X14203Y28550D01*
G01X14168Y28555D01*
G01X14132Y28558D01*
G37*
G36*
G01X13433Y23135D02*
G01X13065Y23135D01*
G01X13065Y22441D01*
G01X13097Y22456D01*
G01X13128Y22472D01*
G01X13158Y22491D01*
G01X13188Y22511D01*
G01X13215Y22533D01*
G01X13242Y22556D01*
G01X13267Y22582D01*
G01X13290Y22608D01*
G01X13313Y22635D01*
G01X13333Y22664D01*
G01X13351Y22694D01*
G01X13368Y22725D01*
G01X13383Y22758D01*
G01X13396Y22790D01*
G01X13408Y22824D01*
G01X13417Y22858D01*
G01X13424Y22893D01*
G01X13429Y22928D01*
G01X13432Y22963D01*
G01X13433Y22999D01*
G01X13433Y23135D01*
G37*
G36*
G01X12588Y23135D02*
G01X12220Y23135D01*
G01X12220Y22999D01*
G01X12221Y22963D01*
G01X12224Y22928D01*
G01X12229Y22893D01*
G01X12236Y22858D01*
G01X12245Y22824D01*
G01X12257Y22790D01*
G01X12270Y22758D01*
G01X12285Y22725D01*
G01X12302Y22694D01*
G01X12320Y22664D01*
G01X12341Y22635D01*
G01X12363Y22608D01*
G01X12386Y22582D01*
G01X12411Y22556D01*
G01X12438Y22533D01*
G01X12465Y22511D01*
G01X12495Y22491D01*
G01X12525Y22472D01*
G01X12556Y22456D01*
G01X12588Y22441D01*
G01X12588Y23135D01*
G37*
G36*
G01X30915Y25026D02*
G01X28916Y25026D01*
G01X28892Y25025D01*
G01X28869Y25022D01*
G01X28845Y25016D01*
G01X28823Y25009D01*
G01X28801Y24999D01*
G01X28781Y24988D01*
G01X28761Y24974D01*
G01X28743Y24959D01*
G01X28726Y24942D01*
G01X28711Y24925D01*
G01X28697Y24905D01*
G01X28686Y24884D01*
G01X28677Y24863D01*
G01X28669Y24840D01*
G01X28663Y24817D01*
G01X28660Y24793D01*
G01X28659Y24770D01*
G01X28659Y23570D01*
G01X28660Y23546D01*
G01X28663Y23522D01*
G01X28669Y23500D01*
G01X28677Y23477D01*
G01X28686Y23455D01*
G01X28697Y23435D01*
G01X28711Y23415D01*
G01X28726Y23397D01*
G01X28743Y23380D01*
G01X28761Y23365D01*
G01X28781Y23352D01*
G01X28801Y23340D01*
G01X28823Y23330D01*
G01X28845Y23323D01*
G01X28869Y23318D01*
G01X28892Y23314D01*
G01X28916Y23313D01*
G01X30915Y23313D01*
G01X30939Y23314D01*
G01X30963Y23318D01*
G01X30986Y23323D01*
G01X31008Y23330D01*
G01X31030Y23340D01*
G01X31050Y23352D01*
G01X31070Y23365D01*
G01X31089Y23380D01*
G01X31105Y23397D01*
G01X31120Y23415D01*
G01X31134Y23435D01*
G01X31145Y23455D01*
G01X31155Y23477D01*
G01X31162Y23500D01*
G01X31168Y23522D01*
G01X31171Y23546D01*
G01X31172Y23570D01*
G01X31172Y24770D01*
G01X31171Y24793D01*
G01X31168Y24817D01*
G01X31162Y24840D01*
G01X31155Y24863D01*
G01X31145Y24884D01*
G01X31134Y24905D01*
G01X31120Y24925D01*
G01X31105Y24942D01*
G01X31089Y24959D01*
G01X31070Y24974D01*
G01X31050Y24988D01*
G01X31030Y24999D01*
G01X31008Y25009D01*
G01X30986Y25016D01*
G01X30963Y25022D01*
G01X30939Y25025D01*
G01X30915Y25026D01*
G37*
G36*
G01X5658Y23793D02*
G01X5217Y23793D01*
G01X5217Y23583D01*
G01X5218Y23560D01*
G01X5221Y23536D01*
G01X5226Y23513D01*
G01X5234Y23491D01*
G01X5244Y23469D01*
G01X5255Y23448D01*
G01X5268Y23429D01*
G01X5284Y23411D01*
G01X5300Y23394D01*
G01X5319Y23379D01*
G01X5338Y23365D01*
G01X5359Y23354D01*
G01X5381Y23344D01*
G01X5403Y23337D01*
G01X5426Y23331D01*
G01X5449Y23328D01*
G01X5473Y23327D01*
G01X5658Y23327D01*
G01X5658Y23793D01*
G37*
G36*
G01X6720Y23793D02*
G01X6280Y23793D01*
G01X6280Y23327D01*
G01X6464Y23327D01*
G01X6488Y23328D01*
G01X6511Y23331D01*
G01X6534Y23337D01*
G01X6556Y23344D01*
G01X6578Y23354D01*
G01X6599Y23365D01*
G01X6618Y23379D01*
G01X6637Y23394D01*
G01X6653Y23411D01*
G01X6669Y23429D01*
G01X6682Y23448D01*
G01X6693Y23469D01*
G01X6703Y23491D01*
G01X6711Y23513D01*
G01X6716Y23536D01*
G01X6719Y23560D01*
G01X6720Y23583D01*
G01X6720Y23793D01*
G37*
G36*
G01X40328Y23793D02*
G01X39888Y23793D01*
G01X39888Y23583D01*
G01X39889Y23560D01*
G01X39892Y23536D01*
G01X39897Y23513D01*
G01X39905Y23491D01*
G01X39915Y23469D01*
G01X39926Y23448D01*
G01X39939Y23429D01*
G01X39955Y23411D01*
G01X39971Y23394D01*
G01X39990Y23379D01*
G01X40009Y23365D01*
G01X40030Y23354D01*
G01X40052Y23344D01*
G01X40074Y23337D01*
G01X40097Y23331D01*
G01X40120Y23328D01*
G01X40144Y23327D01*
G01X40328Y23327D01*
G01X40328Y23793D01*
G37*
G36*
G01X41391Y23793D02*
G01X40951Y23793D01*
G01X40951Y23327D01*
G01X41135Y23327D01*
G01X41159Y23328D01*
G01X41182Y23331D01*
G01X41205Y23337D01*
G01X41227Y23344D01*
G01X41249Y23354D01*
G01X41270Y23365D01*
G01X41289Y23379D01*
G01X41308Y23394D01*
G01X41324Y23411D01*
G01X41340Y23429D01*
G01X41353Y23448D01*
G01X41364Y23469D01*
G01X41374Y23491D01*
G01X41382Y23513D01*
G01X41387Y23536D01*
G01X41390Y23560D01*
G01X41391Y23583D01*
G01X41391Y23793D01*
G37*
G36*
G01X13097Y25041D02*
G01X13065Y25056D01*
G01X13065Y24362D01*
G01X13433Y24362D01*
G01X13433Y24498D01*
G01X13432Y24534D01*
G01X13429Y24569D01*
G01X13424Y24604D01*
G01X13417Y24639D01*
G01X13408Y24673D01*
G01X13396Y24707D01*
G01X13383Y24739D01*
G01X13368Y24772D01*
G01X13351Y24803D01*
G01X13333Y24833D01*
G01X13313Y24862D01*
G01X13290Y24889D01*
G01X13267Y24915D01*
G01X13242Y24941D01*
G01X13215Y24964D01*
G01X13188Y24986D01*
G01X13158Y25006D01*
G01X13128Y25025D01*
G01X13097Y25041D01*
G37*
G36*
G01X12588Y24362D02*
G01X12588Y25056D01*
G01X12556Y25041D01*
G01X12525Y25025D01*
G01X12495Y25006D01*
G01X12465Y24986D01*
G01X12438Y24964D01*
G01X12411Y24941D01*
G01X12386Y24915D01*
G01X12363Y24889D01*
G01X12341Y24862D01*
G01X12320Y24833D01*
G01X12302Y24803D01*
G01X12285Y24772D01*
G01X12270Y24739D01*
G01X12257Y24707D01*
G01X12245Y24673D01*
G01X12236Y24639D01*
G01X12229Y24604D01*
G01X12224Y24569D01*
G01X12221Y24534D01*
G01X12220Y24498D01*
G01X12220Y24362D01*
G01X12588Y24362D01*
G37*
G36*
G01X17145Y39268D02*
G01X14605Y39268D01*
G01X14576Y39267D01*
G01X14547Y39264D01*
G01X14518Y39259D01*
G01X14490Y39252D01*
G01X14462Y39243D01*
G01X14436Y39231D01*
G01X14409Y39218D01*
G01X14385Y39203D01*
G01X14361Y39187D01*
G01X14338Y39169D01*
G01X14317Y39149D01*
G01X13809Y38641D01*
G01X13789Y38620D01*
G01X13771Y38597D01*
G01X13755Y38573D01*
G01X13740Y38549D01*
G01X13727Y38522D01*
G01X13716Y38496D01*
G01X13706Y38468D01*
G01X13699Y38440D01*
G01X13694Y38411D01*
G01X13691Y38382D01*
G01X13690Y38354D01*
G01X13690Y38200D01*
G01X13689Y38184D01*
G01X13685Y38169D01*
G01X13679Y38154D01*
G01X13671Y38141D01*
G01X13661Y38129D01*
G01X13636Y38101D01*
G01X13612Y38072D01*
G01X13590Y38041D01*
G01X13570Y38009D01*
G01X13552Y37975D01*
G01X13544Y37961D01*
G01X13534Y37949D01*
G01X13522Y37938D01*
G01X13508Y37930D01*
G01X13494Y37923D01*
G01X13478Y37920D01*
G01X13462Y37918D01*
G01X13445Y37920D01*
G01X13430Y37923D01*
G01X13415Y37930D01*
G01X13401Y37938D01*
G01X13389Y37949D01*
G01X13379Y37961D01*
G01X13371Y37975D01*
G01X13354Y38007D01*
G01X13336Y38037D01*
G01X13315Y38066D01*
G01X13293Y38094D01*
G01X13270Y38120D01*
G01X13245Y38146D01*
G01X13218Y38170D01*
G01X13191Y38191D01*
G01X13162Y38212D01*
G01X13131Y38231D01*
G01X13100Y38248D01*
G01X13068Y38263D01*
G01X13035Y38276D01*
G01X13002Y38287D01*
G01X12967Y38297D01*
G01X12933Y38304D01*
G01X12898Y38309D01*
G01X12862Y38312D01*
G01X12827Y38313D01*
G01X12791Y38312D01*
G01X12756Y38309D01*
G01X12721Y38304D01*
G01X12687Y38297D01*
G01X12653Y38287D01*
G01X12619Y38276D01*
G01X12586Y38264D01*
G01X12554Y38248D01*
G01X12523Y38232D01*
G01X12493Y38213D01*
G01X12464Y38193D01*
G01X12437Y38171D01*
G01X12410Y38148D01*
G01X12386Y38123D01*
G01X12362Y38096D01*
G01X12340Y38069D01*
G01X12320Y38040D01*
G01X12301Y38010D01*
G01X12284Y37979D01*
G01X12270Y37947D01*
G01X12257Y37914D01*
G01X12245Y37881D01*
G01X12236Y37847D01*
G01X12229Y37812D01*
G01X12224Y37777D01*
G01X12221Y37742D01*
G01X12220Y37706D01*
G01X12220Y36207D01*
G01X12221Y36171D01*
G01X12224Y36135D01*
G01X12230Y36099D01*
G01X12237Y36064D01*
G01X12246Y36029D01*
G01X12258Y35995D01*
G01X12271Y35962D01*
G01X12287Y35929D01*
G01X12304Y35898D01*
G01X12344Y35838D01*
G01X12367Y35810D01*
G01X12391Y35784D01*
G01X12401Y35772D01*
G01X12409Y35759D01*
G01X12415Y35744D01*
G01X12419Y35729D01*
G01X12420Y35713D01*
G01X12420Y34491D01*
G01X12419Y34476D01*
G01X12415Y34461D01*
G01X12409Y34446D01*
G01X12401Y34433D01*
G01X12391Y34421D01*
G01X12367Y34394D01*
G01X12344Y34366D01*
G01X12324Y34337D01*
G01X12304Y34306D01*
G01X12287Y34275D01*
G01X12271Y34243D01*
G01X12258Y34209D01*
G01X12246Y34175D01*
G01X12237Y34141D01*
G01X12230Y34106D01*
G01X12224Y34070D01*
G01X12221Y34034D01*
G01X12220Y33998D01*
G01X12220Y32498D01*
G01X12221Y32462D01*
G01X12224Y32426D01*
G01X12230Y32391D01*
G01X12237Y32356D01*
G01X12246Y32321D01*
G01X12258Y32287D01*
G01X12271Y32253D01*
G01X12287Y32221D01*
G01X12304Y32190D01*
G01X12324Y32159D01*
G01X12344Y32130D01*
G01X12367Y32102D01*
G01X12391Y32076D01*
G01X12401Y32063D01*
G01X12409Y32050D01*
G01X12415Y32036D01*
G01X12419Y32020D01*
G01X12420Y32005D01*
G01X12420Y30436D01*
G01X12419Y30420D01*
G01X12415Y30405D01*
G01X12409Y30390D01*
G01X12401Y30376D01*
G01X12390Y30364D01*
G01X9294Y27268D01*
G01X9282Y27258D01*
G01X9268Y27250D01*
G01X9254Y27244D01*
G01X9238Y27240D01*
G01X9223Y27238D01*
G01X6822Y27238D01*
G01X6808Y27239D01*
G01X6793Y27243D01*
G01X6780Y27248D01*
G01X6767Y27255D01*
G01X6755Y27263D01*
G01X6745Y27274D01*
G01X6737Y27285D01*
G01X6729Y27298D01*
G01X6724Y27312D01*
G01X6721Y27326D01*
G01X6720Y27340D01*
G01X6720Y27378D01*
G01X6719Y27402D01*
G01X6716Y27425D01*
G01X6711Y27448D01*
G01X6703Y27470D01*
G01X6693Y27492D01*
G01X6682Y27513D01*
G01X6669Y27532D01*
G01X6653Y27550D01*
G01X6637Y27567D01*
G01X6618Y27582D01*
G01X6599Y27596D01*
G01X6578Y27607D01*
G01X6556Y27617D01*
G01X6534Y27625D01*
G01X6511Y27630D01*
G01X6488Y27633D01*
G01X6464Y27634D01*
G01X5473Y27634D01*
G01X5449Y27633D01*
G01X5426Y27630D01*
G01X5403Y27625D01*
G01X5381Y27617D01*
G01X5359Y27607D01*
G01X5338Y27596D01*
G01X5319Y27582D01*
G01X5300Y27567D01*
G01X5284Y27550D01*
G01X5268Y27532D01*
G01X5255Y27513D01*
G01X5244Y27492D01*
G01X5234Y27470D01*
G01X5226Y27448D01*
G01X5221Y27425D01*
G01X5218Y27402D01*
G01X5217Y27378D01*
G01X5217Y26285D01*
G01X5218Y26261D01*
G01X5221Y26237D01*
G01X5223Y26217D01*
G01X5222Y26203D01*
G01X5219Y26188D01*
G01X5214Y26175D01*
G01X5207Y26162D01*
G01X5198Y26151D01*
G01X5188Y26140D01*
G01X5177Y26132D01*
G01X5164Y26125D01*
G01X5150Y26120D01*
G01X5136Y26117D01*
G01X5122Y26115D01*
G01X4953Y26115D01*
G01X4953Y24845D01*
G01X5122Y24845D01*
G01X5136Y24844D01*
G01X5150Y24841D01*
G01X5164Y24836D01*
G01X5177Y24830D01*
G01X5188Y24821D01*
G01X5198Y24810D01*
G01X5207Y24799D01*
G01X5214Y24786D01*
G01X5219Y24773D01*
G01X5222Y24758D01*
G01X5223Y24744D01*
G01X5221Y24724D01*
G01X5218Y24700D01*
G01X5217Y24676D01*
G01X5217Y24466D01*
G01X5658Y24466D01*
G01X5658Y24744D01*
G01X5659Y24758D01*
G01X5662Y24773D01*
G01X5667Y24786D01*
G01X5673Y24799D01*
G01X5682Y24810D01*
G01X5693Y24821D01*
G01X5704Y24830D01*
G01X5717Y24836D01*
G01X5730Y24841D01*
G01X5744Y24844D01*
G01X5759Y24845D01*
G01X6178Y24845D01*
G01X6193Y24844D01*
G01X6207Y24841D01*
G01X6220Y24836D01*
G01X6233Y24830D01*
G01X6244Y24821D01*
G01X6255Y24810D01*
G01X6264Y24799D01*
G01X6270Y24786D01*
G01X6275Y24773D01*
G01X6278Y24758D01*
G01X6280Y24744D01*
G01X6280Y24466D01*
G01X6720Y24466D01*
G01X6720Y24676D01*
G01X6719Y24700D01*
G01X6716Y24724D01*
G01X6714Y24744D01*
G01X6715Y24758D01*
G01X6718Y24773D01*
G01X6723Y24786D01*
G01X6730Y24799D01*
G01X6739Y24810D01*
G01X6749Y24821D01*
G01X6760Y24830D01*
G01X6773Y24836D01*
G01X6787Y24841D01*
G01X6801Y24844D01*
G01X6815Y24845D01*
G01X7048Y24845D01*
G01X7048Y26115D01*
G01X6815Y26115D01*
G01X6801Y26117D01*
G01X6787Y26120D01*
G01X6773Y26125D01*
G01X6760Y26132D01*
G01X6749Y26140D01*
G01X6739Y26151D01*
G01X6730Y26162D01*
G01X6723Y26175D01*
G01X6718Y26188D01*
G01X6715Y26203D01*
G01X6714Y26217D01*
G01X6716Y26237D01*
G01X6719Y26261D01*
G01X6720Y26285D01*
G01X6720Y26324D01*
G01X6721Y26338D01*
G01X6724Y26353D01*
G01X6729Y26366D01*
G01X6737Y26379D01*
G01X6745Y26391D01*
G01X6755Y26401D01*
G01X6767Y26409D01*
G01X6780Y26417D01*
G01X6793Y26422D01*
G01X6808Y26425D01*
G01X6822Y26426D01*
G01X9433Y26426D01*
G01X9462Y26427D01*
G01X9491Y26430D01*
G01X9519Y26435D01*
G01X9547Y26442D01*
G01X9575Y26451D01*
G01X9602Y26462D01*
G01X9628Y26475D01*
G01X9653Y26490D01*
G01X9677Y26506D01*
G01X9699Y26525D01*
G01X9721Y26545D01*
G01X13114Y29938D01*
G01X13134Y29959D01*
G01X13152Y29982D01*
G01X13168Y30006D01*
G01X13183Y30030D01*
G01X13196Y30057D01*
G01X13208Y30083D01*
G01X13217Y30111D01*
G01X13224Y30139D01*
G01X13229Y30168D01*
G01X13232Y30197D01*
G01X13233Y30226D01*
G01X13233Y32005D01*
G01X13234Y32020D01*
G01X13238Y32036D01*
G01X13244Y32050D01*
G01X13252Y32063D01*
G01X13262Y32076D01*
G01X13287Y32104D01*
G01X13311Y32133D01*
G01X13333Y32164D01*
G01X13353Y32196D01*
G01X13371Y32230D01*
G01X13379Y32243D01*
G01X13389Y32256D01*
G01X13401Y32267D01*
G01X13415Y32275D01*
G01X13430Y32281D01*
G01X13445Y32285D01*
G01X13462Y32286D01*
G01X13478Y32285D01*
G01X13494Y32281D01*
G01X13508Y32275D01*
G01X13522Y32267D01*
G01X13534Y32256D01*
G01X13544Y32243D01*
G01X13552Y32230D01*
G01X13569Y32198D01*
G01X13587Y32168D01*
G01X13608Y32139D01*
G01X13630Y32111D01*
G01X13653Y32084D01*
G01X13678Y32059D01*
G01X13705Y32035D01*
G01X13732Y32013D01*
G01X13761Y31992D01*
G01X13792Y31974D01*
G01X13823Y31957D01*
G01X13855Y31942D01*
G01X13888Y31929D01*
G01X13922Y31917D01*
G01X13956Y31908D01*
G01X13990Y31901D01*
G01X14026Y31896D01*
G01X14061Y31893D01*
G01X14097Y31892D01*
G01X14132Y31893D01*
G01X14168Y31896D01*
G01X14203Y31901D01*
G01X14237Y31908D01*
G01X14272Y31917D01*
G01X14305Y31929D01*
G01X14338Y31942D01*
G01X14370Y31957D01*
G01X14401Y31974D01*
G01X14432Y31992D01*
G01X14461Y32013D01*
G01X14488Y32035D01*
G01X14515Y32059D01*
G01X14540Y32084D01*
G01X14563Y32111D01*
G01X14585Y32139D01*
G01X14606Y32168D01*
G01X14624Y32198D01*
G01X14641Y32230D01*
G01X14649Y32243D01*
G01X14659Y32256D01*
G01X14671Y32267D01*
G01X14685Y32275D01*
G01X14700Y32281D01*
G01X14715Y32285D01*
G01X14732Y32286D01*
G01X14748Y32285D01*
G01X14764Y32281D01*
G01X14778Y32275D01*
G01X14792Y32267D01*
G01X14804Y32256D01*
G01X14814Y32243D01*
G01X14822Y32230D01*
G01X14840Y32196D01*
G01X14860Y32164D01*
G01X14882Y32133D01*
G01X14906Y32104D01*
G01X14931Y32076D01*
G01X14941Y32063D01*
G01X14949Y32050D01*
G01X14955Y32036D01*
G01X14959Y32020D01*
G01X14960Y32005D01*
G01X14960Y29972D01*
G01X14961Y29943D01*
G01X14964Y29914D01*
G01X14969Y29885D01*
G01X14976Y29857D01*
G01X14986Y29829D01*
G01X14997Y29803D01*
G01X15010Y29776D01*
G01X15025Y29752D01*
G01X15041Y29728D01*
G01X15059Y29705D01*
G01X15079Y29684D01*
G01X15841Y28922D01*
G01X15862Y28902D01*
G01X15885Y28884D01*
G01X15909Y28868D01*
G01X15933Y28853D01*
G01X15960Y28840D01*
G01X15986Y28829D01*
G01X16014Y28819D01*
G01X16042Y28812D01*
G01X16071Y28807D01*
G01X16100Y28804D01*
G01X16129Y28803D01*
G01X20744Y28803D01*
G01X20760Y28802D01*
G01X20775Y28798D01*
G01X20790Y28792D01*
G01X20804Y28784D01*
G01X20816Y28773D01*
G01X21453Y28136D01*
G01X21463Y28124D01*
G01X21472Y28111D01*
G01X21478Y28096D01*
G01X21481Y28080D01*
G01X21483Y28064D01*
G01X21483Y26634D01*
G01X21482Y26620D01*
G01X21479Y26605D01*
G01X21474Y26592D01*
G01X21467Y26579D01*
G01X21458Y26567D01*
G01X21448Y26557D01*
G01X21436Y26549D01*
G01X21423Y26541D01*
G01X21410Y26536D01*
G01X21395Y26533D01*
G01X21381Y26532D01*
G01X21344Y26532D01*
G01X21320Y26531D01*
G01X21296Y26528D01*
G01X21273Y26523D01*
G01X21251Y26515D01*
G01X21229Y26505D01*
G01X21209Y26494D01*
G01X21189Y26481D01*
G01X21170Y26465D01*
G01X21154Y26449D01*
G01X21139Y26430D01*
G01X21125Y26411D01*
G01X21114Y26390D01*
G01X21104Y26368D01*
G01X21097Y26346D01*
G01X21091Y26323D01*
G01X21088Y26300D01*
G01X21087Y26276D01*
G01X21087Y25285D01*
G01X21088Y25261D01*
G01X21091Y25238D01*
G01X21097Y25215D01*
G01X21104Y25193D01*
G01X21114Y25171D01*
G01X21125Y25150D01*
G01X21139Y25131D01*
G01X21154Y25112D01*
G01X21170Y25096D01*
G01X21189Y25080D01*
G01X21209Y25067D01*
G01X21229Y25056D01*
G01X21251Y25046D01*
G01X21273Y25038D01*
G01X21296Y25033D01*
G01X21320Y25030D01*
G01X21344Y25029D01*
G01X22436Y25029D01*
G01X22461Y25030D01*
G01X22486Y25034D01*
G01X22511Y25040D01*
G01X22534Y25048D01*
G01X22557Y25059D01*
G01X22579Y25072D01*
G01X22592Y25080D01*
G01X22606Y25085D01*
G01X22621Y25089D01*
G01X22635Y25090D01*
G01X22652Y25089D01*
G01X22667Y25085D01*
G01X22682Y25078D01*
G01X22696Y25070D01*
G01X22708Y25060D01*
G01X22718Y25047D01*
G01X22726Y25033D01*
G01X22733Y25019D01*
G01X23749Y25019D01*
G01X23755Y25033D01*
G01X23763Y25047D01*
G01X23773Y25060D01*
G01X23785Y25070D01*
G01X23799Y25078D01*
G01X23814Y25085D01*
G01X23829Y25089D01*
G01X23846Y25090D01*
G01X23860Y25089D01*
G01X23875Y25085D01*
G01X23889Y25080D01*
G01X23902Y25072D01*
G01X23924Y25059D01*
G01X23947Y25048D01*
G01X23970Y25040D01*
G01X23995Y25034D01*
G01X24020Y25030D01*
G01X24045Y25029D01*
G01X24255Y25029D01*
G01X24255Y25469D01*
G01X23850Y25469D01*
G01X23836Y25471D01*
G01X23822Y25474D01*
G01X23808Y25479D01*
G01X23795Y25485D01*
G01X23784Y25494D01*
G01X23773Y25505D01*
G01X23765Y25516D01*
G01X23758Y25529D01*
G01X23753Y25542D01*
G01X23750Y25556D01*
G01X23749Y25571D01*
G01X23749Y25990D01*
G01X23750Y26005D01*
G01X23753Y26019D01*
G01X23758Y26032D01*
G01X23765Y26045D01*
G01X23773Y26056D01*
G01X23784Y26067D01*
G01X23795Y26076D01*
G01X23808Y26082D01*
G01X23822Y26087D01*
G01X23836Y26090D01*
G01X23850Y26091D01*
G01X24255Y26091D01*
G01X24255Y26532D01*
G01X24045Y26532D01*
G01X24021Y26531D01*
G01X23996Y26528D01*
G01X23973Y26522D01*
G01X23949Y26514D01*
G01X23927Y26503D01*
G01X23905Y26491D01*
G01X23893Y26484D01*
G01X23879Y26478D01*
G01X23865Y26475D01*
G01X23850Y26474D01*
G01X23836Y26475D01*
G01X23822Y26478D01*
G01X23808Y26484D01*
G01X23795Y26491D01*
G01X23784Y26499D01*
G01X23773Y26509D01*
G01X23765Y26521D01*
G01X23758Y26534D01*
G01X23753Y26548D01*
G01X23750Y26561D01*
G01X23749Y26576D01*
G01X23749Y26670D01*
G01X22733Y26670D01*
G01X22733Y26576D01*
G01X22731Y26561D01*
G01X22728Y26548D01*
G01X22723Y26534D01*
G01X22716Y26521D01*
G01X22708Y26509D01*
G01X22697Y26499D01*
G01X22686Y26491D01*
G01X22673Y26484D01*
G01X22659Y26478D01*
G01X22645Y26475D01*
G01X22631Y26474D01*
G01X22616Y26475D01*
G01X22602Y26478D01*
G01X22588Y26484D01*
G01X22576Y26491D01*
G01X22554Y26503D01*
G01X22532Y26514D01*
G01X22508Y26522D01*
G01X22485Y26528D01*
G01X22460Y26531D01*
G01X22436Y26532D01*
G01X22397Y26532D01*
G01X22383Y26533D01*
G01X22369Y26536D01*
G01X22355Y26541D01*
G01X22342Y26549D01*
G01X22331Y26557D01*
G01X22321Y26567D01*
G01X22312Y26579D01*
G01X22305Y26592D01*
G01X22300Y26605D01*
G01X22297Y26620D01*
G01X22296Y26634D01*
G01X22296Y28275D01*
G01X22295Y28304D01*
G01X22292Y28333D01*
G01X22286Y28361D01*
G01X22279Y28390D01*
G01X22270Y28417D01*
G01X22259Y28443D01*
G01X22246Y28470D01*
G01X22231Y28495D01*
G01X22215Y28519D01*
G01X22197Y28541D01*
G01X22177Y28562D01*
G01X21242Y29497D01*
G01X21224Y29514D01*
G01X21212Y29526D01*
G01X21202Y29541D01*
G01X21195Y29556D01*
G01X21191Y29573D01*
G01X21189Y29591D01*
G01X21190Y29605D01*
G01X21193Y29619D01*
G01X21198Y29633D01*
G01X21205Y29645D01*
G01X21214Y29657D01*
G01X21224Y29667D01*
G01X21236Y29676D01*
G01X21249Y29683D01*
G01X21262Y29688D01*
G01X21277Y29691D01*
G01X21291Y29692D01*
G01X23030Y29692D01*
G01X23046Y29691D01*
G01X23061Y29687D01*
G01X23076Y29681D01*
G01X23090Y29673D01*
G01X23102Y29662D01*
G01X25112Y27652D01*
G01X25133Y27632D01*
G01X25156Y27614D01*
G01X25180Y27598D01*
G01X25204Y27583D01*
G01X25231Y27570D01*
G01X25257Y27559D01*
G01X25285Y27549D01*
G01X25313Y27542D01*
G01X25342Y27537D01*
G01X25371Y27534D01*
G01X25400Y27533D01*
G01X28596Y27533D01*
G01X28611Y27532D01*
G01X28625Y27529D01*
G01X28638Y27524D01*
G01X28651Y27517D01*
G01X28662Y27508D01*
G01X28673Y27498D01*
G01X28682Y27486D01*
G01X28688Y27474D01*
G01X28693Y27460D01*
G01X28696Y27446D01*
G01X28697Y27432D01*
G01X28696Y27416D01*
G01X28693Y27400D01*
G01X28687Y27385D01*
G01X28677Y27363D01*
G01X28669Y27341D01*
G01X28663Y27317D01*
G01X28660Y27294D01*
G01X28659Y27269D01*
G01X28659Y26070D01*
G01X28660Y26046D01*
G01X28663Y26022D01*
G01X28669Y25999D01*
G01X28676Y25977D01*
G01X28686Y25955D01*
G01X28697Y25934D01*
G01X28711Y25915D01*
G01X28726Y25897D01*
G01X28743Y25880D01*
G01X28761Y25865D01*
G01X28780Y25852D01*
G01X28801Y25840D01*
G01X28823Y25830D01*
G01X28845Y25823D01*
G01X28868Y25818D01*
G01X28892Y25814D01*
G01X28915Y25813D01*
G01X30915Y25813D01*
G01X30939Y25814D01*
G01X30963Y25818D01*
G01X30985Y25823D01*
G01X31008Y25830D01*
G01X31030Y25840D01*
G01X31050Y25852D01*
G01X31070Y25865D01*
G01X31088Y25880D01*
G01X31105Y25897D01*
G01X31120Y25915D01*
G01X31134Y25934D01*
G01X31145Y25955D01*
G01X31155Y25977D01*
G01X31162Y25999D01*
G01X31168Y26022D01*
G01X31171Y26046D01*
G01X31172Y26070D01*
G01X31172Y27269D01*
G01X31171Y27294D01*
G01X31167Y27317D01*
G01X31162Y27341D01*
G01X31154Y27363D01*
G01X31144Y27385D01*
G01X31138Y27400D01*
G01X31135Y27416D01*
G01X31133Y27432D01*
G01X31134Y27446D01*
G01X31137Y27460D01*
G01X31142Y27474D01*
G01X31158Y27498D01*
G01X31168Y27508D01*
G01X31180Y27517D01*
G01X31193Y27524D01*
G01X31206Y27529D01*
G01X31221Y27532D01*
G01X31235Y27533D01*
G01X31920Y27533D01*
G01X31936Y27532D01*
G01X31951Y27528D01*
G01X31966Y27522D01*
G01X31980Y27514D01*
G01X31992Y27503D01*
G01X33113Y26382D01*
G01X33134Y26362D01*
G01X33157Y26344D01*
G01X33181Y26328D01*
G01X33205Y26313D01*
G01X33232Y26300D01*
G01X33258Y26289D01*
G01X33286Y26279D01*
G01X33314Y26272D01*
G01X33343Y26267D01*
G01X33372Y26264D01*
G01X33401Y26263D01*
G01X34257Y26263D01*
G01X34272Y26262D01*
G01X34286Y26259D01*
G01X34299Y26254D01*
G01X34312Y26247D01*
G01X34324Y26238D01*
G01X34334Y26228D01*
G01X34343Y26216D01*
G01X34349Y26204D01*
G01X34355Y26190D01*
G01X34358Y26176D01*
G01X34359Y26162D01*
G01X34359Y26070D01*
G01X34360Y26046D01*
G01X34363Y26022D01*
G01X34369Y25999D01*
G01X34376Y25977D01*
G01X34386Y25955D01*
G01X34397Y25934D01*
G01X34410Y25915D01*
G01X34426Y25897D01*
G01X34442Y25880D01*
G01X34461Y25865D01*
G01X34480Y25851D01*
G01X34501Y25840D01*
G01X34523Y25830D01*
G01X34545Y25823D01*
G01X34568Y25817D01*
G01X34592Y25814D01*
G01X34615Y25813D01*
G01X36615Y25813D01*
G01X36639Y25814D01*
G01X36662Y25817D01*
G01X36685Y25823D01*
G01X36708Y25830D01*
G01X36729Y25840D01*
G01X36750Y25851D01*
G01X36770Y25865D01*
G01X36788Y25880D01*
G01X36805Y25897D01*
G01X36820Y25915D01*
G01X36834Y25934D01*
G01X36845Y25955D01*
G01X36854Y25977D01*
G01X36862Y25999D01*
G01X36868Y26022D01*
G01X36871Y26046D01*
G01X36872Y26070D01*
G01X36872Y27269D01*
G01X36871Y27293D01*
G01X36868Y27317D01*
G01X36862Y27340D01*
G01X36854Y27362D01*
G01X36845Y27384D01*
G01X36834Y27405D01*
G01X36820Y27424D01*
G01X36805Y27442D01*
G01X36788Y27459D01*
G01X36770Y27474D01*
G01X36750Y27487D01*
G01X36729Y27499D01*
G01X36708Y27509D01*
G01X36685Y27516D01*
G01X36662Y27521D01*
G01X36639Y27525D01*
G01X36615Y27526D01*
G01X34615Y27526D01*
G01X34592Y27525D01*
G01X34568Y27521D01*
G01X34545Y27516D01*
G01X34523Y27509D01*
G01X34501Y27499D01*
G01X34480Y27487D01*
G01X34461Y27474D01*
G01X34442Y27459D01*
G01X34426Y27442D01*
G01X34410Y27424D01*
G01X34397Y27405D01*
G01X34386Y27384D01*
G01X34376Y27362D01*
G01X34369Y27340D01*
G01X34363Y27317D01*
G01X34360Y27293D01*
G01X34359Y27269D01*
G01X34359Y27178D01*
G01X34358Y27163D01*
G01X34355Y27149D01*
G01X34349Y27135D01*
G01X34343Y27123D01*
G01X34334Y27111D01*
G01X34324Y27101D01*
G01X34312Y27092D01*
G01X34299Y27085D01*
G01X34286Y27080D01*
G01X34272Y27077D01*
G01X34257Y27076D01*
G01X33611Y27076D01*
G01X33595Y27077D01*
G01X33580Y27081D01*
G01X33565Y27087D01*
G01X33551Y27095D01*
G01X33539Y27106D01*
G01X32418Y28227D01*
G01X32397Y28247D01*
G01X32374Y28265D01*
G01X32350Y28281D01*
G01X32326Y28296D01*
G01X32299Y28309D01*
G01X32273Y28321D01*
G01X32245Y28330D01*
G01X32217Y28337D01*
G01X32188Y28342D01*
G01X32159Y28345D01*
G01X32131Y28346D01*
G01X31252Y28346D01*
G01X31238Y28347D01*
G01X31224Y28350D01*
G01X31210Y28355D01*
G01X31197Y28362D01*
G01X31186Y28371D01*
G01X31175Y28381D01*
G01X31167Y28393D01*
G01X31160Y28405D01*
G01X31155Y28419D01*
G01X31152Y28433D01*
G01X31151Y28448D01*
G01X31152Y28465D01*
G01X31157Y28482D01*
G01X31165Y28510D01*
G01X31170Y28540D01*
G01X31172Y28569D01*
G01X31172Y29769D01*
G01X31171Y29793D01*
G01X31168Y29817D01*
G01X31162Y29839D01*
G01X31155Y29862D01*
G01X31145Y29884D01*
G01X31133Y29904D01*
G01X31120Y29924D01*
G01X31105Y29942D01*
G01X31088Y29959D01*
G01X31070Y29974D01*
G01X31050Y29988D01*
G01X31030Y29999D01*
G01X31008Y30009D01*
G01X30985Y30016D01*
G01X30963Y30022D01*
G01X30939Y30025D01*
G01X30915Y30026D01*
G01X28915Y30026D01*
G01X28892Y30025D01*
G01X28868Y30022D01*
G01X28845Y30016D01*
G01X28823Y30009D01*
G01X28801Y29999D01*
G01X28780Y29988D01*
G01X28761Y29974D01*
G01X28743Y29959D01*
G01X28726Y29942D01*
G01X28711Y29924D01*
G01X28697Y29904D01*
G01X28686Y29884D01*
G01X28676Y29862D01*
G01X28668Y29839D01*
G01X28663Y29817D01*
G01X28660Y29793D01*
G01X28659Y29769D01*
G01X28659Y28569D01*
G01X28660Y28540D01*
G01X28666Y28510D01*
G01X28674Y28482D01*
G01X28679Y28465D01*
G01X28680Y28448D01*
G01X28679Y28433D01*
G01X28676Y28419D01*
G01X28671Y28405D01*
G01X28664Y28393D01*
G01X28655Y28381D01*
G01X28645Y28371D01*
G01X28633Y28362D01*
G01X28621Y28355D01*
G01X28608Y28350D01*
G01X28593Y28347D01*
G01X28579Y28346D01*
G01X25610Y28346D01*
G01X25594Y28347D01*
G01X25579Y28351D01*
G01X25564Y28357D01*
G01X25550Y28365D01*
G01X25538Y28376D01*
G01X23528Y30386D01*
G01X23510Y30403D01*
G01X23498Y30415D01*
G01X23488Y30430D01*
G01X23481Y30445D01*
G01X23477Y30462D01*
G01X23475Y30480D01*
G01X23476Y30494D01*
G01X23479Y30508D01*
G01X23484Y30522D01*
G01X23491Y30534D01*
G01X23500Y30546D01*
G01X23510Y30556D01*
G01X23522Y30565D01*
G01X23535Y30572D01*
G01X23548Y30577D01*
G01X23563Y30580D01*
G01X23577Y30581D01*
G01X36619Y30581D01*
G01X36635Y30580D01*
G01X36650Y30576D01*
G01X36665Y30570D01*
G01X36679Y30562D01*
G01X36691Y30551D01*
G01X37282Y29960D01*
G01X37293Y29948D01*
G01X37301Y29934D01*
G01X37307Y29919D01*
G01X37311Y29904D01*
G01X37312Y29888D01*
G01X37312Y27559D01*
G01X37313Y27530D01*
G01X37316Y27501D01*
G01X37321Y27472D01*
G01X37328Y27444D01*
G01X37338Y27416D01*
G01X37349Y27390D01*
G01X37362Y27363D01*
G01X37377Y27339D01*
G01X37393Y27315D01*
G01X37411Y27292D01*
G01X37431Y27271D01*
G01X38157Y26545D01*
G01X38179Y26525D01*
G01X38201Y26506D01*
G01X38225Y26490D01*
G01X38250Y26475D01*
G01X38276Y26462D01*
G01X38303Y26451D01*
G01X38331Y26442D01*
G01X38359Y26435D01*
G01X38387Y26430D01*
G01X38416Y26427D01*
G01X38445Y26426D01*
G01X39786Y26426D01*
G01X39800Y26425D01*
G01X39815Y26422D01*
G01X39828Y26417D01*
G01X39841Y26409D01*
G01X39853Y26401D01*
G01X39863Y26391D01*
G01X39871Y26379D01*
G01X39879Y26366D01*
G01X39884Y26353D01*
G01X39887Y26338D01*
G01X39888Y26324D01*
G01X39888Y26285D01*
G01X39889Y26261D01*
G01X39892Y26237D01*
G01X39894Y26217D01*
G01X39893Y26203D01*
G01X39890Y26188D01*
G01X39885Y26175D01*
G01X39878Y26162D01*
G01X39869Y26151D01*
G01X39859Y26140D01*
G01X39848Y26132D01*
G01X39835Y26125D01*
G01X39821Y26120D01*
G01X39807Y26117D01*
G01X39793Y26115D01*
G01X39624Y26115D01*
G01X39624Y24845D01*
G01X39793Y24845D01*
G01X39807Y24844D01*
G01X39821Y24841D01*
G01X39835Y24836D01*
G01X39848Y24830D01*
G01X39859Y24821D01*
G01X39869Y24810D01*
G01X39878Y24799D01*
G01X39885Y24786D01*
G01X39890Y24773D01*
G01X39893Y24758D01*
G01X39894Y24744D01*
G01X39892Y24724D01*
G01X39889Y24700D01*
G01X39888Y24676D01*
G01X39888Y24466D01*
G01X40328Y24466D01*
G01X40329Y24744D01*
G01X40330Y24758D01*
G01X40333Y24773D01*
G01X40338Y24786D01*
G01X40344Y24799D01*
G01X40353Y24810D01*
G01X40364Y24821D01*
G01X40375Y24830D01*
G01X40388Y24836D01*
G01X40401Y24841D01*
G01X40415Y24844D01*
G01X40430Y24845D01*
G01X40849Y24845D01*
G01X40864Y24844D01*
G01X40878Y24841D01*
G01X40891Y24836D01*
G01X40904Y24830D01*
G01X40915Y24821D01*
G01X40926Y24810D01*
G01X40935Y24799D01*
G01X40941Y24786D01*
G01X40946Y24773D01*
G01X40949Y24758D01*
G01X40950Y24744D01*
G01X40951Y24466D01*
G01X41391Y24466D01*
G01X41391Y24676D01*
G01X41390Y24700D01*
G01X41387Y24724D01*
G01X41385Y24744D01*
G01X41386Y24758D01*
G01X41389Y24773D01*
G01X41394Y24786D01*
G01X41401Y24799D01*
G01X41410Y24810D01*
G01X41420Y24821D01*
G01X41431Y24830D01*
G01X41444Y24836D01*
G01X41458Y24841D01*
G01X41472Y24844D01*
G01X41486Y24845D01*
G01X41656Y24845D01*
G01X41656Y26115D01*
G01X41486Y26115D01*
G01X41472Y26117D01*
G01X41458Y26120D01*
G01X41444Y26125D01*
G01X41431Y26132D01*
G01X41420Y26140D01*
G01X41410Y26151D01*
G01X41401Y26162D01*
G01X41394Y26175D01*
G01X41389Y26188D01*
G01X41386Y26203D01*
G01X41385Y26217D01*
G01X41387Y26237D01*
G01X41390Y26261D01*
G01X41391Y26285D01*
G01X41391Y27378D01*
G01X41390Y27402D01*
G01X41387Y27425D01*
G01X41382Y27448D01*
G01X41374Y27470D01*
G01X41364Y27492D01*
G01X41353Y27513D01*
G01X41340Y27532D01*
G01X41324Y27550D01*
G01X41308Y27567D01*
G01X41289Y27582D01*
G01X41270Y27596D01*
G01X41249Y27607D01*
G01X41227Y27617D01*
G01X41205Y27625D01*
G01X41182Y27630D01*
G01X41159Y27633D01*
G01X41135Y27634D01*
G01X40144Y27634D01*
G01X40120Y27633D01*
G01X40097Y27630D01*
G01X40074Y27625D01*
G01X40052Y27617D01*
G01X40030Y27607D01*
G01X40009Y27596D01*
G01X39990Y27582D01*
G01X39971Y27567D01*
G01X39955Y27550D01*
G01X39939Y27532D01*
G01X39926Y27513D01*
G01X39915Y27492D01*
G01X39905Y27470D01*
G01X39897Y27448D01*
G01X39892Y27425D01*
G01X39889Y27402D01*
G01X39888Y27378D01*
G01X39888Y27340D01*
G01X39887Y27326D01*
G01X39884Y27312D01*
G01X39879Y27298D01*
G01X39871Y27285D01*
G01X39863Y27274D01*
G01X39853Y27263D01*
G01X39841Y27255D01*
G01X39828Y27248D01*
G01X39815Y27243D01*
G01X39800Y27239D01*
G01X39786Y27238D01*
G01X38655Y27238D01*
G01X38640Y27240D01*
G01X38624Y27244D01*
G01X38610Y27250D01*
G01X38596Y27258D01*
G01X38584Y27268D01*
G01X38155Y27697D01*
G01X38144Y27709D01*
G01X38136Y27723D01*
G01X38130Y27738D01*
G01X38126Y27753D01*
G01X38125Y27769D01*
G01X38125Y30099D01*
G01X38124Y30127D01*
G01X38121Y30156D01*
G01X38116Y30185D01*
G01X38109Y30213D01*
G01X38100Y30241D01*
G01X38088Y30267D01*
G01X38075Y30294D01*
G01X38060Y30318D01*
G01X38044Y30342D01*
G01X38026Y30365D01*
G01X38006Y30386D01*
G01X37117Y31275D01*
G01X37096Y31295D01*
G01X37073Y31313D01*
G01X37049Y31329D01*
G01X37025Y31344D01*
G01X36998Y31357D01*
G01X36972Y31369D01*
G01X36944Y31378D01*
G01X36916Y31385D01*
G01X36887Y31390D01*
G01X36858Y31393D01*
G01X36830Y31394D01*
G01X19006Y31394D01*
G01X18990Y31395D01*
G01X18975Y31399D01*
G01X18960Y31405D01*
G01X18946Y31413D01*
G01X18934Y31424D01*
G01X18089Y32269D01*
G01X18078Y32281D01*
G01X18070Y32295D01*
G01X18064Y32310D01*
G01X18060Y32325D01*
G01X18059Y32341D01*
G01X18059Y38354D01*
G01X18058Y38382D01*
G01X18055Y38411D01*
G01X18050Y38440D01*
G01X18043Y38468D01*
G01X18034Y38496D01*
G01X18022Y38522D01*
G01X18009Y38549D01*
G01X17994Y38573D01*
G01X17978Y38597D01*
G01X17960Y38620D01*
G01X17940Y38641D01*
G01X17432Y39149D01*
G01X17411Y39169D01*
G01X17388Y39187D01*
G01X17364Y39203D01*
G01X17340Y39218D01*
G01X17313Y39231D01*
G01X17287Y39243D01*
G01X17259Y39252D01*
G01X17231Y39259D01*
G01X17202Y39264D01*
G01X17173Y39267D01*
G01X17145Y39268D01*
G37*
G36*
G01X25394Y25469D02*
G01X24928Y25469D01*
G01X24928Y25029D01*
G01X25137Y25029D01*
G01X25161Y25030D01*
G01X25185Y25033D01*
G01X25208Y25038D01*
G01X25230Y25046D01*
G01X25252Y25056D01*
G01X25273Y25067D01*
G01X25292Y25080D01*
G01X25311Y25096D01*
G01X25327Y25112D01*
G01X25342Y25131D01*
G01X25356Y25150D01*
G01X25367Y25171D01*
G01X25377Y25193D01*
G01X25384Y25215D01*
G01X25390Y25238D01*
G01X25393Y25261D01*
G01X25394Y25285D01*
G01X25394Y25469D01*
G37*
G36*
G01X12588Y26589D02*
G01X12220Y26589D01*
G01X12220Y26453D01*
G01X12221Y26418D01*
G01X12224Y26382D01*
G01X12229Y26347D01*
G01X12236Y26313D01*
G01X12245Y26278D01*
G01X12257Y26245D01*
G01X12270Y26212D01*
G01X12285Y26180D01*
G01X12302Y26149D01*
G01X12320Y26119D01*
G01X12341Y26090D01*
G01X12363Y26062D01*
G01X12386Y26036D01*
G01X12411Y26011D01*
G01X12438Y25987D01*
G01X12465Y25965D01*
G01X12495Y25945D01*
G01X12525Y25927D01*
G01X12556Y25910D01*
G01X12588Y25895D01*
G01X12588Y26589D01*
G37*
G36*
G01X25137Y26532D02*
G01X24928Y26532D01*
G01X24928Y26091D01*
G01X25394Y26091D01*
G01X25394Y26276D01*
G01X25393Y26300D01*
G01X25390Y26323D01*
G01X25384Y26346D01*
G01X25377Y26368D01*
G01X25367Y26390D01*
G01X25356Y26411D01*
G01X25342Y26430D01*
G01X25327Y26449D01*
G01X25311Y26465D01*
G01X25292Y26481D01*
G01X25273Y26494D01*
G01X25252Y26505D01*
G01X25230Y26515D01*
G01X25208Y26523D01*
G01X25185Y26528D01*
G01X25161Y26531D01*
G01X25137Y26532D01*
G37*
G36*
G01X12588Y27817D02*
G01X12588Y28510D01*
G01X12556Y28496D01*
G01X12525Y28479D01*
G01X12495Y28461D01*
G01X12465Y28440D01*
G01X12438Y28419D01*
G01X12411Y28395D01*
G01X12386Y28370D01*
G01X12363Y28344D01*
G01X12341Y28316D01*
G01X12320Y28287D01*
G01X12302Y28257D01*
G01X12285Y28226D01*
G01X12270Y28194D01*
G01X12257Y28161D01*
G01X12245Y28127D01*
G01X12236Y28093D01*
G01X12229Y28058D01*
G01X12224Y28023D01*
G01X12221Y27988D01*
G01X12220Y27953D01*
G01X12220Y27817D01*
G01X12588Y27817D01*
G37*
G36*
G01X36616Y30026D02*
G01X34616Y30026D01*
G01X34592Y30025D01*
G01X34568Y30022D01*
G01X34545Y30016D01*
G01X34523Y30009D01*
G01X34501Y29999D01*
G01X34481Y29988D01*
G01X34461Y29974D01*
G01X34442Y29959D01*
G01X34426Y29942D01*
G01X34411Y29924D01*
G01X34397Y29904D01*
G01X34386Y29884D01*
G01X34376Y29862D01*
G01X34369Y29839D01*
G01X34363Y29817D01*
G01X34360Y29793D01*
G01X34359Y29769D01*
G01X34359Y28569D01*
G01X34360Y28546D01*
G01X34363Y28522D01*
G01X34369Y28499D01*
G01X34376Y28477D01*
G01X34386Y28455D01*
G01X34397Y28434D01*
G01X34411Y28415D01*
G01X34426Y28397D01*
G01X34442Y28380D01*
G01X34461Y28365D01*
G01X34481Y28351D01*
G01X34501Y28340D01*
G01X34523Y28330D01*
G01X34545Y28323D01*
G01X34568Y28317D01*
G01X34592Y28314D01*
G01X34616Y28313D01*
G01X36616Y28313D01*
G01X36639Y28314D01*
G01X36662Y28317D01*
G01X36686Y28323D01*
G01X36708Y28330D01*
G01X36730Y28340D01*
G01X36750Y28351D01*
G01X36770Y28365D01*
G01X36788Y28380D01*
G01X36805Y28397D01*
G01X36820Y28415D01*
G01X36834Y28434D01*
G01X36845Y28455D01*
G01X36854Y28477D01*
G01X36862Y28499D01*
G01X36868Y28522D01*
G01X36871Y28546D01*
G01X36872Y28569D01*
G01X36872Y29769D01*
G01X36871Y29793D01*
G01X36868Y29817D01*
G01X36862Y29839D01*
G01X36854Y29862D01*
G01X36845Y29884D01*
G01X36834Y29904D01*
G01X36820Y29924D01*
G01X36805Y29942D01*
G01X36788Y29959D01*
G01X36770Y29974D01*
G01X36750Y29988D01*
G01X36730Y29999D01*
G01X36708Y30009D01*
G01X36686Y30016D01*
G01X36662Y30022D01*
G01X36639Y30025D01*
G01X36616Y30026D01*
G37*

%LPD*%
G54D11*
G01X16637Y33248D02*
G01X16637Y30861D01*
G01X17399Y30099D01*
G01X23241Y30099D01*
G01X25400Y27940D01*
G01X32131Y27940D01*
G01X33401Y26670D01*
G01X35615Y26670D01*
G01X15367Y33248D02*
G01X15367Y29972D01*
G01X16129Y29210D01*
G01X20955Y29210D01*
G01X21889Y28275D01*
G01X21889Y25781D01*
G01X14097Y36957D02*
G01X14097Y38354D01*
G01X14605Y38862D01*
G01X17145Y38862D01*
G01X17653Y38354D01*
G01X17653Y32131D01*
G01X18796Y30988D01*
G01X36830Y30988D01*
G01X37719Y30099D01*
G01X37719Y27559D01*
G01X38445Y26832D01*
G01X40640Y26832D01*
G01X12827Y33248D02*
G01X12827Y30226D01*
G01X9433Y26832D01*
G01X5969Y26832D01*
G01X38483Y12446D02*
G01X38481Y16637D01*
G01X35687Y19431D01*
G01X35615Y19502D01*
G01X35615Y24170D01*
G01X16637Y33248D02*
G01X16637Y36957D01*
G01X15367Y33248D02*
G01X15367Y36957D01*
G01X14097Y33248D02*
G01X14097Y36957D01*
G01X12827Y33248D02*
G01X12827Y36957D01*
G01X16637Y27203D02*
G01X16637Y23749D01*
G54D12*
G01X16637Y36206D02*
G01X16637Y37706D01*
G01X15367Y36206D02*
G01X15367Y37706D01*
G01X12827Y22998D02*
G01X12827Y24498D01*
G01X16637Y24498D02*
G01X16637Y22998D01*
G01X14097Y36206D02*
G01X14097Y37706D01*
G01X12827Y36206D02*
G01X12827Y37706D01*
G01X16637Y26453D02*
G01X16637Y27953D01*
G01X15367Y26453D02*
G01X15367Y27953D01*
G01X14097Y26453D02*
G01X14097Y27953D01*
G01X12827Y26453D02*
G01X12827Y27953D01*
G01X16637Y32498D02*
G01X16637Y33998D01*
G01X15367Y32498D02*
G01X15367Y33998D01*
G01X14097Y32498D02*
G01X14097Y33998D01*
G01X12827Y32498D02*
G01X12827Y33998D01*
G36*
G01X22436Y25285D02*
G01X22436Y26276D01*
G01X21343Y26276D01*
G01X21343Y25285D01*
G01X22436Y25285D01*
G37*
G36*
G01X25138Y25285D02*
G01X25138Y26276D01*
G01X24045Y26276D01*
G01X24045Y25285D01*
G01X25138Y25285D01*
G37*
G36*
G01X5473Y26285D02*
G01X6464Y26285D01*
G01X6464Y27378D01*
G01X5473Y27378D01*
G01X5473Y26285D01*
G37*
G36*
G01X5473Y23583D02*
G01X6464Y23583D01*
G01X6464Y24676D01*
G01X5473Y24676D01*
G01X5473Y23583D01*
G37*
G36*
G01X40144Y26285D02*
G01X41135Y26285D01*
G01X41135Y27378D01*
G01X40144Y27378D01*
G01X40144Y26285D01*
G37*
G36*
G01X40144Y23583D02*
G01X41135Y23583D01*
G01X41135Y24676D01*
G01X40144Y24676D01*
G01X40144Y23583D01*
G37*
G36*
G01X6757Y10346D02*
G01X10257Y10346D01*
G01X10257Y14545D01*
G01X6757Y14545D01*
G01X6757Y10346D01*
G37*
G36*
G01X36732Y10346D02*
G01X40232Y10346D01*
G01X40232Y14545D01*
G01X36732Y14545D01*
G01X36732Y10346D01*
G37*
G36*
G01X36615Y26070D02*
G01X36615Y27269D01*
G01X34615Y27269D01*
G01X34615Y26070D01*
G01X36615Y26070D01*
G37*
G36*
G01X36615Y23570D02*
G01X36615Y24769D01*
G01X34615Y24769D01*
G01X34615Y23570D01*
G01X36615Y23570D01*
G37*
G36*
G01X30915Y28570D02*
G01X30915Y29769D01*
G01X28915Y29769D01*
G01X28915Y28570D01*
G01X30915Y28570D01*
G37*
G36*
G01X30915Y26070D02*
G01X30915Y27269D01*
G01X28915Y27269D01*
G01X28915Y26070D01*
G01X30915Y26070D01*
G37*
G36*
G01X30915Y23570D02*
G01X30915Y24769D01*
G01X28915Y24769D01*
G01X28915Y23570D01*
G01X30915Y23570D01*
G37*
G36*
G01X36615Y28570D02*
G01X36615Y29769D01*
G01X34615Y29769D01*
G01X34615Y28570D01*
G01X36615Y28570D01*
G37*
M00*
M02*
